<svg width="174" height="51" viewBox="0 0 174 51" fill="none" xmlns="http://www.w3.org/2000/svg">
<path d="M91.7188 31.6311C91.7188 30.9139 92.3015 30.3311 93.0637 30.3311C93.8258 30.3311 94.4086 30.9139 94.4086 31.6311C94.4086 32.3484 93.8258 32.9761 93.0637 32.9761C92.3015 32.9761 91.7188 32.3933 91.7188 31.6311ZM91.9878 31.6311C91.9878 32.2139 92.4809 32.7071 93.1085 32.7071C93.6913 32.7071 94.1844 32.2588 94.1844 31.6311C94.1844 31.0483 93.6913 30.6 93.1085 30.6C92.4361 30.6 91.9878 31.0932 91.9878 31.6311Z" fill="#E31837"/>
<path d="M93.7437 32.3964H93.4747L93.0264 31.7239H92.7575V32.3964H92.5781V30.917H93.2506C93.3851 30.917 93.5196 30.917 93.6092 31.0067C93.7437 31.0515 93.7886 31.186 93.7886 31.3205C93.7886 31.5895 93.5644 31.7239 93.2954 31.7239L93.7437 32.3964ZM93.0264 31.5446C93.2506 31.5446 93.5196 31.5895 93.5196 31.3205C93.5196 31.1411 93.3402 31.0963 93.1609 31.0963H92.7575V31.5446H93.0264Z" fill="#E31837"/>
<path d="M86.6617 32.9746C96.0761 24.9051 109.301 17.0597 116.564 14.2354C115.443 13.5181 113.695 12.487 111.722 11.3662C102.352 14.4595 91.4137 21.3186 81.6406 29.0743C83.2994 30.3296 85.0478 31.6297 86.6617 32.9746Z" fill="#E31837"/>
<path d="M82.3636 11.0558C80.9739 10.3834 79.4496 9.75574 78.284 9.21777C74.7424 10.9662 70.1249 13.6112 64.2969 17.7804C65.5521 18.4529 66.8971 19.2598 68.3316 20.0668C72.8147 16.7493 77.3426 13.6112 82.3636 11.0558Z" fill="#012169"/>
<path d="M90.7804 7.19385C89.0768 6.2524 83.1592 4.0557 79.0796 3.11426C77.8692 3.56256 76.1656 4.23502 75 4.72816C76.4794 5.13164 81.9936 6.61105 86.7008 8.98707C87.9112 8.40428 89.6148 7.68699 90.7804 7.19385Z" fill="#E31837"/>
<path d="M70.7161 6.62012C65.471 9.04097 59.9568 12.3584 56.9531 14.2862C58.0291 14.7793 59.105 15.1828 60.5844 15.9001C67.2193 11.417 72.4197 8.68233 74.4819 7.78571C73.0025 7.24775 71.6128 6.8891 70.7161 6.62012Z" fill="#012169"/>
<path d="M94.6796 5.80885C95.8901 5.40537 97.2798 5.04673 98.4902 4.68808C94.9935 3.20867 90.6 1.63959 86.6549 0.65332C86.0273 0.832643 84.1444 1.32578 82.8443 1.72926C84.1893 2.13273 88.6275 3.16384 94.6796 5.80885ZM72.5781 22.6652C74.0127 23.517 75.5369 24.6826 77.0163 25.6688C86.8343 18.0476 96.5177 12.1748 107.143 8.85733C105.663 8.09521 104.363 7.42275 102.704 6.6158C96.3384 8.2297 85.4445 12.5783 72.5781 22.6652Z" fill="#E31837"/>
<path d="M0 50.4116H4.84272C7.29435 50.4116 8.44449 49.1404 8.44449 47.3547C8.44449 45.9019 7.68782 44.9333 6.11393 44.6306C7.50621 44.2977 8.14182 43.4502 8.14182 42.2093C8.14182 40.6354 6.99168 39.3642 4.54005 39.3642H0.030267V50.4116H0ZM4.20711 45.7203C5.11512 45.7203 5.75073 46.1743 5.75073 47.0823C5.75073 48.0508 5.14539 48.4443 4.20711 48.4443H2.63323V45.69H4.20711V45.7203V45.7203ZM3.90444 41.3013C4.81245 41.3013 5.44806 41.6948 5.44806 42.6028C5.44806 43.5108 4.84272 43.9042 3.90444 43.9042H2.63323V41.3013H3.90444ZM18.2207 39.3339H15.4967L11.3501 50.4116H14.1044L14.8611 48.1114H18.8563L19.613 50.4116H22.3976L18.2207 39.3339ZM16.8587 41.9974L18.1602 46.0835H15.4967L16.8587 41.9974ZM36.1993 39.3339H33.6872V46.7493L28.9655 39.3339H26.1507V50.4116H28.6628V43.0265L33.3845 50.4116H36.1993V39.3339ZM47.7916 50.4116L44.1595 44.782V50.4116H41.4658V39.3339H44.1595V44.6609L47.61 39.3339H50.6064L46.9744 44.6609L50.9393 50.4116H47.7916ZM60.4734 44.8728C60.4734 47.0823 61.8052 48.4443 63.5304 48.4443C65.2556 48.4443 66.5874 47.0823 66.5874 44.8728C66.5874 42.6633 65.2556 41.3013 63.5304 41.3013C61.8052 41.3013 60.4734 42.6633 60.4734 44.8728ZM57.6283 44.8728C57.6586 41.6342 59.9286 39.0918 63.5304 39.0918C67.1322 39.0918 69.4022 41.6342 69.4325 44.8728C69.4022 48.1114 67.1322 50.6538 63.5304 50.6538C59.9286 50.6538 57.6586 48.1114 57.6283 44.8728ZM73.1251 50.4116H75.8188V46.0532H79.3298V43.9345H75.8188V41.4526H80.0562L80.5405 39.3339H73.1251V50.4116V50.4116ZM93.1013 39.3339H90.3772L86.2307 50.4116H88.985L89.7416 48.1114H93.7369L94.4936 50.4116H97.2781L93.1013 39.3339ZM91.7393 41.9974L93.0407 46.0835H90.3772L91.7393 41.9974ZM113.259 39.3339H110.111L107.236 45.3268L104.361 39.3339H101.213V50.4116H103.634V42.9962L107.206 50.4116L110.777 42.9962V50.4116H113.289L113.259 39.3339ZM118.495 50.4116H126.062V48.293H121.189V45.8111H125.033V43.7529H121.189V41.4526H125.638L126.123 39.3339H118.495V50.4116ZM136.323 50.4116H139.258L136.504 45.7203C138.017 45.2965 138.744 44.2372 138.744 42.6936C138.744 40.6959 137.533 39.3642 134.809 39.3642H130.542V50.4419H133.175V46.0835H133.901L136.323 50.4116ZM134.295 41.3921C135.415 41.3921 135.99 41.8764 135.99 42.8146C135.99 43.7529 135.415 44.2372 134.295 44.2372H133.144V41.3921H134.295ZM143.284 50.4116H145.978V39.3642H143.284V50.4116ZM159.235 47.4455C158.206 48.1719 157.298 48.414 156.359 48.414C154.301 48.414 152.848 46.9915 152.848 44.8728C152.848 42.7541 154.271 41.3315 156.268 41.3315C157.176 41.3315 158.084 41.5737 159.083 42.3001V39.7879C158.175 39.2734 157.116 39.0615 155.936 39.0615C152.273 39.0615 149.973 41.604 149.943 44.8425C149.973 48.1114 152.213 50.6235 155.936 50.6235C157.176 50.6235 158.236 50.4116 159.204 49.8971V47.4455H159.235ZM169.102 39.3339H166.378L162.231 50.4116H164.985L165.742 48.1114H169.737L170.494 50.4116H173.279L169.102 39.3339ZM167.74 41.9974L169.041 46.0835H166.378L167.74 41.9974Z" fill="#012169"/>
</svg>
