<svg width="116" height="36" viewBox="0 0 116 36" fill="none" xmlns="http://www.w3.org/2000/svg">
<rect width="115.2" height="36" rx="6" fill="url(#paint0_linear_496_341)"/>
<path d="M101.194 5.40039C98.8649 5.40039 96.9317 6.07719 95.5997 7.35879C94.1597 8.84919 93.6953 10.5484 93.6953 14.3464V21.9928C93.6953 25.7908 94.1597 27.49 95.6033 28.984C96.9281 30.262 98.8649 30.9388 101.194 30.9388C103.523 30.9388 105.406 30.262 106.738 28.9804C108.178 27.5404 108.643 25.8916 108.643 21.9928V14.3464C108.643 10.4512 108.196 8.81679 106.738 7.35519C105.406 6.07719 103.491 5.40039 101.194 5.40039ZM104.294 22.2916C104.294 25.5316 103.322 26.9896 101.144 26.9896C98.9657 26.9896 98.0441 25.5496 98.0441 22.2916V14.0476C98.0441 10.8076 98.9981 9.34959 101.144 9.34959C103.351 9.34959 104.294 10.7536 104.294 14.0476V22.2916Z" fill="white"/>
<path d="M14.483 5.40039C11.6966 5.40039 9.57975 6.27879 8.36295 7.92039C7.23975 9.43239 6.84375 11.1604 6.84375 14.5768V21.7768C6.84375 25.1428 7.23975 26.8744 8.36295 28.3864C9.58335 30.046 11.7038 30.9064 14.483 30.9064C16.9778 30.9064 18.9253 30.1504 20.2681 28.6564C21.4813 27.3424 21.9781 25.6216 21.9781 22.7092V21.91H17.633V22.4896C17.633 25.5604 16.6322 26.9896 14.483 26.9896C13.277 26.9896 12.2762 26.4532 11.801 25.5496C11.3258 24.646 11.1854 23.5732 11.1854 21.1828V15.196C11.1854 10.768 11.9882 9.34959 14.483 9.34959C16.643 9.34959 17.633 10.732 17.633 13.6984V14.3968H21.9781V13.45C21.9781 10.57 21.4993 8.93559 20.2681 7.60359C18.9577 6.14199 17.0102 5.40039 14.483 5.40039Z" fill="white"/>
<path d="M85.3376 24.7828C84.9164 26.248 83.9264 26.9932 82.3928 26.9932C80.4344 26.9932 79.5524 26.0968 79.2356 23.7964C79.1384 23.0764 79.0952 21.514 79.0916 21.4492V21.3556L79.1744 21.3124L89.8412 15.52V14.8468C89.8412 11.0596 89.3696 9.24159 87.98 7.64679C86.7056 6.17799 84.74 5.40039 82.2452 5.40039C79.9484 5.40039 78.0332 6.07719 76.7048 7.35879C75.1892 8.82399 74.75 10.3936 74.75 14.3464V21.7444C74.75 24.9844 75.1748 26.86 76.2728 28.4044C77.4932 30.0604 79.61 30.9244 82.3928 30.9244C85.5212 30.9244 87.7928 29.794 88.9592 27.6556C89.6792 26.4784 89.834 25.2832 89.888 21.9316H85.5428C85.5392 23.5696 85.496 24.2248 85.3376 24.7828ZM79.0952 13.4896C79.0952 10.4764 80.0528 9.19119 82.2956 9.19119C84.4556 9.19119 85.4132 10.3828 85.4816 13.1764V13.27L85.3988 13.3132L79.0916 16.762V13.4896H79.0952Z" fill="white"/>
<path d="M63.3135 5.40527H63.1911C60.9483 5.42687 59.1771 6.01008 57.9279 7.14048L57.8271 7.23048L57.7263 7.14048C56.4735 6.01008 54.7059 5.42687 52.4631 5.40527H52.3407C49.6119 5.43047 47.5383 6.30527 46.3395 7.92527C45.2595 9.46607 44.8203 11.3345 44.8203 14.5817V30.4217H49.1655V14.8913C49.1655 14.8193 49.2087 13.2605 49.3095 12.5405C49.6191 10.2653 50.4867 9.36888 52.4019 9.34728C54.3171 9.32568 55.1883 10.2617 55.4979 12.5405C55.5951 13.2605 55.6383 14.8193 55.6419 14.8877V30.4361H60.0195V14.8913C60.0195 14.8229 60.0627 13.2605 60.1635 12.5405C60.4731 10.2653 61.3407 9.36888 63.2559 9.34728C65.1711 9.32568 66.0423 10.2617 66.3519 12.5405C66.4491 13.2605 66.4923 14.8229 66.4959 14.8877V30.4361H70.8411V14.5961C70.8411 11.3561 70.4163 9.48048 69.3219 7.93608C68.1159 6.29088 66.0531 5.43047 63.3135 5.40527Z" fill="white"/>
<path d="M33.253 5.40039C30.1246 5.40039 27.853 6.53079 26.6866 8.66919C25.9666 9.84639 25.8118 11.0416 25.7578 14.3932H30.103C30.103 12.7624 30.157 12.1108 30.3082 11.5564C30.7294 10.0912 31.7194 9.34599 33.253 9.34599C35.2114 9.34599 36.0934 10.2424 36.4102 12.5428C36.5074 13.2628 36.5506 14.8252 36.5542 14.89V14.9836L36.4714 15.0268L25.8046 20.8192V21.4924C25.8046 25.2796 26.2762 27.0976 27.6658 28.6924C28.9402 30.1612 30.9058 30.9388 33.4006 30.9388C35.6974 30.9388 37.6126 30.262 38.941 28.9804C40.4566 27.5152 40.8958 25.9456 40.8958 21.9928V14.5948C40.8958 11.3548 40.471 9.47919 39.373 7.93479C38.1562 6.28959 36.0358 5.40039 33.253 5.40039ZM36.5326 22.8496C36.5326 25.8628 35.575 27.148 33.3322 27.148C31.1722 27.148 30.2146 25.9564 30.1462 23.1628V23.0656L30.229 23.0224L36.5326 19.57V22.8496Z" fill="white"/>
<defs>
<linearGradient id="paint0_linear_496_341" x1="-5.184" y1="18" x2="123.264" y2="18" gradientUnits="userSpaceOnUse">
<stop stop-color="#020205"/>
<stop offset="1" stop-color="#661E85"/>
</linearGradient>
</defs>
</svg>
