<svg xmlns="http://www.w3.org/2000/svg" xml:space="preserve" style="enable-background:new 0 0 652 652" viewBox="0 0 652 652"><path d="M104.2 321.2c0-23.1 19-41.8 42.8-41.8 24 0 43 18.7 43 41.8 0 22.9-19 42-43 42-23.8-.1-42.8-19.1-42.8-42zm65.2 0c0-11.6-10-21.7-22.4-21.7-12.2 0-22.3 10.2-22.3 21.7 0 11.7 10 21.9 22.3 21.9 12.4 0 22.4-10.2 22.4-21.9zm366.5.7c0-25.3 20.6-42.5 39.3-42.5 12.7 0 20 3.9 25 11.4l2-9.9h19.1v80.7h-19.1l-2.5-8.3c-5.6 6.1-12.6 9.9-24.5 9.9-18.4-.1-39.3-16.2-39.3-41.3zm65.3-.2c0-12.2-10.1-22.2-22.3-22.2-12.3 0-22.3 10.1-22.3 22.3v.1c0 11.2 10 21.2 22.3 21.2 12.2 0 22.3-10 22.3-21.4zm-88.8-31.4V281h-20.9v80.7h20.9v-43.5c0-13.1 6.5-19.9 17.7-19.9.7 0 1.4.1 2.1.1l3.9-19.5c-10.9 0-18.8 3.8-23.7 11.4zm-209.9 0V281h-20.9l.2 80.7h20.9l-.1-43.5c0-13.1 6.4-19.9 17.6-19.9.7 0 1.4 0 2.1.1l3.9-19.5c-11 0-18.9 3.8-23.7 11.4zm-105.3 40.1V281h20.9v46.9c0 10.4 5.8 16.5 15.8 16.5 11.2 0 17.7-6.8 17.7-19.9V281h20.9v80.7h-20.9v-9.3c-4.9 7.6-12.9 11.4-24 11.4-18.7-.1-30.4-13.7-30.4-33.4zm203.5-9.1c0-22.6 16.2-41.9 41.9-41.9 23.8 0 40.6 19.1 40.5 41.6 0 2.2-.2 4.4-.5 6.6l-61.5-.1c2.4 9.7 10.3 16.7 22.4 16.7 7.3 0 15.1-2.7 19.9-8.8l14.3 11.4c-7.3 10.4-20.3 16.4-34 16.4-24.4-.1-43.1-18.3-43-41.9zm61.3-8.4c-1.2-8.2-9.7-14.5-19.7-14.5-9.7 0-17.5 5.7-20.6 14.4l40.3.1zM326.3 344l18.6-9.7c3.1 6.7 9.2 10.6 17.9 10.6 8 0 11.1-2.6 11.1-6.1 0-13-44-5.1-44-34.8 0-16.4 14.3-25.1 32.1-25.1 13.5 0 25.4 6 31.9 17.1l-18.4 9.7c-2.7-5.5-7.8-8.5-14.3-8.5-6.3 0-9.4 2.2-9.4 6 0 12.6 44 4.6 44 34.8 0 15.7-12.8 25.2-33.4 25.2-17.7-.1-30-5.9-36.1-19.2zM21.2 321.2c0-23.3 19-42 42.8-42 14.5-.1 28.1 7.1 36.2 19.2l-17.8 10.3c-4.2-6-11-9.5-18.3-9.5-12.2 0-22.3 10.2-22.3 21.9s10 21.9 22.3 21.9c7.7 0 14.8-3.9 18.9-10.4l17.7 10.5c-8 12.4-21.8 20-36.5 19.9-24 .1-43-18.9-43-41.8zm0 0" style="fill:#23263b"/></svg>