<svg width="120" height="21" viewBox="0 0 120 21" fill="none" xmlns="http://www.w3.org/2000/svg">
<path d="M91.5859 0.967773V16.5083C91.5859 17.5218 92.0589 18.0624 93.0724 18.0624H98.2076V19.8191C98.2076 20.0218 98.0724 20.157 97.8697 20.157H89.5589C86.9913 20.157 86.5859 18.738 86.5859 17.4543V2.04885C86.5859 1.30561 86.8562 0.967773 87.7346 0.967773H91.5859Z" fill="black"/>
<path d="M82.0574 0.967773V19.1434C82.0574 19.9543 81.7196 20.157 81.0439 20.157H77.125V1.98129C77.125 1.37318 77.3277 0.967773 78.2061 0.967773H82.0574Z" fill="black"/>
<path d="M0.703125 3.60291C0.703125 2.11642 0.703125 0.967773 3.13556 0.967773H13.6761V2.7921C13.6761 2.92723 13.6085 3.06237 13.4058 3.06237H7.05448C6.24367 3.06237 5.83826 3.46777 5.83826 4.34615V9.21102H13.2707V11.1705C13.2707 11.3732 13.1356 11.4407 13.0004 11.4407H5.83826V19.1434C5.83826 19.8867 5.43285 20.157 4.62204 20.157H0.703125V3.60291Z" fill="black"/>
<path d="M21.3102 0.967958V15.6301C21.3102 16.9139 21.5129 17.7923 22.3913 18.2653C23.5399 18.9409 25.5669 18.9409 26.7832 18.2653C27.594 17.7923 27.9318 17.049 27.9318 15.6301V1.9139C27.9318 1.3058 28.1345 0.967958 29.0129 0.967958H32.8642V15.1571C32.8642 18.468 30.7696 19.8193 28.9453 20.2923C26.5129 20.968 22.7967 20.968 20.4994 20.2923C17.7291 19.4815 16.4453 17.8599 16.4453 15.1571V1.9139C16.4453 1.3058 16.648 0.900391 17.3913 0.900391H21.3102" fill="black"/>
<path d="M114.346 0.967773C113.4 0.967773 112.792 1.44075 112.59 2.31912L109.481 15.5624H109.414L106.103 0.967773H101.711C100.833 0.967773 100.562 1.37318 100.562 2.11642V20.2245H102.454C102.725 20.2245 102.86 20.0894 102.86 19.7516V4.54885H103.13L107.117 20.157H109.752C110.765 20.157 111.103 19.7516 111.373 18.8056L114.954 4.54885H115.225V20.157H118.738C119.617 20.157 119.954 19.8191 119.954 19.0083V0.967773H114.346Z" fill="black"/>
<path d="M56.1746 11.373H51.2422V20.1568H55.1611C55.8368 20.1568 56.1746 19.9541 56.1746 19.1433C56.1746 19.1433 56.1746 15.4271 56.1746 11.373Z" fill="black"/>
<path d="M55.9044 7.65696C56.1071 7.52183 56.1746 7.38669 56.1746 7.11642V0.967773H52.3233C51.4449 0.967773 51.2422 1.37318 51.2422 1.98129V11.3056L55.9044 7.65696Z" fill="#FB0020"/>
<path d="M39.0118 18.6705C41.174 18.4002 41.8497 17.1164 41.8497 15.2245V1.98129C41.8497 1.17048 42.2551 0.967773 42.7956 0.967773H46.7145V13.4678C46.7145 16.5083 46.0388 18.0624 44.2821 19.4137C43.3361 20.0894 41.7145 20.9002 38.0659 20.9002C36.0389 20.9002 35.0929 20.7651 34.9578 20.7651C34.7551 20.6975 34.6875 20.6299 34.6875 20.4948V18.8732C35.701 18.8056 37.5929 18.8732 39.0118 18.6705Z" fill="black"/>
<path d="M63.6753 0.967773C61.2428 0.967773 61.2428 2.18399 61.2428 3.60291V8.53534C61.2428 8.67048 61.1753 8.67048 61.1753 8.73804L57.7969 11.3732H61.2428V20.157H65.1617C65.9726 20.157 66.378 19.8867 66.378 19.1434V11.3732H73.5401C73.6753 11.3732 73.8104 11.3056 73.8104 11.1029V9.14345H66.378V4.27858C66.378 3.40021 66.7834 2.9948 67.6617 2.9948H74.0131C74.2158 2.9948 74.2834 2.85967 74.2834 2.72453V0.967773H63.6753Z" fill="black"/>
</svg>
