<?xml version="1.0" encoding="UTF-8"?><svg id="Layer_1" xmlns="http://www.w3.org/2000/svg" xmlns:xlink="http://www.w3.org/1999/xlink" viewBox="0 0 1328.1 845"><defs><style>.cls-1,.cls-2,.cls-3,.cls-4,.cls-5,.cls-6,.cls-7,.cls-8,.cls-9,.cls-10,.cls-11,.cls-12,.cls-13,.cls-14,.cls-15,.cls-16,.cls-17,.cls-18,.cls-19,.cls-20,.cls-21{fill:none;}.cls-2{clip-path:url(#clippath-8);}.cls-3{clip-path:url(#clippath-7);}.cls-4{clip-path:url(#clippath-6);}.cls-5{clip-path:url(#clippath-9);}.cls-6{clip-path:url(#clippath-5);}.cls-7{clip-path:url(#clippath-3);}.cls-8{clip-path:url(#clippath-4);}.cls-9{clip-path:url(#clippath-2);}.cls-10{clip-path:url(#clippath-1);}.cls-22{fill:#009925;}.cls-23{fill:#68230e;}.cls-24{fill:#f29900;}.cls-25{fill:#eaad94;}.cls-26{fill:#f5f5f5;}.cls-27{fill:#ea4335;}.cls-28{fill:#fff;}.cls-29{fill:#ffc105;}.cls-30{fill:#3369e8;}.cls-31{fill:#aaa;}.cls-32{fill:#c18053;}.cls-33{fill:#db4437;}.cls-34{fill:#e0e0e0;}.cls-35{fill:#174417;}.cls-36{fill:#072560;}.cls-37{fill:#a46347;}.cls-38{fill:#493626;}.cls-39{fill:#616161;}.cls-11{clip-path:url(#clippath-13);}.cls-12{clip-path:url(#clippath-14);}.cls-13{clip-path:url(#clippath-12);}.cls-14{clip-path:url(#clippath-11);}.cls-15{clip-path:url(#clippath-18);}.cls-16{clip-path:url(#clippath-19);}.cls-17{clip-path:url(#clippath-17);}.cls-18{clip-path:url(#clippath-16);}.cls-19{clip-path:url(#clippath-10);}.cls-20{clip-path:url(#clippath-15);}.cls-21{clip-path:url(#clippath);}</style><clipPath id="clippath"><path class="cls-1" d="m831.1,521.6h-380.8c-2.5,0-4.5-2-4.5-4.5,0-.3,0-.7.1-1l28.9-132.9c.5-2.1,2.3-3.6,4.5-3.6h380.7c2.5,0,4.6,2,4.6,4.5,0,.3,0,.7-.1,1l-29,132.9c-.4,2.1-2.3,3.6-4.4,3.6Z"/></clipPath><clipPath id="clippath-1"><path class="cls-1" d="m831.1,521.6h-380.8c-2.5,0-4.5-2-4.5-4.5,0-.3,0-.7.1-1l28.9-132.9c.5-2.1,2.3-3.6,4.5-3.6h380.7c2.5,0,4.6,2,4.6,4.5,0,.3,0,.7-.1,1l-29,132.9c-.4,2.1-2.3,3.6-4.4,3.6Z"/></clipPath><clipPath id="clippath-2"><path class="cls-1" d="m831.1,521.6h-380.8c-2.5,0-4.5-2-4.5-4.5,0-.3,0-.7.1-1l28.9-132.9c.5-2.1,2.3-3.6,4.5-3.6h380.7c2.5,0,4.6,2,4.6,4.5,0,.3,0,.7-.1,1l-29,132.9c-.4,2.1-2.3,3.6-4.4,3.6Z"/></clipPath><clipPath id="clippath-3"><path class="cls-1" d="m810.9,588.4c0,84.2-80.4,152.5-179.6,152.5s-179.6-68.3-179.6-152.5c0-49.4,27.7-93.4,70.7-121.2,30.2-19.6,68-31.2,108.9-31.2,99.2,0,179.6,68.2,179.6,152.4Z"/></clipPath><clipPath id="clippath-4"><path class="cls-1" d="m810.9,588.4c0,84.2-80.4,152.5-179.6,152.5s-179.6-68.3-179.6-152.5c0-49.4,27.7-93.4,70.7-121.2,30.2-19.6,68-31.2,108.9-31.2,99.2,0,179.6,68.2,179.6,152.4Z"/></clipPath><clipPath id="clippath-5"><path class="cls-1" d="m810.9,588.4c0,84.2-80.4,152.5-179.6,152.5s-179.6-68.3-179.6-152.5c0-49.4,27.7-93.4,70.7-121.2,30.2-19.6,68-31.2,108.9-31.2,99.2,0,179.6,68.2,179.6,152.4Z"/></clipPath><clipPath id="clippath-6"><path class="cls-1" d="m548.8,611.6c0,13.2-11,24-24.6,24s-24.6-10.7-24.6-24c0-7.5,3.6-14.6,9.7-19,4.3-3.2,9.6-4.9,14.9-4.9,13.5,0,24.6,10.7,24.6,23.9Z"/></clipPath><clipPath id="clippath-7"><path class="cls-1" d="m548.8,611.6c0,13.2-11,24-24.6,24s-24.6-10.7-24.6-24c0-7.5,3.6-14.6,9.7-19,4.3-3.2,9.6-4.9,14.9-4.9,13.5,0,24.6,10.7,24.6,23.9Z"/></clipPath><clipPath id="clippath-8"><path class="cls-1" d="m548.8,611.6c0,13.2-11,24-24.6,24s-24.6-10.7-24.6-24c0-7.5,3.6-14.6,9.7-19,4.3-3.2,9.6-4.9,14.9-4.9,13.5,0,24.6,10.7,24.6,23.9Z"/></clipPath><clipPath id="clippath-9"><polygon class="cls-1" points="932.6 731.5 936 790 965.2 790 971.9 732.4 932.6 731.5"/></clipPath><clipPath id="clippath-10"><polygon class="cls-1" points="932.6 731.5 936 790 965.2 790 971.9 732.4 932.6 731.5"/></clipPath><clipPath id="clippath-11"><polygon class="cls-1" points="932.6 731.5 936 790 965.2 790 971.9 732.4 932.6 731.5"/></clipPath><clipPath id="clippath-12"><polygon class="cls-1" points="932.6 731.5 936 790 965.2 790 971.9 732.4 932.6 731.5"/></clipPath><clipPath id="clippath-13"><polygon class="cls-1" points="978.6 732 981.9 790.4 1011.1 790.4 1017.8 732.8 978.6 732"/></clipPath><clipPath id="clippath-14"><polygon class="cls-1" points="978.6 732 981.9 790.4 1011.1 790.4 1017.8 732.8 978.6 732"/></clipPath><clipPath id="clippath-15"><polygon class="cls-1" points="978.6 732 981.9 790.4 1011.1 790.4 1017.8 732.8 978.6 732"/></clipPath><clipPath id="clippath-16"><polygon class="cls-1" points="978.6 732 981.9 790.4 1011.1 790.4 1017.8 732.8 978.6 732"/></clipPath><clipPath id="clippath-17"><path class="cls-1" d="m953.5,211.9s-9.2-78.5-10-85.2,1-29.4,29.2-32.6c30.1-3.3,40.1,17.5,40.1,30.1s4,40.4-1.7,51.8c-5.8,11.7-18.4,13.4-18.4,13.4l.8,11.7,9.2.8,10.9,9.2c.1,0-31.7,16.7-60.1.8Z"/></clipPath><clipPath id="clippath-18"><path class="cls-1" d="m953.5,211.9s-9.2-78.5-10-85.2,1-29.4,29.2-32.6c30.1-3.3,40.1,17.5,40.1,30.1s4,40.4-1.7,51.8c-5.8,11.7-18.4,13.4-18.4,13.4l.8,11.7,9.2.8,10.9,9.2c.1,0-31.7,16.7-60.1.8Z"/></clipPath><clipPath id="clippath-19"><path class="cls-1" d="m803,507h-96.4c-4.5,0-8.1-3.6-8.1-8.1,0-.6.1-1.2.2-1.8l21.3-94.6c.8-3.7,4.1-6.3,7.9-6.3h96.3c4.5,0,8.1,3.6,8.1,8.1,0,.6-.1,1.2-.2,1.8l-21.2,94.5c-.9,3.7-4.1,6.4-7.9,6.4Z"/></clipPath></defs><path class="cls-31" d="m378.6,807.7c-6.1,0-11.1-5-11.1-11.1,0-.8.1-1.7.3-2.5l103-456.5c1.1-5.1,5.6-8.6,10.8-8.6h398.4c3,0,5.7,1.1,7.8,3.2s3.2,4.9,3.2,7.8c0,.8-.1,1.7-.3,2.5l-103,456.5c-1.1,5.1-5.6,8.6-10.8,8.6h-398.3v.1Zm102.9-477.8c-4.8,0-8.9,3.3-10,8l-103,456.6c-.2.7-.3,1.5-.3,2.3,0,5.6,4.6,10.2,10.2,10.2h398.4c4.8,0,8.9-3.3,10-8l103-456.5c.2-.7.3-1.5.3-2.3,0-2.7-1.1-5.3-3-7.2-1.9-1.9-4.5-3-7.2-3h-398.4v-.1Z"/><circle class="cls-22" cx="498.5" cy="355.8" r="10.4"/><path class="cls-28" d="m536.5,346.2h314.1c5.1,0,9.2,4.1,9.2,9.2h0c0,5.1-4.1,9.2-9.2,9.2h-314.1c-5.1,0-9.2-4.1-9.2-9.2h0c0-5.1,4.1-9.2,9.2-9.2Z"/><path class="cls-31" d="m850.6,365.2h-314.1c-5.4,0-9.8-4.4-9.8-9.8s4.4-9.8,9.8-9.8h314.1c5.4,0,9.8,4.4,9.8,9.8s-4.4,9.8-9.8,9.8Zm-314.1-18.4c-4.7,0-8.6,3.8-8.6,8.6s3.8,8.6,8.6,8.6h314.1c4.7,0,8.6-3.8,8.6-8.6s-3.8-8.6-8.6-8.6h-314.1Z"/><path class="cls-24" d="m831.1,521.6h-380.8c-2.5,0-4.5-2-4.5-4.5,0-.3,0-.7.1-1l28.9-132.9c.5-2.1,2.3-3.6,4.5-3.6h380.7c2.5,0,4.6,2,4.6,4.5,0,.3,0,.7-.1,1l-29,132.9c-.4,2.1-2.3,3.6-4.4,3.6Z"/><path class="cls-31" d="m800.2,659.4h-380.8c-2.5,0-4.5-2-4.5-4.6,0-.3,0-.6.1-1l18.9-87.8c.5-2.1,2.3-3.6,4.5-3.6h380.8c2.5,0,4.6,2,4.6,4.5,0,.3,0,.6-.1,1l-18.9,87.8c-.7,2.3-2.5,3.7-4.6,3.7Z"/><path class="cls-31" d="m586.7,555.9c-.7,0-1.4-.6-1.4-1.4v-.4l4.3-20c.1-.7.7-1.2,1.4-1.2h87c.8-.1,1.4.6,1.5,1.4v.4l-4.3,20c-.1.7-.7,1.2-1.4,1.2h-87.1c.1,0,0,0,0,0Zm4.4-22.2c-.3,0-.5.2-.6.5l-4.3,20.1v.2c0,.3.3.6.6.6h87c.3,0,.5-.2.6-.5l4.3-20.1v-.2c0-.3-.3-.5-.6-.6h-87Z"/><rect class="cls-31" x="411.2" y="692.2" width="382.6" height="1.2"/><rect class="cls-31" x="402.4" y="720.6" width="382.6" height="1.2"/><rect class="cls-31" x="393.7" y="749" width="382.6" height="1.2"/><path class="cls-35" d="m708.5,807.7c23.3,0,42.2-19.8,42.2-43.1s-18.9-42.2-42.1-42.2c-13,0-25.2,6-33.2,16.2-14.7-6.8-32.1-1.7-40.9,11.9-19.1-24.5-54.4-28.9-79-9.8-13.1,10.2-21,25.7-21.7,42.3-1.9-.3-3.8-.5-5.7-.5-15.1,0-28,10.6-31,25.4l211.4-.2Z"/><path class="cls-35" d="m570.5,807.6c3.5-10.2,13.2-17.1,24-16.9,10.5,0,20.8,8,24.6,17l-48.6-.1Z"/><path class="cls-35" d="m515.2,805.2c-.2,0-.5-.1-.6-.3l-19.2-22.6c-.3-.4-.3-.9.1-1.2s.9-.3,1.2.1l19.2,22.6c.3.4.3.9-.1,1.2-.2.1-.4.2-.6.2Z"/><path class="cls-35" d="m524,791.4c-.4,0-.8-.3-.8-.7l-1.7-15c-.1-.5.3-.9.7-.9.5,0,.9.3.9.7l1.7,15c.1.5-.3.9-.8.9h0Z"/><polygon class="cls-31" points="734.8 693.2 800.5 739.5 814 683.1 734.8 693.2"/><g class="cls-21"><circle class="cls-28" cx="544.4" cy="445.2" r="25.9"/></g><g class="cls-10"><path class="cls-30" d="m810.9,588.4c0,84.2-80.4,152.5-179.6,152.5s-179.6-68.3-179.6-152.5c0-49.4,27.7-93.4,70.7-121.2,30.2-19.6,68-31.2,108.9-31.2,99.2,0,179.6,68.2,179.6,152.4Z"/></g><g class="cls-9"><g class="cls-7"><path class="cls-34" d="m584.3,389.8c-1.8,3.9-2.3,8.7-1.5,14.1,1.1,6.7,4.3,12.5,7.5,18.1,6.9,12.1,12.8,22.6-6.6,38.6-11.7,9.7-16.4,17.9-20.9,25.9-2.5,4.7-5.3,9.1-8.6,13.3-4.2,5.3-6.6,15.1-9.2,25.5-3.6,14.6-7.4,29.7-15.6,29.7-.5,0-1-.1-1.5-.2-1.3-.2-2.7-.4-4-.4-10.9,0-19.5,8-21.6,15.6-1.7,6.3.8,11.9,6.9,15.4,3.8,2.2,9.6,3.3,17.7,3.3s16.8-1,25.4-2c6.4-.9,12.9-1.4,19.4-1.6,5.5,0,7.4.9,8.1,1.6,2.2,2.5,1.7,7.7.9,14.2-1.1,10.5-2.7,24.8,5.5,40.6,6.4,12.4,20.9,20.8,32.6,27.6,8.7,5,16.8,9.8,17.1,13.8.1,1.5-1,3.2-3.3,5-2.5,1.9-7.9,3-15.1,3-18,0-51.4-7-82-22.3-15.8-7.9-28.7-16.9-38.5-26.7-11.1-11.2-17.7-23.2-19.6-35.7-4.6-30-4.1-69.4,1.4-105.4,5.3-34.7,14.4-60.9,23.9-68.5,22.9-18.3,52.1-34.2,74.3-40.4,3.1-.7,5.5-1.5,7.3-2.1m4.7-3.8c-.2,0-3,1.7-12.4,4.4-24.5,6.9-54,24-74.9,40.7s-35.9,110.3-25.9,175.5c8.4,54.9,101.6,86,141.8,86,7.5,0,13.2-1.1,16.1-3.3,18.4-14.2-32.6-22.6-45.9-48.5s0-47.6-6.7-55.1c-1.4-1.6-4.8-2.2-9.3-2.2-11.3,0-30.1,3.6-44.8,3.6-6.9,0-12.9-.8-16.9-3.1-14.7-8.6-2.1-28,13.9-28,1.2,0,2.5.1,3.7.3.6.1,1.2.2,1.8.2,15.8,0,16.1-43.2,26.1-55.8,10.3-13,11.3-24.1,29.2-39,29.5-24.4,3-37.4-.3-58.3-2.1-12.8,4.8-17.4,4.5-17.4Z"/></g><g class="cls-8"><path class="cls-34" d="m624.5,490.4c-1.8,0-2.8-.9-3.4-1.7-3-4.2-.5-15.5,3.8-23.5,1.8-3.4,5.6-9,10-9h.2c1.5.1,4.2,1,4.5,6.7.6,9.5-5.6,26-14.2,27.5h-.9Zm10.4-32.6c-2.7,0-5.8,3-8.6,8.1-4.4,8.1-6.3,18.5-3.9,21.7.6.9,1.5,1.2,2.8,1,7.6-1.3,13.3-16.9,12.8-25.7-.1-1.9-.7-5-2.9-5.1h-.2Z"/></g><g class="cls-6"><path class="cls-34" d="m725.2,665c-19,0-38.1-27.6-52.7-48.7-7.5-10.8-13.9-20.1-18.7-23.7-8.9-6.7-8.1-14-6.9-17.8,2-6.1,9.2-13,15.7-13,4,0,15.2-8.6,27.2-17.6,14.2-10.8,30.4-23.1,39.5-24.9,3.6-.7,3.9-1.5,3.9-1.5,0-2.2-20-7.7-38-9.7-13.3-1.5-17,10.1-19.7,18.5-.7,2.2-1.3,4.1-2,5.5-1.6,3.2-4.3,5.4-7.7,6.3-4.1,1.1-8.6.2-12.8-2.6-6.2-4.1-17.9-20-15.7-27.3.4-1.5,1.6-3.2,4.7-3.6-1.1-2.4-3.1-8.2-.4-12.7,2.2-3.7,7-5.6,14.3-5.6,5,0,8.3-1,9.9-3,2.6-3.2,1.3-9.1-.2-15.9-1.3-6-2.8-12.9-2.3-20-2.1-1.9-5.5-3.2-9.1-4.6-8.2-3.1-18.4-7-18.4-20,0-3.2-.3-7.1-.7-11.2-1.1-13.5-2.4-28.8,5.7-35.9,4.1-3.6,10.4-4.6,18.6-3,17.4,3.6,24.3,8.2,27,11.6,5.8-4.5,12.7-7.3,20-8.1,30.5-4,47.3,6.2,70.7,20.3,5.6,3.4,11.3,6.9,17.8,10.5,15.4,8.7,32.5,32.1,45.5,62.6,12,28.1,17.2,54.3,13,65.2-6.7,17.2-28.8,13-46.6,9.6-6-1.1-11.6-2.2-15.7-2.2-7.1,0-7.9,9.3-8.9,20-.9,10.9-2,23.2-10.9,26.7-6.7,2.7-8.4,12.2-10.6,24.2-2.9,16-6.4,36-24.4,47.8-3.6,2.7-7.3,3.8-11.1,3.8Zm-32.3-158.7c.8,0,1.6,0,2.4.1,8.6.9,39.3,6,39.5,11.2.1,1.9-2.7,2.7-5.2,3.2-8.8,1.8-24.7,13.9-38.8,24.6-12.7,9.6-23.6,18-28.2,18s-11.9,5-14.1,11.8c-1.4,4.1-1.4,10.2,6.3,15.9,5.1,3.8,11.6,13.2,19.1,24.1,17.1,24.7,40.5,58.6,61.7,44.7,17.4-11.4,20.9-31,23.7-46.7,2.2-12.1,4-22.5,11.6-25.5,7.9-3.2,8.9-14.4,9.8-25.3,1-11.1,1.9-21.5,10.5-21.5,4.2,0,10,1.1,16,2.2,17.2,3.2,38.5,7.3,44.7-8.6,8.4-21.6-23.9-106.7-57.8-125.7h0c-6.5-3.7-12.3-7.2-17.9-10.5-23-13.9-39.7-24-69.6-20.1-7.3.8-14.2,3.7-19.9,8.3l-.7.6-.5-.8c-2-3.2-8.3-7.9-26.5-11.6-7.8-1.6-13.4-.8-17.1,2.6-7.4,6.6-6.1,22.1-5.1,34.5.3,4.1.7,8.1.7,11.4,0,11.9,9.2,15.4,17.3,18.4,4,1.5,7.7,2.9,10,5.2l.3.3v.4c-.6,7,.9,13.9,2.2,19.9,1.6,7.3,2.9,13.5-.2,17.3-2,2.5-5.6,3.6-11.2,3.6-6.7,0-11,1.6-12.9,4.8-2.9,4.9.9,12.1,1,12.2l.7,1.2h-1.4c-2.5,0-4,.9-4.4,2.5-1.8,6.3,9.3,21.5,15,25.4,3.8,2.5,7.8,3.4,11.4,2.4,2.9-.8,5.2-2.7,6.6-5.4.7-1.3,1.2-3.1,1.9-5.3,2.6-8,6.4-19.8,19.1-19.8Z"/></g></g><rect class="cls-28" x="488.74" y="464.79" width="24.6" height="1.7" transform="translate(-118.42 175.58) rotate(-17.81)"/><rect class="cls-28" x="501.9" y="420.97" width="1.7" height="22.6" transform="translate(-46.18 804.15) rotate(-74.8)"/><rect class="cls-28" x="526.52" y="396.5" width="1.7" height="22.1" transform="translate(-121.85 256.81) rotate(-24.63)"/><rect class="cls-28" x="557.29" y="405.88" width="23.6" height="1.7" transform="translate(-77.53 673.52) rotate(-57.97)"/><rect class="cls-28" x="578.5" y="432.2" width="21.3" height="1.7" transform="translate(-73.45 123.87) rotate(-11.3)"/><path class="cls-35" d="m468.4,807.8c-.4,0-.8-.3-.8-.8l-7.2-70.7c0-.5.3-.9.7-.9.5,0,.9.3.9.7l7.2,70.7c.1.6-.2,1-.8,1,.1,0,0,0,0,0Z"/><path class="cls-35" d="m437.4,807.8h-.1c-.4-.1-.6-.3-.7-.7l-5-30.3c-.1-.5.2-.9.7-1s.9.2,1,.7l4.6,27.7,5.6-11.7c.2-.4.7-.6,1.1-.4.4.2.6.7.4,1.1l-6.7,14.1c-.3.3-.6.5-.9.5Z"/><path class="cls-28" d="m559.9,611.6c0,19.2-16,34.8-35.8,34.8s-35.7-15.6-35.7-34.8c0-10.9,5.3-21.2,14.1-27.6,6.3-4.6,13.9-7.1,21.7-7.1,19.7-.1,35.7,15.5,35.7,34.7Z"/><path class="cls-30" d="m548.8,611.6c0,13.2-11,24-24.6,24s-24.6-10.7-24.6-24c0-7.5,3.6-14.6,9.7-19,4.3-3.2,9.6-4.9,14.9-4.9,13.5,0,24.6,10.7,24.6,23.9Z"/><g class="cls-4"><path class="cls-34" d="m516.8,581.3v1.4c.2,1.1.6,2.1,1.1,3,.9,1.9,1.6,3.2-.8,5.4-1.3,1.2-2.3,2.6-3,4.2-.3.7-.7,1.4-1.1,2-.7,1.3-1.1,2.7-1.4,4.2-.3,1.4-.9,4.2-1.5,4.2h-.1c-.2-.1-.5-.1-.7-.1-1.6.1-3,1.2-3.5,2.7-.4,1.2,0,2.5,1.1,3.2.8.5,1.8.7,2.8.6,1.2,0,2.4-.1,3.6-.3.9-.1,1.7-.2,2.6-.2.2,0,.4,0,.6.1.1.6.1,1.2,0,1.8-.4,2.2-.1,4.5.8,6.7.9,2.1,3,3.5,4.7,4.6.8.5,2.1,1.4,2.1,1.7,0,0,0,.1-.3.3-.5.3-1.1.4-1.7.3-4.9,0-17.5-4.5-18.6-12.8-1.4-10.2.8-24.5,3.3-26.8,3-2.7,6.3-4.8,10-6.2m1.5-1.5c-.5.3-1.1.5-1.7.7-3.8,1.4-7.3,3.6-10.3,6.4-2.9,2.6-4.9,17.3-3.5,27.6,1.2,8.7,14,13.6,19.5,13.6.8.1,1.6-.1,2.2-.5,2.5-2.2-4.5-3.5-6.3-7.6s0-7.5-.9-8.7c-.2-.3-.7-.3-1.3-.3-1.6,0-4.1.6-6.1.6-.8.1-1.6-.1-2.3-.5-2-1.3-.3-4.4,1.9-4.4h.7c2.2,0,2.2-6.8,3.6-8.8s1.5-3.8,4-6.1c4-3.8.4-5.9,0-9.2-.3-1-.1-2,.5-2.8h0Z"/></g><g class="cls-3"><path class="cls-34" d="m523.2,596.5c-.3,0-.5-.1-.7-.4-.6-.8-.1-3.1.6-4.3.5-.9,1-1.3,1.5-1.3.2,0,.8.1.9,1.2.1,1.5-.7,4.5-2.2,4.8h-.1Zm1.4-5.1c-.2,0-.7.5-1.1,1.6-.5,1.4-.5,2.5-.3,2.6.5-.1,1-.9,1.3-2.1.3-1,.3-1.9.1-2.1h0Zm0,0h0Z"/></g><g class="cls-2"><path class="cls-34" d="m537,623.9h-.5c-2.6-.5-5-4.5-7-7.8-1-1.6-1.9-3.1-2.5-3.6-.5-.4-.9-1.1-1-1.7-.3-1.6.7-3.2,2.4-3.6.5,0,2.3-1.6,3.6-2.7,2.1-1.8,4.2-3.7,5.6-4h0c-.8-.4-2.9-.9-4.7-1.2-1.4-.2-1.9,1.1-2.4,2.7-.1.4-.2.7-.3.9s-.2.5-.4.7c-.4.4-.9.6-1.4.6h0c-.5,0-1.1-.2-1.4-.6-.8-.6-2.6-3.3-2.2-4.6.1-.2.2-.5.5-.6-.2-.5-.3-1.4.1-2.1.4-.6,1.1-.9,2.2-.9.5,0,.9-.1,1.1-.3.3-.4.2-1.3,0-2.3-.2-.9-.4-2-.3-3.1-.3-.2-.7-.4-1.1-.6-1.1-.5-2.7-1.2-2.7-3.4,0-.5,0-1.1-.1-1.7-.2-2.3-.3-4.8,1-6,.6-.5,1.5-.7,2.7-.4,1.8.4,3,1,3.7,1.7.8-.6,1.7-1,2.7-1.1,4.2-.6,6.6,1,9.9,3.2.8.5,1.6,1.1,2.5,1.6h0c4.9,3.2,9.4,16.8,8.1,20.4-1,3-4.3,2.2-6.7,1.7-.8-.2-1.6-.3-2.1-.3-.6,0-.8,1.2-.9,2.9-.1,1.8-.3,3.8-1.7,4.4-.8.4-1,1.9-1.3,3.6-.4,2.6-.9,5.8-3.4,7.7-.8.3-1.4.5-2,.5Zm-4.4-25.5h.4c.1,0,5.6.8,5.7,2,0,.6-.7.7-1,.8-1.1.3-3.4,2.2-5.2,3.8-2.1,1.8-3.3,2.9-4,2.9-1.1.2-1.9,1.4-1.6,2.6.1.5.4.9.8,1.3.7.6,1.6,2.1,2.7,3.8,1.8,2.9,4.2,7,6.4,7.4.6.1,1.1,0,1.6-.4,2.3-1.7,2.7-4.7,3.1-7.1.3-2,.6-3.7,1.8-4.2.9-.4,1.1-2.2,1.2-3.7.1-1.8.3-3.7,1.7-3.7.6,0,1.4.2,2.3.4,2.8.6,5.1.9,5.8-1.2,1.1-3.3-3.2-16.5-7.8-19.4-.9-.6-1.7-1.1-2.5-1.7-3.2-2.2-5.4-3.7-9.3-3.1-1,.1-1.8.6-2.6,1.2l-.4.4-.3-.5c-.2-.4-.9-1.1-3.4-1.7-.9-.2-1.5-.1-2,.3-1,.9-.8,3.3-.7,5.3,0,.7.1,1.3.1,1.8,0,1.7,1.1,2.1,2.2,2.6.6.3,1.1.5,1.5.9l.1.1v.2c-.1,1.1.1,2.1.3,3.1.2,1.2.4,2.3-.1,3-.3.4-.9.6-1.7.6-.7,0-1.2.2-1.5.5-.3.5,0,1.4.1,1.7l.3.6h-.7c-.3,0-.3.1-.3.1-.3.8,1.2,3.1,1.9,3.7.3.3.6.4.9.4h0c.3,0,.6-.1.8-.3.1-.1.2-.2.3-.4s.2-.5.3-.8c.2-1.2.8-3.3,2.8-3.3Zm5.3,1.9h0Z"/></g><path class="cls-28" d="m622.1,615.1h-65.3c-.7,0-1.3-.6-1.3-1.3s.6-1.3,1.3-1.3h65.3c.7,0,1.3.6,1.3,1.3s-.6,1.3-1.3,1.3Z"/><path class="cls-26" d="m19.9,588.4h302s0-18.7-13.1-14.4-22.7-33.1-39.4-33.1-23.9,8.6-23.9,8.6c0,0-13.2-21.5-33.5-18.7s-34.6-20.1-66.9-4.3c-19.8,9.7-29.8,40.3-29.8,40.3,0,0-13-15-28.7-15.8-26.3-1.4-40.6,28.8-46.6,28.8s-20.1,0-20.1,8.6Z"/><path class="cls-26" d="m427.2,110.8h132s-3.3-6.7-9.2-6.7c-3.1-.1-6.3.5-9.2,1.7,0,0-2.5-9.2-12.5-10-6.9-.6-11.7,2.5-12.5,1.7s-11.7-10-20-9.2c-6.7-4.2-15.9-7.5-25.1-1.7-5,3.3-8.6,8.4-10,14.2-3.5-2.1-7.7-2.7-11.7-1.7-6.7,1.7-6.7,5.8-10,5.8s-11.8.9-11.8,5.9Z"/><path class="cls-26" d="m19.4,222.3h66s-2.5-5.8-8.4-5.8c0,0-5-8.4-16.7-7.5s-12.5,7.5-12.5,7.5c0,0-7.5-2.5-11.7-.8s-5,3.3-7.5,3.3-9.2-.8-9.2,3.3Z"/><rect class="cls-31" x="161.51" y="123.92" width=".8" height="67.7" transform="translate(-23.21 28.01) rotate(-9.23)"/><path class="cls-35" d="m141.9,362.2c-8.5-1.3-15.8.4-17.9,3.9-4.5,7.5,1.4,23.6,21.5,31.5,22.8,9,37.9,4.3,37.9,4.3,0,0-1.7-17.9-21.5-31.5-3.2-2-6.5-3.7-10.1-5.1l-8.6,7.4-1.3-10.5Z"/><path class="cls-22" d="m125.9,720.6c-13.7,13.6-35.6,13.9-35.6,13.9,0,0,.3-21.9,14-35.5s35.6-13.9,35.6-13.9c0,0-.3,21.9-14,35.5Z"/><rect class="cls-22" x="1168.6" y="714.79" width="2.5" height="42.4" transform="translate(167.22 1687.28) rotate(-75.67)"/><rect class="cls-22" x="1175.11" y="734.02" width="12" height="2.5" transform="translate(-186.64 480.54) rotate(-21.35)"/><path class="cls-33" d="m173,111.6c3.4-4.7,2.4-11.2-2.3-14.6s-11.2-2.4-14.6,2.3c-1.2,1.6-1.9,3.6-2,5.7-1.8-5.5-7.6-8.5-13.1-6.8-5.5,1.8-8.5,7.6-6.8,13.1.6,1.9,1.8,3.6,3.3,4.9h0l13.9,12.3c3.1,2.7,7.8,2.4,10.6-.7.2-.2.4-.5.6-.7l10.4-15.5h0Z"/><circle class="cls-26" cx="184.7" cy="683" r="8.2"/><circle class="cls-26" cx="605.4" cy="268.8" r="6.5"/><circle class="cls-26" cx="1227.3" cy="338.1" r="10.6"/><circle class="cls-26" cx="1089.6" cy="730.2" r="4.9"/><polygon class="cls-33" points="936.8 188.5 952.3 187 952.7 206.6 938.7 199.6 936.8 188.5"/><path class="cls-26" d="m1077.1,470.1h244.8s-2.5-6.7-11.7-7.5-16.7-1.7-20.9-5.9c-4.2-4.2-15.9-16.7-30.9-15.9s-23.4,9.2-31.7,6.7-25.4-28.6-56.8-18.4c-30.9,10-32.6,31.8-32.6,31.8,0,0-10-11.7-20-10.9s-15.9,10-15.9,10c0,0-23.4-.8-24.3,10.1Z"/><path class="cls-22" d="m1206.1,602.6c2.4-5.7,2.5-10.7-.1-13.8-5.7-6.7-22.3-2.4-36.7,10.2-18.2,15.9-16.2,34.5-16.2,34.5,0,0,19,4.8,36.7-10.2,4.3-3.8,8.1-8.1,11.4-12.8l-8.1-7.5,13-.4Z"/><path class="cls-37" d="m940.6,207.3h72.7c8.3,0,15,6.7,15,15v190.5h-87.7v-205.5h0Z"/><polygon class="cls-25" points="932.6 731.5 936 790 965.2 790 971.9 732.4 932.6 731.5"/><g class="cls-5"><polygon class="cls-34" points="931 744.9 971.9 744.9 966 791.7 935.1 791.7 931 744.9"/></g><g class="cls-19"><rect class="cls-28" x="940.38" y="744.68" width=".8" height="14.4" transform="translate(-17.47 22.39) rotate(-1.35)"/></g><g class="cls-14"><polygon class="cls-28" points="959.8 759.1 959.4 744.7 960.3 744.7 960.6 759.1 959.8 759.1"/></g><g class="cls-13"><polygon class="cls-28" points="950.6 759.1 950.2 744.7 951.1 744.7 951.4 759.1 950.6 759.1"/></g><polygon class="cls-25" points="978.6 732 981.9 790.4 1011.1 790.4 1017.8 732.8 978.6 732"/><g class="cls-11"><polygon class="cls-34" points="976.9 745.3 1017.8 745.3 1012 792.1 981.1 792.1 976.9 745.3"/></g><g class="cls-12"><polygon class="cls-28" points="986.5 759.5 986.2 745.1 987 745.1 987.3 759.5 986.5 759.5"/></g><g class="cls-20"><rect class="cls-28" x="1005.48" y="745.08" width=".8" height="14.4" transform="translate(-17.46 23.93) rotate(-1.35)"/></g><g class="cls-18"><rect class="cls-28" x="996.28" y="745.09" width=".8" height="14.4" transform="translate(-17.51 23.78) rotate(-1.35)"/></g><polygon class="cls-36" points="909.2 389.9 909.2 562.8 929.3 723.2 1024.5 723.2 1037 617.9 1037 390.7 909.2 389.9"/><polygon class="cls-30" points="965.2 717.3 1032 717.3 1022.8 736.5 972.7 736.5 965.2 717.3"/><polygon class="cls-36" points="927.4 717.3 994.2 717.3 985 736.5 934.9 736.5 927.4 717.3"/><polygon class="cls-30" points="920.1 717.3 986.9 717.3 977.7 736.5 927.6 736.5 920.1 717.3"/><path d="m930.1,808.4s-.8-24.2-.8-26.7,3.5-6.2,5.9-2.7,7.4,8.6,14.1,8.6,14.2-12.5,19.2-12.5,46,16.7,55.1,20.9c2.1,1,5,5,2.5,11.7.1-.2-96,1.8-96,.7Z"/><path d="m976.9,808.4s-.8-24.2-.8-26.7,3.5-6.2,5.9-2.7,7.4,8.6,14.1,8.6,14.2-12.5,19.2-12.5,46,16.7,55.1,20.9c2.2,1,5,5,2.5,11.7.1-.2-96,1.8-96,.7Z"/><path class="cls-25" d="m953.5,211.9s-9.2-78.5-10-85.2,1-29.4,29.2-32.6c30.1-3.3,40.1,17.5,40.1,30.1s4,40.4-1.7,51.8c-5.8,11.7-18.4,13.4-18.4,13.4l.8,11.7,9.2.8,10.9,9.2c.1,0-31.7,16.7-60.1.8Z"/><path class="cls-25" d="m957.7,138.4c-1.7-1.7-11.9-4.8-16.7,0-4.2,4.2-2.5,16.7,10,20.9l6.7-20.9Z"/><path class="cls-25" d="m861.6,227l-24.2,10.9-59.3-80.2s0-10.9-8.4-10.9h-73.5s5.8,6.7,14.2,8.4,44.3,10,44.3,10c0,0,40.1,90.2,45.1,101.1s20.9,30.1,43.4,22.5,45.9-18.4,45.9-18.4l-27.5-43.4Z"/><rect x="976.1" y="442.9" width="37.6" height=".8"/><polygon points="979.8 717.4 979 717.3 992.4 621.2 992.3 443.1 993.2 443.1 993.2 621.3 979.8 717.4"/><polygon class="cls-30" points="946.9 717.5 935.5 569.5 935.5 390.1 936.4 390.1 936.4 569.5 947.7 717.4 946.9 717.5"/><path class="cls-23" d="m944.6,115.2s39-1.9,51.5-5.2,10.9-7.5,7.5-11.7-16.7-10.9-31.8-8.3-23.7,10.4-27.2,25.2"/><g class="cls-17"><path class="cls-37" d="m969.2,184s9,16.6,24.4,17.1v-15.1l-24.4-2Z"/></g><g class="cls-15"><path class="cls-23" d="m966.9,137.6c2.9,5.1,4.6,10.8,5,16.7,0,0,28-8.3,42.4-2.9,14.4,5.4.2,36.3-21.5,38s-34.2-5-36.8-23.4c0,0,5.8-5,5.8-12.5,0-4.8-.6-9.5-1.7-14.2l6.8-1.7Z"/></g><path class="cls-37" d="m953.1,151.8c-.1,0-.2,0-.3-.1l-8.4-7.5c-.2-.2-.2-.4,0-.6.2-.2.4-.2.6,0l8.4,7.5c.2.2.2.4,0,.6-.1,0-.2.1-.3.1Z"/><polygon points="1005.8 443.7 993.2 488 993.2 443.7 1005.8 443.7"/><path class="cls-24" d="m899.2,277.9v171.2s23.4.8,43.4-10,30.9-30.9,30.9-45.1v-151.2l-15-45.1-21.7-9.2v15h-14.2c-5.8,0-23.4,5.8-30.9,9.2s-30.1,14.3-30.1,14.3l23.9,57,13.7-6.1Z"/><polygon class="cls-37" points="837.4 237.8 844.3 251.1 846.8 233.7 837.4 237.8"/><rect class="cls-31" x="1189.5" y="108.7" width=".8" height="43.4"/><polygon class="cls-29" points="1184.9 84.4 1161.5 103.7 1174.1 81.1 1158.2 78.6 1177.4 75.3 1162.4 63.6 1178.2 66.1 1163.2 41 1184.9 66.9 1188.3 35.2 1193.3 66.9 1207.5 43.5 1199.1 71.9 1217.5 66.9 1201.6 80.3 1215 102 1194.1 86.1 1189.6 114.2 1184.9 84.4"/><path class="cls-25" d="m1073.8,237.3l45,29.3,48.6-87.8s-1.7-17.5-.8-20,11.7-14.2,14.2-15.9,18.4-4.2,19.2,1.7c0,0,4.2,2.5,7.5,10.9,3.3,8.4,6.7,27.6,0,30.1-6.7,2.5-20.2,11.4-20.2,11.4,0,0-30.9,87.5-39.2,102.9-11,20.4-35.9,11-50.1,1.9-9.7-6.3-50-29.6-50-29.6l25.8-34.9Z"/><path class="cls-26" d="m1077,147.2h71s-1.7-5-6.7-4.2c0,0-6.7-14.2-23.4-4.2,0,0-13.4-8.4-23.4,3.3,0,.1-12.5-4.9-17.5,5.1Z"/><path class="cls-24" d="m1037.9,282.9v156s-20-11.5-20-34.9v-159.5l-15-42.6h12.5c13.4,0,27.6,11.7,37.6,20,7,5.7,14.3,10.9,21.9,15.7l-30.3,49.4-6.7-4.1Z"/><polygon class="cls-37" points="1118.8 266.6 1112.4 278.4 1108.6 260.1 1118.8 266.6"/><polygon class="cls-24" points="1017.8 244.5 1006.8 193 992.8 189.4 993.6 201.1 1017.8 244.5"/><polygon class="cls-33" points="1037.9 282.9 1037.9 251.1 1057.3 264.3 1044.6 287.1 1037.9 282.9"/><polygon class="cls-33" points="899.2 277.9 921.8 268 899.2 299.2 899.2 277.9"/><polygon class="cls-34" points="298.6 787.5 297.7 753.2 327.8 753.2 323.6 786.7 298.6 787.5"/><path class="cls-39" d="m327.8,807.5s.8-17.5.8-20.9-.8-7.5-5.9-6.7-20,5.8-20,5.8c0,0-2.5-13.4-10.9-10-4.5,1.8-47.6,15.9-52.6,18.4-5,2.7-8.1,7.7-8.4,13.4h97Z"/><path d="m327.6,783.5l-31.3,15s-8.5,3.7-8.2,9.1h39.9l.8-19.2s.5-4.7-1.2-4.9Z"/><polygon class="cls-34" points="372.1 787.5 371.2 753.2 401.3 753.2 397.1 786.7 372.1 787.5"/><path class="cls-38" d="m302.3,169.1c-8.8-.8-20.1-5.6-18.5-16.9,1.5-10.3,29.7-26.5,38.5-31.3s31.8-8.8,41.7,0c14.4,12.8,12.8,32.1,20.9,44.1s41.7,12,59.4,20,21.7,23.3,21.7,23.3l-93.9,40.9-69.8-80.1Z"/><path class="cls-24" d="m340.9,206.4c-8.9,1.3-43.6,5.1-51.9,15.1s6.7,72.7,6.7,72.7l5.5,37.4c.3,2.3,2.3,3.9,4.6,3.9h72c2.6,0,4.8-1.9,5-4.5,1.1-11.9,4-43.8,5.7-52.6,2.6-13.4,4-25.9,5.2-35.8,2.5-19.4-17-31.1-17-31.1l-35.8-5.1Z"/><path class="cls-32" d="m255.1,247l-36.4,30.6-34.6-65.6s1.7-10,1.7-13.4-2.5-9.2-3.3-10.9-5.9-3.3-7.5-3.3-19.2,6.7-20.9,7.5-1.7,3.3-1.7,5.9,0,17.5,2.5,18.4,15,1.7,15,1.7c0,0,19.9,77.3,22.6,84.4,5.9,15.9,20.9,19.2,33.4,10.9,12.5-8.3,49.3-36,49.3-36l-20.1-30.2Z"/><path class="cls-32" d="m414.8,218.1l53.3,16.6,54.9-74.7s-4.2-10.9,0-13.4h68.5c-.8,4.4-4.1,7.9-8.3,9.2-7.5,2.5-40.1,8.4-40.1,8.4,0,0-40.3,83-44.4,92.2-3.9,8.7-16.3,15.9-36.3,10.9-11.6-2.9-53.3-12.9-53.3-12.9l5.7-36.3Z"/><path class="cls-30" d="m292.7,759.9s-6.7-224.7-6.7-253.1,2.4-96.9,3.3-104.4c2.9-23.8,15-58.5,15-58.5h74.4s27.1,48,28.4,79.4c.8,18.5,4.2,337.5,4.2,337.5l-53.5-.8s-4.2-127.8-5.9-145.3c-1.5-15.9-8.4-166.2-8.4-166.2,0,0-1.5,157.7-1.5,172.8,0,10.9.8,138.7.8,138.7h-50.1v-.1Z"/><path class="cls-39" d="m402.2,807.5s.8-17.5.8-20.9-.8-7.5-5.9-6.7-20,5.8-20,5.8c0,0-2.5-13.4-10.9-10-4.5,1.8-47.6,15.9-52.6,18.4-5,2.7-8.1,7.7-8.4,13.4h97Z"/><rect class="cls-23" x="304.4" y="335.6" width="74.4" height="8.4"/><rect x="324.5" y="335.6" width="11.7" height="8.4"/><path class="cls-39" d="m537.5,141.8h213.9l35.9-81.9s3.3,2.5.8,7.5-35.9,79.4-35.9,79.4h-208c-4.2,0-6.7-1.7-6.7-5Z"/><polygon class="cls-34" points="658.6 59.9 787.3 59.9 751.3 141.8 615.2 141.8 658.6 59.9"/><path class="cls-28" d="m677.4,67.4h94.4c1.2,0,2.1.9,2.1,2.1h0c0,1.2-.9,2.1-2.1,2.1h-94.4c-1.2,0-2.1-.9-2.1-2.1h0c0-1.2,1-2.1,2.1-2.1Z"/><circle class="cls-22" cx="664.5" cy="69.9" r="2.5"/><path class="cls-28" d="m756.9,111.7h-117.9c-1,0-1.8-.8-1.8-1.8,0-.3.1-.6.2-.8l14.8-27.4c.3-.6.9-.9,1.6-.9h114.9c1,0,1.8.8,1.8,1.8,0,.2,0,.5-.1.7l-11.8,27.4c-.4.6-1,1-1.7,1Z"/><path class="cls-24" d="m251.4,249.9s20.9-18.4,27.6-23.4,16.3-12,33.6-14.8l-1.9,39.8-38.4,27.6-20.9-29.2Z"/><path class="cls-24" d="m424.9,221.1s-25.9-10-40.9-11.7c-8.3-.9-20-2.5-32.6-.8l28.4,38.5,36.8,9.2,8.3-35.2Z"/><path class="cls-36" d="m395.6,738.6c-.2,0-.4-.2-.4-.4l-8.5-329.3c-16.5-3.7-21.4-34.3-21.6-35.6,0-.2.1-.4.4-.5.2,0,.4.1.5.4,0,.3,5,31.7,21.2,34.9l.3.1v.3l8.5,329.6c.1.3-.1.5-.4.5q.1,0,0,0Z"/><path class="cls-36" d="m343.7,421.2h-25.9c-.2,0-.4-.2-.4-.4s.2-.4.4-.4h25.9c.2,0,.4.2.4.4s-.2.4-.4.4Z"/><polygon class="cls-36" points="343.1 481.2 324.5 420.8 343.7 420.8 343.1 481.2"/><path class="cls-28" d="m339.3,340.1h-8.9c-.2,0-.4-.2-.4-.4s.2-.4.4-.4h8.9c.2,0,.4.2.4.4s-.1.4-.4.4Z"/><path class="cls-33" d="m289.9,266.8c-1.4-4.9,4.4-28.6,4.4-28.6l-14.7,35.4,10.3-6.8Z"/><polygon class="cls-33" points="393.2 249 380.8 245.6 386.2 292.3 393.2 249"/><polygon class="cls-23" points="218.8 277.6 223.1 286.3 227.6 270.2 218.8 277.6"/><polygon class="cls-23" points="468.1 234.8 462.1 245.1 455.7 231 468.1 234.8"/><path class="cls-32" d="m323.9,204.1c-12,1.6-25.7-4-25.7-28.1,0-13.6.9-32.3,10.4-38.9,20.9-14.4,44.9-2.4,44.9,24.9v49.9c0,7.7-6.2,13.9-13.9,13.9h-1.6c-7.4,0-13.6-5.9-13.9-13.3l-.2-8.4Z"/><path class="cls-38" d="m306.8,131.7c-8.7,5-15.2,32.9,28.9,29.7v7.2c0,6.4,2.4,8,6.4,7.2s4.8-7.2,8-8.8,14.5,0,14.5,0c0,0,2.4-20.9-4-30.5-6.4-9.6-37-14.5-53.8-4.8Z"/><path class="cls-32" d="m346.8,171.3c.1-5.3,6.8-12.6,13.2-9.4,5,2.5,6.7,15-9.2,20.9l-4-11.5Z"/><path class="cls-23" d="m323.9,204.1c5-.8,11.7-1.7,11.7-1.7l-11.7,10v-8.3Z"/><path class="cls-34" d="m609.4,693.3h332.7c2.3,0,4.2-1.6,4.7-3.8l19.5-94.7c.5-2.6-1.1-5.1-3.7-5.7-.3-.1-.6-.1-1-.1h-332.7c-2.3,0-4.2,1.6-4.7,3.8l-19.5,94.7c-.5,2.6,1.1,5.1,3.7,5.7.4,0,.7.1,1,.1Z"/><path class="cls-28" d="m713.7,655.9h194c8.3-.1,15.2-6.5,16-14.7h0c.8-7.3-4.5-13.8-11.7-14.6-.6-.1-1.1-.1-1.7-.1h-194c-8.3.1-15.2,6.5-16,14.7h0c-.8,7.3,4.4,13.8,11.7,14.6.6.1,1.1.1,1.7.1Z"/><ellipse class="cls-22" cx="669.57" cy="641.41" rx="18.5" ry="16.7" transform="translate(-257.43 661.32) rotate(-45)"/><path class="cls-28" d="m667,650.7l-7.5-8.6c-.3-.3-.3-.9.1-1.2.3-.3.9-.3,1.2.1l6.2,7.2,13-13.9c.3-.3.8-.4,1.2,0s.4.8,0,1.2l-14.2,15.2Z"/><path class="cls-28" d="m752.7,121.5h-117.8c-.2,0-.4-.2-.4-.4s.2-.4.4-.4h117.8c.2,0,.4.2.4.4s-.2.4-.4.4Z"/><path class="cls-28" d="m747.7,131.1h-117.8c-.2,0-.4-.2-.4-.4s.2-.4.4-.4h117.8c.2,0,.4.2.4.4s-.1.4-.4.4Z"/><path class="cls-30" d="m803,507h-96.4c-4.5,0-8.1-3.6-8.1-8.1,0-.6.1-1.2.2-1.8l21.3-94.6c.8-3.7,4.1-6.3,7.9-6.3h96.3c4.5,0,8.1,3.6,8.1,8.1,0,.6-.1,1.2-.2,1.8l-21.2,94.5c-.9,3.7-4.1,6.4-7.9,6.4Z"/><g class="cls-16"><rect class="cls-28" x="693.8" y="450.6" width="141.1" height="59.6"/></g><path class="cls-30" d="m733.7,490c1.1-.9,3.2-2.7,6.4-5.5,3.2-2.7,5.4-4.7,6.7-5.9,1.2-1.1,2.1-1.9,2.8-2.6s1.2-1.4,1.6-2.3c.4-.8.6-1.7.6-2.7,0-1.4-.5-2.6-1.3-3.4-.9-.9-2.1-1.3-3.7-1.3s-2.9.5-3.9,1.4-1.8,2-2.2,3.1l-3.3-1.5c.6-1.8,1.8-3.4,3.5-4.7,1.7-1.3,3.8-2,6.4-2,1.6,0,3.1.3,4.4,1,1.3.7,2.3,1.6,3,2.8.7,1.2,1.1,2.5,1.1,3.9s-.3,2.7-.9,3.9c-.6,1.2-1.3,2.3-2.2,3.3s-2.1,2.1-3.5,3.4l-10.6,9.1h14.3l-.6,3.6h-19.1l.5-3.6Z"/><path class="cls-30" d="m760.1,490c1.1-.9,3.2-2.7,6.4-5.5,3.2-2.7,5.4-4.7,6.7-5.9,1.2-1.1,2.1-1.9,2.8-2.6s1.2-1.4,1.6-2.3c.4-.8.6-1.7.6-2.7,0-1.4-.4-2.6-1.3-3.4-.9-.9-2.1-1.3-3.7-1.3s-2.9.5-3.9,1.4-1.8,2-2.2,3.1l-3.3-1.5c.6-1.8,1.8-3.4,3.5-4.7,1.7-1.3,3.8-2,6.4-2,1.6,0,3.1.3,4.4,1s2.3,1.6,3,2.8c.7,1.2,1.1,2.5,1.1,3.9s-.3,2.7-.9,3.9c-.6,1.2-1.3,2.3-2.2,3.3s-2.1,2.1-3.5,3.4l-10.6,9.1h14.3l-.6,3.6h-19.1l.5-3.6Z"/><path class="cls-28" d="m790.4,424.7h-40.5c-.5,0-.8-.4-.8-.8s.4-.8.8-.8h40.5c.5,0,.8.4.8.8s-.3.8-.8.8Z"/><path class="cls-36" d="m410.7,738.9h-53.3c-.2,0-.4-.2-.4-.4s.2-.4.4-.4h53.3c.2,0,.4.2.4.4s-.2.4-.4.4Z"/><path class="cls-36" d="m292.4,739.2c-.2,0-.4-.2-.4-.4s.2-.4.4-.4l50.1-.3c.2,0,.4.2.4.4s-.2.4-.4.4l-50.1.3h0Z"/><path class="cls-35" d="m851.9,808h-.2c-.5-.1-.7-.5-.6-1l32.2-142.4c.1-.5.6-.7,1-.6.5.1.7.5.6,1l-32.2,142.4c0,.3-.4.6-.8.6Z"/><path class="cls-35" d="m868.4,737c-.3,0-.5-.1-.7-.3-.3-.4-.2-.9.2-1.2l32.7-25c.4-.3.9-.2,1.2.2s.2.9-.2,1.2l-32.7,25c-.1,0-.3.1-.5.1Z"/><path class="cls-35" d="m824.3,806.8l-1.6-.3c0-.3,2.9-27.6-1.5-56.6-4.1-26.6-15.4-60.2-46.1-68.8-.4-.1-.7-.6-.6-1,.1-.4.6-.7,1-.6,25,7,41.3,31.3,47.3,70.2,2.6,17.2,2.7,33.7,2.3,44.6l22.6-113.1c.1-.5.5-.7,1-.7.5.1.7.5.7,1l-25.1,125.3Z"/><path class="cls-23" d="m173.6,200.6q-.1,0,0,0l-13.6-1.1c-.2,0-.4-.2-.4-.5,0-.2.2-.4.5-.4l13.5,1.1c.2,0,.4.2.4.5s-.2.4-.4.4Z"/><path class="cls-23" d="m173.7,205.2h0c-.2,0-14.2-.6-15.2-.7-1.2,0-4-.3-4.7-2.1-.6-1.6-1.7-5.4-1.7-5.5-.1-.2.1-.5.3-.5.2-.1.5.1.5.3,0,0,1.2,3.9,1.7,5.4.4,1.1,2.3,1.5,3.9,1.6,1,0,14.6.6,15.2.7.2,0,.4.2.4.4,0,.2-.2.4-.4.4Z"/><path class="cls-23" d="m173.5,210.2h0c-.2,0-14.2-.4-16-.5h-.4c-1.7-.1-3.2-.1-4.1-1.8-.3-.6-.6-1.2-1-1.7-.1-.2-.1-.5.1-.6.2-.1.4-.1.6.1.4.6.8,1.2,1,1.8.7,1.2,1.8,1.3,3.4,1.3h.4c1.8.1,15.8.5,15.9.5.2,0,.4.2.4.4.1.3-.1.5-.3.5Z"/><path class="cls-23" d="m157.4,215.5c-1.8-.1-3.4-1.1-4.4-2.6-.1-.2-.1-.5.1-.6.2-.1.5-.1.6.1.8,1.3,2.2,2.1,3.7,2.2l13.6-.7c.2,0,.4.2.4.4s-.2.4-.4.4l-13.6.8Z"/><path class="cls-32" d="m155,216.1s9.8,2.4,11.1,2.6,3.4-2.2.4-3.4"/><path class="cls-33" d="m922,413.3c-3.5,0-7-.9-9.9-2.8-4.8-3-7.5-8.1-7.5-13.9v-21.2l.2-.1,43-20.3v36.2c0,2.8-1.2,12.6-16.8,20-2.8,1.4-5.9,2.1-9,2.1Zm-16.5-37.4v20.7c0,5.6,2.5,10.3,7.1,13.2,5.2,3.3,12.1,3.5,18.2.6,15.2-7.2,16.3-16.6,16.3-19.3v-34.9l-41.6,19.7Z"/><rect class="cls-39" x="727.3" y="640.3" width="172.7" height="1"/><polygon class="cls-23" points="170.5 188.8 161.1 199.4 161.4 192.1 170.5 188.8"/><path class="cls-23" d="m168.8,199.7s1.7.5,2.7.7c1.2.2,1.9.3,2.2,1.4.4,1-.1,2.1-1,2.5q-.1,0-.2.1s-.6.8.2.8c1.6,0,2.9,3,.1,4.2-1,.4-.5.8-.5.8,0,0,1.9,3.6-3,3.9l5.7,2.1,2.3-15-3.3-4.8-5.2,3.3Z"/><path class="cls-23" d="m167.9,217.8c.4-1.1-.2-2.4-1.3-2.8l2.6-.3c0-.1-.2,2.2-1.3,3.1Z"/><path class="cls-23" d="m349.2,178.3c-.1,0-.2,0-.2-.1-.2-.1-.2-.4-.1-.6l7.8-11.1c.1-.2.4-.2.6-.1.2.1.2.4.1.6l-7.8,11.1c-.1.1-.2.2-.4.2Z"/><polygon class="cls-37" points="1199.8 146.3 1185.9 145.6 1176.5 151.8 1194.8 147.3 1199.8 146.3"/><path class="cls-37" d="m1177.9,157.9c-2,0-3.3-1.3-3.7-2.7-.4-1.3,0-3,1.7-3.8,1.4-.7,21.5-5,23.8-5.5l.2.9c-9,1.9-22.6,5-23.6,5.4-1.3.6-1.5,1.8-1.2,2.7.3,1.1,1.4,2.2,3.2,2,2.3-.3,11.1-2.2,18.5-3.8,2.9-.6,5.8-.1,8.3,1.5l1.3.8-.5.8-1.3-.8c-2.3-1.4-4.9-1.9-7.6-1.3-3.6.8-15.7,3.5-18.6,3.8-.2,0-.4,0-.5,0Z"/><path class="cls-37" d="m1177.6,164.8c-1,0-1.9-.4-2.6-1.2-.9-1-1.3-2.6-.8-3.9.3-.9,1.2-2.4,4-2.9l.2.9c-1.7.3-2.9,1.1-3.3,2.2-.3,1-.1,2.1.6,2.9.4.4,1.2,1.1,2.5.8,2.1-.5,14.3-2.6,20.3-3.6,2.1-.4,4.4-.2,6.5.4l2.6.8-.3.9-2.6-.8c-1.9-.6-4-.7-6-.4-6,1-18.2,3.2-20.2,3.6-.3.3-.6.3-.9.3Z"/><path class="cls-37" d="m1180.8,170.4c-1.8,0-2.9-1.4-3.2-2.7-.3-1.7.5-3.8,3-4.4l.2.9c-1.9.5-2.5,2.1-2.3,3.3.2,1.1,1.1,2.1,2.6,1.9,2.1-.3,18.5-1.6,21.8-1.7,2-.1,4,.3,5.8,1l-.4.9c-1.7-.7-3.6-1-5.4-1-3.1.1-19.7,1.5-21.7,1.7,0,.1-.2.1-.4.1Z"/><path class="cls-37" d="m1203.9,182.5l-.4-1c-.5-1.5-1.8-2.5-3.3-2.8l-12.3-2.3c-2.1-.4-3.3-2.2-3.4-3.9-.1-1.4.7-3,2.9-3.6l.2.9c-1.4.4-2.2,1.4-2.2,2.7.1,1.3,1,2.7,2.6,3l12.3,2.3c1.8.4,3.3,1.7,3.9,3.4l.4,1-.7.3Z"/><path class="cls-37" d="m1175,163l1.8,9.7,14.6,10.3,11-3.4s-.4-1.1-6.7-2.3-10-1.2-10.6-3.8c-.4-1.4,0-2.9,1-4,0,0-5.9,1.7-7.4-.2s0-4.9,0-4.9c0,0-3,.2-3.7-1.4Z"/><rect id="bounding_box" class="cls-1" x="669.02" y="761.81" width="19.99" height="19.99"/><rect class="cls-22" x="682.34" y="793.89" width=".54" height="3.95" transform="translate(151.63 -108.24) rotate(10.19)"/><polygon class="cls-22" points="683.26 797.77 682.79 797.52 684.65 794.03 685.12 794.28 683.26 797.77"/><path d="m686.09,793.62h-2.18c0,.6.49,1.09,1.09,1.09s1.09-.49,1.09-1.09Z"/><path d="m683.96,793.62h-2.18c0,.6.49,1.09,1.09,1.09s1.09-.49,1.09-1.09Z"/><rect x="680.4" y="793.04" width="5.89" height=".57"/><path class="cls-31" d="m683.18,793.32h.62s-1.02,1.01-1.02,1.01c0,0-.26.04-.44-.17l.84-.84Z"/><path class="cls-31" d="m685.34,793.32h.38v.24s-.78.77-.78.77c0,0-.26.04-.44-.17l.84-.84Z"/><path class="cls-31" d="m684.13,802.39s-.05,0-.07,0l-1.51-.43c-.13-.04-.21-.17-.17-.31.04-.13.18-.21.31-.17l1.26.36.55-2.21c.03-.13.17-.21.3-.18.13.03.21.17.18.3l-.62,2.46c-.02.07-.06.12-.12.15-.04.02-.08.03-.12.03Z"/><path class="cls-31" d="m684.83,800.13c-.08,0-.15-.04-.2-.1l-.48-.66c-.08-.11-.06-.27.05-.35.11-.08.27-.06.35.05l.48.66c.08.11.06.27-.05.35-.04.03-.1.05-.15.05Z"/><path class="cls-31" d="m684.75,800.05s-.09-.01-.14-.04c-.11-.08-.15-.23-.07-.34l.89-1.34c.08-.11.23-.15.34-.07.11.08.15.23.07.34l-.89,1.34c-.05.07-.13.11-.21.11Z"/><path class="cls-31" d="m684.88,800.01c-.11,0-.2-.07-.24-.18-.04-.13.03-.27.16-.31l1.31-.4c.13-.04.27.03.31.16.04.13-.03.27-.16.31l-1.31.4s-.05.01-.07.01Z"/><circle class="cls-31" cx="685.14" cy="800.27" r=".47"/><path class="cls-30" d="m680.63,797.58c.15-.35.43-.58.82-.58h2.81c.28,0,.48.29.36.55l-4,9.57c-.15.35-.5.58-.88.58h-2.73c-.28,0-.48-.28-.37-.54l3.99-9.58Z"/><path class="cls-22" d="m679.63,799.97c-.69-.68-1.65-1.09-2.69-1.08-2.1.02-3.78,1.74-3.76,3.83.02,2.06,1.69,3.72,3.74,3.75,0-.02,1.99-2.81,1.99-2.81,0,0,.72-3.69.72-3.69Z"/><path class="cls-22" d="m679.63,799.97s-2.71,6.5-2.71,6.5c.03,0,.07,0,.1,0,2.1-.02,3.78-1.74,3.76-3.83-.01-1.05-.45-1.99-1.15-2.67Z"/><path d="m683.31,798.17h-1.46c0,.4.33.73.73.73s.73-.33.73-.73Z"/><path class="cls-28" d="m682.77,798.17h-.39c0,.11.09.19.2.19s.2-.09.2-.19Z"/><path class="cls-28" d="m683.11,798.17h-.39c0,.11.09.19.2.19s.2-.09.2-.19Z"/><path class="cls-27" d="m682.26,798.82c.1.05.2.08.32.08s.22-.03.32-.08c-.07-.1-.18-.18-.32-.18s-.25.07-.32.18Z"/><path class="cls-22" d="m678,807.7c.7-2.9,1.1-5.9,1.1-8.9,0-16.9-13.7-30.7-30.7-30.7-4.7,0-9.4,1.1-13.6,3.2-2.4-13.4-15.2-22.3-28.5-19.9-13.4,2.4-22.3,15.2-19.9,28.5,2.4,13.4,15.2,22.3,28.5,19.9,1-.2,1.9-.4,2.9-.7.2,2.9.7,5.7,1.5,8.5l58.7.1Z"/><path class="cls-22" d="m766.38,807.72c2.4-4.2,3.7-9,3.7-13.9,0-14.6-11.8-26.4-26.4-26.4-13.4,0-24.7,10.1-26.2,23.4-2.9-1.8-6.3-2.8-9.8-2.8-10.3,0-18.9,9.2-18.9,19.6l77.6.1Z"/></svg>