<svg xmlns="http://www.w3.org/2000/svg" width="424" height="392" fill="none"><g filter="url(#a)"><rect width="303.752" height="205.263" x="101" y="169" fill="#fff" rx="14.388"/><path fill="#fff" d="M107.395 175.395h290.962v38.495H107.395z"/><circle cx="126.642" cy="194.642" r="12.393" stroke="#E06F5D" stroke-width=".918"/><path fill="#43556C" d="M150.165 189.125h1.049v4.946c0 .448-.088.83-.265 1.148a1.772 1.772 0 0 1-.739.729c-.318.166-.691.249-1.118.249a2.52 2.52 0 0 1-1.059-.215 1.741 1.741 0 0 1-.739-.623c-.18-.275-.269-.609-.269-1.001h1.045c0 .193.045.359.133.5a.94.94 0 0 0 .372.331c.159.077.34.115.545.115.222 0 .411-.046.565-.139a.908.908 0 0 0 .358-.419c.081-.184.122-.409.122-.675v-4.946zm4.704 7.082c-.491 0-.919-.112-1.285-.337a2.274 2.274 0 0 1-.851-.944c-.202-.404-.303-.876-.303-1.417 0-.542.101-1.017.303-1.423.202-.407.486-.723.851-.947.366-.225.794-.338 1.285-.338.49 0 .918.113 1.284.338.365.224.649.54.851.947.202.406.304.881.304 1.423 0 .541-.102 1.013-.304 1.417a2.274 2.274 0 0 1-.851.944c-.366.225-.794.337-1.284.337zm.003-.855c.318 0 .581-.084.79-.252a1.48 1.48 0 0 0 .464-.671c.102-.279.153-.587.153-.923 0-.334-.051-.64-.153-.92a1.507 1.507 0 0 0-.464-.678c-.209-.17-.472-.255-.79-.255-.32 0-.586.085-.797.255a1.528 1.528 0 0 0-.467.678c-.1.28-.15.586-.15.92 0 .336.05.644.15.923a1.5 1.5 0 0 0 .467.671c.211.168.477.252.797.252zm7.493-3.205-.923.163c-.039-.118-.1-.23-.184-.337a.906.906 0 0 0-.334-.262 1.212 1.212 0 0 0-.528-.102c-.288 0-.529.064-.722.194-.193.127-.289.292-.289.494 0 .175.064.315.194.422.129.107.338.194.626.262l.832.191c.481.111.84.283 1.076.514.236.232.354.533.354.903 0 .314-.091.593-.272.838-.18.243-.431.434-.753.572-.32.139-.692.208-1.114.208-.586 0-1.064-.125-1.434-.375a1.582 1.582 0 0 1-.681-1.073l.984-.149c.061.256.188.45.378.582.191.13.44.194.746.194.334 0 .601-.069.801-.208.2-.14.299-.312.299-.514a.536.536 0 0 0-.183-.412c-.121-.111-.306-.195-.556-.252l-.885-.194c-.489-.112-.85-.289-1.084-.532-.231-.243-.347-.55-.347-.923 0-.309.086-.579.259-.81.172-.232.411-.413.715-.542a2.609 2.609 0 0 1 1.046-.198c.565 0 1.01.123 1.335.368.325.243.54.569.644.978zm2.241-3.022v6.977h-1.019v-6.977h1.019zm1.37 6.977v-5.233h1.018v5.233h-1.018zm.514-6.04a.647.647 0 0 1-.456-.177.575.575 0 0 1-.188-.429c0-.168.063-.311.188-.429a.637.637 0 0 1 .456-.181c.177 0 .328.06.453.181a.565.565 0 0 1 .191.429.57.57 0 0 1-.191.429.636.636 0 0 1-.453.177zm2.893 2.933v3.107h-1.019v-5.233h.978v.852h.065c.12-.277.309-.5.565-.668.259-.168.585-.252.978-.252.356 0 .669.075.937.225.267.148.475.368.623.661.147.293.221.655.221 1.087v3.328h-1.018v-3.206c0-.379-.099-.675-.297-.889-.197-.216-.469-.323-.814-.323-.236 0-.446.051-.63.153a1.095 1.095 0 0 0-.432.449 1.482 1.482 0 0 0-.157.709zm7.334 3.107v-6.977h2.487c.541 0 .989.094 1.346.28.358.186.626.444.803.773.178.327.266.705.266 1.134a2.3 2.3 0 0 1-.269 1.128 1.815 1.815 0 0 1-.804.753c-.356.179-.805.269-1.345.269h-1.884v-.906h1.788c.341 0 .618-.049.831-.147a.968.968 0 0 0 .474-.426c.1-.186.15-.41.15-.671 0-.263-.051-.491-.153-.684a.99.99 0 0 0-.474-.443c-.213-.105-.494-.157-.841-.157h-1.322v6.074h-1.053zm3.444-3.148 1.724 3.148h-1.199l-1.69-3.148h1.165zm4.796 3.253c-.491 0-.919-.112-1.285-.337a2.274 2.274 0 0 1-.851-.944c-.202-.404-.303-.876-.303-1.417 0-.542.101-1.017.303-1.423.202-.407.486-.723.851-.947.366-.225.794-.338 1.285-.338.49 0 .918.113 1.284.338.365.224.649.54.851.947.202.406.303.881.303 1.423 0 .541-.101 1.013-.303 1.417a2.274 2.274 0 0 1-.851.944c-.366.225-.794.337-1.284.337zm.003-.855c.318 0 .581-.084.79-.252a1.47 1.47 0 0 0 .463-.671c.103-.279.154-.587.154-.923 0-.334-.051-.64-.154-.92a1.497 1.497 0 0 0-.463-.678c-.209-.17-.472-.255-.79-.255-.32 0-.586.085-.797.255a1.528 1.528 0 0 0-.467.678c-.1.28-.15.586-.15.92 0 .336.05.644.15.923a1.5 1.5 0 0 0 .467.671c.211.168.477.252.797.252zm5.531.852c-.422 0-.799-.108-1.131-.324a2.212 2.212 0 0 1-.777-.93c-.186-.404-.279-.889-.279-1.454 0-.566.094-1.049.283-1.451.191-.402.452-.71.783-.923a2.037 2.037 0 0 1 1.128-.321c.324 0 .586.055.783.164.2.107.354.231.463.375.112.143.198.269.259.378h.062v-2.593h1.018v6.977h-.995v-.815h-.085c-.061.112-.15.239-.265.382a1.496 1.496 0 0 1-.47.375c-.2.106-.459.16-.777.16zm.225-.869c.293 0 .54-.077.742-.231.205-.157.359-.374.464-.651a2.7 2.7 0 0 0 .16-.967c0-.364-.053-.682-.157-.954a1.403 1.403 0 0 0-.46-.637 1.21 1.21 0 0 0-.749-.228c-.307 0-.562.079-.767.238a1.464 1.464 0 0 0-.463.651 2.652 2.652 0 0 0-.153.93c0 .349.052.664.156.943a1.5 1.5 0 0 0 .464.664c.206.162.461.242.763.242zm6.014 2.838c-.415 0-.773-.055-1.073-.164a2.08 2.08 0 0 1-.729-.433 1.81 1.81 0 0 1-.422-.589l.876-.361c.061.1.143.206.245.317.104.113.245.21.422.289.18.08.41.12.692.12.386 0 .705-.095.957-.283.252-.186.378-.484.378-.892v-1.029h-.065c-.061.111-.15.235-.266.371-.113.136-.27.254-.47.354-.199.1-.459.15-.78.15a2.18 2.18 0 0 1-1.117-.289 2.061 2.061 0 0 1-.783-.862c-.191-.382-.286-.851-.286-1.407s.094-1.033.282-1.431c.191-.397.452-.701.784-.912a2.031 2.031 0 0 1 1.127-.321c.325 0 .587.055.787.164.2.107.355.231.467.375.113.143.201.269.262.378h.075v-.849h.998v5.348c0 .45-.104.819-.313 1.107a1.844 1.844 0 0 1-.849.641 3.28 3.28 0 0 1-1.199.208zm-.01-2.995a1.3 1.3 0 0 0 .743-.204c.204-.138.359-.336.463-.593.107-.259.16-.568.16-.93a2.53 2.53 0 0 0-.157-.929 1.379 1.379 0 0 0-.459-.627 1.214 1.214 0 0 0-.75-.228c-.306 0-.562.079-.766.238-.205.157-.359.37-.463.64a2.533 2.533 0 0 0-.154.906c0 .343.052.644.157.903.104.259.259.461.463.606.207.146.461.218.763.218zm5.992 1.029c-.516 0-.96-.11-1.332-.33a2.244 2.244 0 0 1-.858-.937c-.2-.404-.3-.878-.3-1.42 0-.536.1-1.009.3-1.417a2.33 2.33 0 0 1 .844-.958c.364-.229.788-.344 1.274-.344.296 0 .582.049.859.147.277.097.525.251.746.46.22.209.394.48.521.814.127.331.191.734.191 1.209v.361h-4.159v-.763h3.161c0-.268-.055-.505-.164-.712a1.237 1.237 0 0 0-1.148-.674c-.286 0-.536.07-.749.211-.211.138-.375.32-.491.545-.113.222-.17.464-.17.725v.597c0 .349.061.647.184.892.125.245.299.433.521.562.223.127.483.191.78.191.193 0 .369-.027.528-.082a1.09 1.09 0 0 0 .678-.664l.964.174a1.75 1.75 0 0 1-.416.746 2.007 2.007 0 0 1-.746.493 2.785 2.785 0 0 1-1.018.174zm3.375-.105v-5.233h.984v.832h.055c.095-.282.263-.503.504-.665.243-.163.517-.245.824-.245a3.895 3.895 0 0 1 .433.024v.974a1.818 1.818 0 0 0-.218-.037 2.075 2.075 0 0 0-.314-.024c-.24 0-.455.051-.644.153a1.142 1.142 0 0 0-.606 1.025v3.196h-1.018zm7.602-3.955-.923.163c-.039-.118-.1-.23-.184-.337a.906.906 0 0 0-.334-.262 1.212 1.212 0 0 0-.528-.102c-.289 0-.529.064-.722.194-.193.127-.29.292-.29.494 0 .175.065.315.194.422.13.107.339.194.627.262l.831.191c.482.111.84.283 1.077.514.236.232.354.533.354.903 0 .314-.091.593-.273.838-.179.243-.43.434-.752.572a2.781 2.781 0 0 1-1.114.208c-.586 0-1.064-.125-1.434-.375a1.584 1.584 0 0 1-.682-1.073l.985-.149c.061.256.187.45.378.582.191.13.439.194.746.194.334 0 .601-.069.8-.208.2-.14.3-.312.3-.514a.533.533 0 0 0-.184-.412c-.12-.111-.305-.195-.555-.252l-.886-.194c-.488-.112-.849-.289-1.083-.532-.231-.243-.347-.55-.347-.923 0-.309.086-.579.259-.81.172-.232.411-.413.715-.542a2.606 2.606 0 0 1 1.046-.198c.565 0 1.01.123 1.335.368.325.243.539.569.644.978z"/><rect width="35.789" height="18.395" x="317.748" y="185.445" fill="#FFC5BC" rx="3.197"/><path fill="#A34E14" d="M324.831 197.645v-6.977h2.67c.504 0 .923.08 1.257.239.336.157.587.371.753.644.168.272.252.581.252.926 0 .284-.055.527-.164.729-.109.2-.255.362-.439.487a1.846 1.846 0 0 1-.616.269v.068c.247.014.484.09.711.229.23.136.417.329.562.579.146.25.218.552.218.906 0 .361-.087.686-.262.974-.175.286-.438.512-.79.678-.352.166-.795.249-1.329.249h-2.823zm1.263-1.056h1.36c.458 0 .789-.088.991-.263a.86.86 0 0 0 .306-.681 1.045 1.045 0 0 0-.589-.954 1.454 1.454 0 0 0-.674-.146h-1.394v2.044zm0-2.954h1.251a1.4 1.4 0 0 0 .589-.119.99.99 0 0 0 .412-.344.921.921 0 0 0 .153-.531.865.865 0 0 0-.286-.668c-.188-.175-.469-.262-.841-.262h-1.278v1.924zm8.321 1.809v-3.032h1.233v5.233h-1.195v-.93h-.055a1.57 1.57 0 0 1-.582.718c-.268.187-.599.28-.992.28-.342 0-.646-.076-.909-.229a1.58 1.58 0 0 1-.613-.671c-.148-.295-.222-.651-.222-1.069v-3.332h1.233v3.141c0 .332.091.595.273.79.182.196.42.293.715.293.182 0 .358-.044.528-.133.171-.088.31-.22.419-.395.112-.177.167-.398.167-.664zm6.636-1.649-1.124.123a.879.879 0 0 0-.48-.562 1.148 1.148 0 0 0-.484-.092c-.256 0-.472.056-.647.167-.172.111-.258.255-.255.433a.45.45 0 0 0 .167.371c.115.095.306.174.572.235l.892.191c.495.106.863.276 1.104.507.243.232.366.535.368.91a1.42 1.42 0 0 1-.29.872c-.188.249-.45.445-.787.586a2.99 2.99 0 0 1-1.158.211c-.64 0-1.156-.134-1.546-.402a1.614 1.614 0 0 1-.698-1.128l1.202-.116c.055.237.17.415.347.535.178.121.408.181.692.181.293 0 .528-.06.705-.181.179-.12.269-.269.269-.446a.463.463 0 0 0-.174-.371c-.113-.098-.29-.173-.531-.225l-.892-.187c-.502-.105-.874-.281-1.114-.528-.241-.25-.36-.566-.358-.947a1.342 1.342 0 0 1 .262-.838c.18-.239.428-.423.746-.552.321-.132.69-.198 1.107-.198.614 0 1.096.131 1.448.392.354.261.573.614.657 1.059zm1.896 5.812c-.168 0-.324-.014-.467-.041a1.743 1.743 0 0 1-.337-.089l.286-.96c.18.052.34.077.481.074a.59.59 0 0 0 .371-.132c.109-.084.201-.225.276-.423l.105-.282-1.897-5.342h1.308l1.206 3.952h.054l1.21-3.952h1.311l-2.095 5.866a2.346 2.346 0 0 1-.388.712 1.57 1.57 0 0 1-.593.456 1.965 1.965 0 0 1-.831.161z"/><path fill="#fff" d="M353.538 185.445h37.789v18.395h-37.789z"/><path fill="#A1AFC3" d="m361.063 190.668 2.071 5.873h.082l2.071-5.873h.885l-2.561 6.977h-.872l-2.562-6.977h.886zm7.726 7.086c-.473 0-.887-.113-1.244-.338a2.295 2.295 0 0 1-.831-.943c-.197-.404-.296-.877-.296-1.417 0-.545.099-1.021.296-1.428.2-.406.477-.722.831-.946a2.282 2.282 0 0 1 1.244-.338c.472 0 .885.113 1.239.338.357.224.634.54.832.946.199.407.299.883.299 1.428 0 .54-.1 1.013-.299 1.417a2.262 2.262 0 0 1-.832.943c-.354.225-.767.338-1.239.338zm0-.723c.358 0 .654-.092.885-.276.232-.183.403-.425.515-.725.111-.3.166-.625.166-.974 0-.35-.055-.676-.166-.978a1.65 1.65 0 0 0-.515-.732c-.231-.186-.527-.28-.885-.28-.359 0-.654.094-.886.28a1.64 1.64 0 0 0-.514.732 2.79 2.79 0 0 0-.167.978c0 .349.055.674.167.974.111.3.282.542.514.725.232.184.527.276.886.276zm3.597.614v-5.233h.804v5.233h-.804zm.409-6.105a.57.57 0 0 1-.405-.16.514.514 0 0 1-.167-.385c0-.149.056-.278.167-.384a.57.57 0 0 1 .405-.161c.157 0 .291.054.402.161.114.106.17.235.17.384 0 .15-.056.279-.17.385a.558.558 0 0 1-.402.16zm3.993 6.214c-.49 0-.913-.116-1.267-.348a2.264 2.264 0 0 1-.817-.957 3.241 3.241 0 0 1-.287-1.393c0-.532.098-1.001.293-1.407.198-.409.473-.728.825-.957.354-.232.767-.348 1.24-.348.367 0 .699.068.994.205.295.136.537.327.726.572.188.245.305.531.351.858h-.804a1.253 1.253 0 0 0-.409-.633c-.209-.186-.491-.28-.845-.28-.313 0-.588.082-.824.246a1.598 1.598 0 0 0-.549.684 2.544 2.544 0 0 0-.194 1.032c0 .405.064.757.191 1.056.13.3.311.533.545.699.236.166.513.248.831.248.209 0 .399-.036.569-.109a1.171 1.171 0 0 0 .685-.803h.804a1.863 1.863 0 0 1-1.043 1.42 2.27 2.27 0 0 1-1.015.215zm5.426 0c-.504 0-.939-.112-1.304-.334a2.239 2.239 0 0 1-.841-.94c-.196-.405-.293-.875-.293-1.411s.097-1.008.293-1.417c.197-.411.472-.731.824-.96.354-.232.767-.348 1.24-.348.272 0 .541.046.807.137.266.09.508.238.726.442.218.202.391.47.521.804.129.334.194.745.194 1.233v.341h-4.033v-.695h3.215c0-.295-.059-.559-.177-.79a1.333 1.333 0 0 0-.497-.549 1.395 1.395 0 0 0-.756-.201c-.32 0-.598.08-.831.239-.232.157-.41.361-.535.613a1.8 1.8 0 0 0-.188.811v.463c0 .395.069.73.205 1.005.138.272.33.48.575.623.246.141.531.211.855.211.212 0 .402-.029.573-.088.172-.061.321-.152.446-.273a1.24 1.24 0 0 0 .29-.456l.776.218a1.729 1.729 0 0 1-.412.695 2.01 2.01 0 0 1-.715.463 2.655 2.655 0 0 1-.958.164z"/><path fill="#fff" d="M107.395 213.891h290.143v38.495H107.395z"/><circle cx="126.642" cy="233.138" r="12.393" stroke="#7CDDC6" stroke-width=".918"/><path fill="#43556C" d="M148.506 227.625v6.977h-1.052v-6.977h1.052zm5.927 1.744-1.897 5.233h-1.09l-1.901-5.233h1.094l1.325 4.027h.054l1.322-4.027h1.093zm2.33 5.348c-.331 0-.631-.061-.899-.184a1.51 1.51 0 0 1-.637-.541c-.154-.236-.232-.526-.232-.869 0-.295.057-.538.171-.729.113-.19.267-.341.46-.453a2.41 2.41 0 0 1 .647-.252c.238-.057.481-.1.729-.129l.763-.089c.195-.025.337-.065.426-.119.088-.055.132-.143.132-.266v-.024c0-.297-.084-.528-.252-.691-.165-.164-.413-.245-.742-.245-.343 0-.613.076-.811.228-.195.15-.33.317-.405.501l-.957-.218c.113-.318.279-.575.497-.77.22-.198.473-.341.76-.429.286-.091.587-.137.902-.137.209 0 .431.025.664.075.237.048.457.137.661.266.207.129.376.314.508.555.131.239.197.549.197.93v3.475h-.994v-.716h-.041a1.46 1.46 0 0 1-.297.389c-.131.127-.3.232-.507.316a1.97 1.97 0 0 1-.743.126zm.222-.817c.281 0 .522-.056.722-.167.202-.111.355-.257.46-.436a1.14 1.14 0 0 0 .16-.583v-.674a.538.538 0 0 1-.211.102c-.103.03-.219.056-.351.079l-.385.057-.313.041a2.52 2.52 0 0 0-.542.126.93.93 0 0 0-.388.256.635.635 0 0 0-.143.436c0 .252.093.443.279.572.186.127.423.191.712.191zm4.735-2.405v3.107h-1.018v-5.233h.978v.852h.064a1.5 1.5 0 0 1 .566-.668c.259-.168.584-.252.977-.252.357 0 .669.075.937.225.268.148.476.368.623.661.148.293.222.655.222 1.087v3.328h-1.019v-3.206c0-.379-.098-.675-.296-.889-.198-.216-.469-.323-.814-.323-.236 0-.446.051-.63.153a1.104 1.104 0 0 0-.433.449 1.494 1.494 0 0 0-.157.709zm7.335-3.87h1.277l2.221 5.423h.082l2.221-5.423h1.277v6.977h-1.001v-5.049h-.065l-2.057 5.038h-.831l-2.058-5.041h-.065v5.052h-1.001v-6.977zm10.731 7.082c-.491 0-.919-.112-1.284-.337a2.27 2.27 0 0 1-.852-.944c-.202-.404-.303-.876-.303-1.417 0-.542.101-1.017.303-1.423a2.26 2.26 0 0 1 .852-.947c.365-.225.793-.338 1.284-.338.49 0 .918.113 1.284.338.366.224.649.54.851.947.203.406.304.881.304 1.423 0 .541-.101 1.013-.304 1.417a2.267 2.267 0 0 1-.851.944c-.366.225-.794.337-1.284.337zm.003-.855c.318 0 .581-.084.79-.252a1.48 1.48 0 0 0 .464-.671c.102-.279.153-.587.153-.923 0-.334-.051-.64-.153-.92a1.507 1.507 0 0 0-.464-.678c-.209-.17-.472-.255-.79-.255-.32 0-.586.085-.797.255a1.536 1.536 0 0 0-.467.678c-.1.28-.149.586-.149.92 0 .336.049.644.149.923.103.279.258.503.467.671.211.168.477.252.797.252zm3.573.75v-5.233h.984v.832h.054c.096-.282.264-.503.505-.665.243-.163.517-.245.824-.245a3.948 3.948 0 0 1 .432.024v.974a1.745 1.745 0 0 0-.218-.037 2.052 2.052 0 0 0-.313-.024c-.241 0-.455.051-.644.153a1.144 1.144 0 0 0-.606 1.025v3.196h-1.018zm5.157.115c-.332 0-.632-.061-.9-.184a1.51 1.51 0 0 1-.637-.541c-.154-.236-.231-.526-.231-.869 0-.295.057-.538.17-.729.114-.19.267-.341.46-.453.193-.111.409-.195.647-.252.239-.057.482-.1.729-.129l.763-.089c.195-.025.337-.065.426-.119.088-.055.133-.143.133-.266v-.024c0-.297-.084-.528-.252-.691-.166-.164-.414-.245-.743-.245-.343 0-.613.076-.811.228-.195.15-.33.317-.405.501l-.957-.218c.113-.318.279-.575.497-.77.22-.198.474-.341.76-.429.286-.091.587-.137.902-.137.209 0 .431.025.665.075.236.048.456.137.661.266.206.129.375.314.507.555.132.239.198.549.198.93v3.475h-.995v-.716h-.041a1.477 1.477 0 0 1-.296.389 1.577 1.577 0 0 1-.508.316 1.965 1.965 0 0 1-.742.126zm.221-.817c.282 0 .522-.056.722-.167.202-.111.356-.257.46-.436a1.13 1.13 0 0 0 .16-.583v-.674a.538.538 0 0 1-.211.102c-.102.03-.219.056-.351.079l-.385.057-.313.041a2.533 2.533 0 0 0-.542.126.936.936 0 0 0-.388.256.64.64 0 0 0-.143.436c0 .252.093.443.279.572.186.127.424.191.712.191zm3.717.702v-5.233h1.019v5.233h-1.019zm.515-6.04a.647.647 0 0 1-.457-.177.574.574 0 0 1-.187-.429c0-.168.062-.311.187-.429a.638.638 0 0 1 .457-.181c.177 0 .328.06.453.181.127.118.19.261.19.429a.57.57 0 0 1-.19.429.636.636 0 0 1-.453.177zm5.795 2.085-.924.163c-.038-.118-.1-.23-.184-.337a.903.903 0 0 0-.333-.262 1.212 1.212 0 0 0-.528-.102c-.289 0-.529.064-.722.194-.193.127-.29.292-.29.494 0 .175.065.315.194.422.13.107.339.194.627.262l.831.191c.481.111.84.283 1.076.514.237.232.355.533.355.903 0 .314-.091.593-.273.838-.179.243-.43.434-.753.572-.32.139-.691.208-1.113.208-.586 0-1.064-.125-1.435-.375a1.582 1.582 0 0 1-.681-1.073l.985-.149c.061.256.187.45.378.582.191.13.439.194.746.194.334 0 .6-.069.8-.208.2-.14.3-.312.3-.514a.533.533 0 0 0-.184-.412c-.12-.111-.305-.195-.555-.252l-.886-.194c-.488-.112-.849-.289-1.083-.532-.232-.243-.347-.55-.347-.923 0-.309.086-.579.258-.81a1.69 1.69 0 0 1 .716-.542 2.604 2.604 0 0 1 1.045-.198c.566 0 1.011.123 1.336.368.324.243.539.569.644.978z"/><rect width="54.789" height="18.395" x="298.564" y="223.941" fill="#D4F6EA" rx="3.197"/><path fill="#00A68C" d="M306.542 236.141h-1.348l2.455-6.976h1.561l2.459 6.976h-1.349l-1.863-5.546h-.055l-1.86 5.546zm.045-2.736h3.679v1.015h-3.679v-1.015zm9.964-2.496-1.863 5.232h-1.363l-1.863-5.232h1.315l1.202 3.886h.055l1.206-3.886h1.311zm2.209 5.337c-.332 0-.63-.059-.896-.177a1.465 1.465 0 0 1-.627-.531c-.152-.234-.228-.523-.228-.865 0-.296.055-.54.164-.733.109-.193.257-.347.446-.463a2.24 2.24 0 0 1 .637-.262c.238-.062.485-.106.739-.133.307-.032.555-.06.746-.085.191-.028.329-.069.416-.123.088-.057.132-.144.132-.262v-.021c0-.256-.076-.455-.228-.596-.152-.141-.371-.211-.657-.211-.302 0-.542.066-.719.198a.974.974 0 0 0-.354.466l-1.152-.163c.091-.318.241-.584.45-.797.209-.216.464-.377.767-.484a2.927 2.927 0 0 1 1.001-.164c.252 0 .503.03.753.089s.478.157.684.293c.207.134.373.317.498.548.127.232.191.521.191.869v3.502h-1.186v-.719h-.041c-.075.145-.18.281-.317.409a1.52 1.52 0 0 1-.507.303 2.043 2.043 0 0 1-.712.112zm.32-.906c.248 0 .462-.049.644-.146.182-.1.321-.232.419-.395.1-.164.15-.342.15-.535v-.617a.578.578 0 0 1-.198.089 2.785 2.785 0 0 1-.306.071 8.473 8.473 0 0 1-.338.055l-.289.041a2.191 2.191 0 0 0-.494.122.827.827 0 0 0-.344.239.582.582 0 0 0-.126.388c0 .227.083.399.249.514.165.116.377.174.633.174zm3.682.801v-5.232h1.233v5.232h-1.233zm.62-5.975a.722.722 0 0 1-.504-.194.626.626 0 0 1-.211-.474c0-.186.07-.344.211-.473a.712.712 0 0 1 .504-.198c.198 0 .366.066.504.198a.618.618 0 0 1 .212.473.627.627 0 0 1-.212.474.711.711 0 0 1-.504.194zm3.115-1.001v6.976h-1.234v-6.976h1.234zm2.773 7.081c-.331 0-.63-.059-.896-.177a1.456 1.456 0 0 1-.626-.531c-.153-.234-.229-.523-.229-.865 0-.296.055-.54.164-.733a1.27 1.27 0 0 1 .446-.463c.189-.116.401-.203.637-.262.238-.062.485-.106.739-.133.307-.032.555-.06.746-.085.191-.028.329-.069.416-.123.088-.057.133-.144.133-.262v-.021c0-.256-.076-.455-.229-.596-.152-.141-.371-.211-.657-.211-.302 0-.542.066-.719.198a.974.974 0 0 0-.354.466l-1.151-.163c.09-.318.24-.584.449-.797a1.96 1.96 0 0 1 .767-.484 2.932 2.932 0 0 1 1.001-.164c.252 0 .503.03.753.089s.478.157.685.293c.206.134.372.317.497.548.127.232.191.521.191.869v3.502h-1.186v-.719h-.041c-.075.145-.18.281-.316.409a1.524 1.524 0 0 1-.508.303 2.043 2.043 0 0 1-.712.112zm.32-.906c.248 0 .462-.049.644-.146.182-.1.321-.232.419-.395.1-.164.15-.342.15-.535v-.617a.569.569 0 0 1-.198.089c-.09.027-.193.051-.306.071a8.73 8.73 0 0 1-.337.055l-.29.041a2.205 2.205 0 0 0-.494.122.827.827 0 0 0-.344.239.582.582 0 0 0-.126.388c0 .227.083.399.249.514.166.116.377.174.633.174zm3.737.801v-6.976h1.233v2.609h.051c.064-.127.154-.263.269-.406.116-.145.273-.269.47-.371.198-.104.45-.157.757-.157.404 0 .768.104 1.093.31.327.205.586.508.777.91.193.4.289.89.289 1.471 0 .575-.094 1.063-.283 1.465-.188.402-.445.709-.769.92a1.983 1.983 0 0 1-1.104.317c-.3 0-.548-.05-.746-.15a1.534 1.534 0 0 1-.477-.361 2.359 2.359 0 0 1-.276-.406h-.071v.825h-1.213zm1.209-2.616c0 .338.048.634.143.889.098.254.238.453.419.596.184.141.407.211.668.211.272 0 .501-.073.685-.218.184-.148.322-.349.415-.603.096-.257.143-.548.143-.875 0-.325-.046-.614-.139-.866a1.297 1.297 0 0 0-.416-.592 1.087 1.087 0 0 0-.688-.215c-.263 0-.487.069-.671.208a1.274 1.274 0 0 0-.419.582c-.093.25-.14.544-.14.883zm6.012-4.36v6.976h-1.233v-6.976h1.233zm3.584 7.078c-.525 0-.978-.109-1.359-.327a2.221 2.221 0 0 1-.876-.934c-.204-.404-.306-.879-.306-1.427 0-.538.102-1.01.306-1.417.207-.409.495-.726.866-.954.37-.229.805-.344 1.304-.344.323 0 .627.053.913.157.288.102.543.261.763.477.223.216.397.49.525.824.127.332.19.727.19 1.186v.378h-4.288v-.831h3.106a1.316 1.316 0 0 0-.153-.63 1.11 1.11 0 0 0-.419-.44 1.176 1.176 0 0 0-.62-.16c-.252 0-.473.061-.664.184-.191.12-.34.279-.446.477-.105.195-.158.41-.16.644v.725c0 .304.055.566.167.784.111.215.266.381.466.497.2.113.434.17.702.17.179 0 .342-.025.487-.075a1.08 1.08 0 0 0 .378-.228.957.957 0 0 0 .242-.371l1.151.129c-.072.305-.211.57-.415.797-.202.225-.461.4-.777.525a2.97 2.97 0 0 1-1.083.184z"/><path fill="#fff" d="M353.354 223.941h37.789v18.395h-37.789z"/><path fill="#A1AFC3" d="m360.879 229.165 2.071 5.872h.082l2.071-5.872h.885l-2.561 6.976h-.872l-2.562-6.976h.886zm7.725 7.085c-.472 0-.886-.113-1.243-.338a2.288 2.288 0 0 1-.831-.943c-.198-.404-.296-.877-.296-1.417 0-.545.098-1.021.296-1.427.2-.407.477-.723.831-.947a2.281 2.281 0 0 1 1.243-.338c.473 0 .886.113 1.24.338.357.224.634.54.831.947.2.406.3.882.3 1.427 0 .54-.1 1.013-.3 1.417a2.247 2.247 0 0 1-.831.943c-.354.225-.767.338-1.24.338zm0-.723c.359 0 .654-.091.886-.275.232-.184.403-.426.514-.726.112-.3.167-.624.167-.974s-.055-.676-.167-.978a1.64 1.64 0 0 0-.514-.732c-.232-.186-.527-.279-.886-.279-.358 0-.654.093-.885.279a1.65 1.65 0 0 0-.515.732 2.813 2.813 0 0 0-.166.978c0 .35.055.674.166.974.112.3.283.542.515.726.231.184.527.275.885.275zm3.598.614v-5.232h.804v5.232h-.804zm.409-6.104a.569.569 0 0 1-.405-.161.51.51 0 0 1-.167-.384.51.51 0 0 1 .167-.385.568.568 0 0 1 .405-.16c.157 0 .291.053.402.16.114.106.17.235.17.385a.506.506 0 0 1-.17.384.559.559 0 0 1-.402.161zm3.993 6.213c-.49 0-.913-.116-1.267-.348a2.267 2.267 0 0 1-.818-.957 3.253 3.253 0 0 1-.286-1.393c0-.532.098-1 .293-1.407.198-.409.473-.728.825-.957.354-.232.767-.348 1.24-.348.367 0 .699.069.994.205.295.136.537.327.726.572.188.245.305.531.351.858h-.804a1.253 1.253 0 0 0-.409-.633c-.209-.186-.491-.279-.845-.279-.313 0-.588.081-.824.245a1.598 1.598 0 0 0-.549.684 2.546 2.546 0 0 0-.194 1.033c0 .404.064.756.191 1.056.129.299.311.532.545.698.236.166.513.248.831.248.209 0 .399-.036.569-.109a1.171 1.171 0 0 0 .685-.803h.804a1.863 1.863 0 0 1-1.043 1.42 2.27 2.27 0 0 1-1.015.215zm5.426 0c-.504 0-.939-.112-1.304-.334a2.24 2.24 0 0 1-.842-.94c-.195-.405-.293-.875-.293-1.411 0-.535.098-1.008.293-1.417.198-.411.473-.731.825-.96.354-.232.767-.348 1.24-.348.272 0 .541.046.807.137.266.09.507.238.725.442.218.203.392.471.522.804.129.334.194.745.194 1.233v.341h-4.033v-.695h3.215c0-.295-.059-.558-.177-.79a1.33 1.33 0 0 0-.497-.548 1.395 1.395 0 0 0-.756-.201c-.321 0-.598.079-.831.238-.232.157-.41.361-.535.613a1.8 1.8 0 0 0-.188.811v.463c0 .395.068.73.205 1.005.138.272.33.48.575.623.246.141.531.211.855.211.212 0 .402-.029.573-.088.172-.061.321-.152.446-.273.125-.122.221-.274.289-.456l.777.218a1.729 1.729 0 0 1-.412.695 2.019 2.019 0 0 1-.715.463 2.655 2.655 0 0 1-.958.164z"/><path fill="#fff" d="M107.395 252.383h290.962v38.495H107.395z"/><circle cx="126.642" cy="271.63" r="12.393" stroke="#E06F5D" stroke-width=".918"/><path fill="#43556C" d="M149.712 273.09h-2.258v-6.976h2.33c.683 0 1.27.139 1.761.419.49.277.866.675 1.127 1.195.264.518.396 1.139.396 1.864 0 .726-.133 1.351-.399 1.873a2.798 2.798 0 0 1-1.145 1.206c-.499.279-1.103.419-1.812.419zm-1.206-.92h1.148c.532 0 .973-.1 1.325-.3.352-.202.616-.494.791-.875.175-.384.262-.852.262-1.403 0-.548-.087-1.012-.262-1.394a1.854 1.854 0 0 0-.774-.868c-.342-.198-.768-.297-1.277-.297h-1.213v5.137zm5.789.92v-5.232h1.018v5.232h-1.018zm.514-6.04a.647.647 0 0 1-.456-.177.575.575 0 0 1-.188-.429c0-.168.063-.311.188-.429a.642.642 0 0 1 .456-.181c.177 0 .328.061.453.181a.565.565 0 0 1 .191.429.57.57 0 0 1-.191.429.636.636 0 0 1-.453.177zm2.893 2.933v3.107h-1.019v-5.232h.978v.851h.065c.12-.277.308-.499.565-.667.259-.168.585-.252.978-.252.356 0 .668.075.936.224.268.148.476.368.624.661.147.293.221.655.221 1.087v3.328h-1.018v-3.205c0-.38-.099-.676-.297-.89-.197-.215-.469-.323-.814-.323-.236 0-.446.051-.63.153a1.1 1.1 0 0 0-.433.45 1.487 1.487 0 0 0-.156.708zm6.237 3.223c-.332 0-.632-.062-.9-.184a1.525 1.525 0 0 1-.637-.542c-.154-.236-.231-.526-.231-.868 0-.296.057-.539.17-.729.114-.191.267-.342.46-.453a2.39 2.39 0 0 1 .647-.253c.239-.056.482-.099.729-.129l.763-.089c.195-.025.337-.064.426-.119.089-.054.133-.143.133-.265v-.024c0-.298-.084-.528-.252-.692-.166-.163-.414-.245-.743-.245-.343 0-.613.076-.811.228-.195.15-.33.317-.405.501l-.957-.218c.114-.318.279-.575.497-.77.221-.197.474-.341.76-.429a2.96 2.96 0 0 1 .903-.136c.208 0 .43.025.664.075.236.047.456.136.661.265.206.13.375.315.507.555.132.239.198.549.198.93v3.475h-.995v-.715h-.041a1.452 1.452 0 0 1-.296.388 1.579 1.579 0 0 1-.508.317 1.965 1.965 0 0 1-.742.126zm.221-.818c.282 0 .522-.055.722-.167a1.16 1.16 0 0 0 .46-.436c.107-.181.16-.376.16-.582v-.675a.505.505 0 0 1-.211.102c-.102.03-.219.056-.351.079l-.385.058-.313.041a2.533 2.533 0 0 0-.542.126.934.934 0 0 0-.388.255.64.64 0 0 0-.143.436c0 .252.093.443.279.572.186.128.424.191.712.191zm11.059-4.07a2.15 2.15 0 0 0-.266-.556 1.717 1.717 0 0 0-.392-.422 1.641 1.641 0 0 0-.521-.269 2.104 2.104 0 0 0-.637-.092c-.393 0-.747.101-1.063.303-.315.202-.565.499-.749.889-.182.388-.272.864-.272 1.427 0 .566.091 1.044.275 1.434.184.391.436.687.757.889.32.203.684.304 1.093.304.379 0 .71-.078.991-.232.284-.154.503-.372.658-.654.156-.284.235-.618.235-1.001l.272.051h-1.996v-.869h2.742v.794c0 .586-.125 1.094-.374 1.526-.248.429-.591.76-1.029.994-.436.234-.936.351-1.499.351-.631 0-1.185-.145-1.662-.436a2.955 2.955 0 0 1-1.111-1.236c-.265-.536-.398-1.172-.398-1.908 0-.556.077-1.056.231-1.499.155-.442.372-.818.651-1.127.282-.311.612-.548.991-.712a3.1 3.1 0 0 1 1.25-.249c.377 0 .728.056 1.053.167.327.112.618.269.872.474a2.687 2.687 0 0 1 .978 1.659h-1.08zm3.4-2.204v6.976h-1.018v-6.976h1.018zm3.625 7.081c-.515 0-.959-.11-1.332-.33a2.244 2.244 0 0 1-.858-.937c-.2-.404-.3-.877-.3-1.42 0-.536.1-1.008.3-1.417.202-.409.484-.728.845-.957.363-.23.788-.344 1.274-.344.295 0 .581.048.858.146.277.098.526.251.746.46.22.209.394.48.521.814.127.332.191.735.191 1.209v.361h-4.159v-.763h3.161c0-.268-.055-.505-.164-.712a1.24 1.24 0 0 0-1.147-.674c-.287 0-.536.07-.75.211-.211.139-.375.32-.49.545a1.572 1.572 0 0 0-.171.726v.596c0 .35.062.647.184.892.125.246.299.433.521.562.223.127.483.191.78.191.193 0 .369-.027.528-.082a1.093 1.093 0 0 0 .678-.664l.964.174a1.743 1.743 0 0 1-.415.746 2.025 2.025 0 0 1-.746.494 2.791 2.791 0 0 1-1.019.173zm4.394-3.212v3.107h-1.019v-5.232h.978v.851h.064c.121-.277.309-.499.566-.667.259-.168.585-.252.977-.252.357 0 .669.075.937.224.268.148.476.368.624.661.147.293.221.655.221 1.087v3.328h-1.019v-3.205c0-.38-.098-.676-.296-.89-.197-.215-.469-.323-.814-.323-.236 0-.446.051-.63.153a1.1 1.1 0 0 0-.433.45 1.487 1.487 0 0 0-.156.708zm5.732 0v3.107h-1.018v-5.232h.977v.851h.065c.121-.277.309-.499.566-.667.258-.168.584-.252.977-.252.357 0 .669.075.937.224.268.148.476.368.623.661.148.293.222.655.222 1.087v3.328H194.7v-3.205c0-.38-.099-.676-.296-.89-.198-.215-.469-.323-.814-.323-.236 0-.446.051-.63.153a1.1 1.1 0 0 0-.433.45 1.487 1.487 0 0 0-.157.708z"/><rect width="35.789" height="18.395" x="320.946" y="262.434" fill="#FFC5BC" rx="3.197"/><path fill="#A34E14" d="M328.028 274.633v-6.976h2.671c.504 0 .923.079 1.257.238.336.157.587.371.753.644.168.272.252.581.252.926 0 .284-.055.527-.164.729-.109.2-.255.363-.439.487-.184.125-.39.215-.617.27v.068c.248.013.485.089.712.228.23.136.417.329.562.579.146.25.218.552.218.906 0 .361-.087.686-.262.974-.175.286-.438.512-.79.678-.352.166-.795.249-1.329.249h-2.824zm1.264-1.056h1.359c.459 0 .789-.088.991-.262a.862.862 0 0 0 .307-.682 1.042 1.042 0 0 0-.589-.953 1.449 1.449 0 0 0-.675-.147h-1.393v2.044zm0-2.953h1.25c.218 0 .415-.04.59-.12a.99.99 0 0 0 .412-.344.921.921 0 0 0 .153-.531.866.866 0 0 0-.286-.668c-.189-.175-.469-.262-.841-.262h-1.278v1.925zm8.321 1.808v-3.031h1.233v5.232h-1.196v-.93h-.054a1.573 1.573 0 0 1-.583.719c-.268.186-.598.279-.991.279-.343 0-.646-.076-.909-.228a1.586 1.586 0 0 1-.613-.671c-.148-.296-.222-.652-.222-1.07v-3.331h1.233v3.14c0 .332.091.595.273.791.181.195.42.293.715.293.182 0 .358-.045.528-.133.17-.089.31-.221.419-.395.111-.178.167-.399.167-.665zm6.636-1.648-1.124.122a.903.903 0 0 0-.167-.32.83.83 0 0 0-.313-.242 1.148 1.148 0 0 0-.484-.092c-.256 0-.472.056-.647.167-.173.111-.258.256-.256.433a.454.454 0 0 0 .167.371c.116.095.307.174.573.235l.892.191c.495.107.863.276 1.104.507.243.232.365.535.368.91-.003.329-.099.62-.29.872-.188.25-.451.445-.787.586a2.971 2.971 0 0 1-1.158.211c-.64 0-1.156-.134-1.546-.402a1.615 1.615 0 0 1-.699-1.127l1.203-.116c.054.236.17.414.347.535.177.12.408.18.692.18.293 0 .528-.06.705-.18.179-.121.269-.27.269-.447a.464.464 0 0 0-.174-.371c-.113-.098-.29-.173-.531-.225l-.893-.187c-.502-.105-.873-.281-1.114-.528-.24-.25-.359-.566-.357-.947a1.342 1.342 0 0 1 .262-.838c.18-.238.428-.422.746-.552.32-.132.689-.197 1.107-.197.613 0 1.096.13 1.448.391.354.261.573.615.657 1.06zm1.896 5.811c-.168 0-.324-.014-.467-.041a1.723 1.723 0 0 1-.337-.089l.286-.96c.179.052.34.077.48.075a.597.597 0 0 0 .372-.133c.109-.084.201-.225.276-.422l.105-.283-1.897-5.341h1.308l1.206 3.951h.054l1.209-3.951h1.312l-2.095 5.865a2.356 2.356 0 0 1-.388.712 1.59 1.59 0 0 1-.593.457c-.232.106-.509.16-.831.16z"/><path fill="#fff" d="M356.735 262.434h34.789v18.395h-34.789z"/><path fill="#A1AFC3" d="M369.588 269.837h-.845a1.74 1.74 0 0 0-.262-.641 1.736 1.736 0 0 0-.449-.463 1.92 1.92 0 0 0-.583-.286 2.31 2.31 0 0 0-.668-.095c-.422 0-.805.106-1.147.32-.341.213-.612.528-.815.943-.199.416-.299.926-.299 1.53s.1 1.114.299 1.529c.203.416.474.73.815.944.342.213.725.32 1.147.32.232 0 .455-.032.668-.095a1.96 1.96 0 0 0 .583-.283 1.782 1.782 0 0 0 .711-1.107h.845a2.809 2.809 0 0 1-.347.957 2.614 2.614 0 0 1-1.468 1.165c-.309.102-.64.153-.992.153a2.919 2.919 0 0 1-1.587-.436c-.463-.29-.828-.704-1.093-1.24-.266-.536-.399-1.171-.399-1.907s.133-1.372.399-1.908a2.99 2.99 0 0 1 1.093-1.24c.463-.29.992-.436 1.587-.436.352 0 .683.051.992.154.311.102.591.252.841.449.25.196.459.434.627.716.168.279.284.598.347.957zm2.06 1.648v3.148h-.804v-6.976h.804v2.561h.068c.123-.27.307-.485.552-.644.248-.161.577-.241.988-.241.357 0 .669.071.937.214.268.141.475.358.623.651.15.29.225.661.225 1.11v3.325h-.804v-3.27c0-.416-.108-.737-.324-.964-.213-.23-.509-.344-.889-.344-.263 0-.499.055-.708.167-.207.111-.37.273-.491.487a1.581 1.581 0 0 0-.177.776zm6.403 3.27c-.331 0-.632-.062-.902-.187a1.546 1.546 0 0 1-.644-.548 1.549 1.549 0 0 1-.239-.872c0-.3.059-.543.177-.729.119-.189.276-.336.474-.443.197-.107.415-.186.654-.239.241-.054.482-.097.725-.129.318-.041.576-.072.774-.092.2-.023.345-.06.436-.112.093-.053.139-.143.139-.273v-.027c0-.336-.092-.597-.276-.784-.181-.186-.457-.279-.827-.279-.384 0-.685.084-.903.252a1.5 1.5 0 0 0-.46.538l-.763-.272a1.83 1.83 0 0 1 .545-.743c.23-.179.479-.304.75-.374a3.09 3.09 0 0 1 .803-.109c.169 0 .362.02.58.061.22.039.432.119.637.242.206.122.378.307.514.555.136.248.204.579.204.995v3.447h-.804v-.709h-.041a1.407 1.407 0 0 1-.272.365 1.573 1.573 0 0 1-.508.33 1.948 1.948 0 0 1-.773.136zm.123-.722c.318 0 .586-.062.804-.187a1.273 1.273 0 0 0 .667-1.107v-.736c-.034.041-.109.078-.224.113a4.06 4.06 0 0 1-.396.085 20.322 20.322 0 0 1-.769.102 2.99 2.99 0 0 0-.586.133.998.998 0 0 0-.436.269c-.109.118-.164.279-.164.484 0 .279.104.49.31.633.209.141.474.211.794.211zm6.018-4.632v.681h-2.711v-.681h2.711zm-1.921-1.254h.804v4.987c0 .227.033.397.098.511a.521.521 0 0 0 .259.225c.107.036.219.054.338.054.088 0 .161-.004.218-.013l.136-.028.163.723a1.753 1.753 0 0 1-.599.095c-.227 0-.45-.049-.668-.147a1.317 1.317 0 0 1-.538-.446c-.141-.2-.211-.452-.211-.756v-5.205z"/><path fill="#fff" d="M107.395 290.879h290.143v38.495H107.395z"/><path fill="#43556C" d="M116.131 306.024V313h-1.052v-6.976h1.052zm5.927 1.744L120.161 313h-1.09l-1.901-5.232h1.094l1.325 4.026h.054l1.322-4.026h1.093zm2.33 5.348c-.331 0-.631-.061-.899-.184a1.52 1.52 0 0 1-.637-.542c-.154-.236-.232-.525-.232-.868 0-.296.057-.539.171-.729a1.25 1.25 0 0 1 .46-.453c.193-.112.408-.196.647-.252.238-.057.481-.1.729-.13l.763-.088c.195-.025.337-.065.426-.12.088-.054.132-.143.132-.265v-.024c0-.298-.084-.528-.252-.692-.165-.163-.413-.245-.742-.245-.343 0-.613.076-.811.228-.195.15-.33.317-.405.501l-.957-.218a1.84 1.84 0 0 1 .497-.77c.22-.197.473-.34.76-.429.286-.091.587-.136.902-.136.209 0 .431.025.664.075.237.047.457.136.661.265.207.13.376.315.508.556.131.238.197.548.197.93V313h-.994v-.715h-.041a1.457 1.457 0 0 1-.297.388c-.131.127-.3.233-.507.317a1.97 1.97 0 0 1-.743.126zm.222-.818c.281 0 .522-.055.722-.167.202-.111.355-.256.46-.436.106-.181.16-.375.16-.582v-.675a.523.523 0 0 1-.211.103 3.539 3.539 0 0 1-.351.078l-.385.058-.313.041a2.52 2.52 0 0 0-.542.126.927.927 0 0 0-.388.255.637.637 0 0 0-.143.436c0 .252.093.443.279.573.186.127.423.19.712.19zm4.735-2.405V313h-1.018v-5.232h.978v.851h.064c.121-.277.309-.499.566-.667.259-.168.584-.252.977-.252.357 0 .669.075.937.225.268.147.476.367.623.66.148.293.222.656.222 1.087V313h-1.019v-3.205c0-.38-.098-.676-.296-.889-.198-.216-.469-.324-.814-.324-.236 0-.446.051-.63.153a1.1 1.1 0 0 0-.433.45 1.487 1.487 0 0 0-.157.708zm7.335-3.869h1.277l2.221 5.423h.082l2.221-5.423h1.277V313h-1.001v-5.048h-.065l-2.057 5.038h-.831l-2.058-5.042h-.065V313h-1.001v-6.976zm10.731 7.082c-.491 0-.919-.113-1.284-.338a2.266 2.266 0 0 1-.852-.943c-.202-.404-.303-.877-.303-1.417 0-.543.101-1.018.303-1.424.202-.407.486-.722.852-.947.365-.225.793-.337 1.284-.337.49 0 .918.112 1.284.337.366.225.649.54.851.947.203.406.304.881.304 1.424 0 .54-.101 1.013-.304 1.417a2.264 2.264 0 0 1-.851.943c-.366.225-.794.338-1.284.338zm.003-.855c.318 0 .581-.084.79-.252a1.48 1.48 0 0 0 .464-.671c.102-.28.153-.588.153-.924 0-.333-.051-.64-.153-.919a1.496 1.496 0 0 0-.464-.678c-.209-.17-.472-.256-.79-.256-.32 0-.586.086-.797.256-.209.17-.364.396-.467.678-.1.279-.149.586-.149.919 0 .336.049.644.149.924.103.279.258.503.467.671.211.168.477.252.797.252zm3.573.749v-5.232h.984v.831h.054c.096-.282.264-.503.505-.664.243-.164.517-.245.824-.245a4.996 4.996 0 0 1 .432.023v.975a1.693 1.693 0 0 0-.218-.038 2.052 2.052 0 0 0-.313-.024c-.241 0-.455.051-.644.154a1.137 1.137 0 0 0-.606 1.025V313h-1.018zm5.157.116c-.332 0-.632-.061-.9-.184a1.52 1.52 0 0 1-.637-.542c-.154-.236-.231-.525-.231-.868 0-.296.057-.539.17-.729.114-.191.267-.342.46-.453.193-.112.409-.196.647-.252.239-.057.482-.1.729-.13l.763-.088c.195-.025.337-.065.426-.12.088-.054.133-.143.133-.265v-.024c0-.298-.084-.528-.252-.692-.166-.163-.414-.245-.743-.245-.343 0-.613.076-.811.228-.195.15-.33.317-.405.501l-.957-.218a1.84 1.84 0 0 1 .497-.77c.22-.197.474-.34.76-.429.286-.091.587-.136.902-.136.209 0 .431.025.665.075.236.047.456.136.661.265.206.13.375.315.507.556.132.238.198.548.198.93V313h-.995v-.715h-.041a1.473 1.473 0 0 1-.296.388 1.579 1.579 0 0 1-.508.317 1.965 1.965 0 0 1-.742.126zm.221-.818c.282 0 .522-.055.722-.167a1.16 1.16 0 0 0 .46-.436c.107-.181.16-.375.16-.582v-.675a.523.523 0 0 1-.211.103 3.476 3.476 0 0 1-.351.078l-.385.058-.313.041a2.533 2.533 0 0 0-.542.126.934.934 0 0 0-.388.255.641.641 0 0 0-.143.436c0 .252.093.443.279.573.186.127.424.19.712.19zm3.717.702v-5.232h1.019V313h-1.019zm.515-6.039a.644.644 0 0 1-.457-.178.574.574 0 0 1-.187-.429c0-.168.062-.311.187-.429a.641.641 0 0 1 .457-.18.63.63 0 0 1 .453.18c.127.118.19.261.19.429a.57.57 0 0 1-.19.429.633.633 0 0 1-.453.178zm5.795 2.084-.924.164a1.074 1.074 0 0 0-.184-.337.905.905 0 0 0-.333-.263 1.212 1.212 0 0 0-.528-.102c-.289 0-.529.065-.722.194-.193.127-.29.292-.29.494 0 .175.065.316.194.423.13.106.339.194.627.262l.831.191c.481.111.84.282 1.076.514.237.232.355.532.355.903 0 .313-.091.592-.273.838-.179.243-.43.433-.753.572a2.79 2.79 0 0 1-1.113.208c-.586 0-1.064-.125-1.435-.375a1.585 1.585 0 0 1-.681-1.073l.985-.15a.94.94 0 0 0 .378.583c.191.129.439.194.746.194.334 0 .6-.07.8-.208.2-.141.3-.312.3-.514a.535.535 0 0 0-.184-.413c-.12-.111-.305-.195-.555-.252l-.886-.194c-.488-.111-.849-.288-1.083-.531-.232-.243-.347-.551-.347-.923 0-.309.086-.579.258-.811.173-.232.411-.412.716-.542a2.621 2.621 0 0 1 1.045-.197c.566 0 1.011.122 1.336.368.324.243.539.569.644.977z"/><rect width="54.789" height="18.395" x="298.564" y="300.93" fill="#D4F6EA" rx="3.197"/><path fill="#00A68C" d="M306.542 313.129h-1.348l2.455-6.976h1.561l2.459 6.976h-1.349l-1.863-5.546h-.055l-1.86 5.546zm.045-2.735h3.679v1.015h-3.679v-1.015zm9.964-2.497-1.863 5.232h-1.363l-1.863-5.232h1.315l1.202 3.886h.055l1.206-3.886h1.311zm2.209 5.338c-.332 0-.63-.06-.896-.178a1.465 1.465 0 0 1-.627-.531c-.152-.234-.228-.522-.228-.865 0-.295.055-.54.164-.733.109-.193.257-.347.446-.463a2.24 2.24 0 0 1 .637-.262c.238-.061.485-.106.739-.133.307-.032.555-.06.746-.085.191-.027.329-.068.416-.123.088-.057.132-.144.132-.262v-.02c0-.257-.076-.456-.228-.597-.152-.14-.371-.211-.657-.211-.302 0-.542.066-.719.198a.978.978 0 0 0-.354.466l-1.152-.163c.091-.318.241-.584.45-.797.209-.216.464-.377.767-.484a2.928 2.928 0 0 1 1.001-.163c.252 0 .503.029.753.088s.478.157.684.293c.207.134.373.317.498.549.127.231.191.521.191.868v3.502h-1.186v-.719h-.041a1.482 1.482 0 0 1-.824.712 2.042 2.042 0 0 1-.712.113zm.32-.907c.248 0 .462-.048.644-.146.182-.1.321-.232.419-.395.1-.164.15-.342.15-.535v-.617a.578.578 0 0 1-.198.089 3.023 3.023 0 0 1-.306.072c-.114.02-.226.038-.338.054l-.289.041a2.138 2.138 0 0 0-.494.123.816.816 0 0 0-.344.238.582.582 0 0 0-.126.388c0 .227.083.399.249.515.165.116.377.173.633.173zm3.682.801v-5.232h1.233v5.232h-1.233zm.62-5.975a.717.717 0 0 1-.504-.194.624.624 0 0 1-.211-.473c0-.187.07-.344.211-.474a.711.711 0 0 1 .504-.197c.198 0 .366.065.504.197a.62.62 0 0 1 .212.474.625.625 0 0 1-.212.473.707.707 0 0 1-.504.194zm3.115-1.001v6.976h-1.234v-6.976h1.234zm2.773 7.082c-.331 0-.63-.06-.896-.178a1.456 1.456 0 0 1-.626-.531c-.153-.234-.229-.522-.229-.865 0-.295.055-.54.164-.733a1.27 1.27 0 0 1 .446-.463c.189-.116.401-.203.637-.262.238-.061.485-.106.739-.133.307-.032.555-.06.746-.085.191-.027.329-.068.416-.123.088-.057.133-.144.133-.262v-.02c0-.257-.076-.456-.229-.597-.152-.14-.371-.211-.657-.211-.302 0-.542.066-.719.198a.978.978 0 0 0-.354.466l-1.151-.163c.09-.318.24-.584.449-.797a1.96 1.96 0 0 1 .767-.484 2.932 2.932 0 0 1 1.001-.163c.252 0 .503.029.753.088s.478.157.685.293c.206.134.372.317.497.549.127.231.191.521.191.868v3.502h-1.186v-.719h-.041c-.075.146-.18.282-.316.409a1.524 1.524 0 0 1-.508.303 2.042 2.042 0 0 1-.712.113zm.32-.907c.248 0 .462-.048.644-.146.182-.1.321-.232.419-.395.1-.164.15-.342.15-.535v-.617a.569.569 0 0 1-.198.089 2.96 2.96 0 0 1-.306.072c-.114.02-.226.038-.337.054l-.29.041a2.15 2.15 0 0 0-.494.123.816.816 0 0 0-.344.238.582.582 0 0 0-.126.388c0 .227.083.399.249.515.166.116.377.173.633.173zm3.737.801v-6.976h1.233v2.609h.051a2.34 2.34 0 0 1 .269-.405c.116-.146.273-.269.47-.372.198-.104.45-.156.757-.156.404 0 .768.103 1.093.31.327.204.586.507.777.909.193.4.289.89.289 1.472 0 .574-.094 1.062-.283 1.464-.188.402-.445.709-.769.92a1.983 1.983 0 0 1-1.104.317c-.3 0-.548-.05-.746-.15-.198-.1-.356-.22-.477-.361a2.354 2.354 0 0 1-.276-.405h-.071v.824h-1.213zm1.209-2.616c0 .338.048.635.143.889.098.254.238.453.419.596.184.141.407.211.668.211.272 0 .501-.072.685-.218.184-.147.322-.348.415-.603.096-.256.143-.548.143-.875 0-.325-.046-.613-.139-.865a1.3 1.3 0 0 0-.416-.593 1.087 1.087 0 0 0-.688-.215c-.263 0-.487.07-.671.208a1.277 1.277 0 0 0-.419.583c-.093.249-.14.544-.14.882zm6.012-4.36v6.976h-1.233v-6.976h1.233zm3.584 7.078c-.525 0-.978-.109-1.359-.327a2.218 2.218 0 0 1-.876-.933c-.204-.404-.306-.88-.306-1.427 0-.539.102-1.011.306-1.418.207-.408.495-.726.866-.953.37-.23.805-.344 1.304-.344.323 0 .627.052.913.156.288.103.543.262.763.477.223.216.397.491.525.825.127.331.19.726.19 1.185v.378h-4.288v-.831h3.106a1.322 1.322 0 0 0-.153-.63 1.116 1.116 0 0 0-.419-.44 1.185 1.185 0 0 0-.62-.16c-.252 0-.473.062-.664.184-.191.121-.34.28-.446.477-.105.195-.158.41-.16.644v.725c0 .305.055.566.167.784.111.216.266.381.466.497.2.114.434.171.702.171.179 0 .342-.025.487-.075.145-.053.271-.129.378-.229a.95.95 0 0 0 .242-.371l1.151.13a1.797 1.797 0 0 1-.415.797 2.033 2.033 0 0 1-.777.524 2.97 2.97 0 0 1-1.083.184z"/><path fill="#fff" d="M353.354 300.93h37.789v18.395h-37.789z"/><path fill="#A1AFC3" d="m360.879 306.153 2.071 5.872h.082l2.071-5.872h.885l-2.561 6.976h-.872l-2.562-6.976h.886zm7.725 7.085c-.472 0-.886-.113-1.243-.337a2.297 2.297 0 0 1-.831-.944c-.198-.404-.296-.876-.296-1.417 0-.545.098-1.021.296-1.427.2-.407.477-.722.831-.947a2.28 2.28 0 0 1 1.243-.337c.473 0 .886.112 1.24.337.357.225.634.54.831.947.2.406.3.882.3 1.427 0 .541-.1 1.013-.3 1.417a2.256 2.256 0 0 1-.831.944c-.354.224-.767.337-1.24.337zm0-.722c.359 0 .654-.092.886-.276.232-.184.403-.426.514-.726.112-.299.167-.624.167-.974s-.055-.675-.167-.977a1.637 1.637 0 0 0-.514-.733c-.232-.186-.527-.279-.886-.279-.358 0-.654.093-.885.279-.232.186-.403.43-.515.733a2.807 2.807 0 0 0-.166.977c0 .35.055.675.166.974.112.3.283.542.515.726.231.184.527.276.885.276zm3.598.613v-5.232h.804v5.232h-.804zm.409-6.104a.572.572 0 0 1-.405-.16.512.512 0 0 1-.167-.385c0-.15.055-.278.167-.385a.568.568 0 0 1 .405-.16c.157 0 .291.053.402.16.114.107.17.235.17.385 0 .15-.056.278-.17.385a.562.562 0 0 1-.402.16zm3.993 6.213c-.49 0-.913-.116-1.267-.348a2.262 2.262 0 0 1-.818-.957 3.253 3.253 0 0 1-.286-1.393c0-.531.098-1 .293-1.407.198-.408.473-.728.825-.957a2.217 2.217 0 0 1 1.24-.347c.367 0 .699.068.994.204.295.136.537.327.726.572a1.8 1.8 0 0 1 .351.859h-.804a1.252 1.252 0 0 0-.409-.634c-.209-.186-.491-.279-.845-.279-.313 0-.588.082-.824.245a1.6 1.6 0 0 0-.549.685 2.544 2.544 0 0 0-.194 1.032c0 .404.064.756.191 1.056.129.3.311.532.545.698.236.166.513.249.831.249.209 0 .399-.037.569-.109a1.174 1.174 0 0 0 .685-.804h.804a1.858 1.858 0 0 1-1.043 1.42 2.27 2.27 0 0 1-1.015.215zm5.426 0c-.504 0-.939-.111-1.304-.334a2.24 2.24 0 0 1-.842-.94c-.195-.404-.293-.874-.293-1.41 0-.536.098-1.009.293-1.417.198-.411.473-.732.825-.961a2.217 2.217 0 0 1 1.24-.347c.272 0 .541.045.807.136.266.091.507.238.725.443.218.202.392.47.522.804.129.333.194.744.194 1.233v.34h-4.033v-.695h3.215c0-.295-.059-.558-.177-.79a1.336 1.336 0 0 0-1.253-.749c-.321 0-.598.079-.831.238-.232.157-.41.361-.535.613a1.803 1.803 0 0 0-.188.811v.463c0 .395.068.73.205 1.005.138.273.33.481.575.624.246.14.531.211.855.211.212 0 .402-.03.573-.089a1.23 1.23 0 0 0 .446-.272c.125-.123.221-.275.289-.457l.777.218a1.722 1.722 0 0 1-.412.695 2.005 2.005 0 0 1-.715.463 2.655 2.655 0 0 1-.958.164z"/><path fill="#fff" d="M107.395 329.375h290.962v38.495H107.395z"/><path fill="#43556C" d="M117.337 350.055h-2.258v-6.976h2.33c.683 0 1.27.139 1.761.419.49.277.866.675 1.127 1.195.264.518.396 1.139.396 1.863 0 .727-.133 1.352-.399 1.874a2.798 2.798 0 0 1-1.145 1.206c-.499.279-1.103.419-1.812.419zm-1.206-.92h1.148c.532 0 .973-.1 1.325-.3.352-.202.616-.494.791-.875.175-.384.262-.852.262-1.404 0-.547-.087-1.011-.262-1.393a1.854 1.854 0 0 0-.774-.868c-.342-.198-.768-.297-1.277-.297h-1.213v5.137zm5.789.92v-5.232h1.018v5.232h-1.018zm.514-6.04a.647.647 0 0 1-.456-.177.575.575 0 0 1-.188-.429c0-.168.063-.311.188-.429a.637.637 0 0 1 .456-.181c.177 0 .328.06.453.181a.565.565 0 0 1 .191.429.57.57 0 0 1-.191.429.636.636 0 0 1-.453.177zm2.893 2.933v3.107h-1.019v-5.232h.978v.851h.065c.12-.277.308-.499.565-.667.259-.169.585-.253.978-.253.356 0 .668.075.936.225.268.148.476.368.624.661.147.293.221.655.221 1.087v3.328h-1.018v-3.206c0-.379-.099-.675-.297-.889-.197-.215-.469-.323-.814-.323-.236 0-.446.051-.63.153a1.1 1.1 0 0 0-.433.45 1.487 1.487 0 0 0-.156.708zm6.237 3.223c-.332 0-.632-.062-.9-.184a1.525 1.525 0 0 1-.637-.542c-.154-.236-.231-.526-.231-.869 0-.295.057-.538.17-.729.114-.19.267-.341.46-.453.193-.111.409-.195.647-.252.239-.056.482-.1.729-.129l.763-.089c.195-.025.337-.064.426-.119.089-.054.133-.143.133-.266v-.023c0-.298-.084-.528-.252-.692-.166-.163-.414-.245-.743-.245-.343 0-.613.076-.811.228-.195.15-.33.317-.405.501l-.957-.218c.114-.318.279-.575.497-.77.221-.198.474-.341.76-.429a2.96 2.96 0 0 1 .903-.137c.208 0 .43.025.664.075.236.048.456.137.661.266.206.13.375.315.507.555.132.239.198.549.198.93v3.475h-.995v-.716h-.041a1.44 1.44 0 0 1-.296.389 1.577 1.577 0 0 1-.508.316 1.965 1.965 0 0 1-.742.127zm.221-.818c.282 0 .522-.056.722-.167.202-.111.356-.257.46-.436a1.13 1.13 0 0 0 .16-.582v-.675a.518.518 0 0 1-.211.102c-.102.03-.219.056-.351.079l-.385.058-.313.04a2.533 2.533 0 0 0-.542.126.945.945 0 0 0-.388.256.64.64 0 0 0-.143.436c0 .252.093.443.279.572.186.127.424.191.712.191zm11.059-4.071a2.16 2.16 0 0 0-.266-.555 1.7 1.7 0 0 0-.913-.691 2.073 2.073 0 0 0-.637-.092c-.393 0-.747.101-1.063.303-.315.202-.565.498-.749.889-.182.388-.272.864-.272 1.427 0 .566.091 1.044.275 1.434.184.391.436.687.757.889.32.202.684.303 1.093.303.379 0 .71-.077.991-.231.284-.155.503-.373.658-.654a2.05 2.05 0 0 0 .235-1.002l.272.051h-1.996v-.868h2.742v.794c0 .585-.125 1.094-.374 1.526-.248.429-.591.76-1.029.994-.436.234-.936.351-1.499.351-.631 0-1.185-.145-1.662-.436a2.96 2.96 0 0 1-1.111-1.236c-.265-.536-.398-1.172-.398-1.908 0-.556.077-1.056.231-1.499.155-.443.372-.818.651-1.127a2.84 2.84 0 0 1 .991-.712 3.1 3.1 0 0 1 1.25-.249c.377 0 .728.056 1.053.167.327.111.618.269.872.474a2.69 2.69 0 0 1 .978 1.658h-1.08zm3.4-2.203v6.976h-1.018v-6.976h1.018zm3.625 7.081c-.515 0-.959-.11-1.332-.33a2.244 2.244 0 0 1-.858-.937c-.2-.404-.3-.878-.3-1.42 0-.536.1-1.009.3-1.417.202-.409.484-.728.845-.957.363-.23.788-.345 1.274-.345.295 0 .581.049.858.147.277.098.526.251.746.46.22.209.394.48.521.814.127.331.191.735.191 1.209v.361h-4.159v-.763h3.161c0-.268-.055-.505-.164-.712a1.242 1.242 0 0 0-.459-.494 1.29 1.29 0 0 0-.688-.18c-.287 0-.536.07-.75.211-.211.139-.375.32-.49.545a1.569 1.569 0 0 0-.171.726v.596c0 .349.062.647.184.892.125.245.299.433.521.562.223.127.483.191.78.191.193 0 .369-.027.528-.082.159-.057.297-.141.413-.252a1.1 1.1 0 0 0 .265-.412l.964.174a1.743 1.743 0 0 1-.415.746 2.038 2.038 0 0 1-.746.494 2.812 2.812 0 0 1-1.019.173zm4.394-3.212v3.107h-1.019v-5.232h.978v.851h.064c.121-.277.309-.499.566-.667.259-.169.585-.253.977-.253.357 0 .669.075.937.225.268.148.476.368.624.661.147.293.221.655.221 1.087v3.328h-1.019v-3.206c0-.379-.098-.675-.296-.889-.197-.215-.469-.323-.814-.323-.236 0-.446.051-.63.153a1.1 1.1 0 0 0-.433.45 1.487 1.487 0 0 0-.156.708zm5.732 0v3.107h-1.018v-5.232h.977v.851h.065c.121-.277.309-.499.566-.667.258-.169.584-.253.977-.253.357 0 .669.075.937.225.268.148.476.368.623.661.148.293.222.655.222 1.087v3.328h-1.019v-3.206c0-.379-.099-.675-.296-.889-.198-.215-.469-.323-.814-.323-.236 0-.446.051-.63.153a1.1 1.1 0 0 0-.433.45 1.487 1.487 0 0 0-.157.708z"/><rect width="35.789" height="18.395" x="320.946" y="339.426" fill="#FFC5BC" rx="3.197"/><path fill="#A34E14" d="M328.028 351.625v-6.976h2.671c.504 0 .923.079 1.257.238.336.157.587.372.753.644.168.273.252.581.252.927 0 .283-.055.526-.164.729a1.381 1.381 0 0 1-.439.487c-.184.125-.39.214-.617.269v.068c.248.014.485.09.712.228.23.136.417.329.562.579.146.25.218.552.218.906 0 .361-.087.686-.262.974-.175.287-.438.513-.79.678-.352.166-.795.249-1.329.249h-2.824zm1.264-1.056h1.359c.459 0 .789-.087.991-.262a.86.86 0 0 0 .307-.682 1.044 1.044 0 0 0-.589-.953 1.449 1.449 0 0 0-.675-.147h-1.393v2.044zm0-2.953h1.25c.218 0 .415-.04.59-.119.174-.082.312-.197.412-.344a.922.922 0 0 0 .153-.532.866.866 0 0 0-.286-.668c-.189-.174-.469-.262-.841-.262h-1.278v1.925zm8.321 1.809v-3.032h1.233v5.232h-1.196v-.93h-.054a1.568 1.568 0 0 1-.583.719c-.268.186-.598.279-.991.279-.343 0-.646-.076-.909-.228a1.586 1.586 0 0 1-.613-.671c-.148-.295-.222-.652-.222-1.07v-3.331h1.233v3.141c0 .331.091.594.273.79.181.195.42.293.715.293.182 0 .358-.045.528-.133.17-.089.31-.22.419-.395a1.23 1.23 0 0 0 .167-.664zm6.636-1.649-1.124.123a.899.899 0 0 0-.167-.321.83.83 0 0 0-.313-.242 1.148 1.148 0 0 0-.484-.092c-.256 0-.472.056-.647.167-.173.112-.258.256-.256.433a.454.454 0 0 0 .167.371c.116.096.307.174.573.235l.892.191c.495.107.863.276 1.104.508.243.231.365.534.368.909-.003.329-.099.62-.29.872-.188.25-.451.445-.787.586a2.971 2.971 0 0 1-1.158.211c-.64 0-1.156-.134-1.546-.402a1.615 1.615 0 0 1-.699-1.127l1.203-.116c.054.236.17.414.347.535.177.12.408.18.692.18.293 0 .528-.06.705-.18.179-.121.269-.269.269-.446a.466.466 0 0 0-.174-.372c-.113-.097-.29-.172-.531-.225l-.893-.187c-.502-.104-.873-.28-1.114-.528-.24-.25-.359-.565-.357-.947a1.344 1.344 0 0 1 .262-.838c.18-.238.428-.422.746-.552.32-.131.689-.197 1.107-.197.613 0 1.096.13 1.448.392.354.261.573.614.657 1.059zm1.896 5.811a2.521 2.521 0 0 1-.804-.129l.286-.961c.179.052.34.077.48.075a.592.592 0 0 0 .372-.133c.109-.084.201-.225.276-.422l.105-.283-1.897-5.341h1.308l1.206 3.951h.054l1.209-3.951h1.312l-2.095 5.866a2.35 2.35 0 0 1-.388.711 1.59 1.59 0 0 1-.593.457c-.232.107-.509.16-.831.16z"/><path fill="#fff" d="M356.735 339.426h34.789v18.395h-34.789z"/><path fill="#A1AFC3" d="M369.588 346.829h-.845a1.729 1.729 0 0 0-.262-.64 1.74 1.74 0 0 0-.449-.464 1.92 1.92 0 0 0-.583-.286 2.345 2.345 0 0 0-.668-.095c-.422 0-.805.107-1.147.32-.341.213-.612.528-.815.944-.199.415-.299.925-.299 1.529 0 .604.1 1.114.299 1.529.203.416.474.73.815.944.342.213.725.32 1.147.32.232 0 .455-.032.668-.095a1.96 1.96 0 0 0 .583-.283 1.782 1.782 0 0 0 .711-1.107h.845a2.8 2.8 0 0 1-.347.957 2.614 2.614 0 0 1-1.468 1.165c-.309.102-.64.153-.992.153a2.919 2.919 0 0 1-1.587-.436c-.463-.29-.828-.704-1.093-1.24-.266-.535-.399-1.171-.399-1.907s.133-1.372.399-1.908a2.98 2.98 0 0 1 1.093-1.239 2.919 2.919 0 0 1 1.587-.436c.352 0 .683.051.992.153.311.102.591.252.841.449.25.196.459.434.627.716.168.279.284.598.347.957zm2.06 1.649v3.147h-.804v-6.976h.804v2.561h.068c.123-.27.307-.484.552-.643.248-.162.577-.242.988-.242.357 0 .669.071.937.214.268.141.475.358.623.651.15.291.225.661.225 1.11v3.325h-.804v-3.27c0-.416-.108-.737-.324-.964-.213-.229-.509-.344-.889-.344-.263 0-.499.056-.708.167-.207.111-.37.273-.491.487a1.582 1.582 0 0 0-.177.777zm6.403 3.27c-.331 0-.632-.063-.902-.188a1.546 1.546 0 0 1-.644-.548 1.549 1.549 0 0 1-.239-.872c0-.3.059-.543.177-.729.119-.189.276-.336.474-.443.197-.107.415-.186.654-.238a7.87 7.87 0 0 1 .725-.13c.318-.041.576-.071.774-.092.2-.022.345-.06.436-.112.093-.052.139-.143.139-.273v-.027c0-.336-.092-.597-.276-.783-.181-.187-.457-.28-.827-.28-.384 0-.685.084-.903.252a1.495 1.495 0 0 0-.46.539l-.763-.273c.136-.318.318-.565.545-.743.23-.179.479-.304.75-.374a3.09 3.09 0 0 1 .803-.109c.169 0 .362.02.58.061.22.039.432.119.637.242.206.123.378.308.514.555.136.248.204.579.204.995v3.447h-.804v-.709h-.041a1.391 1.391 0 0 1-.272.365c-.127.129-.296.24-.508.33a1.948 1.948 0 0 1-.773.137zm.123-.723c.318 0 .586-.062.804-.187a1.273 1.273 0 0 0 .667-1.107v-.736c-.034.041-.109.079-.224.113-.114.032-.246.06-.396.085a15.429 15.429 0 0 1-.769.102 3.064 3.064 0 0 0-.586.133c-.18.059-.325.149-.436.269-.109.118-.164.279-.164.484 0 .279.104.49.31.633.209.141.474.211.794.211zm6.018-4.632v.681h-2.711v-.681h2.711zm-1.921-1.254h.804v4.987c0 .227.033.398.098.511a.521.521 0 0 0 .259.225c.107.036.219.054.338.054.088 0 .161-.004.218-.013l.136-.027.163.722c-.054.02-.13.041-.228.061a1.662 1.662 0 0 1-.371.034 1.63 1.63 0 0 1-.668-.146 1.327 1.327 0 0 1-.538-.447c-.141-.199-.211-.451-.211-.756v-5.205z"/></g><g filter="url(#b)"><g filter="url(#c)"><rect width="350.114" height="281.464" x="8.71" y="3.293" fill="#fff" rx="13.73"/></g><path fill="#615E83" d="M53.494 260.9c-.514 0-.952-.14-1.314-.42-.362-.282-.638-.69-.83-1.225-.19-.537-.286-1.185-.286-1.945 0-.756.095-1.401.286-1.935.194-.537.471-.947.833-1.229.364-.284.801-.427 1.31-.427.51 0 .946.143 1.308.427.364.282.642.692.833 1.229.193.534.29 1.179.29 1.935 0 .76-.096 1.408-.287 1.945-.19.535-.467.943-.83 1.225-.36.28-.799.42-1.313.42zm0-.751c.51 0 .906-.245 1.188-.737.282-.491.423-1.192.423-2.102 0-.605-.065-1.121-.195-1.546-.127-.426-.311-.75-.553-.973a1.22 1.22 0 0 0-.863-.334c-.505 0-.9.249-1.184.747-.285.496-.427 1.198-.427 2.106 0 .605.064 1.119.191 1.542.128.424.31.746.55.966.24.221.53.331.87.331zm3.727.656v-.615l2.307-2.525c.27-.296.494-.553.669-.772a2.87 2.87 0 0 0 .39-.621 1.5 1.5 0 0 0 .129-.614 1.131 1.131 0 0 0-.656-1.055 1.547 1.547 0 0 0-.682-.146c-.269 0-.503.055-.703.167a1.15 1.15 0 0 0-.461.461 1.44 1.44 0 0 0-.16.696h-.806c0-.41.095-.769.283-1.079a1.97 1.97 0 0 1 .772-.723c.327-.173.695-.26 1.102-.26.41 0 .773.087 1.089.26.316.173.564.406.744.699.18.294.27.62.27.98 0 .257-.047.508-.14.754-.091.244-.25.516-.478.816-.225.298-.538.662-.939 1.092l-1.57 1.679v.055h3.25v.751h-4.41zm6.42-.895a.593.593 0 0 1-.434-.18.592.592 0 0 1-.18-.434.59.59 0 0 1 .18-.433.59.59 0 0 1 .434-.181.59.59 0 0 1 .433.181c.12.12.181.265.181.433a.635.635 0 0 1-.307.533.59.59 0 0 1-.307.081zm0-3.535a.594.594 0 0 1-.434-.181.592.592 0 0 1-.18-.434.59.59 0 0 1 .18-.433.59.59 0 0 1 .434-.181.59.59 0 0 1 .433.181c.12.12.181.265.181.433a.635.635 0 0 1-.307.533.591.591 0 0 1-.307.082zm4.503-2.56v6.99h-.846v-6.103h-.041l-1.707 1.133v-.86l1.748-1.16h.846zm4.195 7.085c-.4 0-.761-.079-1.082-.239a2.003 2.003 0 0 1-.772-.655 1.787 1.787 0 0 1-.317-.949h.82c.031.317.174.578.43.785.256.205.563.307.92.307a1.43 1.43 0 0 0 1.295-.754 1.65 1.65 0 0 0 .194-.802 1.63 1.63 0 0 0-.202-.816 1.48 1.48 0 0 0-.546-.57 1.548 1.548 0 0 0-.795-.211 2.201 2.201 0 0 0-.659.099c-.225.066-.41.151-.556.256l-.792-.096.423-3.44h3.632v.751H71.41l-.245 2.061h.04a1.83 1.83 0 0 1 .54-.283c.216-.075.441-.113.676-.113a2.152 2.152 0 0 1 1.935 1.14c.193.353.29.756.29 1.208 0 .446-.1.845-.3 1.195a2.2 2.2 0 0 1-.82.826c-.348.2-.744.3-1.187.3zm3.676 1.871v-7.209h.778v.833h.096c.06-.091.141-.207.246-.348.107-.143.26-.271.457-.382.2-.114.471-.171.812-.171.442 0 .83.11 1.168.331.336.221.6.534.788.939.189.405.283.883.283 1.433 0 .555-.094 1.037-.283 1.444-.189.405-.45.719-.785.942a2.05 2.05 0 0 1-1.157.331c-.337 0-.606-.056-.809-.167a1.508 1.508 0 0 1-.467-.386 5.17 5.17 0 0 1-.253-.362h-.068v2.772h-.806zm.792-4.587c0 .395.058.745.174 1.047.116.301.286.536.509.707.223.168.496.252.819.252.337 0 .618-.088.843-.266a1.63 1.63 0 0 0 .512-.723 2.84 2.84 0 0 0 .174-1.017c0-.369-.057-.701-.17-.997a1.542 1.542 0 0 0-.51-.707c-.225-.175-.508-.262-.85-.262-.327 0-.602.083-.825.249a1.493 1.493 0 0 0-.505.689c-.114.294-.17.636-.17 1.028zm5.065 2.621v-5.243h.778v.819h.068c.11-.279.286-.497.53-.651a1.58 1.58 0 0 1 .877-.236c.345 0 .633.079.863.236.232.154.413.372.543.651h.054c.135-.27.336-.485.604-.645.269-.161.59-.242.966-.242.469 0 .852.147 1.15.44.298.292.448.746.448 1.362v3.509h-.806v-3.509c0-.387-.106-.663-.317-.829a1.175 1.175 0 0 0-.748-.249c-.368 0-.654.111-.856.334-.203.221-.304.501-.304.84v3.413h-.82v-3.591c0-.298-.096-.538-.29-.72-.193-.184-.442-.276-.747-.276a1.1 1.1 0 0 0-.587.167 1.26 1.26 0 0 0-.437.464 1.37 1.37 0 0 0-.163.679v3.277h-.806zm48.492.095c-.514 0-.952-.14-1.314-.42-.362-.282-.638-.69-.829-1.225-.191-.537-.287-1.185-.287-1.945 0-.756.096-1.401.287-1.935.193-.537.471-.947.832-1.229.364-.284.801-.427 1.311-.427.51 0 .945.143 1.307.427.364.282.642.692.833 1.229.193.534.29 1.179.29 1.935 0 .76-.095 1.408-.287 1.945-.191.535-.467.943-.829 1.225-.362.28-.8.42-1.314.42zm0-.751c.51 0 .906-.245 1.188-.737.282-.491.423-1.192.423-2.102 0-.605-.065-1.121-.195-1.546-.127-.426-.311-.75-.552-.973a1.22 1.22 0 0 0-.864-.334c-.505 0-.9.249-1.184.747-.285.496-.427 1.198-.427 2.106 0 .605.064 1.119.191 1.542.128.424.311.746.55.966.241.221.531.331.87.331zm3.727.656v-.615l2.307-2.525c.271-.296.494-.553.669-.772.175-.22.305-.427.389-.621.087-.195.13-.4.13-.614a1.126 1.126 0 0 0-.655-1.055 1.548 1.548 0 0 0-.683-.146c-.268 0-.503.055-.703.167a1.15 1.15 0 0 0-.461.461 1.44 1.44 0 0 0-.16.696h-.806c0-.41.095-.769.284-1.079.188-.309.446-.55.771-.723.328-.173.695-.26 1.102-.26.41 0 .773.087 1.089.26.316.173.564.406.744.699.18.294.27.62.27.98 0 .257-.047.508-.14.754-.091.244-.25.516-.478.816-.225.298-.538.662-.939 1.092l-1.57 1.679v.055h3.25v.751h-4.41zm6.42-.895a.594.594 0 0 1-.434-.18.595.595 0 0 1-.181-.434c0-.168.061-.313.181-.433a.59.59 0 0 1 .434-.181c.168 0 .313.06.433.181.121.12.181.265.181.433a.64.64 0 0 1-.307.533.59.59 0 0 1-.307.081zm0-3.535a.595.595 0 0 1-.434-.181.595.595 0 0 1-.181-.434c0-.168.061-.313.181-.433a.59.59 0 0 1 .434-.181c.168 0 .313.06.433.181.121.12.181.265.181.433a.64.64 0 0 1-.307.533.59.59 0 0 1-.307.082zm4.408 4.525c-.451 0-.852-.077-1.205-.232a2.07 2.07 0 0 1-.836-.645 1.728 1.728 0 0 1-.335-.966h.86c.019.225.096.42.232.584.137.161.316.287.536.375.221.089.466.133.734.133.3 0 .567-.052.799-.157a1.31 1.31 0 0 0 .546-.436c.132-.187.198-.403.198-.649a1.22 1.22 0 0 0-.191-.679 1.264 1.264 0 0 0-.56-.464c-.246-.112-.546-.168-.901-.168h-.56v-.75h.56c.277 0 .521-.05.73-.151a1.131 1.131 0 0 0 .676-1.064c0-.237-.052-.443-.157-.618a1.08 1.08 0 0 0-.444-.41 1.435 1.435 0 0 0-.669-.146c-.241 0-.468.044-.682.133a1.263 1.263 0 0 0-.519.378.986.986 0 0 0-.218.594h-.82c.014-.366.124-.687.331-.962a2.09 2.09 0 0 1 .813-.649 2.635 2.635 0 0 1 1.109-.232c.432 0 .803.088 1.113.263.309.173.547.402.713.686a1.8 1.8 0 0 1 .249.922c0 .393-.103.729-.31 1.006-.205.278-.484.47-.837.577v.055c.442.073.786.26 1.034.563.248.3.372.672.372 1.116 0 .38-.103.721-.31 1.024-.205.3-.485.537-.84.71a2.73 2.73 0 0 1-1.211.259zm6.037 0c-.514 0-.952-.14-1.314-.42-.361-.282-.638-.69-.829-1.225-.191-.537-.287-1.185-.287-1.945 0-.756.096-1.401.287-1.935.193-.537.471-.947.833-1.229.364-.284.801-.427 1.31-.427.51 0 .946.143 1.307.427.365.282.642.692.833 1.229.194.534.29 1.179.29 1.935 0 .76-.095 1.408-.286 1.945-.191.535-.468.943-.83 1.225-.361.28-.799.42-1.314.42zm0-.751c.51 0 .906-.245 1.188-.737.282-.491.423-1.192.423-2.102 0-.605-.065-1.121-.194-1.546-.128-.426-.312-.75-.553-.973a1.22 1.22 0 0 0-.864-.334c-.505 0-.9.249-1.184.747-.284.496-.427 1.198-.427 2.106 0 .605.064 1.119.191 1.542.128.424.311.746.55.966.241.221.531.331.87.331zm3.741 2.622v-7.209h.778v.833h.096c.059-.091.141-.207.245-.348.107-.143.26-.271.458-.382.2-.114.471-.171.812-.171.441 0 .83.11 1.167.331.337.221.6.534.789.939.188.405.283.883.283 1.433 0 .555-.095 1.037-.283 1.444a2.24 2.24 0 0 1-.785.942c-.335.221-.72.331-1.157.331-.337 0-.607-.056-.809-.167a1.502 1.502 0 0 1-.468-.386 5.13 5.13 0 0 1-.252-.362h-.069v2.772h-.805zm.792-4.587c0 .395.058.745.174 1.047.116.301.285.536.508.707.223.168.496.252.819.252.337 0 .618-.088.843-.266.228-.18.399-.421.512-.723a2.84 2.84 0 0 0 .174-1.017c0-.369-.056-.701-.17-.997a1.543 1.543 0 0 0-.509-.707c-.225-.175-.508-.262-.85-.262-.327 0-.603.083-.826.249a1.502 1.502 0 0 0-.505.689c-.113.294-.17.636-.17 1.028zm5.065 2.621v-5.243h.778v.819h.068c.109-.279.286-.497.529-.651.243-.157.536-.236.877-.236.346 0 .634.079.864.236.232.154.413.372.542.651h.055c.134-.27.336-.485.604-.645.269-.161.59-.242.966-.242.469 0 .852.147 1.15.44.298.292.447.746.447 1.362v3.509h-.805v-3.509c0-.387-.106-.663-.318-.829a1.172 1.172 0 0 0-.747-.249c-.369 0-.654.111-.857.334-.202.221-.304.501-.304.84v3.413h-.819v-3.591c0-.298-.096-.538-.29-.72-.193-.184-.442-.276-.747-.276-.21 0-.405.055-.587.167-.18.111-.326.266-.437.464a1.373 1.373 0 0 0-.164.679v3.277h-.805zm63.119.095c-.514 0-.952-.14-1.314-.42-.362-.282-.638-.69-.829-1.225-.191-.537-.287-1.185-.287-1.945 0-.756.096-1.401.287-1.935.193-.537.471-.947.833-1.229.364-.284.801-.427 1.31-.427.51 0 .946.143 1.307.427.365.282.642.692.833 1.229.194.534.29 1.179.29 1.935 0 .76-.095 1.408-.286 1.945-.191.535-.468.943-.83 1.225-.362.28-.8.42-1.314.42zm0-.751c.51 0 .906-.245 1.188-.737.282-.491.423-1.192.423-2.102 0-.605-.065-1.121-.194-1.546-.128-.426-.312-.75-.553-.973a1.22 1.22 0 0 0-.864-.334c-.505 0-.9.249-1.184.747-.284.496-.427 1.198-.427 2.106 0 .605.064 1.119.191 1.542.128.424.311.746.55.966.241.221.531.331.87.331zm3.727.656v-.615l2.307-2.525c.271-.296.494-.553.669-.772.176-.22.305-.427.389-.621.087-.195.13-.4.13-.614 0-.246-.059-.459-.177-.638a1.156 1.156 0 0 0-.478-.417 1.548 1.548 0 0 0-.683-.146c-.268 0-.503.055-.703.167a1.155 1.155 0 0 0-.461.461 1.44 1.44 0 0 0-.16.696h-.805c0-.41.094-.769.283-1.079.189-.309.446-.55.771-.723.328-.173.695-.26 1.103-.26.409 0 .772.087 1.088.26.317.173.565.406.744.699.18.294.27.62.27.98 0 .257-.047.508-.14.754-.091.244-.25.516-.478.816-.225.298-.538.662-.938 1.092l-1.57 1.679v.055h3.249v.751h-4.41zm6.42-.895a.591.591 0 0 1-.433-.18.59.59 0 0 1-.181-.434c0-.168.06-.313.181-.433a.588.588 0 0 1 .433-.181c.168 0 .313.06.434.181.12.12.18.265.18.433a.632.632 0 0 1-.307.533.59.59 0 0 1-.307.081zm0-3.535a.592.592 0 0 1-.433-.181.59.59 0 0 1-.181-.434c0-.168.06-.313.181-.433a.588.588 0 0 1 .433-.181c.168 0 .313.06.434.181.12.12.18.265.18.433a.632.632 0 0 1-.307.533.59.59 0 0 1-.307.082zm1.882 2.996v-.696l3.072-4.86h.505v1.078h-.341l-2.321 3.673v.054h4.137v.751h-5.052zm3.29 1.434v-6.99h.806v6.99h-.806zm5.225.095a2.39 2.39 0 0 1-1.082-.239 1.998 1.998 0 0 1-.771-.655 1.78 1.78 0 0 1-.318-.949h.819c.032.317.176.578.43.785.257.205.565.307.922.307.287 0 .541-.067.764-.201.226-.134.402-.319.529-.553.13-.237.195-.504.195-.802a1.64 1.64 0 0 0-.201-.816 1.481 1.481 0 0 0-.546-.57 1.553 1.553 0 0 0-.796-.211 2.195 2.195 0 0 0-.658.099 1.824 1.824 0 0 0-.557.256l-.792-.096.424-3.44h3.631v.751h-2.921l-.246 2.061h.041c.143-.114.323-.208.539-.283.216-.075.441-.113.676-.113a2.15 2.15 0 0 1 1.935 1.14c.193.353.29.756.29 1.208 0 .446-.1.845-.3 1.195a2.201 2.201 0 0 1-.819.826c-.349.2-.744.3-1.188.3zm3.677 1.871v-7.209h.778v.833h.095c.059-.091.141-.207.246-.348.107-.143.259-.271.457-.382.201-.114.471-.171.813-.171.441 0 .83.11 1.167.331.337.221.599.534.788.939.189.405.284.883.284 1.433 0 .555-.095 1.037-.284 1.444-.189.405-.45.719-.785.942-.334.221-.72.331-1.157.331-.336 0-.606-.056-.809-.167a1.508 1.508 0 0 1-.467-.386 5.198 5.198 0 0 1-.253-.362h-.068v2.772h-.805zm.791-4.587c0 .395.058.745.174 1.047.116.301.286.536.509.707.223.168.496.252.819.252.337 0 .618-.088.843-.266a1.63 1.63 0 0 0 .512-.723 2.84 2.84 0 0 0 .174-1.017c0-.369-.057-.701-.171-.997a1.542 1.542 0 0 0-.508-.707c-.225-.175-.509-.262-.85-.262-.328 0-.603.083-.826.249a1.495 1.495 0 0 0-.505.689 2.832 2.832 0 0 0-.171 1.028zm5.065 2.621v-5.243h.778v.819h.069c.109-.279.285-.497.529-.651a1.58 1.58 0 0 1 .877-.236c.346 0 .633.079.863.236.232.154.413.372.543.651h.055a1.53 1.53 0 0 1 .604-.645c.268-.161.59-.242.966-.242.468 0 .852.147 1.15.44.298.292.447.746.447 1.362v3.509h-.806v-3.509c0-.387-.105-.663-.317-.829a1.177 1.177 0 0 0-.748-.249c-.368 0-.654.111-.856.334-.203.221-.304.501-.304.84v3.413h-.819v-3.591c0-.298-.097-.538-.29-.72-.194-.184-.443-.276-.748-.276a1.1 1.1 0 0 0-.587.167 1.269 1.269 0 0 0-.437.464 1.373 1.373 0 0 0-.163.679v3.277h-.806zm47.278.095c-.514 0-.952-.14-1.314-.42-.361-.282-.638-.69-.829-1.225-.191-.537-.287-1.185-.287-1.945 0-.756.096-1.401.287-1.935.194-.537.471-.947.833-1.229.364-.284.801-.427 1.31-.427.51 0 .946.143 1.308.427.364.282.641.692.832 1.229.194.534.291 1.179.291 1.935 0 .76-.096 1.408-.287 1.945-.191.535-.468.943-.83 1.225-.361.28-.799.42-1.314.42zm0-.751c.51 0 .906-.245 1.188-.737.282-.491.423-1.192.423-2.102 0-.605-.064-1.121-.194-1.546-.128-.426-.312-.75-.553-.973a1.22 1.22 0 0 0-.864-.334c-.505 0-.899.249-1.184.747-.284.496-.426 1.198-.426 2.106 0 .605.063 1.119.191 1.542.127.424.31.746.549.966.241.221.531.331.87.331zm6.089.751a2.97 2.97 0 0 1-1.205-.232 2.07 2.07 0 0 1-.836-.645 1.727 1.727 0 0 1-.334-.966h.86c.018.225.095.42.232.584.136.161.315.287.536.375.221.089.465.133.734.133.3 0 .566-.052.798-.157a1.31 1.31 0 0 0 .546-.436c.132-.187.198-.403.198-.649 0-.257-.063-.483-.191-.679a1.259 1.259 0 0 0-.56-.464c-.245-.112-.546-.168-.901-.168h-.559v-.75h.559c.278 0 .521-.05.731-.151.211-.1.376-.241.495-.423.12-.182.181-.396.181-.641 0-.237-.053-.443-.157-.618a1.08 1.08 0 0 0-.444-.41 1.435 1.435 0 0 0-.669-.146c-.241 0-.469.044-.683.133a1.266 1.266 0 0 0-.518.378.98.98 0 0 0-.219.594h-.819c.014-.366.124-.687.331-.962.207-.278.478-.494.812-.649a2.64 2.64 0 0 1 1.11-.232c.432 0 .803.088 1.112.263.31.173.547.402.713.686.167.285.25.592.25.922 0 .393-.104.729-.311 1.006-.205.278-.483.47-.836.577v.055c.441.073.786.26 1.034.563.248.3.372.672.372 1.116 0 .38-.104.721-.311 1.024-.204.3-.484.537-.839.71a2.732 2.732 0 0 1-1.212.259zm4.359-.99a.594.594 0 0 1-.434-.18.595.595 0 0 1-.181-.434c0-.168.061-.313.181-.433a.59.59 0 0 1 .434-.181.59.59 0 0 1 .433.181c.121.12.181.265.181.433a.64.64 0 0 1-.307.533.592.592 0 0 1-.307.081zm0-3.535a.595.595 0 0 1-.434-.181.595.595 0 0 1-.181-.434c0-.168.061-.313.181-.433a.59.59 0 0 1 .434-.181.59.59 0 0 1 .433.181c.121.12.181.265.181.433a.64.64 0 0 1-.307.533.593.593 0 0 1-.307.082zm4.326 4.525c-.515 0-.953-.14-1.314-.42-.362-.282-.639-.69-.83-1.225-.191-.537-.286-1.185-.286-1.945 0-.756.095-1.401.286-1.935.194-.537.471-.947.833-1.229.364-.284.801-.427 1.311-.427.509 0 .945.143 1.307.427.364.282.641.692.833 1.229.193.534.29 1.179.29 1.935 0 .76-.096 1.408-.287 1.945-.191.535-.468.943-.829 1.225-.362.28-.8.42-1.314.42zm0-.751c.509 0 .905-.245 1.187-.737.282-.491.424-1.192.424-2.102 0-.605-.065-1.121-.195-1.546-.127-.426-.312-.75-.553-.973a1.22 1.22 0 0 0-.863-.334c-.506 0-.9.249-1.185.747-.284.496-.426 1.198-.426 2.106 0 .605.063 1.119.191 1.542.127.424.31.746.549.966.241.221.532.331.871.331zm6.006.751c-.514 0-.952-.14-1.314-.42-.361-.282-.638-.69-.829-1.225-.191-.537-.287-1.185-.287-1.945 0-.756.096-1.401.287-1.935.193-.537.471-.947.833-1.229.364-.284.801-.427 1.31-.427.51 0 .946.143 1.308.427.364.282.641.692.832 1.229.194.534.29 1.179.29 1.935 0 .76-.095 1.408-.286 1.945-.191.535-.468.943-.83 1.225-.361.28-.799.42-1.314.42zm0-.751c.51 0 .906-.245 1.188-.737.282-.491.423-1.192.423-2.102 0-.605-.064-1.121-.194-1.546-.128-.426-.312-.75-.553-.973a1.22 1.22 0 0 0-.864-.334c-.505 0-.899.249-1.184.747-.284.496-.426 1.198-.426 2.106 0 .605.063 1.119.191 1.542.127.424.31.746.549.966.241.221.531.331.87.331zm3.741 2.622v-7.209h.778v.833h.096c.059-.091.141-.207.246-.348.106-.143.259-.271.457-.382.2-.114.471-.171.812-.171.442 0 .831.11 1.167.331.337.221.6.534.789.939.189.405.283.883.283 1.433 0 .555-.094 1.037-.283 1.444a2.24 2.24 0 0 1-.785.942c-.335.221-.72.331-1.157.331-.337 0-.607-.056-.809-.167a1.513 1.513 0 0 1-.468-.386 5.13 5.13 0 0 1-.252-.362h-.068v2.772h-.806zm.792-4.587c0 .395.058.745.174 1.047.116.301.285.536.508.707.223.168.496.252.82.252.336 0 .617-.088.843-.266.227-.18.398-.421.512-.723a2.84 2.84 0 0 0 .174-1.017c0-.369-.057-.701-.171-.997a1.543 1.543 0 0 0-.509-.707c-.225-.175-.508-.262-.849-.262-.328 0-.603.083-.826.249a1.488 1.488 0 0 0-.505.689 2.832 2.832 0 0 0-.171 1.028zm5.065 2.621v-5.243h.778v.819h.068c.109-.279.286-.497.529-.651.244-.157.536-.236.877-.236.346 0 .634.079.864.236.232.154.413.372.542.651h.055c.134-.27.336-.485.604-.645.269-.161.591-.242.966-.242.469 0 .852.147 1.15.44.298.292.447.746.447 1.362v3.509h-.805v-3.509c0-.387-.106-.663-.318-.829a1.172 1.172 0 0 0-.747-.249c-.369 0-.654.111-.857.334-.202.221-.303.501-.303.84v3.413h-.82v-3.591c0-.298-.096-.538-.29-.72-.193-.184-.442-.276-.747-.276a1.1 1.1 0 0 0-.587.167 1.26 1.26 0 0 0-.437.464 1.373 1.373 0 0 0-.164.679v3.277h-.805zm-288.321-39.53c-.514 0-.952-.14-1.314-.42-.361-.282-.638-.69-.829-1.225-.191-.537-.287-1.185-.287-1.945 0-.756.096-1.401.287-1.935.194-.537.471-.947.833-1.229.364-.284.8-.427 1.31-.427s.946.143 1.308.427c.364.282.641.692.832 1.229.194.534.29 1.179.29 1.935 0 .76-.095 1.408-.286 1.945-.191.535-.468.943-.83 1.225-.361.28-.8.42-1.314.42zm0-.751c.51 0 .906-.245 1.188-.737.282-.491.423-1.192.423-2.102 0-.605-.064-1.121-.194-1.546-.128-.426-.312-.75-.553-.973a1.22 1.22 0 0 0-.864-.334c-.505 0-.9.249-1.184.747-.284.496-.427 1.198-.427 2.106 0 .605.064 1.119.192 1.542.127.424.31.746.55.966.24.221.53.331.87.331zm-15.59-37.409c-.4 0-.76-.08-1.082-.239a2.012 2.012 0 0 1-.77-.655 1.787 1.787 0 0 1-.318-.949h.819c.032.316.175.578.43.785.257.205.564.307.921.307a1.428 1.428 0 0 0 1.294-.754c.13-.237.194-.504.194-.802a1.64 1.64 0 0 0-.201-.816 1.48 1.48 0 0 0-.546-.57 1.538 1.538 0 0 0-.795-.211 2.14 2.14 0 0 0-.659.099c-.225.066-.41.151-.556.256l-.792-.096.423-3.44h3.631v.751h-2.921l-.246 2.061h.041c.144-.114.323-.208.54-.283a2.04 2.04 0 0 1 .675-.113 2.152 2.152 0 0 1 1.935 1.14c.194.353.29.755.29 1.208 0 .446-.1.844-.3 1.195a2.2 2.2 0 0 1-.819.826c-.348.2-.744.3-1.188.3zm3.677-.095v-5.243h.778v.819h.068c.11-.28.286-.497.53-.652.243-.157.535-.235.877-.235.345 0 .633.078.863.235.232.155.413.372.543.652h.054c.135-.27.336-.485.604-.645.269-.161.59-.242.966-.242.469 0 .852.147 1.15.44.299.291.448.745.448 1.362v3.509h-.806v-3.509c0-.387-.106-.663-.317-.829a1.176 1.176 0 0 0-.748-.25c-.368 0-.654.112-.856.335-.203.221-.304.501-.304.84v3.413h-.82v-3.591c0-.298-.096-.538-.29-.72-.193-.184-.442-.277-.747-.277a1.1 1.1 0 0 0-.587.168 1.26 1.26 0 0 0-.437.464 1.37 1.37 0 0 0-.163.679v3.277h-.806zm8.353 0v-5.243h.806v5.243h-.806zm.41-6.117a.572.572 0 0 1-.406-.16.515.515 0 0 1-.168-.386c0-.15.056-.278.168-.385a.573.573 0 0 1 .406-.161c.157 0 .291.054.403.161a.51.51 0 0 1 .17.385.51.51 0 0 1-.17.386.56.56 0 0 1-.403.16zm2.676 2.963v3.154h-.805v-5.243h.778v.819h.068c.123-.266.31-.48.56-.641.25-.164.573-.246.97-.246.354 0 .665.073.931.218.266.144.473.362.621.656.148.291.222.659.222 1.105v3.332h-.805v-3.277c0-.412-.107-.733-.321-.962-.214-.232-.508-.349-.88-.349a1.4 1.4 0 0 0-.69.168c-.2.111-.358.274-.474.488a1.612 1.612 0 0 0-.175.778zm-20.042-42v6.989h-.847v-6.102h-.04l-1.707 1.133v-.86l1.747-1.16h.846zm4.29 7.085c-.515 0-.953-.14-1.314-.42-.362-.282-.639-.69-.83-1.225-.19-.537-.287-1.185-.287-1.945 0-.756.096-1.401.287-1.936.194-.537.471-.946.833-1.228.364-.285.8-.427 1.31-.427s.946.142 1.308.427c.364.282.641.691.832 1.228.194.535.29 1.18.29 1.936 0 .76-.095 1.408-.286 1.945-.191.535-.468.943-.83 1.225-.361.28-.8.42-1.313.42zm0-.751c.51 0 .905-.246 1.187-.737.282-.491.424-1.192.424-2.102 0-.606-.065-1.121-.195-1.547-.127-.425-.312-.749-.553-.972a1.221 1.221 0 0 0-.863-.335c-.506 0-.9.249-1.185.748-.284.496-.426 1.198-.426 2.106 0 .605.063 1.119.19 1.542.128.423.311.745.55.966.242.221.532.331.87.331zm3.74.655v-5.242h.778v.819h.069c.109-.28.285-.497.529-.652.243-.157.535-.235.877-.235.346 0 .634.078.863.235.232.155.413.372.543.652h.054c.135-.271.336-.486.605-.645.268-.161.59-.242.965-.242.47 0 .853.147 1.15.44.299.291.448.745.448 1.362v3.508h-.806v-3.508c0-.387-.105-.663-.317-.829a1.17 1.17 0 0 0-.748-.25c-.368 0-.654.112-.856.335-.203.221-.304.5-.304.839v3.413h-.82v-3.59c0-.298-.096-.538-.29-.72-.193-.184-.442-.277-.747-.277a1.1 1.1 0 0 0-.587.168 1.26 1.26 0 0 0-.437.464 1.37 1.37 0 0 0-.163.679v3.276h-.806zm8.354 0v-5.242h.805v5.242h-.806zm.41-6.116a.572.572 0 0 1-.407-.16.516.516 0 0 1-.167-.386c0-.15.055-.278.167-.385a.573.573 0 0 1 .406-.161c.157 0 .291.054.403.161a.51.51 0 0 1 .17.385.51.51 0 0 1-.17.386.56.56 0 0 1-.403.16zm2.676 2.963v3.153h-.806v-5.242h.778v.819h.069c.123-.266.31-.48.56-.641.25-.164.573-.246.969-.246.355 0 .665.073.931.218.267.144.474.362.622.656.148.291.221.659.221 1.105v3.331h-.805v-3.276c0-.412-.107-.733-.32-.962-.215-.233-.508-.349-.881-.349a1.4 1.4 0 0 0-.69.168c-.2.111-.358.274-.474.488a1.61 1.61 0 0 0-.174.778zM22.53 99.694v6.99h-.846v-6.103h-.04l-1.707 1.133v-.86l1.747-1.16h.847zm4.195 7.085c-.4 0-.76-.079-1.082-.239a2.003 2.003 0 0 1-.77-.655 1.787 1.787 0 0 1-.318-.949h.819c.032.316.175.578.43.785.257.205.564.307.921.307a1.428 1.428 0 0 0 1.294-.754c.13-.237.194-.504.194-.802a1.64 1.64 0 0 0-.201-.816 1.48 1.48 0 0 0-.546-.57 1.547 1.547 0 0 0-.795-.211 2.14 2.14 0 0 0-.659.099c-.225.066-.41.151-.556.256l-.792-.096.423-3.44h3.631v.751h-2.921l-.246 2.061h.041c.143-.114.323-.208.54-.283a2.04 2.04 0 0 1 .675-.113 2.152 2.152 0 0 1 1.935 1.14c.194.353.29.756.29 1.208 0 .446-.1.844-.3 1.195a2.2 2.2 0 0 1-.819.826c-.348.2-.744.3-1.188.3zm3.677-.095v-5.243h.778v.819h.068c.11-.28.286-.497.53-.652.243-.157.535-.235.877-.235.345 0 .633.078.863.235.232.155.413.372.543.652h.054c.134-.27.336-.485.604-.645.269-.161.59-.242.966-.242.469 0 .852.147 1.15.44.298.292.447.745.447 1.362v3.509h-.805v-3.509c0-.387-.106-.663-.317-.829a1.175 1.175 0 0 0-.748-.249c-.368 0-.654.111-.856.334-.203.221-.304.501-.304.84v3.413h-.82v-3.591c0-.298-.096-.538-.29-.72-.193-.184-.442-.276-.747-.276a1.1 1.1 0 0 0-.587.167 1.26 1.26 0 0 0-.437.464 1.37 1.37 0 0 0-.164.679v3.277h-.805zm8.353 0v-5.243h.806v5.243h-.806zm.41-6.116a.573.573 0 0 1-.406-.161.515.515 0 0 1-.168-.386c0-.15.056-.278.168-.385a.573.573 0 0 1 .406-.16.56.56 0 0 1 .403.16.51.51 0 0 1 .17.385.51.51 0 0 1-.17.386.561.561 0 0 1-.403.161zm2.676 2.962v3.154h-.805v-5.243h.778v.819h.068c.123-.266.31-.48.56-.641.25-.164.574-.246.97-.246.354 0 .665.073.931.218.266.144.473.362.621.656.148.291.222.66.222 1.106v3.331h-.805v-3.277c0-.412-.107-.733-.321-.962-.214-.232-.508-.348-.88-.348a1.4 1.4 0 0 0-.69.167c-.2.111-.358.274-.474.488a1.61 1.61 0 0 0-.175.778z"/><path stroke="#E5E5EF" stroke-width=".686" d="M54.609 103.176v139.095m93.595-139.095v139.095m93.597-139.095v139.095m93.594-139.095.001 139.095m.525.346H54.265"/><path stroke="#E5E5EF" stroke-dasharray="2.75 4.81" stroke-linecap="round" stroke-width="1.03" d="M54.781 183.372h280.626M54.553 218.563h280.626M54.781 142.868h280.626M54.781 102.661h280.626"/><path stroke="#7CDDC6" stroke-linecap="round" stroke-linejoin="round" stroke-width="2.059" d="M55.926 163.363h278.578"/><path stroke="#0089FF" stroke-linecap="round" stroke-width="1.889" d="m55.926 215.772 43.912-17.942 21.247-49.106h51.466l21.72-25.969 35.885 86.407h51.938l25.969-96.322 26.441 4.722"/><path stroke="#E5E5EF" stroke-width=".686" d="M31.611 75.793h304.31"/><path fill="#9291A5" d="M98.052 57.08c-.45 0-.853-.077-1.205-.232-.35-.155-.63-.37-.836-.645a1.734 1.734 0 0 1-.335-.966h.86c.019.225.096.42.232.584.137.161.316.286.536.375.22.089.465.133.734.133.3 0 .567-.052.799-.157.232-.105.414-.25.546-.437.132-.186.198-.402.198-.648 0-.257-.064-.484-.192-.68a1.265 1.265 0 0 0-.56-.464c-.245-.111-.545-.167-.9-.167h-.56v-.75h.56c.277 0 .52-.05.73-.15a1.135 1.135 0 0 0 .676-1.065c0-.237-.052-.443-.157-.618a1.073 1.073 0 0 0-.444-.41 1.435 1.435 0 0 0-.669-.147c-.24 0-.468.045-.682.133a1.272 1.272 0 0 0-.52.38.987.987 0 0 0-.218.593h-.819c.014-.366.124-.687.331-.962a2.09 2.09 0 0 1 .813-.649 2.625 2.625 0 0 1 1.109-.232c.432 0 .803.088 1.113.263.309.173.547.401.713.686.166.284.249.591.249.921 0 .394-.103.73-.31 1.007-.205.278-.484.47-.837.577v.055c.442.072.786.26 1.034.563.248.3.372.672.372 1.116 0 .38-.103.721-.31 1.024-.205.3-.485.537-.84.71a2.744 2.744 0 0 1-1.211.259zm3.771-.096v-5.242h.778v.82h.068c.11-.28.286-.498.529-.653.244-.157.536-.235.878-.235.345 0 .633.078.863.235.232.155.413.372.543.652h.054c.135-.27.336-.486.604-.645.269-.161.591-.242.966-.242.469 0 .852.147 1.15.44.299.291.448.745.448 1.362v3.508h-.806v-3.508c0-.387-.106-.663-.317-.83a1.177 1.177 0 0 0-.748-.249c-.368 0-.654.112-.856.335-.203.22-.304.5-.304.84v3.412h-.819v-3.59c0-.298-.097-.538-.29-.72-.194-.184-.443-.277-.748-.277-.209 0-.405.056-.587.168a1.26 1.26 0 0 0-.437.464 1.373 1.373 0 0 0-.164.679v3.276h-.805zm8.353 0v-5.242h.806v5.242h-.806zm.41-6.116a.571.571 0 0 1-.406-.16.514.514 0 0 1-.168-.386c0-.15.056-.279.168-.385a.57.57 0 0 1 .406-.16c.157 0 .291.053.403.16.113.107.17.235.17.385 0 .15-.057.279-.17.386a.563.563 0 0 1-.403.16zm2.676 2.963v3.153h-.805v-5.242h.778v.82h.068a1.5 1.5 0 0 1 .56-.642c.25-.164.574-.246.969-.246.355 0 .666.073.932.218.266.143.473.362.621.655.148.292.222.66.222 1.106v3.331h-.805v-3.276c0-.412-.107-.733-.321-.963-.214-.232-.507-.348-.881-.348-.257 0-.487.056-.689.168-.2.111-.358.274-.474.488a1.601 1.601 0 0 0-.175.778zm7.629 3.153v-6.99h.806v2.58h.068c.059-.09.141-.206.246-.347.107-.144.259-.271.457-.383.2-.113.471-.17.812-.17.442 0 .831.11 1.168.33.336.221.599.534.788.94.189.404.283.882.283 1.433 0 .555-.094 1.036-.283 1.444-.189.405-.45.718-.785.942-.334.22-.72.33-1.157.33-.337 0-.606-.055-.809-.167a1.501 1.501 0 0 1-.467-.385 4.876 4.876 0 0 1-.253-.362h-.095v.805h-.779zm.792-2.62c0 .395.058.744.174 1.047.116.3.286.536.509.706.223.169.496.253.819.253.337 0 .618-.089.843-.266.227-.18.398-.421.512-.724a2.84 2.84 0 0 0 .174-1.017c0-.368-.057-.7-.171-.996a1.54 1.54 0 0 0-.508-.707c-.226-.175-.509-.263-.85-.263-.328 0-.603.083-.826.25a1.496 1.496 0 0 0-.505.689 2.828 2.828 0 0 0-.171 1.027zm7.266 2.73c-.505 0-.94-.112-1.307-.335a2.245 2.245 0 0 1-.843-.942c-.195-.405-.293-.876-.293-1.413s.098-1.01.293-1.42c.198-.412.473-.732.826-.962a2.218 2.218 0 0 1 1.242-.348c.274 0 .543.045.809.136.267.091.509.24.727.444.219.203.393.471.523.805.129.335.194.747.194 1.236v.341h-4.041v-.696h3.222c0-.296-.059-.56-.178-.792a1.337 1.337 0 0 0-.498-.55 1.395 1.395 0 0 0-.758-.2c-.32 0-.598.079-.832.238a1.571 1.571 0 0 0-.536.615 1.807 1.807 0 0 0-.188.812v.464c0 .396.068.731.205 1.007.139.273.331.481.577.624.245.142.531.212.856.212.212 0 .403-.03.574-.089.173-.061.322-.152.447-.273a1.24 1.24 0 0 0 .29-.457l.778.218a1.72 1.72 0 0 1-.413.697 2.005 2.005 0 0 1-.717.464 2.66 2.66 0 0 1-.959.164zm4.202-7.1v6.99h-.806v-6.99h.806zm3.605 7.1c-.474 0-.889-.113-1.246-.338a2.294 2.294 0 0 1-.833-.946c-.198-.405-.297-.878-.297-1.42 0-.546.099-1.022.297-1.43.2-.407.478-.723.833-.948.357-.226.772-.338 1.246-.338.473 0 .887.112 1.242.338.357.225.635.541.833.949.2.407.3.883.3 1.43 0 .541-.1 1.014-.3 1.42a2.27 2.27 0 0 1-.833.945c-.355.225-.769.338-1.242.338zm0-.724c.359 0 .655-.092.887-.276.232-.185.404-.427.515-.727.112-.3.168-.626.168-.976a2.8 2.8 0 0 0-.168-.98 1.647 1.647 0 0 0-.515-.734c-.232-.186-.528-.28-.887-.28-.36 0-.656.094-.888.28a1.655 1.655 0 0 0-.515.734c-.111.303-.167.63-.167.98s.056.675.167.976c.112.3.283.542.515.727.232.184.528.276.888.276zm4.614.614-1.597-5.242h.846l1.133 4.014h.055l1.119-4.014h.861l1.105 4h.055l1.133-4h.846l-1.597 5.242h-.792l-1.146-4.027h-.082l-1.147 4.027h-.792zm9.843 1.966a1.763 1.763 0 0 1-.587-.095l.205-.71c.196.05.369.068.519.054a.621.621 0 0 0 .399-.201c.118-.118.226-.31.324-.577l.15-.41-1.938-5.269h.874l1.447 4.178h.054l1.447-4.178h.874l-2.225 6.007c-.1.27-.224.495-.372.672a1.4 1.4 0 0 1-.516.4c-.193.086-.411.13-.655.13zm6.773-1.856c-.473 0-.888-.113-1.246-.338a2.3 2.3 0 0 1-.832-.946c-.198-.405-.297-.878-.297-1.42 0-.546.099-1.022.297-1.43.2-.407.478-.723.832-.948a2.289 2.289 0 0 1 1.246-.338c.473 0 .888.112 1.243.338.357.225.634.541.832.949.201.407.301.883.301 1.43 0 .541-.1 1.014-.301 1.42-.198.404-.475.72-.832.945-.355.225-.77.338-1.243.338zm0-.724c.36 0 .656-.092.888-.276a1.64 1.64 0 0 0 .515-.727c.111-.3.167-.626.167-.976s-.056-.677-.167-.98a1.655 1.655 0 0 0-.515-.734c-.232-.186-.528-.28-.888-.28-.359 0-.655.094-.887.28a1.657 1.657 0 0 0-.516.734c-.111.303-.167.63-.167.98s.056.675.167.976c.112.3.284.542.516.727.232.184.528.276.887.276zm6.909-1.529v-3.099h.805v5.242h-.805v-.887h-.055a1.723 1.723 0 0 1-.573.68c-.259.184-.587.276-.983.276-.328 0-.619-.072-.874-.215a1.498 1.498 0 0 1-.6-.656c-.146-.293-.219-.663-.219-1.109v-3.331h.806v3.277c0 .382.107.687.32.914.217.228.492.342.826.342.201 0 .404-.052.611-.154.21-.102.385-.26.526-.471.143-.212.215-.481.215-.809zm2.281 2.143v-5.242h.778v.792h.054c.096-.26.269-.47.519-.632.251-.161.533-.242.847-.242a6.614 6.614 0 0 1 .423.014v.819a2.357 2.357 0 0 0-.188-.03 1.837 1.837 0 0 0-.304-.025c-.254 0-.482.054-.682.16a1.175 1.175 0 0 0-.642 1.068v3.318h-.805zm10.21-5.242a1.069 1.069 0 0 0-.498-.805c-.291-.192-.648-.287-1.071-.287-.31 0-.581.05-.813.15-.23.1-.409.238-.539.413a.993.993 0 0 0-.191.597.85.85 0 0 0 .133.481c.091.133.207.243.348.332.141.086.289.158.444.215.154.054.297.099.426.133l.71.19c.182.049.385.115.608.199.225.084.44.199.645.345.207.143.378.327.512.552.134.226.201.502.201.83 0 .377-.099.719-.297 1.024-.195.305-.482.547-.86.727-.375.18-.831.27-1.368.27-.501 0-.934-.081-1.301-.243a2.07 2.07 0 0 1-.86-.676 1.925 1.925 0 0 1-.351-1.007h.873c.023.264.112.483.267.656.157.17.354.298.593.382.242.082.501.123.779.123.323 0 .613-.053.87-.157.257-.107.461-.255.611-.444.15-.191.225-.414.225-.669a.823.823 0 0 0-.194-.566 1.436 1.436 0 0 0-.512-.355 5.434 5.434 0 0 0-.686-.24l-.861-.245c-.546-.157-.978-.381-1.296-.672-.319-.292-.478-.673-.478-1.144a1.7 1.7 0 0 1 .317-1.024c.214-.293.501-.52.86-.682a2.906 2.906 0 0 1 1.212-.246c.45 0 .851.08 1.201.242.351.16.628.378.833.656.207.277.316.592.328.945h-.82zm2.307 5.242v-6.99h.846v6.24h3.249v.75h-4.095zm6.134 0h-.888l2.567-6.99h.874l2.566 6.99h-.887L187.97 51.1h-.054l-2.089 5.884zm.327-2.73h3.577v.75h-3.577v-.75zm9.485-1.338-.723.205a1.354 1.354 0 0 0-.202-.352.976.976 0 0 0-.355-.286 1.289 1.289 0 0 0-.577-.113c-.32 0-.588.074-.802.222-.211.145-.317.33-.317.556 0 .2.073.358.218.475.146.116.374.212.683.29l.778.19c.469.115.818.289 1.048.523.23.232.345.531.345.898 0 .3-.087.568-.26.805-.17.237-.409.423-.716.56a2.623 2.623 0 0 1-1.072.205c-.535 0-.977-.117-1.328-.349-.35-.232-.572-.57-.665-1.017l.764-.19c.073.281.211.493.413.634.205.141.472.212.802.212.376 0 .674-.08.894-.24.223-.16.335-.354.335-.58a.611.611 0 0 0-.191-.457c-.128-.125-.323-.218-.587-.28l-.874-.204c-.48-.114-.833-.29-1.058-.53-.223-.24-.334-.542-.334-.904 0-.296.083-.557.249-.785a1.7 1.7 0 0 1 .686-.536c.291-.13.621-.194.989-.194.519 0 .927.114 1.222.341.298.228.51.528.635.901z"/><path fill="#0E233C" d="M36.807 57.05c-.922-.004-1.716-.23-2.38-.681-.662-.45-1.172-1.103-1.53-1.958-.353-.854-.529-1.882-.525-3.084 0-1.197.177-2.218.53-3.062.358-.844.868-1.486 1.53-1.925.664-.444 1.456-.666 2.375-.666.92 0 1.71.222 2.37.666.666.443 1.177 1.086 1.535 1.93.357.84.534 1.86.53 3.057 0 1.205-.178 2.235-.536 3.09-.354.854-.861 1.507-1.523 1.957-.661.45-1.453.676-2.376.676zm0-1.925c.63 0 1.132-.317 1.507-.95.376-.633.562-1.582.558-2.848 0-.833-.086-1.526-.257-2.08-.168-.555-.408-.971-.719-1.25a1.567 1.567 0 0 0-1.089-.419c-.625 0-1.126.313-1.501.939-.376.626-.565 1.563-.569 2.81 0 .844.084 1.549.252 2.114.172.56.413.983.724 1.265.311.28.676.418 1.094.418zm8.398-3.079v4.763H42.92V45.825h2.22v4.2h.097c.186-.487.486-.868.901-1.143.415-.28.935-.419 1.56-.419.573 0 1.072.126 1.497.376.43.247.762.602.998 1.067.24.461.357 1.014.354 1.657v5.246h-2.285V51.97c.004-.508-.125-.903-.386-1.185-.258-.283-.619-.424-1.084-.424a1.68 1.68 0 0 0-.825.198 1.407 1.407 0 0 0-.558.58c-.133.25-.2.552-.204.906zm11.048 4.763 4.554-9.01v-.076h-5.305v-1.898h7.707v1.925l-4.558 9.059h-2.398zm8.57 0V48.57H67v1.453h.096c.172-.483.458-.863.858-1.142.401-.28.88-.419 1.438-.419.565 0 1.046.142 1.443.424.397.279.661.658.793 1.137h.086a2.19 2.19 0 0 1 .912-1.132c.443-.286.967-.429 1.571-.429.77 0 1.393.245 1.872.735.483.486.724 1.176.724 2.07v5.54h-2.28v-5.09c0-.457-.12-.8-.364-1.029a1.279 1.279 0 0 0-.912-.343c-.414 0-.738.132-.97.397-.233.26-.349.606-.349 1.035v5.03h-2.215V51.67c0-.404-.116-.726-.349-.966-.228-.24-.53-.36-.906-.36-.254 0-.483.065-.687.194-.2.125-.359.302-.477.53-.118.226-.177.49-.177.795v4.945h-2.285zm13.775 0V48.57h2.285v8.238h-2.285zm1.148-9.3c-.34 0-.631-.113-.875-.338a1.096 1.096 0 0 1-.359-.82c0-.315.12-.585.36-.81a1.23 1.23 0 0 1 .874-.344c.34 0 .629.114.869.343.243.226.364.496.364.81 0 .319-.121.592-.364.82-.24.226-.53.339-.87.339zm5.252 4.537v4.763h-2.285V48.57h2.177v1.453h.097c.182-.48.488-.858.917-1.137.43-.282.95-.424 1.56-.424.573 0 1.072.126 1.497.376.425.25.756.608.992 1.072.236.462.354 1.012.354 1.652v5.246h-2.285V51.97c.004-.504-.125-.897-.386-1.18-.26-.286-.62-.429-1.078-.429-.307 0-.579.066-.815.198a1.383 1.383 0 0 0-.547.58c-.129.25-.195.552-.198.906z"/><path fill="#9291A5" d="M33.067 36.332h-1.14l3.3-8.987h1.123l3.3 8.987h-1.142l-2.685-7.565h-.07l-2.686 7.565zm.422-3.51h4.598v.965h-4.599v-.965zm12.087-3.23-2.493 6.74H42.03l-2.492-6.74h1.123l1.86 5.37h.07l1.861-5.37h1.124zm3.951 6.88c-.65 0-1.21-.143-1.68-.43a2.887 2.887 0 0 1-1.084-1.21c-.252-.521-.378-1.127-.378-1.817s.126-1.3.378-1.826c.254-.53.608-.942 1.062-1.237.456-.299.988-.448 1.597-.448a3.2 3.2 0 0 1 1.04.176c.342.117.654.307.934.57.281.26.505.606.672 1.036.166.43.25.96.25 1.588v.439h-5.196v-.895h4.143c0-.38-.076-.72-.228-1.018a1.72 1.72 0 0 0-.641-.707 1.794 1.794 0 0 0-.974-.259c-.413 0-.77.103-1.071.308a2.02 2.02 0 0 0-.689.79 2.32 2.32 0 0 0-.241 1.044v.597c0 .509.087.94.263 1.294a1.9 1.9 0 0 0 .742.803c.316.181.683.272 1.101.272.272 0 .518-.038.737-.114.223-.079.414-.196.575-.351.161-.158.285-.354.373-.588l1 .28c-.105.34-.282.639-.53.896a2.587 2.587 0 0 1-.922.597 3.43 3.43 0 0 1-1.233.21zm4.366-.14v-6.74h1v1.018h.07c.124-.334.346-.604.668-.812a1.963 1.963 0 0 1 1.088-.311c.076 0 .171.001.285.004.114.003.2.007.26.013v1.053a3.03 3.03 0 0 0-.242-.04 2.373 2.373 0 0 0-.39-.03c-.328 0-.62.069-.878.206a1.513 1.513 0 0 0-.825 1.373v4.266h-1.036zm6.581.158c-.427 0-.814-.08-1.162-.241a1.997 1.997 0 0 1-.83-.707c-.205-.31-.307-.684-.307-1.123 0-.386.076-.7.228-.94a1.61 1.61 0 0 1 .61-.57c.255-.137.535-.24.843-.307.31-.07.621-.126.934-.167.41-.052.742-.092.996-.118.258-.03.445-.078.562-.145.12-.067.18-.184.18-.351v-.035c0-.433-.118-.77-.355-1.01-.235-.24-.59-.36-1.067-.36-.494 0-.882.11-1.163.326-.28.216-.478.447-.592.693l-.983-.351c.176-.41.41-.729.702-.957a2.64 2.64 0 0 1 .965-.482 4.01 4.01 0 0 1 1.036-.14 4.1 4.1 0 0 1 .746.078c.284.05.557.154.82.312.267.158.488.396.663.715.176.319.264.746.264 1.281v4.441h-1.036v-.913h-.053c-.07.147-.187.303-.35.47a2.025 2.025 0 0 1-.655.425c-.272.117-.604.176-.996.176zm.158-.93c.41 0 .755-.08 1.036-.242a1.643 1.643 0 0 0 .86-1.426v-.948c-.044.053-.14.101-.29.145a4.881 4.881 0 0 1-.509.11 22.853 22.853 0 0 1-.991.132c-.27.035-.521.092-.755.17a1.3 1.3 0 0 0-.562.347c-.14.153-.21.36-.21.623 0 .36.133.632.399.817.269.181.61.272 1.022.272zM68.174 39c-.5 0-.93-.064-1.29-.193a2.738 2.738 0 0 1-.9-.5 2.738 2.738 0 0 1-.565-.659l.825-.579c.093.123.212.264.355.421.143.161.34.3.588.417.252.12.58.18.987.18.544 0 .994-.131 1.348-.395.353-.263.53-.675.53-1.237v-1.37h-.087a5.57 5.57 0 0 1-.325.457 1.842 1.842 0 0 1-.597.478c-.257.138-.605.207-1.044.207a2.813 2.813 0 0 1-1.466-.386c-.43-.258-.77-.632-1.022-1.124-.249-.491-.373-1.088-.373-1.79 0-.69.121-1.292.364-1.804.243-.515.58-.912 1.014-1.193.433-.284.933-.426 1.5-.426.44 0 .787.073 1.045.22.26.143.46.307.597.491.14.181.248.33.324.448h.106v-1.071h1v6.933c0 .58-.131 1.05-.395 1.413-.26.366-.611.633-1.053.803a3.973 3.973 0 0 1-1.466.259zm-.035-3.704c.416 0 .767-.095 1.053-.285.287-.19.505-.464.654-.82.15-.357.224-.784.224-1.282 0-.485-.073-.914-.22-1.285a1.93 1.93 0 0 0-.649-.874c-.286-.21-.64-.316-1.062-.316-.438 0-.804.112-1.097.334a2.03 2.03 0 0 0-.654.895 3.47 3.47 0 0 0-.215 1.246c0 .468.074.882.22 1.242a1.9 1.9 0 0 0 .658.843c.293.202.655.302 1.088.302zm7.67 1.176c-.649 0-1.209-.143-1.68-.43a2.886 2.886 0 0 1-1.084-1.21c-.251-.521-.377-1.127-.377-1.817s.126-1.3.377-1.826c.255-.53.609-.942 1.062-1.237.457-.299.989-.448 1.597-.448.352 0 .698.059 1.04.176.343.117.654.307.935.57.28.26.505.606.671 1.036.167.43.25.96.25 1.588v.439h-5.195v-.895h4.142c0-.38-.076-.72-.228-1.018a1.72 1.72 0 0 0-.64-.707 1.794 1.794 0 0 0-.975-.259c-.412 0-.769.103-1.07.308a2.02 2.02 0 0 0-.69.79 2.32 2.32 0 0 0-.24 1.044v.597c0 .509.087.94.263 1.294a1.9 1.9 0 0 0 .741.803c.316.181.683.272 1.102.272.272 0 .517-.038.737-.114.222-.079.414-.196.575-.351a1.61 1.61 0 0 0 .373-.588l1 .28c-.105.34-.282.639-.53.896a2.588 2.588 0 0 1-.922.597 3.43 3.43 0 0 1-1.233.21zm9.37-.14-2.054-6.74h1.088l1.457 5.16h.07l1.44-5.16h1.105l1.422 5.143h.07l1.457-5.143h1.088l-2.053 6.74H89.25l-1.475-5.178h-.105l-1.475 5.178h-1.018zm10.496.158c-.427 0-.815-.08-1.163-.241a1.996 1.996 0 0 1-.83-.707c-.204-.31-.307-.684-.307-1.123 0-.386.076-.7.229-.94a1.61 1.61 0 0 1 .61-.57c.254-.137.535-.24.842-.307.31-.07.622-.126.935-.167.41-.052.741-.092.996-.118.257-.03.445-.078.562-.145.12-.067.18-.184.18-.351v-.035c0-.433-.12-.77-.356-1.01-.234-.24-.59-.36-1.066-.36-.495 0-.882.11-1.163.326-.281.216-.479.447-.593.693l-.983-.351c.176-.41.41-.729.703-.957a2.63 2.63 0 0 1 .965-.482 3.99 3.99 0 0 1 1.036-.14 4.1 4.1 0 0 1 .745.078c.284.05.558.154.821.312.266.158.487.396.663.715.175.319.263.746.263 1.281v4.441h-1.036v-.913h-.052a1.83 1.83 0 0 1-.351.47 2.025 2.025 0 0 1-.654.425c-.272.117-.604.176-.996.176zm.158-.93c.41 0 .755-.08 1.035-.242a1.643 1.643 0 0 0 .86-1.426v-.948c-.043.053-.14.101-.29.145a4.879 4.879 0 0 1-.508.11 22.923 22.923 0 0 1-.992.132c-.27.035-.52.092-.755.17a1.301 1.301 0 0 0-.561.347c-.14.153-.211.36-.211.623 0 .36.133.632.4.817.268.181.61.272 1.022.272zm4.821.772v-6.74h1.036v6.74h-1.036zm.527-7.864a.735.735 0 0 1-.522-.206.66.66 0 0 1-.215-.496.66.66 0 0 1 .215-.495.735.735 0 0 1 .522-.207c.202 0 .374.07.518.207a.657.657 0 0 1 .219.495.657.657 0 0 1-.219.496.722.722 0 0 1-.518.206zm5.337 1.124v.878h-3.493v-.878h3.493zm-2.475-1.615h1.036v6.424c0 .293.042.512.127.658a.66.66 0 0 0 .333.29c.138.047.283.07.435.07.114 0 .207-.005.281-.017l.175-.035.211.93a2.156 2.156 0 0 1-.294.079 2.17 2.17 0 0 1-.479.044c-.292 0-.579-.063-.86-.189a1.705 1.705 0 0 1-.693-.575c-.181-.257-.272-.582-.272-.974v-6.705zm4.033 8.355v-6.74h1.035v6.74h-1.035zm.526-7.864a.735.735 0 0 1-.522-.206.664.664 0 0 1-.215-.496c0-.193.072-.358.215-.495a.735.735 0 0 1 .522-.207.72.72 0 0 1 .518.207.657.657 0 0 1 .219.495.657.657 0 0 1-.219.496.72.72 0 0 1-.518.206zm3.442 3.81v4.054h-1.036v-6.74h1v1.053h.088c.158-.342.398-.617.72-.825.322-.21.737-.316 1.246-.316.456 0 .856.094 1.198.28.342.185.609.466.799.844.19.374.285.848.285 1.421v4.283h-1.036v-4.213c0-.53-.137-.942-.412-1.237-.275-.298-.653-.448-1.132-.448a1.81 1.81 0 0 0-.887.215c-.257.144-.46.353-.61.628-.149.275-.223.608-.223 1zM120.957 39c-.5 0-.93-.064-1.29-.193a2.74 2.74 0 0 1-.9-.5 2.75 2.75 0 0 1-.566-.659l.825-.579c.094.123.212.264.356.421.143.161.339.3.588.417.251.12.58.18.987.18.544 0 .993-.131 1.347-.395.354-.263.531-.675.531-1.237v-1.37h-.088a5.63 5.63 0 0 1-.324.457 1.852 1.852 0 0 1-.597.478c-.258.138-.606.207-1.045.207a2.811 2.811 0 0 1-1.465-.386 2.715 2.715 0 0 1-1.023-1.124c-.248-.491-.373-1.088-.373-1.79 0-.69.122-1.292.365-1.804.242-.515.58-.912 1.013-1.193.433-.284.933-.426 1.501-.426.439 0 .787.073 1.044.22.261.143.46.307.597.491.141.181.249.33.325.448h.105v-1.071h1.001v6.933c0 .58-.132 1.05-.395 1.413a2.255 2.255 0 0 1-1.053.803 3.977 3.977 0 0 1-1.466.259zm-.035-3.704c.415 0 .766-.095 1.053-.285a1.77 1.77 0 0 0 .654-.82c.149-.357.224-.784.224-1.282 0-.485-.074-.914-.22-1.285a1.931 1.931 0 0 0-.649-.874c-.287-.21-.641-.316-1.062-.316-.439 0-.805.112-1.097.334a2.02 2.02 0 0 0-.654.895 3.47 3.47 0 0 0-.215 1.246c0 .468.073.882.219 1.242.15.357.369.638.659.843.292.202.655.302 1.088.302zm11.251-5.704v.878h-3.493v-.878h3.493zm-2.475-1.615h1.036v6.424c0 .293.042.512.127.658a.66.66 0 0 0 .333.29c.138.047.283.07.435.07.114 0 .208-.005.281-.017l.175-.035.211.93a2.09 2.09 0 0 1-.294.079 2.16 2.16 0 0 1-.478.044c-.293 0-.58-.063-.861-.189a1.712 1.712 0 0 1-.693-.575c-.181-.257-.272-.582-.272-.974v-6.705zm4.033 8.355v-6.74h1.035v6.74h-1.035zm.526-7.864a.737.737 0 0 1-.522-.206.664.664 0 0 1-.215-.496c0-.193.072-.358.215-.495a.737.737 0 0 1 .522-.207.72.72 0 0 1 .518.207c.146.137.22.302.22.495a.658.658 0 0 1-.22.496.72.72 0 0 1-.518.206zm2.406 7.864v-6.74h1.001v1.053h.087c.141-.36.368-.64.681-.838.313-.202.688-.303 1.127-.303.445 0 .815.101 1.111.303.298.199.53.478.697.838h.07c.173-.348.432-.625.777-.83.345-.207.759-.31 1.242-.31.603 0 1.096.188 1.479.565.383.375.575.958.575 1.751v4.511h-1.036v-4.511c0-.497-.136-.853-.408-1.066a1.51 1.51 0 0 0-.961-.32c-.474 0-.841.143-1.102.43-.26.283-.39.643-.39 1.079v4.388h-1.053v-4.616c0-.384-.125-.692-.373-.926-.249-.237-.569-.356-.961-.356-.269 0-.521.072-.755.215a1.631 1.631 0 0 0-.562.597c-.14.252-.21.543-.21.873v4.213h-1.036zm13.566.14c-.649 0-1.21-.143-1.681-.43a2.881 2.881 0 0 1-1.083-1.21c-.252-.521-.378-1.127-.378-1.817s.126-1.3.378-1.826c.254-.53.608-.942 1.061-1.237.457-.299.989-.448 1.598-.448a3.2 3.2 0 0 1 1.04.176c.342.117.654.307.934.57.281.26.505.606.672 1.036.167.43.25.96.25 1.588v.439h-5.196v-.895h4.143c0-.38-.076-.72-.228-1.018a1.725 1.725 0 0 0-.641-.707 1.795 1.795 0 0 0-.974-.259c-.413 0-.77.103-1.071.308a2.024 2.024 0 0 0-.689.79 2.319 2.319 0 0 0-.241 1.044v.597c0 .509.087.94.263 1.294.178.351.426.619.742.803.316.181.683.272 1.101.272.272 0 .518-.038.737-.114.223-.079.414-.196.575-.351.161-.158.285-.354.373-.588l1.001.28a2.23 2.23 0 0 1-.531.896 2.59 2.59 0 0 1-.922.597 3.42 3.42 0 0 1-1.233.21z"/></g><defs><filter id="a" width="332.091" height="224.446" x="91.408" y="167.401" color-interpolation-filters="sRGB" filterUnits="userSpaceOnUse"><feFlood flood-opacity="0" result="BackgroundImageFix"/><feColorMatrix in="SourceAlpha" result="hardAlpha" values="0 0 0 0 0 0 0 0 0 0 0 0 0 0 0 0 0 0 127 0"/><feMorphology in="SourceAlpha" radius="1.599" result="effect1_dropShadow_1723_58038"/><feOffset dy="3.197"/><feGaussianBlur stdDeviation="2.398"/><feColorMatrix values="0 0 0 0 0.262745 0 0 0 0 0.333333 0 0 0 0 0.423529 0 0 0 0.05 0"/><feBlend in2="BackgroundImageFix" result="effect1_dropShadow_1723_58038"/><feColorMatrix in="SourceAlpha" result="hardAlpha" values="0 0 0 0 0 0 0 0 0 0 0 0 0 0 0 0 0 0 127 0"/><feMorphology in="SourceAlpha" radius="2.398" result="effect2_dropShadow_1723_58038"/><feOffset dy="7.993"/><feGaussianBlur stdDeviation="5.995"/><feColorMatrix values="0 0 0 0 0.262745 0 0 0 0 0.333333 0 0 0 0 0.423529 0 0 0 0.1 0"/><feBlend in2="effect1_dropShadow_1723_58038" result="effect2_dropShadow_1723_58038"/><feBlend in="SourceGraphic" in2="effect2_dropShadow_1723_58038" result="shape"/></filter><filter id="b" width="366.59" height="297.941" x=".472" y="1.92" color-interpolation-filters="sRGB" filterUnits="userSpaceOnUse"><feFlood flood-opacity="0" result="BackgroundImageFix"/><feColorMatrix in="SourceAlpha" result="hardAlpha" values="0 0 0 0 0 0 0 0 0 0 0 0 0 0 0 0 0 0 127 0"/><feMorphology in="SourceAlpha" radius="1.373" result="effect1_dropShadow_1723_58038"/><feOffset dy="2.746"/><feGaussianBlur stdDeviation="2.059"/><feColorMatrix values="0 0 0 0 0.262745 0 0 0 0 0.333333 0 0 0 0 0.423529 0 0 0 0.05 0"/><feBlend in2="BackgroundImageFix" result="effect1_dropShadow_1723_58038"/><feColorMatrix in="SourceAlpha" result="hardAlpha" values="0 0 0 0 0 0 0 0 0 0 0 0 0 0 0 0 0 0 127 0"/><feMorphology in="SourceAlpha" radius="2.059" result="effect2_dropShadow_1723_58038"/><feOffset dy="6.865"/><feGaussianBlur stdDeviation="5.149"/><feColorMatrix values="0 0 0 0 0.262745 0 0 0 0 0.333333 0 0 0 0 0.423529 0 0 0 0.1 0"/><feBlend in2="effect1_dropShadow_1723_58038" result="effect2_dropShadow_1723_58038"/><feBlend in="SourceGraphic" in2="effect2_dropShadow_1723_58038" result="shape"/></filter><filter id="c" width="358.352" height="289.703" x="4.591" y=".547" color-interpolation-filters="sRGB" filterUnits="userSpaceOnUse"><feFlood flood-opacity="0" result="BackgroundImageFix"/><feColorMatrix in="SourceAlpha" result="hardAlpha" values="0 0 0 0 0 0 0 0 0 0 0 0 0 0 0 0 0 0 127 0"/><feOffset dy="1.373"/><feGaussianBlur stdDeviation="2.059"/><feComposite in2="hardAlpha" operator="out"/><feColorMatrix values="0 0 0 0 0.0509804 0 0 0 0 0.0392157 0 0 0 0 0.172549 0 0 0 0.08 0"/><feBlend in2="BackgroundImageFix" result="effect1_dropShadow_1723_58038"/><feBlend in="SourceGraphic" in2="effect1_dropShadow_1723_58038" result="shape"/></filter></defs></svg>