<svg xmlns="http://www.w3.org/2000/svg" version="1.0" viewBox="0 0 4489 1114" fill="#23263b"><path d="M2791 282.1c-48.1 14.2-89.2 26.3-91.2 26.9-3.5 1-3.8 1.4-3.8 4.5v3.5h14.3c14.9 0 25.5 1.8 32.7 5.5 8.8 4.6 15.8 14.7 17.9 26 1.2 6.7 1.6 83.9.4 83.3-.5-.2-3.5-1.7-6.8-3.4-36.8-19.2-94.2-16.7-139.5 6-19.5 9.7-34.4 20.9-51 38.3-22.1 23.1-37.5 49.4-48.5 82.8-24.1 73-16.9 166.4 17.1 224.2 15.1 25.6 36.9 46.7 59.9 57.8 17.8 8.6 35.6 12.5 57 12.5 27.8 0 49.8-6.6 70.5-21.1 15.2-10.5 30-28.3 38.4-45.8l3.6-7.5.2 31.5.3 31.4 83.3.3 83.2.2v-7.6l-6.9-1.7c-10.9-2.8-21.9-8.6-27.3-14.4-5.5-5.9-8.2-10.9-10.5-19.5-1.6-5.9-1.8-24.4-2-273.1-.3-252.3-.4-266.7-2.1-266.6-.9.1-41.1 11.7-89.2 26zm-60 159.6c11.8 3.2 20.3 9.4 26.9 19.6l4.1 6.2v287.6l-2.6 5c-7.3 14.5-22.1 23.4-40.9 24.6-16.9 1.1-29.4-3.8-42.7-16.6-28.7-27.3-44.8-82.5-44.8-153.1 0-70.9 15.9-129.1 42.6-156.4 16.2-16.5 36.7-22.6 57.4-16.9zM3004.5 261.6c-18.2 4.4-35.5 18.2-43.3 34.5-9.6 20-9.6 40.5-.1 59.9 8.2 16.5 25 29.8 43.9 34.6 8.6 2.2 24.5 2.2 32.9 0 30.6-8.1 49.5-32.9 49.4-64.6 0-12.2-1.7-19.9-7-31-4.7-9.9-17.6-23-27.5-27.8-14.1-6.9-33.6-9.1-48.3-5.6zM542 263.1c-31.6 3.3-67.3 13.4-96.5 27.3-32.2 15.4-58.8 34.7-85.1 61.8-21.6 22.3-39.2 47.4-52.9 75.3-39.2 80.3-40.4 173.6-3.3 255.2 28.6 62.7 81.5 116.1 143.2 144.8 24.7 11.5 54.5 20.4 81.2 24.5 19.7 3 52.8 3.7 72.9 1.6 70.2-7.5 135.2-39.4 182.6-89.5 85.8-90.6 106.7-222.7 53-334.6-44.4-92.4-131.4-154.3-233.1-165.9-14.7-1.7-47.5-1.9-62-.5zM1029.8 280c-37 6.7-68.9 35.8-94.1 85.7-19.6 38.8-31.9 83.4-38.4 138.8-2.2 18.9-2.5 85.6-.5 103 7 60.5 18.7 103.7 39 144.1 28.8 57.1 70.5 89.4 111.3 86 50.4-4.1 94-52.3 120.7-133.2 22.1-67 27.8-153.5 15.1-228.9-7-41.8-17.3-75-32.9-107-27.6-56.3-64.5-87.5-105-89-5.8-.2-12.6 0-15.2.5zM1476 284.3c0 3.2.1 3.3 7.3 5.1 16.7 4.2 28.4 12.1 33.7 22.6 5.8 11.7 5.5-3.6 5.5 247.5 0 218.7-.1 231.3-1.8 237.5-4.6 16.6-14.5 25.3-35.7 31.4-8.2 2.3-8.5 2.5-8.8 5.5l-.3 3.1h123.2l-.3-3.1c-.3-3-.6-3.2-7.8-5.1-9.6-2.4-20.3-7.5-25.7-12.2s-10.7-15.4-12.2-24.3c-.8-4.9-1.1-64-.9-214.7l.3-207.8 99.2 233.3 99.2 233.4h12.4L1865.6 596 1968 355.5v217.1c0 141.8-.3 219-1 222.4-3.4 17.7-14.3 28.1-36 34.3l-8.5 2.5-.6 7.2H2135v-3.5c0-2-.6-3.7-1.2-3.9-16-4.7-22.4-7.2-27.6-10.6-7.5-5.1-13.2-13.2-15.8-22.7-1.8-6.6-1.9-14.6-1.9-237.8 0-217.8.1-231.4 1.8-237.9 4.4-17.4 14.1-26.3 34.7-32.2l10-2.9V281h-167.5l-77.4 182c-42.6 100.1-77.7 182-78 182s-28.9-66.8-63.6-148.3c-34.6-81.5-69.4-163.4-77.3-182l-14.4-33.7H1476v3.3zM1264.2 309.7c-18.8 9.2-35.6 70.3-42.6 155.3-4.7 56.5-4.9 124.8-.6 181 5.9 76.1 20.1 136.7 36.4 155.7 4.7 5.4 11 8 15.9 6.4 8.5-2.8 16.9-16.3 24.2-38.6 32.2-97.8 32.2-324.2 0-422-7.1-21.7-15-34.7-23.2-38.1-4.2-1.8-6-1.7-10.1.3z"/><path d="M2296.6 416.1c-29.5 2.8-56.4 12.1-79.7 27.8-55.8 37.5-87.1 105.9-87.2 190.6 0 34.6 3.9 60.2 13.9 90.3 19.5 59.4 57.3 100.1 108.5 117.1 16.7 5.5 27.3 7.2 49.4 7.8 22.8.6 35-.7 52.7-5.7 61.5-17.2 104.4-70.2 119.8-147.9 2.7-13.7 2.7-13.7-1.6-15.1-1.9-.7-3.7-1-3.8-.8-.2.1-1.7 3-3.4 6.4-8.7 17.3-26 37.9-41.6 49.6-10.8 7.9-27.7 16.2-40.1 19.5-9 2.4-11.7 2.7-27.5 2.7-15.7 0-18.5-.3-27.2-2.7-47.5-12.7-84.6-56.3-95.9-112.4-1.5-7.5-2.3-16.1-2.6-28.1l-.6-17.2h124.7c113.8 0 124.7-.1 125.3-1.6.3-.9.1-8.6-.6-17.2-6.6-85.3-48.2-139.7-120.9-158.1-17.8-4.5-44-6.6-61.6-5zm30.9 27.1c30.4 10 46.5 49.4 46.5 114V575h-142.2l.7-8.8c3.1-39.7 13.3-75.1 27.6-95.8 17.1-24.9 42.9-35.3 67.4-27.2zM3811 416c-26 2.4-49.1 12.5-66.3 28.9-10.4 9.9-16.7 18.3-22.8 30.4l-4.9 9.9v-34.1c0-18.8-.3-34.1-.7-34.1-.5 0-37.9 10.3-83.3 22.8l-82.5 22.8-.3 3.7c-.3 3.5-.2 3.7 2.8 3.7 5.5 0 18.4 3.1 23.5 5.7 9.5 4.7 14.7 11.7 18.2 24.5 1.6 5.8 1.8 19.5 2 172.6l.4 166.2 77.7-.2 77.7-.3v-3.4c0-3.3-.1-3.3-8-6-14-4.7-21.1-11.3-25.3-23.6-1.6-4.6-1.7-16.3-2-152.3l-.2-147.4 3.7-7.1c6.9-13 19.2-23.2 32.2-26.7 2.5-.6 8.7-1.1 14-1.1 26.3.1 41.7 13.7 48.7 43.2 1.7 6.9 1.8 17.9 2.1 166.2l.4 158.7 77.7-.2 77.7-.3v-3.4c0-3.3-.1-3.3-8-6-14-4.7-21.1-11.3-25.3-23.6-1.5-4.6-1.7-17.2-2.3-147.5-.4-78.4-1-144.3-1.3-146.5-.6-3.5-.1-5 3.3-11.1 7.7-13.7 18.4-23.1 31.1-27.4 7.3-2.5 22.3-2.9 30.5-.9 20.9 5 33.1 22.6 36.5 52.4.6 5.7 1 65.1 1 161.8V839l83.3-.2 83.2-.3v-3.4c0-3.4 0-3.4-8.5-6.1-16.6-5.1-27.2-12.6-32.3-22.7-5.4-10.5-5.1-2.9-5.7-152.3-.7-152.5-.4-144.3-6.6-164.2-15.1-48.2-52.7-74.1-107.4-74.1-48.1.1-88.1 24.4-108.1 65.8-3.6 7.5-4.9 9.5-5.4 8-9-28.6-26.1-49.7-50-61.7-17.8-9.1-47.3-14-70.5-11.8zM3000.5 440.9l-82 23.7v6.8l8 1.1c22 3.2 31.3 10.5 36.2 28.7 1.6 5.8 1.8 19.7 2.3 171.8l.5 165.5 83.3.3 83.2.2v-7.6l-6.9-1.7c-16.4-4.3-28.8-13-34-24.1-5.8-12.2-5.5-1.2-5.8-202.4-.3-145.7-.6-186.2-1.6-186.1-.7.1-38.1 10.8-83.2 23.8zM3201.3 440.8l-82.3 23.7v3.7c0 3.7.1 3.8 3.8 3.8 5.2 0 16.3 2.5 21.5 4.8 6.1 2.7 12.4 8.6 15.4 14.5 5.8 11.4 5.6 7.7 6.3 137.7.8 126.9.6 122 5.5 141 8.1 31.3 23.7 53 47.9 66.5 8.2 4.6 25 10.1 36.6 12 10.8 1.7 34.4 2 43.7.5 27.1-4.4 53.1-19.1 70.8-40.1 7.5-8.8 16.6-22.9 19.2-29.7l1.8-4.7 1 64 83.3.3 83.2.2v-7.6l-7.1-1.8c-3.9-1-10.6-3.6-14.9-5.7-12.9-6.5-19.4-15.1-23.3-30.9-.7-3.2-1.2-59.1-1.4-190.3-.3-175.1-.5-185.8-2.1-185.3-.9.3-35.9 10.4-77.7 22.6-41.8 12.1-76.8 22.3-77.8 22.6-1.3.4-1.7 1.4-1.5 3.7.3 3.1.4 3.2 8.7 4.9 16.1 3.3 23.3 10.2 28 26.8 1.3 4.8 1.6 21.2 1.8 131.3l.4 125.7-3.4 5.3c-7.5 11.7-21.6 21.1-36 24.1-9.4 2-15.2 2-24.2.1-20.1-4.2-33.4-17.7-39.8-40.2l-2.2-7.8-.3-159.8c-.2-125.4-.5-159.7-1.5-159.6-.6 0-38.2 10.7-83.4 23.7z"/></svg>
