<svg width="109" height="32" viewBox="0 0 109 32" fill="none" xmlns="http://www.w3.org/2000/svg">
<path d="M12.1 31.5H0L6.1 21H18.2L12.1 31.5ZM24.3 31.5H36.4L30.3 21H18.2L24.3 31.5ZM24.3 10.5L18.2 0L12.1 10.5L18.2 21L24.3 10.5Z" fill="#FF0000"/>
<path d="M41.7969 26.9998H46.6969V25.2998H41.7969V23.0998H47.2969V21.2998H39.7969V31.4998H47.3969V29.6998H41.7969V26.9998ZM41.6969 12.0998L43.7969 19.6998H45.7969L47.9969 12.0998V19.6998H49.8969V9.4998H46.9969L44.7969 16.5998L42.6969 9.4998H39.7969V19.6998H41.6969V12.0998V12.0998ZM86.3969 9.4998H88.3969V19.6998H86.3969V9.4998ZM88.0969 21.2998H90.0969V31.4998H88.0969V21.2998ZM106.597 9.4998H108.597V19.6998H106.597V9.4998ZM50.6969 9.4998H52.6969V19.6998H50.6969V9.4998ZM103.797 13.4998H99.6969V9.4998H97.6969V19.6998H99.6969V15.1998H103.797V19.6998H105.797V9.4998H103.797V13.4998ZM55.7969 19.6998H57.8969V11.2998H60.2969V9.4998H53.2969V11.2998H55.7969V19.6998V19.6998ZM74.3969 31.4998H76.4969V23.0998H78.9969V21.2998H71.9969V23.0998H74.3969V31.4998ZM72.9969 19.8998C75.5969 19.8998 77.0969 18.6998 77.0969 16.3998V9.3998H75.0969V16.5998C75.0969 17.4998 74.3969 18.1998 73.0969 18.1998C71.5969 18.1998 71.0969 17.2998 71.0969 16.5998V9.4998H69.0969V16.4998C68.9969 18.8998 70.5969 19.8998 72.9969 19.8998ZM57.5969 26.9998H62.3969V25.2998H57.5969V23.0998H62.9969V21.2998H55.4969V31.4998H63.1969V29.6998H57.5969V26.9998ZM79.8969 19.6998H82.7969C84.6969 19.6998 85.8969 18.5998 85.8969 16.9998C85.8969 15.6998 84.9969 14.5998 83.8969 14.2998C84.7969 14.0998 85.4969 13.1998 85.4969 11.9998C85.4969 10.4998 84.3969 9.4998 82.2969 9.4998H77.6969V19.6998H79.8969ZM82.2969 18.0998H79.8969V15.1998H82.2969C83.1969 15.1998 83.8969 15.6998 83.8969 16.6998C83.7969 17.4998 83.0969 18.0998 82.2969 18.0998V18.0998ZM82.3969 11.0998C82.9969 11.0998 83.5969 11.5998 83.5969 12.2998C83.5969 12.8998 83.1969 13.5998 82.2969 13.5998H79.8969V11.0998H82.3969ZM85.5969 26.5998C86.4969 26.2998 87.3969 25.5998 87.3969 24.0998C87.3969 22.2998 86.1969 21.2998 84.0969 21.2998H79.4969V31.4998H81.5969V27.4998H83.2969C84.3969 27.4998 84.8969 27.9998 85.0969 28.7998C85.2969 29.5998 85.1969 30.7998 85.3969 31.4998H87.4969C87.2969 30.6998 87.1969 29.6998 87.0969 28.7998C87.0969 27.3998 86.3969 26.8998 85.5969 26.5998V26.5998ZM81.5969 25.8998V23.0998H83.9969C84.7969 23.0998 85.3969 23.6998 85.3969 24.4998C85.3969 25.0998 84.8969 25.8998 84.0969 25.8998H81.5969V25.8998ZM50.0969 21.2998H48.0969V31.4998H54.8969V29.6998H50.0969V21.2998ZM63.7969 15.3998C65.4969 15.6998 66.3969 15.9998 66.3969 16.9998C66.3969 17.6998 65.6969 18.2998 64.3969 18.2998C63.0969 18.2998 62.2969 17.4998 62.2969 16.5998H60.2969C60.2969 18.3998 61.3969 19.9998 64.3969 19.9998C67.1969 19.9998 68.4969 18.4998 68.4969 16.7998C68.4969 15.1998 67.4969 14.1998 65.5969 13.7998C63.7969 13.3998 62.5969 13.3998 62.5969 12.1998C62.5969 11.3998 63.2969 10.9998 64.3969 10.9998C65.5969 10.9998 66.1969 11.5998 66.1969 12.5998H68.1969C68.1969 10.9998 66.9969 9.2998 64.2969 9.2998C62.3969 9.2998 60.4969 10.3998 60.4969 12.3998C60.4969 13.9998 61.6969 14.9998 63.7969 15.3998V15.3998ZM92.3969 15.3998C93.9969 15.6998 94.9969 15.9998 94.9969 16.9998C94.9969 17.6998 94.2969 18.2998 92.9969 18.2998C91.5969 18.2998 90.8969 17.4998 90.8969 16.5998H88.8969C88.8969 18.3998 89.9969 19.9998 92.9969 19.9998C95.7969 19.9998 97.0969 18.4998 97.0969 16.7998C97.0969 15.1998 96.0969 14.1998 94.1969 13.7998C92.3969 13.3998 91.1969 13.3998 91.1969 12.1998C91.1969 11.3998 91.8969 10.9998 92.9969 10.9998C94.1969 10.9998 94.7969 11.5998 94.7969 12.5998H96.7969C96.7969 10.9998 95.5969 9.2998 92.8969 9.2998C90.9969 9.2998 89.0969 10.3998 89.0969 12.3998C89.0969 13.9998 90.3969 14.9998 92.3969 15.3998V15.3998Z" fill="black"/>
<path d="M67.8 29.9004C66.1 29.9004 65.2 28.3004 65.2 26.3004C65.2 24.4004 66.1 22.7004 67.8 22.7004C69.1 22.7004 69.7 23.5004 70 24.4004H72.1C71.8 22.4004 70.2 20.9004 67.7 20.9004C64.6 20.9004 63 23.3004 63 26.2004C63 29.1004 64.6 31.5004 67.7 31.5004C70.1 31.5004 71.8 30.1004 72.1 27.9004H70C69.7 29.2004 69.1 29.9004 67.8 29.9004V29.9004ZM95.3 29.9004C93.6 29.9004 92.7 28.3004 92.7 26.3004C92.7 24.4004 93.6 22.7004 95.3 22.7004C96.6 22.7004 97.2 23.5004 97.5 24.4004H99.6C99.3 22.4004 97.7 20.9004 95.2 20.9004C92.1 20.9004 90.5 23.3004 90.5 26.2004C90.5 29.1004 92.1 31.5004 95.2 31.5004C97.6 31.5004 99.3 30.1004 99.6 27.9004H97.5C97.2 29.2004 96.6 29.9004 95.3 29.9004V29.9004Z" fill="black"/>
</svg>
