<svg xmlns="http://www.w3.org/2000/svg" fill="none" viewBox="0 0 74 75" height="60" width="60">
<path d="M23.552 54.252l-1.047 2.51c-1.001 2.406.767 5.058 3.373 5.058h17.049c2.606 0 4.376-2.652 3.373-5.058l-1.047-2.51c-.715.38-1.452.724-2.21 1.029l1.008 2.417a1.218 1.218 0 0 1-1.124 1.687H25.878a1.219 1.219 0 0 1-1.124-1.687l1.007-2.417a23.023 23.023 0 0 1-2.21-1.03h.001z" fill="#5468FF" clip-rule="evenodd" fill-rule="evenodd"></path>
<path d="M47.29 48.425a19.404 19.404 0 0 1-12.887 4.87c-10.762 0-19.485-8.722-19.485-19.484 0-10.761 8.723-19.484 19.485-19.484 9.937 0 18.135 7.437 19.333 17.049" stroke="#B6B7D5" stroke-width="2.436"></path>
<path d="M34.403 25.287V44.77m-4.87 0h9.742M24.66 29.647v-4.36h19.77v4.36" stroke="#5468FF" stroke-width="2.436"></path>
<path d="M48.862 38.085l1.39-5.564c.154-.615 1.029-.615 1.182 0l1.39 5.564a.608.608 0 0 0 .444.443l5.564 1.39c.615.154.615 1.028 0 1.182l-5.564 1.39a.608.608 0 0 0-.443.444l-1.39 5.564c-.154.615-1.029.615-1.182 0l-1.39-5.564a.608.608 0 0 0-.444-.443L42.855 41.1c-.615-.154-.615-1.028 0-1.181l5.564-1.391a.61.61 0 0 0 .443-.443z" fill="#B6B7D5"></path>
</svg>
