<svg width="125" height="30" viewBox="0 0 125 30" fill="none" xmlns="http://www.w3.org/2000/svg">
<path d="M40.9792 3.59088C43.6292 3.59088 44.2181 3.99851 45.2313 5.17803L51.735 12.8102C51.8303 12.923 51.8823 12.949 51.9861 12.949V3.59088H54.4976V16.106H51.8043C50.0723 16.106 49.2929 15.9672 48.2104 14.6922L41.4988 6.80854C41.4736 6.76465 41.4369 6.72854 41.3926 6.7041C41.3483 6.67966 41.2982 6.66777 41.2477 6.66977V16.106H38.7363V3.59088H40.9792ZM28.5781 5.37751H34.8999C35.0369 5.39059 35.1746 5.36199 35.2951 5.29546C35.4156 5.22894 35.5133 5.12756 35.5754 5.00457L36.3202 3.59088H27.2358C23.2002 3.59088 21.2344 5.05661 21.2344 8.07481V11.544C21.2344 14.7616 23.2522 16.1233 27.2445 16.1233H35.1251C35.2621 16.1363 35.3998 16.1078 35.5203 16.0412C35.6408 15.9747 35.7385 15.8733 35.8006 15.7504L36.5453 14.3366H28.5781C26.4824 14.3366 25.7376 13.6255 25.7376 12.2118V10.4772H34.0339C34.172 10.4908 34.3109 10.4615 34.4318 10.3932C34.5526 10.3249 34.6496 10.221 34.7094 10.0956L35.4108 8.67325H25.6943V7.66715C25.6943 6.47899 25.9801 5.37751 28.5781 5.37751ZM64.6816 5.37751H71.0121C71.1494 5.39059 71.2871 5.36199 71.4077 5.29546C71.5282 5.22894 71.6255 5.12756 71.6877 5.00457L72.4327 3.59088H63.3394C59.295 3.59088 57.3295 5.05661 57.3295 8.07481V11.544C57.3295 14.7616 59.3556 16.1233 63.3394 16.1233H71.2199C71.3571 16.1363 71.4949 16.1078 71.6155 16.0412C71.736 15.9747 71.8332 15.8733 71.8955 15.7504L72.6405 14.3366H64.63C62.5339 14.3366 61.7894 13.6255 61.7894 12.2118V10.4772H70.0855C70.2249 10.4901 70.3644 10.4606 70.4866 10.3925C70.6088 10.3244 70.7077 10.2209 70.7699 10.0956L71.506 8.67325H61.7894V7.66715C61.7894 6.47899 62.0578 5.37751 64.6383 5.37751H64.6816ZM82.8243 11.8736C84.5565 12.4373 85.0587 12.6714 85.0587 13.3219C85.0587 13.9724 84.7209 14.3193 82.582 14.3193H75.2732C75.1349 14.3056 74.9954 14.3339 74.8738 14.4004C74.7515 14.4669 74.6527 14.5686 74.5888 14.6922L73.8527 16.106H84.2448C88.4536 16.106 90.0209 14.7876 90.0209 12.9577C90.0209 11.8996 89.4236 10.4946 85.4831 9.2023L81.3348 7.80592C79.6032 7.24221 79.1093 6.99065 79.1093 6.34021C79.1093 5.8285 79.4037 5.35149 81.5859 5.35149H87.8042C87.942 5.36399 88.0809 5.33524 88.2025 5.26886C88.3242 5.20249 88.4236 5.10146 88.4881 4.97855L89.1981 3.59088H79.9493C75.7404 3.59088 74.1643 4.90917 74.1643 6.73915C74.1643 7.79726 74.7704 9.21097 78.711 10.5032L82.8676 11.8736H82.8243ZM120.452 9.2023L116.296 7.80592C114.563 7.24221 114.061 6.99065 114.061 6.34021C114.061 5.8285 114.408 5.35149 116.547 5.35149H122.764C122.902 5.36457 123.039 5.33598 123.16 5.26945C123.281 5.20291 123.378 5.10154 123.44 4.97855L124.185 3.56486H114.91C110.701 3.56486 109.125 4.88315 109.125 6.71315C109.125 7.77126 109.722 9.18491 113.672 10.4772L117.828 11.8476C119.561 12.4113 120.063 12.6454 120.063 13.2959C120.063 13.9464 119.725 14.2933 117.586 14.2933H109.116L102.57 3.59088H100.084C98.1441 3.59088 97.1569 4.12861 96.2563 5.603L89.8481 16.106H94.178L99.4691 6.73915C99.5991 6.51366 99.703 6.51366 99.8158 6.51366L104.224 14.3193H99.4258C99.2885 14.3063 99.1513 14.3348 99.0308 14.4014C98.9102 14.4679 98.8124 14.5693 98.7502 14.6922L98.0058 16.106H119.205C123.414 16.106 124.982 14.7876 124.982 12.9577C124.982 11.8996 124.384 10.4946 120.435 9.2023H120.452ZM0.866003 9.66196V15.5075H6.72883V9.66196H0.866003ZM19.4418 3.22662C18.4459 -0.606824 7.60349 -1.17057 0.710121 2.32463C0.484962 2.43738 0.155881 2.67155 0.10392 2.96643C0.10392 2.96643 0.00866003 3.55619 0 3.59088C0 3.79903 0.19052 3.75567 0.268461 3.70363C1.15908 3.15172 2.11276 2.70911 3.10895 2.38534C7.4736 1.06706 12.99 1.02369 13.9773 3.87709C14.6528 5.87188 11.8642 7.51104 10.3141 8.25692C9.71658 8.54314 9.50869 8.8033 9.44808 9.12424C9.43697 9.54435 9.57852 9.95424 9.84647 10.2777C12.1241 13.5214 18.5931 18.2568 24.9842 19.948C25.0633 19.9829 25.1489 20.001 25.2353 20.001C25.3218 20.001 25.4073 19.9829 25.4865 19.948C25.5471 19.948 25.6077 19.87 25.4865 19.818C21.4351 17.6237 17.9141 14.5653 15.1724 10.8588C14.8231 10.4557 14.6242 9.9439 14.6095 9.41041C14.6095 9.08952 14.9385 8.82069 15.5361 8.54314C17.7963 7.48504 20.1259 5.88922 19.4418 3.22662ZM20.5589 29.8699C21.1738 29.8699 22.2043 29.7138 22.2043 28.1353C22.2043 27.268 21.8666 26.7476 21.0785 26.6436V26.6002C21.7886 26.4181 22.0225 25.8977 22.0225 25.1172C22.023 24.8145 21.9486 24.5165 21.806 24.2498C21.6911 24.0298 21.5116 23.8502 21.2918 23.7355C21.0719 23.6207 20.8221 23.5762 20.5763 23.6081H18.7923V29.8612L20.5589 29.8699ZM19.485 24.2846H20.481C20.6015 24.2841 20.7209 24.3088 20.8314 24.3572C20.9419 24.4055 21.0411 24.4765 21.1226 24.5655C21.2041 24.6545 21.2662 24.7595 21.3049 24.874C21.3435 24.9884 21.3578 25.1096 21.347 25.2299C21.347 25.837 21.0872 26.2186 20.5329 26.2273H19.485V24.2846ZM19.485 26.8864H20.2385C20.9486 26.8864 21.4942 27.0599 21.4942 28.0486C21.5039 28.1867 21.4846 28.3254 21.4379 28.4557C21.391 28.5861 21.3176 28.7052 21.2223 28.8056C21.127 28.906 21.0119 28.9853 20.8842 29.0387C20.7566 29.092 20.6193 29.1181 20.481 29.1153H19.485V26.8864ZM24.1615 23.556H23.46V29.8092H24.1615V23.556ZM28.8552 25.2299C28.8552 23.9203 28.3356 23.4259 27.1232 23.4259C25.9108 23.4259 25.3912 24.2238 25.3912 25.4727V27.5282C25.3912 29.2628 25.9541 29.9393 27.1232 29.9393C27.7166 29.9484 28.2999 29.7857 28.8032 29.4709V26.4354H27.0713V27.1292H28.0845V29.0547C27.7979 29.253 27.4538 29.3505 27.1059 29.3322C26.4391 29.3322 26.0927 28.9853 26.0927 27.5976V25.5074C26.0927 24.1978 26.8808 24.1544 27.1059 24.1544C27.8074 24.1544 28.0758 24.5534 28.0758 25.2906L28.8552 25.2299ZM32.6223 23.556H31.9209V29.8092H32.6223V23.556ZM33.956 29.8092H35.2203C35.5687 29.8618 35.9247 29.8138 36.2468 29.6709C36.5689 29.5281 36.8437 29.2963 37.0389 29.0026C37.3284 28.1978 37.4407 27.3398 37.368 26.4875C37.3803 25.8202 37.2986 25.1545 37.1256 24.51C37.0171 24.2123 36.8148 23.9581 36.5491 23.7859C36.2834 23.6138 35.969 23.5331 35.6533 23.556H33.9214L33.956 29.8092ZM34.6401 24.2846H35.5667C36.2942 24.2846 36.6406 24.7529 36.6406 26.0191V27.2854C36.6406 28.7337 36.2769 29.1501 35.307 29.1501H34.6401V24.2846ZM41.7327 29.8439H42.4342L42.8412 28.3521H45.0321L45.4305 29.8439H46.2186L44.4259 23.5907H43.5599L41.7327 29.8439ZM44.781 27.667H43.049L43.915 24.3279L44.781 27.667ZM46.4351 27.9792C46.4351 28.5776 46.4351 29.9913 48.0372 29.974C48.2717 30.0036 48.5098 29.9792 48.7334 29.9024C48.9571 29.8258 49.1602 29.6989 49.3273 29.5315C49.4945 29.3641 49.6212 29.1607 49.6978 28.9367C49.7743 28.7128 49.7988 28.4742 49.7692 28.2394C49.7692 26.262 47.3011 26.5048 47.3011 25.0824C47.2853 24.9625 47.2965 24.8405 47.3336 24.7253C47.3708 24.6102 47.4331 24.5048 47.5161 24.4168C47.599 24.3288 47.7004 24.2603 47.813 24.2164C47.9256 24.1726 48.0466 24.1544 48.1671 24.1631C48.8252 24.1631 49.0331 24.6141 49.0331 25.2993H49.7692C49.8125 24.0243 49.2496 23.4693 48.245 23.4693C48.0198 23.4573 47.7947 23.4951 47.5856 23.5798C47.3765 23.6645 47.1885 23.7942 47.0348 23.9596C46.8812 24.125 46.7658 24.3222 46.6966 24.5372C46.6274 24.7522 46.6061 24.9798 46.6342 25.2039C46.6342 27.0859 49.1024 26.9385 49.1024 28.3088C49.1277 28.4453 49.1198 28.5858 49.0796 28.7187C49.0394 28.8516 48.9679 28.9728 48.8712 29.0722C48.7744 29.1716 48.6553 29.2463 48.5237 29.2901C48.3922 29.3338 48.252 29.3453 48.1151 29.3235C47.6648 29.3235 47.1972 29.0547 47.1972 28.2047V28.0226L46.4351 27.9792ZM57.6411 29.974C58.81 29.974 59.3734 29.2888 59.3734 27.5629V25.5334C59.3734 24.2846 58.81 23.4866 57.6411 23.4866C56.4723 23.4866 55.9089 24.2846 55.9089 25.5334V27.5889C55.935 29.3148 56.4978 30 57.6584 30L57.6411 29.974ZM57.6411 29.3062C56.9828 29.3062 56.6278 28.9592 56.6278 27.5716V25.5074C56.6278 24.1978 57.4245 24.1544 57.6411 24.1544C57.8578 24.1544 58.6545 24.1544 58.6545 25.5074V27.6236C58.6717 28.9853 58.325 29.3322 57.6584 29.3322L57.6411 29.3062ZM61.8933 26.9731C62.0044 26.9545 62.1183 26.9613 62.2267 26.9932C62.335 27.0251 62.4344 27.0811 62.5178 27.1571C62.6011 27.2331 62.6661 27.3271 62.7078 27.4319C62.75 27.5367 62.7672 27.6497 62.7594 27.7624C62.7405 28.4627 62.8133 29.1625 62.9755 29.8439H63.7033C63.5994 29.3029 63.5361 28.7551 63.5128 28.2047C63.5128 26.9558 63.2444 26.713 62.6467 26.6002C62.9539 26.5151 63.2205 26.3218 63.3972 26.0557C63.5739 25.7896 63.6489 25.4687 63.6078 25.1518C63.6078 24.3713 63.2616 23.5907 62.2917 23.5907H60.395V29.8439H61.0878V26.9992L61.8933 26.9731ZM61.0878 24.2846H62.1528C62.69 24.2846 62.8889 24.7875 62.8889 25.2385C62.8889 25.6895 62.6467 26.2793 62.1444 26.2793H61.0878V24.2846ZM73.801 23.5907H73.0904L71.8005 29.0893L70.5444 23.5907H69.7827L71.376 29.8439H72.2421L73.801 23.5907ZM79.8626 26.9731C79.9737 26.9545 80.0882 26.9613 80.1959 26.9932C80.3043 27.0251 80.4037 27.0811 80.4871 27.1571C80.5704 27.2331 80.6359 27.3271 80.6776 27.4319C80.7193 27.5367 80.737 27.6497 80.7287 27.7624C80.7098 28.4627 80.7826 29.1625 80.9454 29.8439H81.6726C81.5443 29.3135 81.4543 28.7743 81.4043 28.2307C81.4043 26.9818 81.1359 26.739 80.5382 26.6263C80.8554 26.546 81.132 26.3509 81.3143 26.0787C81.4965 25.8065 81.572 25.4763 81.5254 25.1518C81.5254 24.3713 81.1793 23.5907 80.2004 23.5907H78.3126V29.8439H79.0143V26.9992L79.8626 26.9731ZM78.9971 24.2846H80.0532C80.5904 24.2846 80.7893 24.7875 80.7893 25.2385C80.7893 25.6895 80.547 26.2793 80.0448 26.2793H79.0143L78.9971 24.2846ZM83.6037 26.6175L82.5304 23.5907H81.742L83.2142 27.4675V29.8439H83.9242V27.4935L85.4226 23.6167H84.7126L83.6037 26.6175ZM87.397 27.9792C87.397 28.5776 87.397 29.9913 88.9992 29.974C89.2336 30.0036 89.472 29.9792 89.6953 29.9024C89.9192 29.8258 90.122 29.6989 90.2892 29.5315C90.4564 29.3641 90.5831 29.1607 90.6597 28.9367C90.7364 28.7128 90.7608 28.4742 90.7314 28.2394C90.7314 26.262 88.2631 26.5048 88.2631 25.0824C88.2475 24.9625 88.2586 24.8405 88.2959 24.7253C88.3325 24.6102 88.3953 24.5048 88.4781 24.4168C88.5609 24.3288 88.6625 24.2603 88.7748 24.2164C88.8875 24.1726 89.0086 24.1544 89.1292 24.1631C89.7959 24.1631 89.9953 24.6141 89.9953 25.2993H90.7225C90.7742 24.0243 90.2114 23.4693 89.1981 23.4693C88.9731 23.4573 88.7481 23.4951 88.5386 23.5798C88.3298 23.6645 88.142 23.7942 87.9881 23.9596C87.8348 24.125 87.7192 24.3222 87.6498 24.5372C87.5809 24.7522 87.5592 24.9798 87.5875 25.2039C87.5875 27.0859 90.0559 26.9385 90.0559 28.3088C90.0809 28.4453 90.0731 28.5858 90.0331 28.7187C89.9925 28.8516 89.9214 28.9728 89.8242 29.0722C89.7275 29.1716 89.6086 29.2463 89.477 29.2901C89.3453 29.3338 89.2053 29.3453 89.0686 29.3235C88.6181 29.3235 88.1503 29.0547 88.1503 28.2047V28.0226L87.397 27.9792ZM92.3247 29.8439V27.1206H93.2425C93.4636 27.1282 93.6841 27.0869 93.8875 26.9996C94.0908 26.9124 94.2725 26.7813 94.4197 26.6157C94.5669 26.4501 94.6758 26.254 94.7391 26.0415C94.8019 25.829 94.8175 25.6051 94.7841 25.386C94.7841 23.9116 93.9958 23.5994 93.2514 23.5994H91.6231V29.8526L92.3247 29.8439ZM92.3247 24.2846H93.2947C93.4419 24.2846 94.0653 24.3799 94.0653 25.334C94.0653 26.288 93.3814 26.4008 93.0953 26.4008H92.3247V24.2846ZM94.4547 29.8439H95.1652L95.5719 28.3521H97.7024L98.0919 29.8439H98.8802L97.0875 23.5907H96.2213L94.4547 29.8439ZM97.5119 27.667H95.7797L96.6458 24.3279L97.5119 27.667ZM102.327 25.3166C102.396 24.1024 101.981 23.4606 100.889 23.4606C99.798 23.4606 99.1574 23.9636 99.1574 25.7329V27.4675C99.1574 29.8873 100.205 29.9393 100.889 29.9393C101.253 29.9393 102.474 29.9393 102.448 27.9619H101.721C101.721 29.1847 101.071 29.2715 100.855 29.2715C100.309 29.2715 99.8674 29.0893 99.8674 27.5369V25.9498C99.8674 24.8743 100.006 24.7182 100.032 24.6488C100.091 24.5152 100.183 24.3988 100.299 24.3102C100.415 24.2217 100.551 24.1639 100.696 24.1423C100.84 24.1207 100.987 24.1359 101.124 24.1865C101.261 24.2372 101.383 24.3216 101.478 24.432C101.614 24.6998 101.67 25.0004 101.643 25.2993L102.327 25.3166ZM104.033 24.2846H106.207V23.5907H103.331V29.8439H106.207V29.1501H104.033V27.0165H106.016V26.3227H104.033V24.2846ZM39.1433 24.2846H41.3257V23.5907H38.4419V29.8439H41.3257V29.1501H39.1433V27.0165H41.1265V26.3227H39.1433V24.2846ZM53.2245 29.8439V27.0165H55.1991V26.3227H53.2245V24.2846H55.4242V23.5907H52.5231V29.8439H53.2245ZM67.1761 24.2846H69.3583V23.5907H66.4833V29.8439H69.3583V29.1501H67.1761V27.0165H69.1588V26.3227H67.1761V24.2846ZM75.221 24.2846H77.3949V23.5907H74.5193V29.8439H77.3949V29.1501H75.221V27.0165H77.1954V26.3227H75.221V24.2846Z" fill="#252492"/>
</svg>
