<svg xmlns="http://www.w3.org/2000/svg" viewBox="0 0 74 75" height="60" width="60" fill="none"><path d="M34.471 21.22h9.192v1.533h-9.192V21.22zM34.471 51.862h9.192v1.532h-9.192v-1.532z" fill="#B6B7D5" stroke="#B6B7D5" stroke-width="1.532"></path><path d="M38.3 36.541h-7.66v1.533h7.66v-1.532z" stroke="#5468FF" stroke-width="2.298"></path><path d="M49.026 17.39c1.269 0 2.418.515 3.25 1.347a4.581 4.581 0 0 1 1.346 3.25c0 1.27-.514 2.418-1.346 3.25a4.582 4.582 0 0 1-3.25 1.346 4.581 4.581 0 0 1-3.25-1.346 4.582 4.582 0 0 1-1.346-3.25c0-1.27.514-2.418 1.346-3.25a4.581 4.581 0 0 1 3.25-1.346zM49.026 48.032c1.269 0 2.418.514 3.25 1.346a4.581 4.581 0 0 1 1.346 3.25c0 1.27-.514 2.418-1.346 3.25a4.582 4.582 0 0 1-3.25 1.346 4.582 4.582 0 0 1-3.25-1.346 4.582 4.582 0 0 1-1.346-3.25c0-1.27.514-2.418 1.346-3.25a4.581 4.581 0 0 1 3.25-1.346z" stroke="#B6B7D5" clip-rule="evenodd" stroke-width="3.064"></path><path d="M24.513 32.711c1.27 0 2.418.515 3.25 1.347a4.582 4.582 0 0 1 1.346 3.25c0 1.269-.514 2.418-1.346 3.25a4.582 4.582 0 0 1-3.25 1.346 4.582 4.582 0 0 1-3.25-1.346 4.582 4.582 0 0 1-1.346-3.25c0-1.27.514-2.419 1.346-3.25a4.582 4.582 0 0 1 3.25-1.347z" stroke="#5468FF" clip-rule="evenodd" stroke-width="3.064"></path><path d="M29.11 48.032v9.192h-9.193v-9.192h9.192zM53.622 32.711v9.193H44.43V32.71h9.192zM29.11 17.39v9.193h-9.193v-9.192h9.192z" stroke="#B6B7D5" clip-rule="evenodd" stroke-width="3.064"></path></svg>
