<svg xmlns="http://www.w3.org/2000/svg" width="416" height="369" fill="none"><rect width="395.175" height="222.124" x="19.694" y="30.026" fill="#fff" rx="6.134"/><rect width="313.663" height="39.663" x="60.697" y="72.965" fill="#ECEFF8" rx="6.457"/><path fill="#43556C" d="M80.09 92.6c0 .991-.179 1.847-.536 2.569-.358.722-.849 1.278-1.472 1.67-.624.39-1.336.586-2.137.586-.801 0-1.514-.195-2.138-.587-.623-.391-1.114-.947-1.472-1.669-.357-.722-.536-1.578-.536-2.568s.179-1.847.536-2.568c.358-.722.849-1.278 1.472-1.67.624-.391 1.337-.587 2.138-.587.8 0 1.513.196 2.137.587.623.392 1.114.948 1.472 1.67.357.721.536 1.577.536 2.568zm-1.1 0c0-.813-.136-1.499-.408-2.058-.27-.56-.635-.983-1.097-1.27a2.842 2.842 0 0 0-1.54-.432c-.57 0-1.084.144-1.546.431-.459.288-.824.711-1.096 1.27-.27.56-.404 1.246-.404 2.06 0 .813.135 1.5.404 2.059.272.56.637.983 1.096 1.27.462.288.977.431 1.546.431.568 0 1.082-.143 1.54-.43.462-.288.827-.712 1.097-1.271.272-.56.408-1.246.408-2.06zm6.003-2.347v.917h-3.797v-.917h3.797zm-2.66 7.044V89.28c0-.404.095-.74.284-1.01.19-.268.436-.47.739-.605.302-.134.622-.201.958-.201a2.502 2.502 0 0 1 1.027.183l-.312.936a5.232 5.232 0 0 0-.229-.07 1.387 1.387 0 0 0-.376-.04c-.358 0-.616.09-.775.27-.156.18-.234.445-.234.793v7.76h-1.082zm10.67.147c-.66 0-1.229-.156-1.706-.468a3.05 3.05 0 0 1-1.1-1.289c-.257-.547-.386-1.172-.386-1.876 0-.715.132-1.346.395-1.894.266-.55.636-.98 1.11-1.288.477-.312 1.033-.468 1.669-.468.495 0 .942.092 1.34.275.397.184.722.44.976.77s.411.716.472 1.156h-1.082a1.679 1.679 0 0 0-.55-.853c-.282-.25-.66-.376-1.138-.376a1.9 1.9 0 0 0-1.11.33 2.15 2.15 0 0 0-.738.922c-.174.395-.261.858-.261 1.39 0 .544.085 1.018.257 1.421.174.404.418.717.733.94.318.224.691.335 1.12.335.28 0 .536-.049.765-.146.23-.098.424-.239.583-.422a1.62 1.62 0 0 0 .339-.66h1.082a2.49 2.49 0 0 1-.454 1.123 2.54 2.54 0 0 1-.949.789c-.391.192-.847.289-1.367.289zm7.214 0c-.636 0-1.194-.152-1.674-.454a3.085 3.085 0 0 1-1.119-1.27c-.266-.545-.399-1.18-.399-1.909 0-.733.133-1.374.4-1.921a3.073 3.073 0 0 1 1.118-1.275c.48-.303 1.038-.454 1.674-.454.636 0 1.192.151 1.669.454.48.303.853.728 1.119 1.275.269.547.404 1.188.404 1.921 0 .728-.135 1.364-.404 1.908a3.042 3.042 0 0 1-1.119 1.27c-.477.303-1.033.455-1.669.455zm0-.973c.483 0 .881-.123 1.192-.371a2.19 2.19 0 0 0 .693-.977c.15-.404.225-.84.225-1.312 0-.47-.075-.91-.225-1.316a2.22 2.22 0 0 0-.693-.986c-.311-.25-.709-.376-1.192-.376s-.88.126-1.192.376c-.312.251-.543.58-.693.986-.15.407-.224.846-.224 1.316 0 .471.075.908.224 1.312.15.404.38.73.693.977.312.248.71.371 1.192.371zm9.283-2.054v-4.164h1.083v7.044H109.5v-1.192h-.073a2.313 2.313 0 0 1-.77.912c-.349.248-.789.372-1.321.372a2.35 2.35 0 0 1-1.174-.29 2.015 2.015 0 0 1-.807-.88c-.196-.394-.294-.891-.294-1.49v-4.476h1.082v4.402c0 .514.144.924.431 1.23.291.305.661.458 1.11.458.269 0 .543-.069.821-.206.281-.138.517-.349.706-.633.193-.285.289-.647.289-1.087zm3.065 2.88v-7.044h1.046v1.064h.073a1.69 1.69 0 0 1 .697-.849 2.05 2.05 0 0 1 1.137-.325c.08 0 .179.001.298.004.12.003.21.008.271.014v1.1a3.279 3.279 0 0 0-.252-.04 2.492 2.492 0 0 0-.408-.033c-.343 0-.649.072-.918.216a1.581 1.581 0 0 0-.862 1.435v4.458h-1.082zm9.795-5.467-.973.276a1.805 1.805 0 0 0-.27-.473 1.31 1.31 0 0 0-.477-.385c-.202-.101-.46-.151-.775-.151-.431 0-.791.099-1.078.298-.284.195-.426.445-.426.747a.77.77 0 0 0 .293.638c.196.156.501.285.917.39l1.046.256c.63.153 1.099.387 1.408.702.309.312.463.714.463 1.206 0 .404-.116.764-.349 1.082-.229.318-.55.569-.963.752-.412.184-.892.276-1.44.276-.718 0-1.313-.156-1.784-.468-.47-.312-.769-.767-.894-1.367l1.027-.257c.098.38.283.664.555.853.275.19.635.285 1.078.285.504 0 .905-.107 1.202-.321.299-.217.449-.477.449-.78a.82.82 0 0 0-.257-.614c-.171-.169-.434-.294-.789-.377l-1.174-.275c-.645-.153-1.119-.39-1.421-.71-.3-.325-.45-.73-.45-1.216 0-.397.112-.749.335-1.055a2.28 2.28 0 0 1 .922-.72 3.235 3.235 0 0 1 1.33-.261c.697 0 1.244.153 1.642.459.4.305.684.709.853 1.21zm4.711 5.614c-.679 0-1.265-.15-1.757-.45a3.019 3.019 0 0 1-1.133-1.266c-.263-.544-.394-1.177-.394-1.898 0-.722.131-1.358.394-1.908a3.111 3.111 0 0 1 1.11-1.293c.477-.312 1.034-.468 1.669-.468.367 0 .73.061 1.087.183.358.123.684.322.977.597.294.272.528.632.702 1.082.174.45.261 1.003.261 1.66v.459h-5.43v-.936h4.33c0-.397-.08-.752-.239-1.064a1.799 1.799 0 0 0-.669-.738 1.878 1.878 0 0 0-1.019-.27c-.431 0-.804.106-1.119.32a2.125 2.125 0 0 0-.72.826c-.168.34-.252.703-.252 1.091v.624c0 .532.092.983.275 1.353.187.367.445.646.775.84a2.28 2.28 0 0 0 1.152.283c.284 0 .541-.04.77-.119.232-.082.433-.205.601-.367.168-.165.298-.37.39-.614l1.045.293c-.11.355-.295.667-.555.936a2.71 2.71 0 0 1-.963.624 3.57 3.57 0 0 1-1.288.22zm6.177-1.431-.074.495a9.78 9.78 0 0 1-.238 1.12 20.57 20.57 0 0 1-.326 1.123c-.113.351-.206.631-.279.839h-.826l.156-.775c.064-.321.129-.68.193-1.078.067-.394.122-.798.165-1.21l.055-.514h1.174zm6.921-8.108v9.392h-1.137v-9.392h1.137zm3.088 0v.825c0 .25-.046.518-.138.803a3.3 3.3 0 0 1-.394.82 2.895 2.895 0 0 1-.624.689l-.587-.477a5.88 5.88 0 0 0 .5-.858c.144-.3.216-.62.216-.958v-.844h1.027zm2.512 0v9.392h-1.082v-9.392h1.082zm3.064 0v9.392h-1.082v-9.392h1.082zm8.477 9.539c-.661 0-1.23-.156-1.706-.468a3.05 3.05 0 0 1-1.101-1.289c-.257-.547-.385-1.172-.385-1.876 0-.715.131-1.346.394-1.894.266-.55.636-.98 1.11-1.288.477-.312 1.033-.468 1.669-.468.495 0 .942.092 1.339.275.398.184.723.44.977.77s.411.716.472 1.156h-1.082a1.676 1.676 0 0 0-.55-.853c-.281-.25-.661-.376-1.137-.376-.422 0-.792.11-1.11.33a2.156 2.156 0 0 0-.739.922c-.174.395-.261.858-.261 1.39 0 .544.086 1.018.257 1.421.174.404.419.717.734.94.317.224.69.335 1.119.335.281 0 .536-.049.765-.146.23-.098.424-.239.583-.422a1.62 1.62 0 0 0 .339-.66h1.082a2.5 2.5 0 0 1-1.403 1.912c-.391.192-.847.289-1.366.289zm7.213 0c-.636 0-1.194-.152-1.674-.454a3.084 3.084 0 0 1-1.119-1.27c-.266-.545-.399-1.18-.399-1.909 0-.733.133-1.374.399-1.921a3.077 3.077 0 0 1 1.119-1.275c.48-.303 1.038-.454 1.674-.454.636 0 1.193.151 1.67.454.48.303.853.728 1.119 1.275.269.547.403 1.188.403 1.921 0 .728-.134 1.364-.403 1.908a3.042 3.042 0 0 1-1.119 1.27c-.477.303-1.034.455-1.67.455zm0-.973c.483 0 .881-.123 1.193-.371a2.19 2.19 0 0 0 .692-.977c.15-.404.225-.84.225-1.312 0-.47-.075-.91-.225-1.316a2.218 2.218 0 0 0-.692-.986c-.312-.25-.71-.376-1.193-.376-.483 0-.88.126-1.192.376a2.22 2.22 0 0 0-.693.986 3.797 3.797 0 0 0-.224 1.316c0 .471.075.908.224 1.312.15.404.381.73.693.977.312.248.709.371 1.192.371zm5.927-3.412v4.238h-1.083v-7.044h1.046v1.1h.092a2.01 2.01 0 0 1 .752-.862c.336-.22.77-.33 1.302-.33.477 0 .894.098 1.252.293.358.193.636.487.835.881.198.391.298.887.298 1.486v4.476h-1.082v-4.403c0-.553-.144-.984-.432-1.293-.287-.312-.681-.468-1.183-.468-.345 0-.654.075-.926.225a1.61 1.61 0 0 0-.638.656c-.155.287-.233.636-.233 1.045zm7.554 0v4.238h-1.082v-7.044h1.045v1.1h.092c.165-.357.416-.645.752-.862.336-.22.77-.33 1.302-.33.477 0 .895.098 1.252.293.358.193.636.487.835.881.199.391.298.887.298 1.486v4.476h-1.082v-4.403c0-.553-.144-.984-.431-1.293-.288-.312-.682-.468-1.183-.468a1.89 1.89 0 0 0-.927.225c-.269.15-.481.368-.637.656-.156.287-.234.636-.234 1.045zm9.425 4.385c-.678 0-1.264-.15-1.756-.45a3.019 3.019 0 0 1-1.133-1.266c-.263-.544-.394-1.177-.394-1.898 0-.722.131-1.358.394-1.908a3.111 3.111 0 0 1 1.11-1.293c.477-.312 1.033-.468 1.669-.468.367 0 .729.061 1.087.183.358.123.683.322.977.597.293.272.527.632.702 1.082.174.45.261 1.003.261 1.66v.459h-5.43v-.936h4.329c0-.397-.079-.752-.238-1.064a1.794 1.794 0 0 0-.67-.738 1.872 1.872 0 0 0-1.018-.27c-.431 0-.804.106-1.119.32a2.11 2.11 0 0 0-.72.826c-.168.34-.252.703-.252 1.091v.624c0 .532.092.983.275 1.353.187.367.445.646.775.84.33.189.714.283 1.151.283.285 0 .541-.04.771-.119.232-.082.432-.205.6-.367a1.65 1.65 0 0 0 .39-.614l1.046.293c-.11.355-.295.667-.555.936a2.71 2.71 0 0 1-.963.624c-.382.146-.812.22-1.289.22zm7.425 0c-.66 0-1.229-.156-1.706-.468a3.05 3.05 0 0 1-1.101-1.289c-.256-.547-.385-1.172-.385-1.876 0-.715.132-1.346.395-1.894a3.11 3.11 0 0 1 1.109-1.288c.477-.312 1.034-.468 1.67-.468.495 0 .941.092 1.339.275.397.184.723.44.977.77.253.33.411.716.472 1.156h-1.082a1.678 1.678 0 0 0-.551-.853c-.281-.25-.66-.376-1.137-.376-.422 0-.792.11-1.11.33a2.146 2.146 0 0 0-.738.922c-.174.395-.262.858-.262 1.39 0 .544.086 1.018.257 1.421.175.404.419.717.734.94.318.224.691.335 1.119.335.281 0 .537-.049.766-.146a1.58 1.58 0 0 0 .582-.422c.159-.184.272-.404.34-.66h1.082c-.061.415-.213.79-.454 1.123-.239.33-.555.593-.949.789-.392.192-.847.289-1.367.289zm7.416-7.191v.917h-3.651v-.917h3.651zm-2.587-1.688h1.082v6.714c0 .306.045.535.133.688a.69.69 0 0 0 .349.303 1.4 1.4 0 0 0 .454.073 1.9 1.9 0 0 0 .293-.018l.184-.037.22.972a2.202 2.202 0 0 1-.307.083 2.3 2.3 0 0 1-.5.046 2.18 2.18 0 0 1-.899-.198 1.792 1.792 0 0 1-.725-.6c-.189-.27-.284-.609-.284-1.018v-7.008zm8.544 11.373c-.184 0-.347-.015-.491-.045a1.293 1.293 0 0 1-.298-.083l.275-.954a2.1 2.1 0 0 0 .697.074.836.836 0 0 0 .537-.271c.159-.16.304-.417.436-.775l.201-.55-2.605-7.081h1.174l1.945 5.613h.073l1.945-5.613h1.174l-2.99 8.071a3.057 3.057 0 0 1-.5.904c-.199.241-.43.42-.693.536-.26.116-.553.174-.88.174zm9.101-2.494c-.636 0-1.194-.152-1.674-.454a3.084 3.084 0 0 1-1.119-1.27c-.266-.545-.399-1.18-.399-1.909 0-.733.133-1.374.399-1.921a3.077 3.077 0 0 1 1.119-1.275c.48-.303 1.038-.454 1.674-.454.636 0 1.192.151 1.669.454.48.303.853.728 1.119 1.275.269.547.404 1.188.404 1.921 0 .728-.135 1.364-.404 1.908a3.042 3.042 0 0 1-1.119 1.27c-.477.303-1.033.455-1.669.455zm0-.973c.483 0 .88-.123 1.192-.371a2.19 2.19 0 0 0 .693-.977c.149-.404.224-.84.224-1.312 0-.47-.075-.91-.224-1.316a2.22 2.22 0 0 0-.693-.986c-.312-.25-.709-.376-1.192-.376s-.881.126-1.193.376a2.23 2.23 0 0 0-.692.986c-.15.407-.225.846-.225 1.316 0 .471.075.908.225 1.312.15.404.381.73.692.977.312.248.71.371 1.193.371zm9.283-2.054v-4.164h1.082v7.044h-1.082v-1.192h-.073a2.308 2.308 0 0 1-.771.912c-.348.248-.789.372-1.321.372-.44 0-.831-.097-1.174-.29a2.026 2.026 0 0 1-.807-.88c-.195-.394-.293-.891-.293-1.49v-4.476h1.082v4.402c0 .514.144.924.431 1.23.291.305.661.458 1.11.458.269 0 .543-.069.821-.206.281-.138.517-.349.706-.633.193-.285.289-.647.289-1.087zm8.293 2.88-2.147-7.044h1.138l1.522 5.393h.074l1.504-5.393h1.156l1.485 5.375h.074l1.522-5.375h1.138l-2.147 7.044h-1.064l-1.54-5.412h-.11l-1.541 5.412h-1.064zm8.897 0v-7.044h1.082v7.044h-1.082zm.55-8.218a.77.77 0 0 1-.546-.216.692.692 0 0 1-.225-.518c0-.202.075-.374.225-.518a.77.77 0 0 1 .546-.216c.211 0 .391.072.541.216a.685.685 0 0 1 .229.518.685.685 0 0 1-.229.518.754.754 0 0 1-.541.216zm5.578 1.174v.917h-3.651v-.917h3.651zm-2.587-1.688h1.082v6.714c0 .306.045.535.133.688a.69.69 0 0 0 .349.303 1.4 1.4 0 0 0 .454.073 1.9 1.9 0 0 0 .293-.018l.184-.037.22.972a2.202 2.202 0 0 1-.307.083 2.3 2.3 0 0 1-.5.046c-.306 0-.606-.066-.899-.198a1.792 1.792 0 0 1-.725-.6c-.189-.27-.284-.609-.284-1.018v-7.008zm5.448 4.494v4.238h-1.082v-9.392h1.082v3.448h.092c.165-.363.413-.652.743-.866.333-.217.776-.326 1.33-.326.48 0 .9.096 1.261.289.361.19.641.481.839.876.202.391.303.89.303 1.495v4.476h-1.082v-4.403c0-.56-.146-.992-.436-1.297-.287-.31-.686-.464-1.197-.464-.355 0-.673.075-.954.225a1.64 1.64 0 0 0-.66.656c-.159.287-.239.636-.239 1.045zm13.243-2.806v.917h-3.65v-.917h3.65zm-2.586-1.688h1.082v6.714c0 .306.045.535.133.688a.69.69 0 0 0 .349.303c.143.049.295.073.454.073a1.9 1.9 0 0 0 .293-.018l.184-.037.22.972a2.202 2.202 0 0 1-.307.083 2.3 2.3 0 0 1-.5.046c-.306 0-.606-.066-.899-.198a1.786 1.786 0 0 1-.725-.6c-.189-.27-.284-.609-.284-1.018v-7.008zm5.448 4.494v4.238h-1.082v-9.392h1.082v3.448h.092c.165-.363.413-.652.743-.866.333-.217.776-.326 1.33-.326.48 0 .9.096 1.261.289.361.19.64.481.839.876.202.391.303.89.303 1.495v4.476h-1.082v-4.403c0-.56-.146-.992-.436-1.297-.288-.31-.687-.464-1.197-.464-.355 0-.673.075-.954.225a1.64 1.64 0 0 0-.66.656c-.159.287-.239.636-.239 1.045zm9.501 4.385c-.679 0-1.264-.15-1.756-.45a3.019 3.019 0 0 1-1.133-1.266c-.263-.544-.394-1.177-.394-1.898 0-.722.131-1.358.394-1.908a3.111 3.111 0 0 1 1.11-1.293c.477-.312 1.033-.468 1.669-.468.367 0 .729.061 1.087.183.358.123.683.322.977.597.293.272.527.632.702 1.082.174.45.261 1.003.261 1.66v.459h-5.43v-.936h4.329c0-.397-.079-.752-.238-1.064a1.794 1.794 0 0 0-.67-.738 1.875 1.875 0 0 0-1.018-.27c-.431 0-.804.106-1.119.32a2.11 2.11 0 0 0-.72.826c-.168.34-.252.703-.252 1.091v.624c0 .532.092.983.275 1.353.187.367.445.646.775.84.33.189.714.283 1.151.283.285 0 .541-.04.771-.119.232-.082.432-.205.6-.367a1.65 1.65 0 0 0 .39-.614l1.046.293c-.11.355-.295.667-.555.936a2.71 2.71 0 0 1-.963.624c-.382.146-.812.22-1.289.22zm8.195-.147v-7.044h1.046v1.064h.073c.129-.349.361-.632.697-.849a2.055 2.055 0 0 1 1.138-.325c.079 0 .179.001.298.004s.209.008.27.014v1.1a3.104 3.104 0 0 0-.252-.04 2.474 2.474 0 0 0-.408-.033c-.342 0-.648.072-.917.216a1.58 1.58 0 0 0-.862 1.435v4.458h-1.083zm4.805 0v-7.044h1.083v7.044h-1.083zm.551-8.218a.77.77 0 0 1-.546-.216.692.692 0 0 1-.225-.518c0-.202.075-.374.225-.518a.77.77 0 0 1 .546-.216c.211 0 .391.072.541.216a.685.685 0 0 1 .229.518.685.685 0 0 1-.229.518.754.754 0 0 1-.541.216zm5.357 11.006c-.522 0-.972-.067-1.348-.202a2.864 2.864 0 0 1-.94-.522 2.86 2.86 0 0 1-.592-.688l.862-.606c.098.129.222.276.372.44.15.169.355.314.614.436.263.126.607.188 1.032.188.569 0 1.038-.137 1.408-.412.37-.276.555-.707.555-1.294v-1.43h-.092a5.628 5.628 0 0 1-.339.476 1.931 1.931 0 0 1-.624.5c-.269.144-.633.216-1.091.216a2.94 2.94 0 0 1-1.532-.404c-.449-.269-.805-.66-1.068-1.174-.26-.513-.39-1.137-.39-1.87 0-.722.127-1.35.38-1.886.254-.538.607-.954 1.06-1.247.452-.297.975-.445 1.568-.445.459 0 .823.076 1.092.23.272.15.48.32.623.513.147.19.26.346.34.468h.11v-1.12h1.045V97.5c0 .605-.137 1.097-.412 1.476a2.35 2.35 0 0 1-1.101.84c-.459.18-.969.27-1.532.27zm-.036-3.87c.434 0 .801-.1 1.1-.299.3-.198.528-.484.684-.857.156-.373.233-.82.233-1.34 0-.507-.076-.955-.229-1.343a2.014 2.014 0 0 0-.679-.913c-.299-.22-.669-.33-1.109-.33-.459 0-.841.117-1.147.349a2.12 2.12 0 0 0-.683.935c-.15.392-.225.826-.225 1.303 0 .489.077.922.229 1.298.156.373.386.666.688.88.306.211.685.317 1.138.317zm6.145-3.156v4.238h-1.082v-9.392h1.082v3.448h.092c.165-.363.412-.652.743-.866.333-.217.776-.326 1.329-.326.481 0 .901.096 1.262.289.36.19.64.481.839.876.202.391.303.89.303 1.495v4.476h-1.083v-4.403c0-.56-.145-.992-.435-1.297-.288-.31-.687-.464-1.197-.464-.355 0-.673.075-.954.225-.278.15-.499.368-.661.656-.159.287-.238.636-.238 1.045zm9.611-2.806v.917h-3.65v-.917h3.65zm-2.586-1.688h1.082v6.714c0 .306.044.535.133.688.092.15.208.25.348.303a1.4 1.4 0 0 0 .454.073c.12 0 .217-.006.294-.018l.183-.037.22.972a2.163 2.163 0 0 1-.307.083c-.131.03-.298.046-.5.046-.305 0-.605-.066-.899-.198a1.783 1.783 0 0 1-.724-.6c-.19-.27-.284-.609-.284-1.018v-7.008zm7.846 11.373v-9.685h1.046v1.119h.128c.08-.123.19-.278.33-.468.144-.193.349-.364.615-.514.269-.153.633-.229 1.091-.229.594 0 1.116.148 1.569.445.452.296.805.717 1.059 1.261.254.544.381 1.186.381 1.926 0 .746-.127 1.393-.381 1.94-.254.544-.605.966-1.055 1.266-.449.296-.967.445-1.554.445-.453 0-.815-.075-1.087-.225a2.006 2.006 0 0 1-.628-.518 7.086 7.086 0 0 1-.34-.486h-.092v3.723h-1.082zm1.064-6.163c0 .532.078 1.001.234 1.408.156.403.384.72.683.949.3.226.667.34 1.101.34.452 0 .83-.12 1.133-.358.305-.242.535-.566.688-.973.156-.41.234-.865.234-1.366 0-.496-.077-.942-.23-1.34-.15-.4-.377-.716-.683-.949-.303-.235-.683-.353-1.142-.353-.44 0-.81.112-1.11.335-.299.22-.526.529-.679.926-.152.395-.229.855-.229 1.38zm9.759 3.669c-.679 0-1.264-.15-1.756-.45a3.019 3.019 0 0 1-1.133-1.266c-.263-.544-.394-1.177-.394-1.898 0-.722.131-1.358.394-1.908a3.111 3.111 0 0 1 1.11-1.293c.477-.312 1.033-.468 1.669-.468.367 0 .729.061 1.087.183.358.123.683.322.977.597.293.272.527.632.701 1.082.175.45.262 1.003.262 1.66v.459h-5.43v-.936h4.329c0-.397-.079-.752-.238-1.064a1.794 1.794 0 0 0-.67-.738 1.875 1.875 0 0 0-1.018-.27c-.431 0-.804.106-1.119.32a2.11 2.11 0 0 0-.72.826c-.168.34-.252.703-.252 1.091v.624c0 .532.092.983.275 1.353.187.367.445.646.775.84.33.189.714.283 1.151.283.284 0 .541-.04.771-.119.232-.082.432-.205.6-.367a1.66 1.66 0 0 0 .39-.614l1.046.293c-.11.355-.295.667-.555.936a2.71 2.71 0 0 1-.963.624c-.382.146-.812.22-1.289.22zm4.563-.147v-7.044h1.046v1.064h.073c.129-.349.361-.632.697-.849a2.055 2.055 0 0 1 1.138-.325c.079 0 .178.001.298.004.119.003.209.008.27.014v1.1a3.104 3.104 0 0 0-.252-.04 2.474 2.474 0 0 0-.408-.033 1.91 1.91 0 0 0-.917.216 1.58 1.58 0 0 0-.862 1.435v4.458h-1.083zm9.795-5.467-.972.276a1.838 1.838 0 0 0-.271-.473 1.31 1.31 0 0 0-.477-.385c-.202-.101-.46-.151-.775-.151-.431 0-.79.099-1.078.298-.284.195-.426.445-.426.747 0 .27.098.482.293.638.196.156.502.285.918.39l1.045.256c.63.153 1.099.387 1.408.702.309.312.463.714.463 1.206 0 .404-.116.764-.348 1.082-.23.318-.551.569-.963.752-.413.184-.893.276-1.44.276-.719 0-1.314-.156-1.784-.468-.471-.312-.769-.767-.895-1.367l1.028-.257c.097.38.282.664.555.853.275.19.634.285 1.077.285.505 0 .905-.107 1.202-.321.299-.217.449-.477.449-.78a.816.816 0 0 0-.257-.614c-.171-.169-.434-.294-.788-.377l-1.174-.275c-.645-.153-1.119-.39-1.422-.71-.3-.325-.449-.73-.449-1.216 0-.397.111-.749.334-1.055a2.3 2.3 0 0 1 .922-.72 3.238 3.238 0 0 1 1.33-.261c.697 0 1.244.153 1.642.459.4.305.685.709.853 1.21zm4.619 5.614c-.636 0-1.194-.152-1.674-.454a3.084 3.084 0 0 1-1.119-1.27c-.266-.545-.399-1.18-.399-1.909 0-.733.133-1.374.399-1.921a3.077 3.077 0 0 1 1.119-1.275c.48-.303 1.038-.454 1.674-.454.636 0 1.192.151 1.669.454.48.303.853.728 1.119 1.275.269.547.404 1.188.404 1.921 0 .728-.135 1.364-.404 1.908a3.042 3.042 0 0 1-1.119 1.27c-.477.303-1.033.455-1.669.455zm0-.973c.483 0 .881-.123 1.192-.371a2.19 2.19 0 0 0 .693-.977c.15-.404.225-.84.225-1.312 0-.47-.075-.91-.225-1.316a2.22 2.22 0 0 0-.693-.986c-.311-.25-.709-.376-1.192-.376s-.88.126-1.192.376a2.22 2.22 0 0 0-.693.986c-.15.407-.224.846-.224 1.316 0 .471.074.908.224 1.312.15.404.381.73.693.977.312.248.709.371 1.192.371zm5.926-3.412v4.238h-1.082v-7.044h1.046v1.1h.091c.165-.357.416-.645.752-.862.337-.22.771-.33 1.303-.33.477 0 .894.098 1.252.293.358.193.636.487.835.881.198.391.298.887.298 1.486v4.476h-1.083v-4.403c0-.553-.143-.984-.431-1.293-.287-.312-.682-.468-1.183-.468-.345 0-.654.075-.926.225a1.61 1.61 0 0 0-.638.656c-.156.287-.234.636-.234 1.045zm7.261 4.311a.794.794 0 0 1-.582-.243.795.795 0 0 1-.243-.582c0-.227.081-.42.243-.583a.794.794 0 0 1 .582-.243c.226 0 .421.081.583.243a.795.795 0 0 1 .243.583.855.855 0 0 1-.413.715.786.786 0 0 1-.413.11z"/><rect width="384.843" height="106.32" x="24.86" y="140.663" fill="#fff" rx="4.843"/><rect width="197.91" height="58.537" x="32.286" y="148.09" fill="#ECEFF8" rx="2.583"/><path fill="#61738B" d="M40.662 165.609h-1.634l2.975-8.453h1.89l2.98 8.453H45.24l-2.258-6.719h-.066l-2.253 6.719zm.054-3.314h4.457v1.23h-4.457v-1.23zm9.777 3.438c-.633 0-1.176-.139-1.63-.417a2.782 2.782 0 0 1-1.044-1.151c-.242-.493-.363-1.06-.363-1.701 0-.644.123-1.212.371-1.704a2.768 2.768 0 0 1 1.049-1.156c.454-.278.99-.417 1.61-.417.514 0 .97.095 1.365.285.4.187.717.453.954.797.236.341.371.74.404 1.196h-1.428a1.366 1.366 0 0 0-.413-.763c-.214-.206-.502-.31-.862-.31a1.35 1.35 0 0 0-.805.248 1.582 1.582 0 0 0-.54.702c-.127.305-.19.671-.19 1.098 0 .432.063.803.19 1.114.126.308.303.546.532.714.23.165.502.248.813.248.22 0 .417-.042.59-.124.176-.086.323-.208.442-.368.118-.159.2-.353.243-.582h1.428a2.485 2.485 0 0 1-.396 1.193c-.228.344-.54.614-.933.809-.393.193-.855.289-1.387.289zm7.109-6.463v1.155h-3.645v-1.155h3.645zm-2.745-1.519h1.494v5.952c0 .2.03.354.091.462a.49.49 0 0 0 .248.214.939.939 0 0 0 .338.058c.094 0 .179-.007.256-.02.08-.014.14-.027.182-.038l.251 1.168a3.2 3.2 0 0 1-.342.091 2.764 2.764 0 0 1-.537.058 2.433 2.433 0 0 1-1.01-.169 1.576 1.576 0 0 1-.715-.586c-.173-.264-.259-.595-.256-.991v-6.199zm3.994 7.858v-6.339h1.495v6.339H58.85zm.752-7.239a.875.875 0 0 1-.611-.235.76.76 0 0 1-.256-.574.75.75 0 0 1 .256-.574.866.866 0 0 1 .61-.239c.24 0 .444.08.612.239a.75.75 0 0 1 .255.574.76.76 0 0 1-.255.574.866.866 0 0 1-.611.235zm5.044 7.363c-.619 0-1.155-.136-1.61-.408a2.779 2.779 0 0 1-1.056-1.144c-.248-.489-.371-1.062-.371-1.717s.123-1.228.371-1.721c.25-.492.603-.875 1.057-1.147.454-.273.99-.409 1.61-.409.618 0 1.155.136 1.609.409.454.272.805.655 1.052 1.147.25.493.376 1.066.376 1.721s-.125 1.228-.376 1.717c-.247.49-.598.871-1.052 1.144-.454.272-.99.408-1.61.408zm.009-1.197c.335 0 .616-.092.842-.276a1.67 1.67 0 0 0 .503-.751c.113-.314.17-.664.17-1.049 0-.388-.057-.739-.17-1.052a1.665 1.665 0 0 0-.503-.756c-.226-.187-.507-.28-.842-.28-.344 0-.63.093-.859.28a1.692 1.692 0 0 0-.508.756 3.16 3.16 0 0 0-.165 1.052c0 .385.055.735.165 1.049.113.313.282.564.508.751.228.184.515.276.859.276zm5.791-2.641v3.714h-1.494v-6.339h1.428v1.077h.075c.145-.355.378-.637.697-.846.322-.209.72-.314 1.193-.314.438 0 .819.094 1.143.281.328.187.58.458.76.813.181.355.27.785.268 1.292v4.036h-1.494v-3.805c0-.424-.11-.755-.33-.995-.218-.239-.519-.359-.904-.359-.262 0-.494.058-.698.173-.2.113-.359.277-.474.492-.113.214-.17.474-.17.78zm10.6-.95-1.362.149a1.09 1.09 0 0 0-.203-.388 1.003 1.003 0 0 0-.38-.293 1.388 1.388 0 0 0-.586-.111c-.31 0-.572.067-.784.202-.209.135-.312.309-.31.524a.55.55 0 0 0 .203.45c.14.115.371.21.693.285l1.082.231c.6.129 1.045.334 1.337.615.294.28.443.648.446 1.102-.003.399-.12.751-.351 1.056-.228.303-.546.54-.953.71-.408.171-.876.256-1.404.256-.776 0-1.4-.162-1.874-.487a1.957 1.957 0 0 1-.846-1.366l1.457-.14c.066.286.207.502.421.648.215.145.494.218.838.218.355 0 .64-.073.854-.218.218-.146.326-.326.326-.541a.562.562 0 0 0-.21-.45c-.138-.118-.352-.209-.644-.272l-1.081-.227c-.608-.127-1.058-.34-1.35-.64-.292-.303-.436-.685-.433-1.148-.003-.39.103-.729.317-1.015.218-.289.52-.512.904-.668.388-.16.836-.24 1.342-.24.743 0 1.328.158 1.754.475.43.316.695.744.796 1.283z"/><rect width="184.996" height="26.04" x="38.743" y="176.066" fill="#63A6FD" rx="2.583"/><path fill="#fff" fill-rule="evenodd" d="M49.326 183.457a1.124 1.124 0 1 0 0 2.25h1.126v-1.124c0-.621-.504-1.125-1.126-1.126zm0 3.001h-3a1.126 1.126 0 0 0-.001 2.251h3a1.125 1.125 0 1 0 0-2.251zm7.128 1.125a1.126 1.126 0 0 0-2.251 0v1.126h1.125a1.126 1.126 0 0 0 1.126-1.126zm-3.001 0v-3.001a1.126 1.126 0 0 0-2.25 0v3.001a1.126 1.126 0 1 0 2.25 0zm-1.126 7.13a1.125 1.125 0 1 0 0-2.25h-1.125v1.125c0 .62.503 1.124 1.125 1.125zm0-3.001h3.001a1.126 1.126 0 0 0 0-2.251h-3a1.125 1.125 0 1 0 0 2.251zm-7.127-1.126a1.125 1.125 0 1 0 2.25 0v-1.125h-1.125c-.622 0-1.126.504-1.125 1.125zm3 0v3.001a1.126 1.126 0 0 0 2.251.001v-3.001a1.126 1.126 0 0 0-2.25-.001c0 .001 0 0 0 0z" clip-rule="evenodd"/><path fill="#fff" d="M68.45 187.354a1.204 1.204 0 0 0-.545-.908c-.319-.218-.72-.327-1.205-.327-.347 0-.647.055-.9.166a1.38 1.38 0 0 0-.59.445 1.053 1.053 0 0 0-.206.64c0 .201.046.374.14.52.096.146.222.268.376.367.157.097.324.178.503.244.18.063.351.116.516.157l.826.214c.27.066.546.156.83.269.283.113.545.261.788.445.242.185.437.413.586.686.151.272.227.598.227.978 0 .479-.124.904-.372 1.275-.245.372-.601.665-1.069.879-.465.215-1.028.322-1.688.322-.633 0-1.18-.1-1.643-.301a2.535 2.535 0 0 1-1.085-.854c-.261-.372-.406-.812-.434-1.321h1.28c.025.305.124.56.297.763.176.201.4.351.673.45a2.7 2.7 0 0 0 .904.145c.36 0 .68-.057.962-.169a1.62 1.62 0 0 0 .668-.479c.162-.207.244-.447.244-.723a.888.888 0 0 0-.215-.615 1.597 1.597 0 0 0-.574-.396 5.58 5.58 0 0 0-.813-.276l-.999-.273c-.677-.184-1.213-.455-1.61-.813-.393-.358-.59-.831-.59-1.42 0-.487.133-.912.397-1.275a2.605 2.605 0 0 1 1.073-.846c.451-.204.96-.306 1.527-.306.572 0 1.077.101 1.515.302.44.201.787.477 1.04.829.253.35.385.752.396 1.206h-1.23zm4.005-2.221v8.453H71.22v-8.453h1.234zm3.505 8.593c-.402 0-.765-.074-1.09-.223a1.833 1.833 0 0 1-.772-.656c-.187-.286-.28-.637-.28-1.052 0-.358.069-.652.206-.884.138-.231.323-.414.557-.549a2.95 2.95 0 0 1 .785-.305c.288-.069.583-.121.883-.157l.924-.107c.237-.03.409-.079.516-.145.108-.066.161-.173.161-.322v-.028c0-.361-.101-.64-.305-.838-.201-.198-.5-.297-.9-.297-.415 0-.743.092-.982.276a1.48 1.48 0 0 0-.491.607l-1.16-.264c.137-.386.338-.697.602-.933.267-.24.574-.413.92-.52.347-.11.712-.165 1.095-.165.253 0 .521.03.804.09.287.058.553.166.801.322.25.157.456.382.615.673.16.289.24.665.24 1.127v4.21h-1.206v-.867h-.05a1.74 1.74 0 0 1-.358.471c-.16.154-.365.282-.615.384a2.4 2.4 0 0 1-.9.152zm.268-.99c.341 0 .633-.068.875-.203.245-.134.43-.31.557-.528.13-.22.194-.455.194-.706v-.817a.65.65 0 0 1-.255.124 4.04 4.04 0 0 1-.426.095l-.466.07-.38.05c-.24.03-.458.081-.656.152a1.13 1.13 0 0 0-.47.31c-.116.132-.174.308-.174.528 0 .306.113.537.339.694.225.154.513.231.862.231zm7.175.978c-.614 0-1.142-.139-1.585-.417a2.76 2.76 0 0 1-1.016-1.16c-.236-.492-.355-1.056-.355-1.692 0-.644.121-1.212.364-1.705a2.776 2.776 0 0 1 1.023-1.159c.44-.278.96-.417 1.556-.417.482 0 .911.089 1.288.268.377.176.681.424.912.743.234.319.373.692.417 1.118h-1.201a1.436 1.436 0 0 0-.454-.767c-.234-.215-.548-.322-.941-.322-.344 0-.645.091-.904.272a1.752 1.752 0 0 0-.598.768c-.144.33-.215.721-.215 1.172 0 .462.07.861.21 1.197.14.336.339.596.595.78.258.184.563.277.912.277.234 0 .446-.043.636-.128.192-.088.353-.214.483-.376a1.41 1.41 0 0 0 .276-.586h1.201c-.044.41-.177.776-.4 1.098a2.3 2.3 0 0 1-.896.759c-.371.185-.808.277-1.308.277zm5.059-2.278-.008-1.507h.214l2.526-2.683h1.478l-2.881 3.055h-.194l-1.135 1.135zm-1.135 2.15v-8.453h1.234v8.453h-1.234zm4.003 0-2.27-3.013.85-.863 2.935 3.876H91.33zm3.28.078a.799.799 0 0 1-.582-.239.799.799 0 0 1-.244-.586.78.78 0 0 1 .244-.578.795.795 0 0 1 .582-.243c.225 0 .42.081.582.243.162.16.243.352.243.578 0 .151-.038.29-.115.417a.848.848 0 0 1-.298.297.79.79 0 0 1-.412.111zm0-4.614a.792.792 0 0 1-.582-.244.793.793 0 0 1-.244-.582c0-.225.081-.418.244-.577a.792.792 0 0 1 .582-.244c.225 0 .42.081.582.244a.78.78 0 0 1 .243.577.783.783 0 0 1-.115.417.848.848 0 0 1-.298.297.78.78 0 0 1-.412.112zm5.653 4.536v-8.453h3.013c.658 0 1.203.12 1.635.359.432.239.755.567.97.982.214.413.321.878.321 1.395 0 .521-.108.988-.326 1.404a2.35 2.35 0 0 1-.974.982c-.432.24-.975.359-1.63.359H101.2v-1.081h1.956c.416 0 .753-.072 1.012-.215.258-.146.448-.344.569-.594.121-.251.182-.535.182-.855 0-.319-.061-.602-.182-.85a1.309 1.309 0 0 0-.573-.582c-.259-.14-.6-.21-1.024-.21h-1.601v7.359h-1.276zm9.927.128c-.595 0-1.113-.136-1.556-.409a2.752 2.752 0 0 1-1.032-1.143c-.245-.49-.368-1.062-.368-1.717 0-.658.123-1.233.368-1.725a2.753 2.753 0 0 1 1.032-1.148c.443-.272.961-.408 1.556-.408.594 0 1.113.136 1.556.408.443.273.787.655 1.031 1.148.245.492.368 1.067.368 1.725 0 .655-.123 1.227-.368 1.717-.244.49-.588.871-1.031 1.143-.443.273-.962.409-1.556.409zm.004-1.036c.385 0 .704-.102.957-.306.253-.203.441-.474.562-.813a3.25 3.25 0 0 0 .185-1.118c0-.405-.062-.776-.185-1.115a1.815 1.815 0 0 0-.562-.821c-.253-.206-.572-.309-.957-.309-.388 0-.71.103-.966.309-.253.206-.442.48-.566.821-.121.339-.181.71-.181 1.115 0 .407.06.78.181 1.118.124.339.313.61.566.813.256.204.578.306.966.306zm9.079-3.884-1.119.198a1.317 1.317 0 0 0-.222-.408c-.1-.13-.234-.236-.405-.318a1.46 1.46 0 0 0-.64-.124c-.349 0-.641.078-.875.235-.234.154-.351.354-.351.599a.63.63 0 0 0 .236.511c.157.13.41.236.759.318l1.007.231c.584.135 1.018.343 1.305.624.286.28.429.645.429 1.093 0 .38-.11.719-.33 1.016-.218.294-.522.525-.913.693-.388.168-.837.252-1.349.252-.71 0-1.289-.151-1.738-.454-.448-.306-.724-.739-.825-1.3l1.192-.182c.075.311.227.546.459.706.231.157.532.235.904.235.404 0 .727-.084.969-.252.243-.17.364-.378.364-.623a.65.65 0 0 0-.223-.499c-.146-.135-.37-.237-.673-.306l-1.073-.235c-.592-.135-1.029-.349-1.313-.644-.28-.294-.421-.667-.421-1.118 0-.375.105-.702.314-.983.209-.28.498-.499.867-.656.369-.16.791-.239 1.267-.239.685 0 1.224.148 1.618.445.393.295.653.69.78 1.185zm4.44-1.548v.991h-3.463v-.991h3.463zm-2.534-1.519h1.234v5.997c0 .24.036.42.107.541.072.118.164.2.277.244.115.041.241.062.375.062.099 0 .186-.007.26-.021l.174-.033.223 1.019a2.385 2.385 0 0 1-.801.132 2.166 2.166 0 0 1-.908-.173 1.553 1.553 0 0 1-.681-.561c-.174-.253-.26-.571-.26-.954v-6.253zm9.934 1.519v.991h-3.462v-.991h3.462zm-2.534-1.519h1.234v5.997c0 .24.036.42.108.541.071.118.163.2.276.244.116.041.241.062.376.062.099 0 .186-.007.26-.021l.173-.033.223 1.019a2.395 2.395 0 0 1-.801.132 2.169 2.169 0 0 1-.908-.173 1.565 1.565 0 0 1-.681-.561c-.173-.253-.26-.571-.26-.954v-6.253zm6.502 7.987c-.594 0-1.113-.136-1.556-.409a2.752 2.752 0 0 1-1.032-1.143c-.245-.49-.367-1.062-.367-1.717 0-.658.122-1.233.367-1.725a2.753 2.753 0 0 1 1.032-1.148c.443-.272.962-.408 1.556-.408.594 0 1.113.136 1.556.408.443.273.787.655 1.032 1.148.245.492.367 1.067.367 1.725 0 .655-.122 1.227-.367 1.717s-.589.871-1.032 1.143c-.443.273-.962.409-1.556.409zm.004-1.036c.385 0 .704-.102.958-.306.253-.203.44-.474.561-.813.124-.338.186-.711.186-1.118a3.22 3.22 0 0 0-.186-1.115 1.813 1.813 0 0 0-.561-.821c-.254-.206-.573-.309-.958-.309-.388 0-.71.103-.966.309-.253.206-.441.48-.565.821-.121.339-.182.71-.182 1.115 0 .407.061.78.182 1.118.124.339.312.61.565.813.256.204.578.306.966.306zm10.574.908 1.387-8.453h.991l-1.387 8.453h-.991zm-3.826-2.262.161-.99h6.406l-.161.99h-6.406zm.855 2.262 1.387-8.453h.99l-1.387 8.453h-.99zm-.363-5.201.161-.99h6.405l-.161.99h-6.405zm10.297 5.329c-.624 0-1.162-.134-1.613-.4a2.705 2.705 0 0 1-1.04-1.136c-.243-.489-.364-1.063-.364-1.721 0-.649.121-1.221.364-1.717a2.81 2.81 0 0 1 1.023-1.159c.44-.278.955-.417 1.544-.417.357 0 .704.059 1.04.177.336.118.637.304.904.557.267.254.477.582.631.987.154.402.231.89.231 1.465v.438h-5.039v-.925h3.83c0-.325-.066-.612-.198-.863a1.5 1.5 0 0 0-.557-.598 1.558 1.558 0 0 0-.834-.219c-.347 0-.649.085-.908.256a1.716 1.716 0 0 0-.594.66c-.138.27-.207.563-.207.88v.722c0 .424.075.784.223 1.081.151.297.362.524.632.681.269.154.584.231.945.231.234 0 .447-.033.64-.099a1.328 1.328 0 0 0 .821-.804l1.168.21a2.114 2.114 0 0 1-.504.904c-.239.256-.54.455-.903.598a3.373 3.373 0 0 1-1.235.211zm5.324-3.892v3.764h-1.234v-6.34h1.184v1.032h.079c.145-.336.374-.605.685-.809.313-.204.708-.305 1.184-.305.432 0 .811.09 1.135.272.325.179.577.446.756.801.179.355.268.794.268 1.316v4.033h-1.234v-3.884c0-.459-.12-.819-.359-1.077-.24-.262-.568-.392-.987-.392-.286 0-.54.062-.763.185-.22.124-.395.306-.524.545-.127.237-.19.523-.19.859zm8.37 6.273c-.503 0-.937-.066-1.3-.198a2.522 2.522 0 0 1-.883-.524 2.188 2.188 0 0 1-.512-.714l1.061-.437c.074.121.173.249.297.383.126.138.297.255.512.351.217.097.496.145.838.145.467 0 .854-.114 1.159-.343.306-.226.458-.586.458-1.081v-1.247h-.078a2.805 2.805 0 0 1-.322.45 1.733 1.733 0 0 1-.569.429c-.243.121-.558.182-.946.182-.5 0-.952-.117-1.353-.351-.399-.236-.716-.585-.95-1.044-.231-.462-.346-1.031-.346-1.705 0-.674.114-1.252.342-1.733.231-.482.548-.85.949-1.106a2.47 2.47 0 0 1 1.367-.388c.393 0 .711.066.953.198.242.129.431.28.565.454.138.173.244.326.318.458h.091v-1.028h1.209v6.48c0 .545-.126.992-.379 1.342a2.238 2.238 0 0 1-1.028.776 3.982 3.982 0 0 1-1.453.251zm-.012-3.628c.355 0 .655-.082.9-.247.247-.168.434-.407.561-.718.129-.314.194-.69.194-1.127a3.08 3.08 0 0 0-.19-1.127 1.67 1.67 0 0 0-.557-.759c-.245-.185-.548-.277-.908-.277-.372 0-.681.096-.929.289-.248.19-.435.448-.561.776a3.077 3.077 0 0 0-.186 1.098c0 .415.063.78.19 1.094.126.313.314.558.561.734.251.176.559.264.925.264zm4.528 1.119v-6.34h1.234v6.34h-1.234zm.623-7.318a.784.784 0 0 1-.553-.215.694.694 0 0 1-.227-.52c0-.203.075-.377.227-.52a.774.774 0 0 1 .553-.218c.214 0 .397.072.549.218a.685.685 0 0 1 .231.52.69.69 0 0 1-.231.52.773.773 0 0 1-.549.215zm3.505 3.554v3.764h-1.234v-6.34h1.184v1.032h.079c.146-.336.374-.605.685-.809.314-.204.709-.305 1.185-.305.432 0 .81.09 1.135.272.324.179.576.446.755.801.179.355.268.794.268 1.316v4.033h-1.234v-3.884c0-.459-.12-.819-.359-1.077-.239-.262-.568-.392-.986-.392-.287 0-.541.062-.764.185-.22.124-.395.306-.524.545-.127.237-.19.523-.19.859zm8.445 3.892c-.625 0-1.163-.134-1.614-.4a2.712 2.712 0 0 1-1.04-1.136c-.242-.489-.364-1.063-.364-1.721 0-.649.122-1.221.364-1.717a2.817 2.817 0 0 1 1.023-1.159c.441-.278.955-.417 1.544-.417.358 0 .704.059 1.04.177.336.118.637.304.904.557.267.254.477.582.631.987.155.402.232.89.232 1.465v.438h-5.04v-.925h3.83c0-.325-.066-.612-.198-.863a1.5 1.5 0 0 0-.557-.598 1.558 1.558 0 0 0-.834-.219 1.61 1.61 0 0 0-.908.256 1.716 1.716 0 0 0-.594.66c-.138.27-.207.563-.207.88v.722c0 .424.075.784.223 1.081.152.297.362.524.632.681.269.154.585.231.945.231.234 0 .447-.033.64-.099a1.316 1.316 0 0 0 .821-.804l1.168.21a2.112 2.112 0 0 1-.503.904c-.24.256-.541.455-.904.598a3.371 3.371 0 0 1-1.234.211zm6.821 0c-.624 0-1.162-.134-1.614-.4a2.718 2.718 0 0 1-1.04-1.136c-.242-.489-.363-1.063-.363-1.721 0-.649.121-1.221.363-1.717a2.812 2.812 0 0 1 1.024-1.159c.44-.278.955-.417 1.544-.417.357 0 .704.059 1.04.177.335.118.637.304.904.557.266.254.477.582.631.987.154.402.231.89.231 1.465v.438h-5.039v-.925h3.83c0-.325-.066-.612-.198-.863a1.5 1.5 0 0 0-.557-.598 1.558 1.558 0 0 0-.834-.219c-.347 0-.65.085-.908.256a1.727 1.727 0 0 0-.595.66c-.137.27-.206.563-.206.88v.722c0 .424.074.784.223 1.081.151.297.362.524.631.681.27.154.585.231.946.231.233 0 .447-.033.639-.099.193-.068.359-.17.5-.305a1.34 1.34 0 0 0 .322-.499l1.168.21a2.124 2.124 0 0 1-.504.904c-.239.256-.54.455-.904.598-.36.141-.772.211-1.234.211zm4.089-.128v-6.34h1.193v1.007h.066c.116-.341.319-.609.611-.805.295-.198.628-.297.999-.297.077 0 .168.003.272.009.108.005.192.012.252.02v1.181a2.189 2.189 0 0 0-.264-.046 2.559 2.559 0 0 0-.38-.029c-.291 0-.551.062-.78.186a1.378 1.378 0 0 0-.734 1.242v3.872h-1.235zm4.461 0v-6.34h1.234v6.34h-1.234zm.623-7.318a.786.786 0 0 1-.553-.215.697.697 0 0 1-.227-.52c0-.203.076-.377.227-.52a.776.776 0 0 1 .553-.218.76.76 0 0 1 .549.218.685.685 0 0 1 .231.52.69.69 0 0 1-.231.52.77.77 0 0 1-.549.215zm3.506 3.554v3.764h-1.235v-6.34h1.185v1.032h.078c.146-.336.375-.605.686-.809.313-.204.708-.305 1.184-.305.432 0 .811.09 1.135.272.325.179.577.446.756.801.178.355.268.794.268 1.316v4.033h-1.234v-3.884c0-.459-.12-.819-.359-1.077-.24-.262-.569-.392-.987-.392-.286 0-.54.062-.763.185a1.34 1.34 0 0 0-.525.545c-.126.237-.189.523-.189.859zm8.37 6.273c-.504 0-.937-.066-1.3-.198a2.513 2.513 0 0 1-.883-.524 2.188 2.188 0 0 1-.512-.714l1.061-.437c.074.121.173.249.297.383.126.138.297.255.511.351.218.097.497.145.838.145.468 0 .855-.114 1.16-.343.306-.226.458-.586.458-1.081v-1.247h-.078a2.805 2.805 0 0 1-.322.45 1.749 1.749 0 0 1-.57.429c-.242.121-.557.182-.945.182a2.64 2.64 0 0 1-1.354-.351c-.399-.236-.715-.585-.949-1.044-.231-.462-.347-1.031-.347-1.705 0-.674.115-1.252.343-1.733.231-.482.548-.85.949-1.106a2.466 2.466 0 0 1 1.366-.388c.394 0 .712.066.954.198.242.129.43.28.565.454.138.173.244.326.318.458h.091v-1.028h1.209v6.48c0 .545-.126.992-.379 1.342a2.243 2.243 0 0 1-1.028.776 3.982 3.982 0 0 1-1.453.251zm-.012-3.628c.355 0 .654-.082.899-.247.248-.168.435-.407.562-.718.129-.314.194-.69.194-1.127 0-.427-.064-.802-.19-1.127a1.67 1.67 0 0 0-.557-.759c-.245-.185-.548-.277-.908-.277-.372 0-.681.096-.929.289-.248.19-.435.448-.561.776a3.077 3.077 0 0 0-.186 1.098c0 .415.063.78.19 1.094.126.313.313.558.561.734.25.176.559.264.925.264z"/><rect width="26.474" height="26.474" fill="#C3CDDD" rx="3.416" transform="matrix(-1 0 0 1 58.76 213.082)"/><path fill="#fff" d="M44.597 220.762h1.85v11.102h-1.85v-11.102z"/><path fill="#fff" d="M51.074 225.388v1.85H39.972v-1.85h11.102z"/><rect width="61.285" height="26.04" x="340.992" y="213.301" fill="#0089FF" rx="2.583"/><path fill="#fff" d="M349.454 221.341a.486.486 0 0 0-.533.613l.912 3.181a.97.97 0 0 0 .931.701h3.949a.485.485 0 1 1 0 .968h-3.949a.97.97 0 0 0-.931.702l-.912 3.181a.484.484 0 0 0 .533.613 18.66 18.66 0 0 0 9.875-4.62.485.485 0 0 0 0-.72 18.66 18.66 0 0 0-9.875-4.619zm22.906 3.247a1.207 1.207 0 0 0-.545-.908c-.319-.217-.721-.326-1.205-.326-.347 0-.647.055-.9.165a1.38 1.38 0 0 0-.59.446c-.138.187-.207.4-.207.639 0 .201.047.375.141.52.096.146.221.269.375.368.157.096.325.177.504.243.179.064.351.116.516.157l.825.215c.27.066.546.155.83.268.283.113.546.261.788.446.242.184.438.413.586.685.152.272.227.598.227.978 0 .479-.124.904-.371 1.276-.245.371-.601.664-1.069.879-.465.214-1.028.322-1.688.322-.633 0-1.181-.101-1.643-.302-.462-.201-.824-.485-1.085-.854-.262-.371-.406-.812-.434-1.321h1.28c.024.306.123.56.297.764.176.201.4.351.673.45.275.096.576.144.903.144.361 0 .682-.056.962-.169.284-.116.506-.275.669-.479.162-.206.243-.447.243-.722 0-.251-.071-.456-.214-.615a1.582 1.582 0 0 0-.574-.396 5.547 5.547 0 0 0-.813-.277l-.999-.272c-.677-.185-1.213-.456-1.61-.813-.393-.358-.59-.831-.59-1.42 0-.487.132-.912.396-1.276a2.608 2.608 0 0 1 1.074-.846c.451-.203.96-.305 1.527-.305.572 0 1.077.1 1.514.301a2.56 2.56 0 0 1 1.041.83c.253.349.385.751.396 1.205h-1.23zm5.503 6.36c-.625 0-1.163-.133-1.614-.4a2.715 2.715 0 0 1-1.04-1.135c-.242-.49-.363-1.064-.363-1.721 0-.65.121-1.222.363-1.717a2.82 2.82 0 0 1 1.023-1.16c.441-.278.955-.417 1.544-.417.358 0 .704.059 1.04.178.336.118.637.304.904.557.267.253.477.582.631.986.155.402.232.89.232 1.465v.438h-5.04v-.925h3.83a1.82 1.82 0 0 0-.198-.862 1.503 1.503 0 0 0-.557-.599 1.557 1.557 0 0 0-.834-.218c-.346 0-.649.085-.908.255a1.712 1.712 0 0 0-.594.661 1.9 1.9 0 0 0-.207.879v.722c0 .424.075.784.223 1.082.152.297.362.524.632.681.27.154.585.231.945.231.234 0 .447-.033.64-.099a1.316 1.316 0 0 0 .821-.805l1.168.21a2.106 2.106 0 0 1-.503.904c-.24.256-.541.456-.904.599-.361.14-.772.21-1.234.21zm5.323-3.892v3.764h-1.234v-6.339h1.184v1.031h.079c.146-.335.374-.605.685-.809.314-.203.709-.305 1.185-.305.432 0 .81.091 1.135.272.324.179.576.446.755.801.179.355.268.794.268 1.317v4.032h-1.234v-3.884c0-.459-.12-.818-.359-1.077-.239-.261-.568-.392-.986-.392-.287 0-.541.062-.764.186-.22.124-.395.305-.524.545-.127.236-.19.522-.19.858zm8.086 3.888c-.512 0-.969-.131-1.371-.392-.399-.264-.712-.64-.941-1.127-.225-.49-.338-1.077-.338-1.762s.114-1.271.342-1.758c.231-.487.548-.86.95-1.119a2.464 2.464 0 0 1 1.366-.388c.393 0 .71.066.949.198.242.13.429.281.561.454.135.174.24.326.314.458h.074v-3.141h1.235v8.453h-1.206v-.986h-.103a3.16 3.16 0 0 1-.322.462 1.782 1.782 0 0 1-.569.454c-.243.129-.556.194-.941.194zm.272-1.052c.355 0 .655-.094.9-.281a1.74 1.74 0 0 0 .561-.788c.129-.336.194-.727.194-1.173 0-.44-.063-.825-.19-1.155a1.692 1.692 0 0 0-.557-.772c-.245-.184-.548-.277-.908-.277-.371 0-.681.097-.929.289a1.778 1.778 0 0 0-.561.789 3.208 3.208 0 0 0-.186 1.126c0 .424.064.805.19 1.144.127.338.314.606.561.805.251.195.559.293.925.293z"/><rect width="384.843" height="106.32" x="24.86" y="140.663" stroke="#D8DEEB" stroke-width=".646" rx="4.843"/><rect width="395.175" height="222.124" x="19.694" y="30.026" stroke="#D8DEEB" stroke-width=".646" rx="6.134"/><g clip-path="url(#a)"><rect width="38.743" height="38.743" y="9.961" fill="#24D366" rx="19.371"/><g filter="url(#b)"><path fill="#fff" d="m9.116 40.207 1.49-5.432a10.45 10.45 0 0 1-1.402-5.241c.003-5.78 4.716-10.483 10.508-10.483a10.452 10.452 0 0 1 7.432 3.074 10.408 10.408 0 0 1 3.075 7.417c-.003 5.78-4.717 10.484-10.508 10.484h-.004a10.505 10.505 0 0 1-5.02-1.277l-5.57 1.458z"/><path stroke="#ECEFF8" stroke-width=".27" d="m9.308 40.018 1.429-5.207.015-.055-.028-.049a10.314 10.314 0 0 1-1.385-5.173c.003-5.706 4.655-10.348 10.373-10.348L9.308 40.018zm0 0 5.344-1.399.052-.014.046.026a10.382 10.382 0 0 0 4.957 1.26h.004c5.717 0 10.37-4.644 10.373-10.349a10.273 10.273 0 0 0-3.035-7.321 10.318 10.318 0 0 0-7.337-3.035L9.308 40.018z"/></g><path fill="url(#c)" d="M19.714 20.82c-4.817 0-8.734 3.909-8.736 8.713a8.68 8.68 0 0 0 1.335 4.637l.208.33-.883 3.215 3.306-.865.319.189a8.734 8.734 0 0 0 4.445 1.215h.003c4.814 0 8.731-3.91 8.733-8.714a8.643 8.643 0 0 0-2.555-6.164 8.676 8.676 0 0 0-6.175-2.556z"/><path fill="#fff" fill-rule="evenodd" d="M17.085 25.15c-.196-.436-.403-.445-.59-.452l-.504-.007a.965.965 0 0 0-.7.328c-.24.263-.918.896-.918 2.186 0 1.289.94 2.534 1.071 2.71.131.174 1.817 2.904 4.485 3.955 2.218.872 2.669.699 3.15.655.482-.043 1.554-.634 1.772-1.245.219-.612.22-1.137.154-1.246-.066-.11-.241-.175-.504-.306s-1.553-.765-1.794-.853c-.24-.087-.415-.13-.59.132-.176.262-.678.852-.831 1.027-.154.175-.306.197-.57.066-.262-.131-1.107-.408-2.11-1.3-.78-.695-1.308-1.553-1.461-1.815-.153-.262-.016-.404.115-.535.118-.117.263-.306.394-.459.132-.153.175-.262.262-.437.088-.174.044-.328-.021-.459-.066-.13-.576-1.426-.81-1.945" clip-rule="evenodd"/></g><rect width="236.33" height="58.017" x="46.814" y=".323" fill="#fff" rx="6.134"/><path fill="#43556C" d="M65.517 17.875H64.38a2.365 2.365 0 0 0-.958-1.486 2.57 2.57 0 0 0-.785-.385 3.132 3.132 0 0 0-.898-.129c-.57 0-1.084.144-1.546.431-.459.288-.824.711-1.096 1.27-.27.56-.404 1.247-.404 2.06s.135 1.5.404 2.06c.272.559.637.982 1.096 1.27.462.287.977.43 1.546.43.311 0 .61-.042.898-.128a2.61 2.61 0 0 0 .785-.38 2.41 2.41 0 0 0 .958-1.49h1.137a3.79 3.79 0 0 1-.467 1.288 3.54 3.54 0 0 1-.844.967 3.696 3.696 0 0 1-1.133.601c-.416.138-.86.206-1.334.206-.802 0-1.514-.195-2.138-.587-.623-.39-1.114-.947-1.472-1.669-.357-.721-.536-1.578-.536-2.568s.179-1.847.536-2.568c.358-.722.849-1.278 1.472-1.67.624-.39 1.336-.586 2.138-.586.473 0 .918.068 1.334.206.419.137.796.34 1.133.605.336.263.617.584.844.963.226.376.382.806.467 1.289zm3.764 6.622c-.446 0-.851-.084-1.215-.252a2.085 2.085 0 0 1-.867-.739c-.214-.323-.32-.715-.32-1.174 0-.403.079-.73.238-.98.159-.255.371-.453.637-.597.266-.144.56-.25.88-.321.325-.074.65-.132.978-.174a43.74 43.74 0 0 1 1.04-.124c.27-.03.465-.081.588-.151.125-.07.188-.193.188-.367v-.037c0-.453-.124-.804-.372-1.055-.245-.25-.616-.376-1.114-.376-.517 0-.922.113-1.216.34-.293.226-.5.467-.619.724l-1.027-.367c.183-.428.428-.761.734-1a2.75 2.75 0 0 1 1.009-.504 4.187 4.187 0 0 1 1.082-.147c.226 0 .486.028.78.083.296.052.582.16.857.325.278.166.51.415.693.748.183.333.275.78.275 1.339v4.641h-1.082v-.954h-.055a1.9 1.9 0 0 1-.367.49 2.116 2.116 0 0 1-.684.446c-.284.122-.631.183-1.04.183zm.165-.972c.428 0 .79-.084 1.083-.252a1.717 1.717 0 0 0 .899-1.49v-.991c-.046.055-.147.105-.303.151a5.1 5.1 0 0 1-.532.115 24.29 24.29 0 0 1-1.037.137 4.131 4.131 0 0 0-.788.18c-.242.078-.438.2-.587.361-.147.16-.22.376-.22.652 0 .376.139.66.417.853.281.19.637.284 1.068.284zm6.122-3.43v4.237h-1.083v-7.044h1.046v1.1h.092a2.01 2.01 0 0 1 .752-.862c.336-.22.77-.33 1.302-.33.477 0 .894.098 1.252.294.358.192.636.486.835.88.199.392.298.887.298 1.486v4.476H78.98V19.93c0-.554-.144-.985-.431-1.294-.288-.312-.682-.468-1.184-.468-.345 0-.654.075-.926.225a1.6 1.6 0 0 0-.637.656c-.157.287-.234.636-.234 1.046zm11.388-5.155v9.392h-1.138V14.94h1.138zm8.829 2.348v.917h-3.65v-.917h3.65zM93.198 15.6h1.083v6.714c0 .306.044.535.133.688a.69.69 0 0 0 .348.303 1.4 1.4 0 0 0 .454.073c.12 0 .217-.006.294-.018l.183-.037.22.972a2.19 2.19 0 0 1-.307.083 2.26 2.26 0 0 1-.5.046 2.18 2.18 0 0 1-.899-.197 1.786 1.786 0 0 1-.724-.601c-.19-.27-.285-.609-.285-1.018V15.6zm6.288 8.897c-.447 0-.852-.084-1.215-.252a2.085 2.085 0 0 1-.867-.739c-.214-.323-.321-.715-.321-1.174 0-.403.08-.73.238-.98.16-.255.372-.453.638-.597.266-.144.56-.25.88-.321.324-.074.65-.132.977-.174.428-.055.775-.097 1.041-.124.269-.03.465-.081.587-.151.125-.07.188-.193.188-.367v-.037c0-.453-.124-.804-.371-1.055-.245-.25-.616-.376-1.115-.376-.516 0-.921.113-1.215.34-.293.226-.5.467-.62.724l-1.026-.367c.183-.428.428-.761.733-1a2.75 2.75 0 0 1 1.01-.504 4.187 4.187 0 0 1 1.082-.147c.226 0 .486.028.779.083.297.052.583.16.858.325.278.166.509.415.692.748.184.333.275.78.275 1.339v4.641h-1.082v-.954h-.055a1.9 1.9 0 0 1-.367.49 2.116 2.116 0 0 1-.683.446c-.284.122-.631.183-1.041.183zm.165-.972c.428 0 .789-.084 1.082-.252a1.717 1.717 0 0 0 .899-1.49v-.991c-.046.055-.147.105-.303.151-.152.043-.33.081-.531.115a24.19 24.19 0 0 1-1.037.137 4.131 4.131 0 0 0-.789.18c-.241.078-.437.2-.587.361-.147.16-.22.376-.22.652 0 .376.14.66.417.853.282.19.638.284 1.069.284zm6.121-8.585v9.392h-1.082V14.94h1.082zm2.991 6.824-.018-1.34h.22l3.082-3.136h1.339l-3.283 3.32h-.092l-1.248 1.156zm-1.009 2.568V14.94h1.083v9.392h-1.083zm4.476 0-2.751-3.485.77-.752 3.357 4.237h-1.376zm9.245-7.044v.917h-3.651v-.917h3.651zm-2.587-1.688h1.082v6.714c0 .306.045.535.133.688a.69.69 0 0 0 .349.303 1.4 1.4 0 0 0 .454.073c.119 0 .217-.006.294-.018l.183-.037.22.972a2.186 2.186 0 0 1-.307.083 2.3 2.3 0 0 1-.5.046 2.18 2.18 0 0 1-.899-.197 1.784 1.784 0 0 1-.724-.601c-.19-.27-.285-.609-.285-1.018V15.6zm7.001 8.879c-.636 0-1.194-.152-1.674-.454a3.084 3.084 0 0 1-1.119-1.27c-.266-.545-.399-1.18-.399-1.908 0-.734.133-1.375.399-1.922a3.078 3.078 0 0 1 1.119-1.275c.48-.302 1.038-.454 1.674-.454.636 0 1.192.151 1.669.454.48.303.853.728 1.119 1.275.269.547.404 1.188.404 1.922 0 .727-.135 1.363-.404 1.907a3.042 3.042 0 0 1-1.119 1.27c-.477.303-1.033.455-1.669.455zm0-.973c.483 0 .88-.123 1.192-.37a2.2 2.2 0 0 0 .693-.978c.149-.403.224-.84.224-1.311s-.075-.91-.224-1.317a2.22 2.22 0 0 0-.693-.986c-.312-.25-.709-.376-1.192-.376s-.881.126-1.193.377c-.311.25-.542.579-.692.985a3.78 3.78 0 0 0-.225 1.317c0 .47.075.908.225 1.311.15.404.381.73.692.977.312.248.71.371 1.193.371zm13.465-4.64-.972.275a1.806 1.806 0 0 0-.27-.473 1.327 1.327 0 0 0-.477-.385c-.202-.1-.46-.151-.775-.151-.431 0-.791.1-1.078.298-.284.195-.427.445-.427.747a.77.77 0 0 0 .294.638c.196.156.501.286.917.39l1.046.256c.63.153 1.099.387 1.408.702.308.312.463.714.463 1.206 0 .404-.116.765-.349 1.082-.229.319-.55.57-.963.753-.413.183-.893.275-1.44.275-.718 0-1.313-.156-1.784-.468-.471-.312-.769-.767-.894-1.367l1.027-.256c.098.379.283.663.555.853.275.19.635.284 1.078.284.504 0 .905-.107 1.201-.321.3-.217.45-.477.45-.78a.82.82 0 0 0-.257-.614c-.171-.168-.434-.294-.789-.376l-1.174-.276c-.645-.152-1.119-.39-1.421-.71-.3-.324-.45-.73-.45-1.216 0-.397.112-.749.335-1.054.226-.306.533-.546.922-.72a3.233 3.233 0 0 1 1.33-.262c.697 0 1.244.153 1.641.459.401.305.685.71.853 1.21zm4.62 5.613c-.636 0-1.194-.152-1.674-.454a3.084 3.084 0 0 1-1.119-1.27c-.266-.545-.399-1.18-.399-1.908 0-.734.133-1.375.399-1.922a3.078 3.078 0 0 1 1.119-1.275c.48-.302 1.038-.454 1.674-.454.636 0 1.192.151 1.669.454.48.303.853.728 1.119 1.275.269.547.404 1.188.404 1.922 0 .727-.135 1.363-.404 1.907a3.042 3.042 0 0 1-1.119 1.27c-.477.303-1.033.455-1.669.455zm0-.973c.483 0 .88-.123 1.192-.37a2.19 2.19 0 0 0 .692-.978c.15-.403.225-.84.225-1.311s-.075-.91-.225-1.317a2.21 2.21 0 0 0-.692-.986c-.312-.25-.709-.376-1.192-.376s-.881.126-1.193.377c-.312.25-.542.579-.692.985a3.78 3.78 0 0 0-.225 1.317c0 .47.075.908.225 1.311.15.404.38.73.692.977.312.248.71.371 1.193.371zm4.844.826v-7.044h1.045v1.1h.092c.147-.376.384-.668.711-.875.327-.211.72-.317 1.178-.317.465 0 .852.106 1.161.317.311.207.555.5.729.876h.073c.181-.364.451-.653.812-.867.361-.217.793-.326 1.298-.326.63 0 1.145.197 1.545.592.401.391.601 1.001.601 1.83v4.714h-1.082v-4.714c0-.52-.142-.892-.427-1.115a1.577 1.577 0 0 0-1.004-.335c-.495 0-.879.15-1.151.45-.272.296-.408.673-.408 1.128v4.586h-1.101v-4.825c0-.4-.13-.723-.39-.967-.26-.248-.594-.372-1.004-.372-.281 0-.544.075-.789.225-.241.15-.437.358-.587.624-.147.263-.22.567-.22.913v4.402h-1.082zm14.177.147c-.678 0-1.264-.15-1.756-.45a3.018 3.018 0 0 1-1.133-1.265c-.263-.545-.394-1.177-.394-1.899 0-.721.131-1.357.394-1.908a3.11 3.11 0 0 1 1.11-1.293c.477-.312 1.033-.468 1.669-.468.367 0 .729.061 1.087.184.358.122.683.32.977.596.293.272.527.633.702 1.082.174.45.261 1.003.261 1.66v.459h-5.43v-.936h4.329c0-.397-.079-.752-.238-1.064a1.795 1.795 0 0 0-.67-.738 1.872 1.872 0 0 0-1.018-.27c-.431 0-.804.106-1.119.32a2.114 2.114 0 0 0-.72.826c-.168.34-.252.703-.252 1.091v.624c0 .532.092.983.275 1.353.187.367.445.647.775.84.33.189.714.284 1.151.284.285 0 .541-.04.771-.12.232-.082.432-.204.6-.367a1.65 1.65 0 0 0 .39-.614l1.046.293c-.11.355-.295.667-.555.936a2.71 2.71 0 0 1-.963.624c-.382.146-.812.22-1.289.22zm7.425 0c-.636 0-1.194-.152-1.674-.454a3.084 3.084 0 0 1-1.119-1.27c-.266-.545-.399-1.18-.399-1.908 0-.734.133-1.375.399-1.922a3.078 3.078 0 0 1 1.119-1.275c.48-.302 1.038-.454 1.674-.454.636 0 1.192.151 1.669.454.48.303.853.728 1.119 1.275.269.547.404 1.188.404 1.922 0 .727-.135 1.363-.404 1.907a3.042 3.042 0 0 1-1.119 1.27c-.477.303-1.033.455-1.669.455zm0-.973c.483 0 .881-.123 1.192-.37a2.2 2.2 0 0 0 .693-.978c.15-.403.225-.84.225-1.311s-.075-.91-.225-1.317a2.22 2.22 0 0 0-.693-.986c-.311-.25-.709-.376-1.192-.376s-.88.126-1.192.377a2.22 2.22 0 0 0-.693.985 3.78 3.78 0 0 0-.225 1.317c0 .47.075.908.225 1.311.15.404.381.73.693.977.312.248.709.371 1.192.371zm5.926-3.411v4.237h-1.082v-7.044h1.046v1.1h.091c.165-.357.416-.645.752-.862.337-.22.771-.33 1.303-.33.477 0 .894.098 1.252.294.358.192.636.486.834.88.199.392.299.887.299 1.486v4.476h-1.083V19.93c0-.554-.143-.985-.431-1.294-.287-.312-.682-.468-1.183-.468-.345 0-.654.075-.926.225-.269.15-.482.369-.638.656-.156.287-.234.636-.234 1.046zm9.426 4.384c-.679 0-1.265-.15-1.757-.45a3.01 3.01 0 0 1-1.132-1.265c-.263-.545-.395-1.177-.395-1.899 0-.721.132-1.357.395-1.908a3.102 3.102 0 0 1 1.109-1.293c.477-.312 1.034-.468 1.67-.468.367 0 .729.061 1.087.184.357.122.683.32.976.596.294.272.528.633.702 1.082.174.45.261 1.003.261 1.66v.459h-5.429v-.936h4.329c0-.397-.08-.752-.239-1.064a1.8 1.8 0 0 0-.669-.738 1.877 1.877 0 0 0-1.018-.27c-.431 0-.804.106-1.119.32a2.114 2.114 0 0 0-.72.826c-.169.34-.253.703-.253 1.091v.624c0 .532.092.983.276 1.353.186.367.444.647.775.84.33.189.713.284 1.151.284.284 0 .541-.04.77-.12a1.65 1.65 0 0 0 .601-.367c.168-.165.298-.37.39-.614l1.045.293c-.11.355-.295.667-.555.936-.259.266-.58.474-.963.624-.382.146-.811.22-1.288.22zm11.057 0c-.636 0-1.194-.152-1.674-.454a3.084 3.084 0 0 1-1.119-1.27c-.266-.545-.399-1.18-.399-1.908 0-.734.133-1.375.399-1.922a3.078 3.078 0 0 1 1.119-1.275c.48-.302 1.038-.454 1.674-.454.635 0 1.192.151 1.669.454.48.303.853.728 1.119 1.275.269.547.403 1.188.403 1.922 0 .727-.134 1.363-.403 1.907a3.042 3.042 0 0 1-1.119 1.27c-.477.303-1.034.455-1.669.455zm0-.973c.483 0 .88-.123 1.192-.37a2.19 2.19 0 0 0 .692-.978c.15-.403.225-.84.225-1.311s-.075-.91-.225-1.317a2.21 2.21 0 0 0-.692-.986c-.312-.25-.709-.376-1.192-.376s-.881.126-1.193.377c-.312.25-.542.579-.692.985a3.78 3.78 0 0 0-.225 1.317c0 .47.075.908.225 1.311.15.404.38.73.692.977.312.248.71.371 1.193.371zm5.926-3.411v4.237h-1.082v-7.044h1.045v1.1h.092c.165-.357.416-.645.752-.862.336-.22.77-.33 1.302-.33.477 0 .895.098 1.252.294.358.192.636.486.835.88.199.392.298.887.298 1.486v4.476h-1.082V19.93c0-.554-.144-.985-.431-1.294-.288-.312-.682-.468-1.183-.468a1.89 1.89 0 0 0-.927.225c-.269.15-.481.369-.637.656-.156.287-.234.636-.234 1.046zm10.801 6.879c-.183 0-.347-.016-.491-.046a1.305 1.305 0 0 1-.298-.083l.275-.954c.263.068.496.092.697.074a.837.837 0 0 0 .537-.27c.159-.16.304-.418.436-.776l.201-.55-2.604-7.081h1.174l1.944 5.613h.073l1.945-5.613h1.174l-2.99 8.071a3.057 3.057 0 0 1-.5.904c-.199.241-.43.42-.692.536-.26.117-.554.175-.881.175zm9.101-2.495c-.636 0-1.194-.152-1.674-.454a3.084 3.084 0 0 1-1.119-1.27c-.266-.545-.399-1.18-.399-1.908 0-.734.133-1.375.399-1.922a3.078 3.078 0 0 1 1.119-1.275c.48-.302 1.038-.454 1.674-.454.636 0 1.192.151 1.669.454.48.303.853.728 1.119 1.275.269.547.404 1.188.404 1.922 0 .727-.135 1.363-.404 1.907a3.042 3.042 0 0 1-1.119 1.27c-.477.303-1.033.455-1.669.455zm0-.973c.483 0 .88-.123 1.192-.37a2.2 2.2 0 0 0 .693-.978c.15-.403.225-.84.225-1.311s-.075-.91-.225-1.317a2.22 2.22 0 0 0-.693-.986c-.312-.25-.709-.376-1.192-.376s-.881.126-1.192.377a2.22 2.22 0 0 0-.693.985 3.78 3.78 0 0 0-.225 1.317c0 .47.075.908.225 1.311.15.404.381.73.693.977.311.248.709.371 1.192.371zm9.283-2.054v-4.164h1.082v7.044h-1.082V23.14h-.073a2.308 2.308 0 0 1-.771.912c-.348.248-.788.372-1.32.372a2.35 2.35 0 0 1-1.174-.29 2.021 2.021 0 0 1-.808-.88c-.195-.394-.293-.89-.293-1.49v-4.476h1.082v4.402c0 .514.144.924.431 1.23.291.305.661.458 1.11.458.269 0 .543-.069.821-.206.281-.138.517-.349.706-.633.193-.284.289-.647.289-1.087zm3.065 2.88v-7.044h1.045v1.064h.074a1.69 1.69 0 0 1 .697-.849 2.05 2.05 0 0 1 1.137-.325c.08 0 .179.001.298.004.12.004.21.008.271.014v1.1a3.298 3.298 0 0 0-.252-.04 2.495 2.495 0 0 0-.409-.032c-.342 0-.648.071-.917.215a1.62 1.62 0 0 0-.633.587 1.59 1.59 0 0 0-.229.848v4.458h-1.082zm11.5-7.044v.917h-3.65v-.917h3.65zm-2.586-1.688h1.082v6.714c0 .306.044.535.133.688a.69.69 0 0 0 .349.303c.143.049.295.073.454.073.119 0 .217-.006.293-.018l.184-.037.22.972a2.225 2.225 0 0 1-.307.083 2.27 2.27 0 0 1-.5.046c-.306 0-.606-.066-.899-.197a1.786 1.786 0 0 1-.725-.601c-.189-.27-.284-.609-.284-1.018V15.6zm7.092 8.879c-.679 0-1.264-.15-1.756-.45a3.018 3.018 0 0 1-1.133-1.265c-.263-.545-.394-1.177-.394-1.899 0-.721.131-1.357.394-1.908a3.11 3.11 0 0 1 1.11-1.293c.477-.312 1.033-.468 1.669-.468.367 0 .729.061 1.087.184.358.122.683.32.977.596.293.272.527.633.701 1.082.175.45.262 1.003.262 1.66v.459h-5.43v-.936h4.329c0-.397-.079-.752-.238-1.064a1.795 1.795 0 0 0-.67-.738 1.875 1.875 0 0 0-1.018-.27c-.431 0-.804.106-1.119.32a2.114 2.114 0 0 0-.72.826c-.168.34-.252.703-.252 1.091v.624c0 .532.092.983.275 1.353.186.367.445.647.775.84.33.189.714.284 1.151.284.284 0 .541-.04.771-.12.232-.082.432-.204.6-.367.168-.165.298-.37.39-.614l1.046.293c-.11.355-.295.667-.555.936a2.71 2.71 0 0 1-.963.624c-.382.146-.812.22-1.289.22zm6.636.018c-.446 0-.851-.084-1.215-.252a2.085 2.085 0 0 1-.867-.739c-.214-.323-.321-.715-.321-1.174 0-.403.079-.73.238-.98a1.68 1.68 0 0 1 .638-.597 3.36 3.36 0 0 1 .88-.321c.325-.074.65-.132.977-.174a43.74 43.74 0 0 1 1.041-.124c.269-.03.465-.081.587-.151.126-.07.188-.193.188-.367v-.037c0-.453-.123-.804-.371-1.055-.245-.25-.616-.376-1.115-.376-.516 0-.921.113-1.215.34-.293.226-.5.467-.619.724l-1.027-.367c.183-.428.428-.761.734-1 .308-.241.645-.41 1.008-.504a4.19 4.19 0 0 1 1.083-.147c.226 0 .486.028.779.083.297.052.583.16.858.325.278.166.509.415.692.748.184.333.276.78.276 1.339v4.641h-1.083v-.954h-.055a1.878 1.878 0 0 1-.367.49 2.116 2.116 0 0 1-.683.446c-.284.122-.631.183-1.041.183zm.165-.972c.428 0 .789-.084 1.082-.252a1.717 1.717 0 0 0 .899-1.49v-.991c-.046.055-.146.105-.302.151a5.152 5.152 0 0 1-.532.115 24.19 24.19 0 0 1-1.037.137 4.146 4.146 0 0 0-.789.18c-.241.078-.437.2-.587.361-.146.16-.22.376-.22.652 0 .376.139.66.418.853.281.19.637.284 1.068.284zm5.039.807v-7.044h1.046v1.1h.091c.147-.376.384-.668.711-.875.327-.211.72-.317 1.179-.317.465 0 .851.106 1.16.317.312.207.555.5.729.876h.074c.18-.364.451-.653.811-.867.361-.217.794-.326 1.298-.326.63 0 1.145.197 1.546.592.4.391.6 1.001.6 1.83v4.714h-1.082v-4.714c0-.52-.142-.892-.426-1.115a1.58 1.58 0 0 0-1.005-.335c-.495 0-.879.15-1.151.45-.272.296-.408.673-.408 1.128v4.586h-1.101v-4.825c0-.4-.13-.723-.389-.967-.26-.248-.595-.372-1.005-.372-.281 0-.544.075-.789.225-.241.15-.437.358-.587.624a1.85 1.85 0 0 0-.22.913v4.402h-1.082zM59.886 43.497c-.447 0-.852-.084-1.216-.252a2.085 2.085 0 0 1-.866-.738c-.214-.325-.321-.716-.321-1.174 0-.404.08-.731.238-.982.16-.254.372-.452.638-.596.266-.144.56-.25.88-.321.324-.073.65-.131.977-.174a43.74 43.74 0 0 1 1.04-.124c.27-.03.466-.081.588-.152.125-.07.188-.192.188-.366v-.037c0-.453-.124-.804-.371-1.055-.245-.25-.617-.376-1.115-.376-.517 0-.922.113-1.215.34-.294.226-.5.467-.62.724l-1.027-.367c.184-.428.428-.761.734-1a2.75 2.75 0 0 1 1.01-.504 4.187 4.187 0 0 1 1.081-.147c.227 0 .486.028.78.083.297.052.582.16.858.325.278.166.509.415.692.748.184.333.275.78.275 1.339v4.641h-1.082v-.954h-.055a1.902 1.902 0 0 1-.367.49 2.117 2.117 0 0 1-.683.446c-.285.122-.632.183-1.041.183zm.165-.972c.428 0 .789-.084 1.082-.252a1.717 1.717 0 0 0 .899-1.49v-.991c-.046.055-.147.105-.303.151a5.1 5.1 0 0 1-.532.115 24.219 24.219 0 0 1-1.036.137 4.131 4.131 0 0 0-.789.18c-.241.078-.437.2-.587.361-.147.16-.22.376-.22.652 0 .376.14.66.417.853.282.19.638.284 1.069.284zm5.185.807V33.94h1.083v3.467h.091c.08-.122.19-.278.33-.468a1.95 1.95 0 0 1 .615-.514c.27-.152.633-.229 1.092-.229.593 0 1.116.148 1.568.445.453.297.806.717 1.06 1.261.253.544.38 1.186.38 1.926 0 .746-.127 1.393-.38 1.94-.254.544-.606.966-1.055 1.266-.45.297-.968.445-1.555.445-.453 0-.815-.075-1.087-.225a2.015 2.015 0 0 1-.628-.518 6.944 6.944 0 0 1-.34-.486h-.128v1.082h-1.046zM66.3 39.81c0 .532.078 1.001.234 1.408.156.403.384.72.684.95.3.225.666.339 1.1.339.453 0 .83-.12 1.133-.358.306-.242.535-.566.688-.972.156-.41.234-.866.234-1.367 0-.495-.077-.942-.23-1.34-.15-.4-.377-.716-.683-.948-.302-.236-.683-.354-1.142-.354-.44 0-.81.112-1.11.335-.3.22-.525.53-.678.927-.153.394-.23.854-.23 1.38zm9.672 3.669c-.636 0-1.194-.152-1.674-.454a3.085 3.085 0 0 1-1.119-1.27c-.266-.545-.399-1.18-.399-1.908 0-.734.133-1.375.4-1.922a3.08 3.08 0 0 1 1.118-1.275c.48-.303 1.038-.454 1.674-.454.636 0 1.193.151 1.67.454.48.303.853.728 1.119 1.275.269.547.403 1.188.403 1.922 0 .727-.134 1.363-.403 1.907a3.042 3.042 0 0 1-1.12 1.27c-.476.303-1.033.455-1.669.455zm0-.972c.483 0 .88-.124 1.193-.372a2.19 2.19 0 0 0 .692-.977c.15-.403.225-.84.225-1.311s-.075-.91-.225-1.316a2.219 2.219 0 0 0-.692-.986c-.312-.251-.71-.377-1.193-.377-.483 0-.88.126-1.192.377a2.22 2.22 0 0 0-.693.986 3.77 3.77 0 0 0-.224 1.316c0 .47.075.908.224 1.311.15.404.381.73.693.977.312.248.71.372 1.192.372zm9.284-2.055v-4.164h1.082v7.044h-1.082V42.14h-.074a2.311 2.311 0 0 1-.77.912c-.349.248-.79.372-1.321.372a2.35 2.35 0 0 1-1.174-.29 2.02 2.02 0 0 1-.807-.88c-.196-.394-.294-.89-.294-1.49v-4.476H81.9v4.403c0 .513.143.923.43 1.228.291.306.661.46 1.11.46.27 0 .543-.07.821-.207a1.79 1.79 0 0 0 .707-.633c.192-.284.288-.647.288-1.087zm6.128-4.164v.917h-3.65v-.917h3.65zM88.797 34.6h1.082v6.714c0 .306.045.535.133.688a.69.69 0 0 0 .349.303 1.4 1.4 0 0 0 .454.073c.12 0 .217-.006.293-.018l.184-.037.22.972a2.188 2.188 0 0 1-.307.083 2.26 2.26 0 0 1-.5.046 2.18 2.18 0 0 1-.899-.197 1.786 1.786 0 0 1-.725-.601c-.19-.27-.284-.609-.284-1.018V34.6zm10.708 8.879c-.66 0-1.229-.156-1.706-.468a3.048 3.048 0 0 1-1.1-1.289c-.257-.547-.385-1.172-.385-1.875 0-.716.131-1.347.394-1.894.266-.55.636-.98 1.11-1.289.477-.312 1.033-.468 1.67-.468.494 0 .941.092 1.338.275.398.184.723.44.977.77.254.331.411.716.472 1.157h-1.082a1.676 1.676 0 0 0-.55-.854c-.282-.25-.66-.376-1.138-.376-.421 0-.791.11-1.11.33a2.152 2.152 0 0 0-.738.922c-.174.395-.261.858-.261 1.39 0 .544.085 1.018.257 1.422.174.403.418.717.733.94a1.9 1.9 0 0 0 1.12.335c.28 0 .536-.05.765-.147.23-.098.424-.239.583-.422a1.62 1.62 0 0 0 .339-.66h1.082a2.5 2.5 0 0 1-1.403 1.912c-.391.193-.847.289-1.367.289zm8.792-3.027v-4.164h1.082v7.044h-1.082V42.14h-.074a2.313 2.313 0 0 1-.77.912c-.349.248-.789.372-1.321.372-.44 0-.831-.097-1.174-.29a2.025 2.025 0 0 1-.807-.88c-.196-.394-.293-.89-.293-1.49v-4.476h1.082v4.403c0 .513.144.923.431 1.228.29.306.66.46 1.11.46.269 0 .542-.07.821-.207a1.8 1.8 0 0 0 .706-.633c.192-.284.289-.647.289-1.087zm8.054-2.587-.972.276a1.81 1.81 0 0 0-.271-.473 1.31 1.31 0 0 0-.477-.385c-.202-.1-.46-.151-.775-.151-.431 0-.79.1-1.078.298-.284.196-.426.445-.426.747 0 .27.098.482.293.638.196.156.502.286.918.39l1.045.256c.63.153 1.099.387 1.408.702.309.312.463.714.463 1.206 0 .404-.116.765-.348 1.083-.229.318-.55.568-.963.752-.413.183-.893.275-1.44.275-.719 0-1.313-.156-1.784-.468-.471-.312-.769-.767-.894-1.367l1.027-.256c.098.379.283.663.555.853.275.19.634.284 1.077.284.505 0 .905-.107 1.202-.321.3-.217.449-.477.449-.78a.82.82 0 0 0-.256-.614c-.172-.168-.435-.294-.789-.376l-1.174-.276c-.645-.152-1.119-.39-1.422-.71-.3-.324-.449-.73-.449-1.216 0-.397.111-.749.334-1.054.227-.306.534-.546.922-.72a3.24 3.24 0 0 1 1.33-.262c.697 0 1.245.153 1.642.459.4.306.685.71.853 1.21zm4.821-1.577v.917h-3.65v-.917h3.65zm-2.586-1.688h1.082v6.714c0 .306.044.535.133.688.092.15.208.25.348.303a1.4 1.4 0 0 0 .454.073c.12 0 .217-.006.294-.018l.183-.037.22.972a2.148 2.148 0 0 1-.307.083c-.131.03-.298.046-.5.046a2.19 2.19 0 0 1-.899-.197 1.784 1.784 0 0 1-.724-.601c-.19-.27-.284-.609-.284-1.018V34.6zm7 8.879c-.636 0-1.194-.152-1.674-.454a3.084 3.084 0 0 1-1.119-1.27c-.266-.545-.399-1.18-.399-1.908 0-.734.133-1.375.399-1.922a3.078 3.078 0 0 1 1.119-1.275c.48-.303 1.038-.454 1.674-.454.636 0 1.192.151 1.669.454.48.303.853.728 1.119 1.275.269.547.404 1.188.404 1.922 0 .727-.135 1.363-.404 1.907a3.042 3.042 0 0 1-1.119 1.27c-.477.303-1.033.455-1.669.455zm0-.972c.483 0 .881-.124 1.192-.372.312-.248.543-.573.693-.977.15-.403.225-.84.225-1.311s-.075-.91-.225-1.316a2.22 2.22 0 0 0-.693-.986c-.311-.251-.709-.377-1.192-.377s-.88.126-1.192.377a2.22 2.22 0 0 0-.693.986 3.77 3.77 0 0 0-.225 1.316c0 .47.075.908.225 1.311.15.404.381.73.693.977.312.248.709.372 1.192.372zm4.844.825v-7.044h1.046v1.1h.091c.147-.375.384-.667.711-.875.327-.211.72-.317 1.179-.317.464 0 .851.106 1.16.317.312.208.555.5.729.876h.074c.18-.364.451-.653.811-.867.361-.217.794-.326 1.298-.326.63 0 1.145.197 1.546.592.4.391.6 1.001.6 1.83v4.714h-1.082v-4.714c0-.52-.142-.892-.426-1.115a1.58 1.58 0 0 0-1.005-.335c-.495 0-.879.15-1.151.45-.272.296-.408.672-.408 1.128v4.586h-1.101v-4.825c0-.4-.13-.722-.389-.967-.26-.248-.595-.372-1.005-.372-.281 0-.544.075-.789.225-.241.15-.437.358-.587.624a1.85 1.85 0 0 0-.22.912v4.403h-1.082zm15.388 0h-1.192l3.449-9.392h1.174l3.448 9.392h-1.192l-2.807-7.906h-.073l-2.807 7.906zm.441-3.669h4.806v1.01h-4.806v-1.01zm7.901 3.669V33.94h3.174c.737 0 1.339.133 1.807.399.471.263.819.619 1.045 1.068.227.45.34.951.34 1.505 0 .553-.113 1.056-.34 1.508a2.518 2.518 0 0 1-1.036 1.083c-.468.266-1.067.399-1.798.399h-2.274v-1.01h2.238c.504 0 .909-.086 1.215-.26a1.56 1.56 0 0 0 .665-.707c.14-.3.211-.637.211-1.013 0-.376-.071-.713-.211-1.01a1.507 1.507 0 0 0-.67-.696c-.309-.172-.718-.257-1.229-.257h-1.999v8.383h-1.138zm9.335-9.392v9.392h-1.137V33.94h1.137zm5.766 9.392v-7.044h1.082v7.044h-1.082zm.55-8.218a.77.77 0 0 1-.546-.216.695.695 0 0 1-.224-.518c0-.202.075-.374.224-.518a.77.77 0 0 1 .546-.216c.211 0 .392.072.541.216.153.144.23.316.23.518a.686.686 0 0 1-.23.518.752.752 0 0 1-.541.216zm3.597 3.98v4.238h-1.082v-7.044h1.045v1.1h.092c.165-.357.416-.645.752-.862.336-.22.77-.33 1.302-.33.477 0 .895.098 1.252.294.358.192.636.486.835.88.199.392.298.887.298 1.486v4.476h-1.082v-4.403c0-.553-.144-.984-.431-1.293-.288-.312-.682-.468-1.183-.468a1.89 1.89 0 0 0-.927.225c-.269.15-.481.369-.637.656-.156.287-.234.636-.234 1.046zm9.535-2.806v.917h-3.65v-.917h3.65zm-2.586-1.688h1.082v6.714c0 .306.044.535.133.688a.69.69 0 0 0 .349.303c.143.049.295.073.454.073.119 0 .217-.006.293-.018l.184-.037.22.972a2.206 2.206 0 0 1-.308.083 2.29 2.29 0 0 1-.499.046c-.306 0-.606-.066-.899-.197a1.786 1.786 0 0 1-.725-.601c-.189-.27-.284-.609-.284-1.018V34.6zm7.092 8.879c-.679 0-1.264-.15-1.756-.45a3.012 3.012 0 0 1-1.133-1.265c-.263-.545-.395-1.178-.395-1.899 0-.721.132-1.358.395-1.908a3.11 3.11 0 0 1 1.11-1.293c.477-.312 1.033-.468 1.669-.468.367 0 .729.061 1.087.184.358.122.683.32.977.596.293.272.527.633.701 1.082.175.45.262 1.003.262 1.66v.459h-5.43v-.936h4.329c0-.397-.079-.752-.238-1.064a1.795 1.795 0 0 0-.67-.738 1.875 1.875 0 0 0-1.018-.27c-.431 0-.804.106-1.119.32a2.114 2.114 0 0 0-.72.826c-.168.34-.252.703-.252 1.091v.624c0 .532.091.983.275 1.353.186.367.445.647.775.84.33.189.714.284 1.151.284.284 0 .541-.04.77-.12.233-.082.433-.205.601-.367.168-.165.298-.37.39-.614l1.046.293c-.11.355-.295.667-.555.936a2.71 2.71 0 0 1-.963.624c-.382.146-.812.22-1.289.22zm7.406 2.641c-.522 0-.972-.067-1.348-.201a2.862 2.862 0 0 1-.94-.523 2.86 2.86 0 0 1-.592-.688l.863-.605c.097.128.221.275.371.44.15.168.355.313.615.435.263.126.606.188 1.031.188.569 0 1.038-.137 1.408-.412.37-.276.555-.707.555-1.294v-1.43h-.091c-.08.128-.193.287-.34.477a1.919 1.919 0 0 1-.624.5c-.269.143-.632.215-1.091.215a2.941 2.941 0 0 1-1.532-.404c-.449-.269-.805-.66-1.068-1.174-.26-.513-.39-1.137-.39-1.87 0-.722.127-1.35.381-1.886.253-.538.606-.953 1.059-1.247.452-.297.975-.445 1.568-.445.459 0 .823.077 1.092.23.272.15.48.32.624.513.146.19.259.346.339.468h.11v-1.12h1.046v7.247c0 .605-.138 1.097-.413 1.477a2.35 2.35 0 0 1-1.101.839c-.458.18-.969.27-1.532.27zm-.036-3.87c.434 0 .801-.1 1.1-.298.3-.2.528-.485.684-.858.156-.373.234-.82.234-1.34 0-.507-.077-.954-.23-1.343a2.02 2.02 0 0 0-.678-.912c-.3-.22-.67-.33-1.11-.33-.459 0-.841.116-1.147.348-.302.232-.53.544-.683.935-.15.392-.225.826-.225 1.303 0 .49.077.922.23 1.298.155.373.385.666.687.88.306.211.685.317 1.138.317zm5.063 1.082v-7.044h1.045v1.064h.074c.128-.349.36-.631.697-.848a2.05 2.05 0 0 1 1.137-.326c.08 0 .179.001.298.004s.21.008.271.014v1.1a3.298 3.298 0 0 0-.252-.04 2.495 2.495 0 0 0-.409-.032c-.342 0-.648.071-.917.215a1.58 1.58 0 0 0-.862 1.435v4.458h-1.082zm6.878.165c-.447 0-.852-.084-1.216-.252a2.082 2.082 0 0 1-.866-.738c-.215-.325-.322-.716-.322-1.174 0-.404.08-.731.239-.982.159-.254.371-.452.637-.596.266-.144.56-.25.881-.321.324-.073.65-.131.977-.174a43.74 43.74 0 0 1 1.041-.124c.269-.03.464-.081.587-.152.125-.07.188-.192.188-.366v-.037c0-.453-.124-.804-.372-1.055-.244-.25-.616-.376-1.114-.376-.517 0-.922.113-1.215.34-.294.226-.5.467-.619.724l-1.028-.367c.184-.428.428-.761.734-1a2.75 2.75 0 0 1 1.009-.504 4.188 4.188 0 0 1 1.082-.147c.227 0 .486.028.78.083.296.052.582.16.857.325.279.166.51.415.693.748.183.333.275.78.275 1.339v4.641h-1.082v-.954h-.055a1.924 1.924 0 0 1-.367.49 2.116 2.116 0 0 1-.683.446c-.285.122-.632.183-1.041.183zm.165-.972c.428 0 .788-.084 1.082-.252a1.717 1.717 0 0 0 .899-1.49v-.991c-.046.055-.147.105-.303.151a5.14 5.14 0 0 1-.532.115 24.85 24.85 0 0 1-1.036.137 4.128 4.128 0 0 0-.789.18c-.242.078-.437.2-.587.361-.147.16-.22.376-.22.652 0 .376.139.66.417.853.281.19.638.284 1.069.284zm8.102-6.237v.917h-3.65v-.917h3.65zM212.44 34.6h1.083v6.714c0 .306.044.535.133.688.091.15.208.25.348.303a1.4 1.4 0 0 0 .454.073c.12 0 .217-.006.294-.018l.183-.037.22.972a2.148 2.148 0 0 1-.307.083c-.131.03-.298.046-.5.046a2.19 2.19 0 0 1-.899-.197 1.784 1.784 0 0 1-.724-.601c-.19-.27-.285-.609-.285-1.018V34.6zm4.215 8.732v-7.044h1.082v7.044h-1.082zm.55-8.218a.766.766 0 0 1-.545-.216.692.692 0 0 1-.225-.518c0-.202.075-.374.225-.518a.766.766 0 0 1 .545-.216c.211 0 .392.072.541.216.153.144.23.316.23.518a.686.686 0 0 1-.23.518.752.752 0 0 1-.541.216zm5.376 8.365c-.636 0-1.194-.152-1.674-.454a3.084 3.084 0 0 1-1.119-1.27c-.266-.545-.399-1.18-.399-1.908 0-.734.133-1.375.399-1.922a3.078 3.078 0 0 1 1.119-1.275c.48-.303 1.038-.454 1.674-.454.636 0 1.193.151 1.67.454.48.303.853.728 1.119 1.275.269.547.403 1.188.403 1.922 0 .727-.134 1.363-.403 1.907a3.042 3.042 0 0 1-1.119 1.27c-.477.303-1.034.455-1.67.455zm0-.972c.483 0 .881-.124 1.193-.372a2.19 2.19 0 0 0 .692-.977c.15-.403.225-.84.225-1.311s-.075-.91-.225-1.316a2.218 2.218 0 0 0-.692-.986c-.312-.251-.71-.377-1.193-.377-.483 0-.88.126-1.192.377a2.22 2.22 0 0 0-.693.986 3.796 3.796 0 0 0-.224 1.316c0 .47.075.908.224 1.311.15.404.381.73.693.977.312.248.709.372 1.192.372zm5.927-3.412v4.237h-1.083v-7.044h1.046v1.1h.092a2.01 2.01 0 0 1 .752-.862c.336-.22.77-.33 1.302-.33.477 0 .894.098 1.252.294.358.192.636.486.835.88.198.392.298.887.298 1.486v4.476h-1.082v-4.403c0-.553-.144-.984-.432-1.293-.287-.312-.681-.468-1.183-.468-.345 0-.654.075-.926.225-.269.15-.482.369-.638.656-.155.287-.233.636-.233 1.046zm11.461-1.23-.972.276a1.782 1.782 0 0 0-.271-.473 1.31 1.31 0 0 0-.477-.385c-.201-.1-.46-.151-.775-.151-.431 0-.79.1-1.077.298-.285.196-.427.445-.427.747a.77.77 0 0 0 .294.638c.195.156.501.286.917.39l1.045.256c.63.153 1.1.387 1.408.702.309.312.464.714.464 1.206 0 .404-.117.765-.349 1.083-.229.318-.55.568-.963.752-.413.183-.893.275-1.44.275-.719 0-1.313-.156-1.784-.468-.471-.312-.769-.767-.894-1.367l1.027-.256c.098.379.283.663.555.853.275.19.634.284 1.078.284.504 0 .905-.107 1.201-.321.3-.217.45-.477.45-.78a.82.82 0 0 0-.257-.614c-.171-.168-.434-.294-.789-.376l-1.174-.276c-.645-.152-1.119-.39-1.422-.71-.299-.324-.449-.73-.449-1.216 0-.397.111-.749.335-1.054.226-.306.533-.546.921-.72a3.24 3.24 0 0 1 1.33-.262c.697 0 1.245.153 1.642.459.401.306.685.71.853 1.21zm3.17 2.825v-.054c.006-.585.067-1.05.184-1.395.116-.345.281-.625.495-.839.214-.214.471-.411.77-.592.181-.11.343-.24.487-.39.143-.152.256-.328.339-.527.085-.199.128-.419.128-.66 0-.3-.07-.56-.211-.78-.14-.22-.328-.39-.564-.509a1.71 1.71 0 0 0-.784-.179c-.251 0-.492.052-.725.156a1.404 1.404 0 0 0-.582.491c-.156.223-.246.515-.271.876h-1.155c.024-.52.159-.965.403-1.335.248-.37.574-.652.977-.848a3.081 3.081 0 0 1 1.353-.293c.538 0 1.006.107 1.403.32.401.215.71.508.927.881.22.373.33.798.33 1.275 0 .336-.052.64-.156.913a2.26 2.26 0 0 1-.44.729c-.19.214-.419.403-.688.568a2.85 2.85 0 0 0-.647.532c-.162.184-.28.402-.353.656-.073.254-.113.57-.119.95v.054h-1.101zm.587 2.715a.794.794 0 0 1-.582-.243.794.794 0 0 1-.243-.582c0-.226.081-.42.243-.582a.794.794 0 0 1 .582-.244c.226 0 .421.082.583.244a.795.795 0 0 1 .243.582.856.856 0 0 1-.413.715.786.786 0 0 1-.413.11z"/><rect width="236.33" height="58.017" x="46.814" y=".323" stroke="#D8DEEB" stroke-width=".646" rx="6.134"/><path fill="#26292C" d="M67.48 273.609c-3.092 0-4.88 1.354-5.743 2.289-.102-.806-.647-1.851-2.773-1.851h-4.617v4.715h1.892c.32 0 .423.1.423.412v21.529h5.504v-8.081c0-.218-.005-.422-.01-.604.86.77 2.5 1.831 5.065 1.831 5.379 0 9.14-4.16 9.14-10.119 0-6.053-3.571-10.121-8.88-10.121zm-1.118 15.563c-2.962 0-4.308-2.768-4.308-5.332 0-4.039 2.263-5.479 4.382-5.479 2.597 0 4.345 2.185 4.345 5.441 0 3.712-2.222 5.37-4.419 5.37"/><mask id="d" width="20" height="27" x="150" y="273" maskUnits="userSpaceOnUse" style="mask-type:alpha"><path fill="#fff" d="M162.036 273.312h-9.97c-.968 0-1.76.819-1.76 1.819v23.033c0 1 .792 1.819 1.76 1.819h15.249c.967 0 1.759-.819 1.759-1.819v-17.578l-7.038-7.274z"/></mask><g mask="url(#d)"><path fill="#0F9D58" d="M162.036 273.312h-9.971c-.968 0-1.759.819-1.759 1.819v23.033c0 1 .791 1.819 1.759 1.819h15.249c.968 0 1.76-.819 1.76-1.819v-17.578l-4.106-3.031-2.932-4.243z"/></g><mask id="e" width="20" height="27" x="150" y="273" maskUnits="userSpaceOnUse" style="mask-type:alpha"><path fill="#fff" d="M162.036 273.312h-9.97c-.968 0-1.76.819-1.76 1.819v23.033c0 1 .792 1.819 1.76 1.819h15.249c.967 0 1.759-.819 1.759-1.819v-17.578l-7.038-7.274z"/></mask><g mask="url(#e)"><path fill="#F1F1F1" d="M154.998 286.344v8.789h9.384v-8.789h-9.384zm4.106 7.576h-2.933v-1.515h2.933v1.515zm0-2.424h-2.933v-1.515h2.933v1.515zm0-2.425h-2.933v-1.515h2.933v1.515zm4.105 4.849h-2.932v-1.515h2.932v1.515zm0-2.424h-2.932v-1.515h2.932v1.515zm0-2.425h-2.932v-1.515h2.932v1.515z"/></g><mask id="f" width="20" height="27" x="150" y="273" maskUnits="userSpaceOnUse" style="mask-type:alpha"><path fill="#fff" d="M162.036 273.312h-9.97c-.968 0-1.76.819-1.76 1.819v23.033c0 1 .792 1.819 1.76 1.819h15.249c.967 0 1.759-.819 1.759-1.819v-17.578l-7.038-7.274z"/></mask><g mask="url(#f)"><path fill="url(#g)" d="m162.55 280.055 6.524 6.74v-6.208l-6.524-.532z"/></g><mask id="h" width="20" height="27" x="150" y="273" maskUnits="userSpaceOnUse" style="mask-type:alpha"><path fill="#fff" d="M162.036 273.312h-9.97c-.968 0-1.76.819-1.76 1.819v23.033c0 1 .792 1.819 1.76 1.819h15.249c.967 0 1.759-.819 1.759-1.819v-17.578l-7.038-7.274z"/></mask><g mask="url(#h)"><path fill="#87CEAC" d="M162.036 273.312v5.456c0 1.004.787 1.818 1.759 1.818h5.279l-7.038-7.274z"/></g><mask id="i" width="20" height="27" x="150" y="273" maskUnits="userSpaceOnUse" style="mask-type:alpha"><path fill="#fff" d="M162.036 273.312h-9.97c-.968 0-1.76.819-1.76 1.819v23.033c0 1 .792 1.819 1.76 1.819h15.249c.967 0 1.759-.819 1.759-1.819v-17.578l-7.038-7.274z"/></mask><g mask="url(#i)"><path fill="#fff" fill-opacity=".2" d="M152.065 273.312c-.968 0-1.759.819-1.759 1.819v.151c0-1 .791-1.818 1.759-1.818h9.971v-.152h-9.971z"/></g><mask id="j" width="20" height="27" x="150" y="273" maskUnits="userSpaceOnUse" style="mask-type:alpha"><path fill="#fff" d="M162.036 273.312h-9.97c-.968 0-1.76.819-1.76 1.819v23.033c0 1 .792 1.819 1.76 1.819h15.249c.967 0 1.759-.819 1.759-1.819v-17.578l-7.038-7.274z"/></mask><g mask="url(#j)"><path fill="#263238" fill-opacity=".2" d="M167.314 299.83h-15.249c-.968 0-1.759-.818-1.759-1.818v.151c0 1 .791 1.819 1.759 1.819h15.249c.968 0 1.76-.819 1.76-1.819v-.151c0 1-.792 1.818-1.76 1.818z"/></g><mask id="k" width="20" height="27" x="150" y="273" maskUnits="userSpaceOnUse" style="mask-type:alpha"><path fill="#fff" d="M162.036 273.312h-9.97c-.968 0-1.76.819-1.76 1.819v23.033c0 1 .792 1.819 1.76 1.819h15.249c.967 0 1.759-.819 1.759-1.819v-17.578l-7.038-7.274z"/></mask><g mask="url(#k)"><path fill="#263238" fill-opacity=".1" d="M163.795 280.592c-.972 0-1.759-.814-1.759-1.819v.152c0 1.005.787 1.818 1.759 1.818h5.279v-.151h-5.279z"/></g><path fill="url(#l)" d="M162.035 273.316h-9.97c-.968 0-1.76.819-1.76 1.819v23.033c0 1 .792 1.819 1.76 1.819h15.249c.967 0 1.759-.819 1.759-1.819V280.59l-7.038-7.274z"/><path fill="#FF4A00" fill-rule="evenodd" d="M212.762 285.016h7.494c.118.693.18 1.407.18 2.131v.021c0 .724-.062 1.438-.18 2.131h-7.494l5.301 5.301c-.416.586-.879 1.13-1.387 1.639-.504.508-1.053.971-1.639 1.387l-5.301-5.301v7.494c-.693.118-1.407.18-2.131.18h-.021c-.724 0-1.438-.062-2.131-.18v-7.494l-5.301 5.301a12.936 12.936 0 0 1-3.026-3.026l5.301-5.301h-7.494a12.721 12.721 0 0 1-.18-2.136v-.011c0-.729.18-2.136.18-2.136h7.494l-5.301-5.301a12.977 12.977 0 0 1 3.026-3.026l5.301 5.301v-7.494c.693-.118 1.402-.18 2.131-.18h.016c.729 0 1.443.062 2.136.18v7.494l5.301-5.301a12.913 12.913 0 0 1 3.026 3.026l-5.301 5.301zm-2.45 4.861a7.669 7.669 0 0 0 .493-2.712v-.011c0-.955-.175-1.869-.493-2.712a7.669 7.669 0 0 0-2.712-.493h-.011c-.955 0-1.869.175-2.712.493a7.669 7.669 0 0 0-.493 2.712v.011c0 .955.175 1.869.493 2.712a7.669 7.669 0 0 0 2.712.493h.011c.955 0 1.869-.175 2.712-.493z" clip-rule="evenodd"/><path fill="#fff" d="M262.521 279.645h-14.037v14.036h14.037v-14.036z"/><path fill="#EA4335" d="m262.521 299.996 6.317-6.316h-6.317v6.316z"/><path fill="#FBBC04" d="M268.838 279.645h-6.317v14.036h6.317v-14.036z"/><path fill="#34A853" d="M262.521 293.68h-14.037v6.316h14.037v-6.316z"/><path fill="#188038" d="M242.168 293.68v4.211c0 1.163.942 2.105 2.106 2.105h4.211v-6.316h-6.317z"/><path fill="#1967D2" d="M268.838 279.641v-4.211a2.105 2.105 0 0 0-2.105-2.106h-4.212v6.317h6.317z"/><path fill="#4285F4" d="M262.521 273.324h-18.247a2.105 2.105 0 0 0-2.106 2.106v18.248h6.317v-14.037h14.036v-6.317z"/><path fill="#4285F4" d="M251.364 290.531c-.525-.354-.888-.872-1.086-1.556l1.218-.502c.11.421.303.747.579.979.273.232.607.346.996.346.398 0 .741-.121 1.027-.364.286-.242.43-.55.43-.924 0-.383-.151-.695-.453-.937-.302-.242-.681-.363-1.134-.363h-.703v-1.206h.631c.39 0 .718-.105.985-.316.266-.21.4-.498.4-.865a.955.955 0 0 0-.358-.78c-.239-.195-.541-.293-.907-.293-.358 0-.642.094-.853.286-.21.191-.369.433-.46.703l-1.205-.502c.16-.452.453-.852.882-1.198.43-.346.979-.519 1.646-.519.493 0 .937.094 1.33.286.393.191.702.456.925.793.223.338.333.717.333 1.138 0 .43-.103.793-.31 1.092a2.146 2.146 0 0 1-.764.686v.072c.39.16.729.424.98.763.254.342.382.751.382 1.228s-.121.904-.363 1.278a2.516 2.516 0 0 1-1.002.882 3.157 3.157 0 0 1-1.437.323 2.97 2.97 0 0 1-1.709-.53zm7.48-6.043-1.337.967-.669-1.014 2.399-1.73h.919v8.16h-1.312v-6.383z"/><g clip-path="url(#m)"><path fill="#EC6737" d="M304.016 280.916v16.279l-1.601.978-1.602-.983v-16.262l-4.148 2.554v13.922l5.75 3.518 5.799-3.543v-13.906l-4.198-2.557zm-1.601-8.572-12.093 7.327v13.923l3.141 1.85V281.52l8.955-5.445 8.963 5.437.037.021-.004 13.891 3.11-1.83v-13.923l-12.109-7.327z"/></g><g fill="#34313F" clip-path="url(#n)"><path d="M350.776 288.668h2.97c.844 0 1.379-.434 1.379-1.133 0-.658-.535-1.133-1.379-1.133h-2.97c-.099 0-.183.079-.183.158v1.95a.178.178 0 0 0 .183.158zm-.009 5.289h2.923c.899 0 1.435-.409 1.435-1.133 0-.626-.51-1.133-1.435-1.133h-2.923c-.094 0-.174.073-.174.145v1.965c.013.096.08.156.174.156z"/><path d="m362.38 274.373-9.58 9.556h1.566c2.441 0 3.884 1.536 3.884 3.211 0 1.321-.89 2.289-1.842 2.719-.154.061-.154.277.015.338 1.106.43 1.889 1.582 1.889 2.934 0 1.905-1.275 3.426-3.747 3.426h-6.786c-.108 0-.2-.092-.2-.184v-7.236l-10.517 10.478c-.138.138-.046.384.154.384h25.287a.17.17 0 0 0 .169-.169v-25.319c.046-.169-.169-.261-.292-.138z"/></g><g clip-path="url(#o)"><path fill="#9B5C8F" d="M53.37 330.848h24.835a2.843 2.843 0 0 1 2.844 2.844v9.48a2.843 2.843 0 0 1-2.844 2.844H69.3l1.222 2.994-5.376-2.994H53.382a2.843 2.843 0 0 1-2.844-2.844v-9.48a2.832 2.832 0 0 1 2.831-2.844z"/><path fill="#fff" d="M52.274 333.437c.174-.236.434-.36.782-.385.632-.049.992.248 1.079.893.384 2.593.806 4.788 1.253 6.587l2.716-5.173c.248-.471.558-.719.93-.744.546-.037.88.31 1.017 1.042.31 1.65.707 3.051 1.178 4.242.323-3.15.869-5.42 1.638-6.822.186-.347.459-.521.818-.546.286-.024.546.063.782.249a.97.97 0 0 1 .384.707c.013.223-.025.409-.124.595-.484.893-.88 2.394-1.203 4.477-.31 2.022-.422 3.597-.347 4.726.025.31-.025.583-.149.819-.149.272-.372.421-.657.446-.323.025-.658-.124-.98-.459-1.154-1.178-2.072-2.939-2.741-5.284a238.606 238.606 0 0 0-1.786 3.572c-.732 1.402-1.352 2.121-1.873 2.159-.335.024-.62-.261-.868-.856-.633-1.625-1.315-4.763-2.047-9.414-.05-.323.025-.608.199-.831zm26.655 1.947c-.446-.781-1.104-1.253-1.984-1.439a3.296 3.296 0 0 0-.67-.074c-1.19 0-2.158.62-2.915 1.86-.645 1.055-.967 2.221-.967 3.498 0 .955.198 1.774.595 2.456.447.781 1.104 1.253 1.984 1.439.236.049.46.074.67.074 1.203 0 2.17-.62 2.915-1.86a6.649 6.649 0 0 0 .967-3.51c.013-.968-.198-1.774-.595-2.444zm-1.563 3.436c-.173.818-.483 1.426-.942 1.835-.36.323-.695.459-1.005.397-.298-.062-.546-.322-.732-.806a3.144 3.144 0 0 1-.223-1.128c0-.311.025-.621.087-.906a4.013 4.013 0 0 1 .657-1.476c.41-.608.844-.856 1.29-.769.298.062.546.323.732.806.149.385.223.769.223 1.129 0 .322-.025.633-.087.918zm-6.201-3.436c-.447-.781-1.117-1.253-1.985-1.439a3.297 3.297 0 0 0-.67-.074c-1.19 0-2.158.62-2.914 1.86-.645 1.055-.968 2.221-.968 3.498 0 .955.199 1.774.596 2.456.446.781 1.104 1.253 1.984 1.439.236.049.46.074.67.074 1.203 0 2.17-.62 2.915-1.86a6.648 6.648 0 0 0 .967-3.51c0-.968-.198-1.774-.595-2.444zm-1.575 3.436c-.174.818-.484 1.426-.943 1.835-.36.323-.695.459-1.005.397-.297-.062-.545-.322-.731-.806a3.146 3.146 0 0 1-.224-1.128c0-.311.025-.621.087-.906a4.011 4.011 0 0 1 .657-1.476c.41-.608.844-.856 1.29-.769.298.062.546.323.732.806.149.385.223.769.223 1.129a3.64 3.64 0 0 1-.086.918z"/></g><path fill="#36C5F0" fill-rule="evenodd" d="M109.155 326.188a2.708 2.708 0 1 0 .001 5.417h2.71v-2.708a2.71 2.71 0 0 0-2.711-2.709c.001 0 .001 0 0 0zm0 7.224h-7.224a2.71 2.71 0 0 0-.001 5.419h7.225a2.71 2.71 0 1 0 0-5.419z" clip-rule="evenodd"/><path fill="#2EB67D" fill-rule="evenodd" d="M126.315 336.121a2.71 2.71 0 0 0-5.419 0v2.71h2.71a2.709 2.709 0 0 0 2.709-2.71zm-7.225 0v-7.225a2.71 2.71 0 0 0-5.418 0v7.225a2.71 2.71 0 1 0 5.418 0z" clip-rule="evenodd"/><path fill="#ECB22E" fill-rule="evenodd" d="M116.381 353.281a2.708 2.708 0 1 0 0-5.417h-2.71v2.709a2.71 2.71 0 0 0 2.71 2.708zm0-7.226h7.225a2.708 2.708 0 1 0 .001-5.418h-7.225a2.71 2.71 0 1 0-.001 5.418z" clip-rule="evenodd"/><path fill="#E01E5A" fill-rule="evenodd" d="M99.222 343.346a2.709 2.709 0 0 0 2.71 2.708 2.71 2.71 0 0 0 2.71-2.708v-2.709h-2.71a2.71 2.71 0 0 0-2.71 2.709zm7.225 0v7.224a2.71 2.71 0 0 0 5.419.002v-7.224a2.71 2.71 0 0 0-5.419-.002c0 .001 0 0 0 0z" clip-rule="evenodd"/><g clip-path="url(#p)"><mask id="q" width="15" height="22" x="153" y="329" maskUnits="userSpaceOnUse" style="mask-type:alpha"><path fill="#0071F0" d="M153.3 337.246c0 1.193.281 2.319.778 3.314l.002.003c.205.409.446.796.72 1.157 1.889 2.838 4.531 5.646 5.065 8.155a.68.68 0 0 0 .675.684.68.68 0 0 0 .674-.684c.535-2.509 3.177-5.317 5.066-8.155a7.39 7.39 0 0 0 .72-1.157l.002-.003h-.001a7.385 7.385 0 0 0 .779-3.314c0-4.054-3.241-7.34-7.24-7.34s-7.24 3.286-7.24 7.34zm4.587-.151c0-1.485 1.188-2.689 2.653-2.689s2.653 1.204 2.653 2.689c0 1.486-1.188 2.69-2.653 2.69s-2.653-1.204-2.653-2.69z"/></mask><g mask="url(#q)"><path fill="#0071F0" fill-rule="evenodd" d="m170.257 322.363-11.445 12.618-3.947-3.679 11.445-12.618 3.947 3.679z" clip-rule="evenodd"/></g><mask id="r" width="15" height="22" x="153" y="329" maskUnits="userSpaceOnUse" style="mask-type:alpha"><path fill="#FE2C25" d="M153.3 337.246c0 1.193.281 2.319.778 3.314l.002.003c.205.409.446.796.72 1.157 1.889 2.838 4.531 5.646 5.065 8.155a.68.68 0 0 0 .675.684.68.68 0 0 0 .674-.684c.535-2.509 3.177-5.317 5.066-8.155a7.39 7.39 0 0 0 .72-1.157l.002-.003h-.001a7.385 7.385 0 0 0 .779-3.314c0-4.054-3.241-7.34-7.24-7.34s-7.24 3.286-7.24 7.34zm4.587-.151c0-1.485 1.188-2.689 2.653-2.689s2.653 1.204 2.653 2.689c0 1.486-1.188 2.69-2.653 2.69s-2.653-1.204-2.653-2.69z"/></mask><g mask="url(#r)"><path fill="#FE2C25" fill-rule="evenodd" d="m158.811 334.976-11.444 12.618-3.947-3.679 11.445-12.618 3.946 3.679z" clip-rule="evenodd"/></g><mask id="s" width="15" height="22" x="153" y="329" maskUnits="userSpaceOnUse" style="mask-type:alpha"><path fill="#2A84FC" d="M153.3 337.246c0 1.193.281 2.319.778 3.314l.002.003c.205.409.446.796.72 1.157 1.889 2.838 4.531 5.646 5.065 8.155a.68.68 0 0 0 .675.684.68.68 0 0 0 .674-.684c.535-2.509 3.177-5.317 5.066-8.155a7.39 7.39 0 0 0 .72-1.157l.002-.003h-.001a7.385 7.385 0 0 0 .779-3.314c0-4.054-3.241-7.34-7.24-7.34s-7.24 3.286-7.24 7.34zm4.587-.151c0-1.485 1.188-2.689 2.653-2.689s2.653 1.204 2.653 2.689c0 1.486-1.188 2.69-2.653 2.69s-2.653-1.204-2.653-2.69z"/></mask><g mask="url(#s)"><path fill="#2A84FC" fill-rule="evenodd" d="m174.202 326.042-11.444 12.619-3.947-3.679 11.445-12.619 3.946 3.679z" clip-rule="evenodd"/></g><mask id="t" width="15" height="22" x="153" y="329" maskUnits="userSpaceOnUse" style="mask-type:alpha"><path fill="#FFBA00" d="M153.3 337.246c0 1.193.281 2.319.778 3.314l.002.003c.205.409.446.796.72 1.157 1.889 2.838 4.531 5.646 5.065 8.155a.68.68 0 0 0 .675.684.68.68 0 0 0 .674-.684c.535-2.509 3.177-5.317 5.066-8.155a7.39 7.39 0 0 0 .72-1.157l.002-.003h-.001a7.385 7.385 0 0 0 .779-3.314c0-4.054-3.241-7.34-7.24-7.34s-7.24 3.286-7.24 7.34zm4.587-.151c0-1.485 1.188-2.689 2.653-2.689s2.653 1.204 2.653 2.689c0 1.486-1.188 2.69-2.653 2.69s-2.653-1.204-2.653-2.69z"/></mask><g mask="url(#t)"><path fill="#FFBA00" fill-rule="evenodd" d="m162.758 338.66-11.445 12.618-3.947-3.679 11.445-12.619 3.947 3.68z" clip-rule="evenodd"/></g><mask id="u" width="15" height="22" x="153" y="329" maskUnits="userSpaceOnUse" style="mask-type:alpha"><path fill="#00AC47" d="M153.3 337.246c0 1.193.281 2.319.778 3.314l.002.003c.205.409.446.796.72 1.157 1.889 2.838 4.531 5.646 5.065 8.155a.68.68 0 0 0 .675.684.68.68 0 0 0 .674-.684c.535-2.509 3.177-5.317 5.066-8.155a7.39 7.39 0 0 0 .72-1.157l.002-.003h-.001a7.385 7.385 0 0 0 .779-3.314c0-4.054-3.241-7.34-7.24-7.34s-7.24 3.286-7.24 7.34zm4.587-.151c0-1.485 1.188-2.689 2.653-2.689s2.653 1.204 2.653 2.689c0 1.486-1.188 2.69-2.653 2.69s-2.653-1.204-2.653-2.69z"/></mask><g mask="url(#u)"><path fill="#00AC47" fill-rule="evenodd" d="m185.291 336.376-22.889 25.236-11.089-10.336 22.89-25.237 11.088 10.337z" clip-rule="evenodd"/></g></g><g clip-path="url(#v)"><path fill="#00A1E0" d="M204.659 331.231a5.417 5.417 0 0 1 3.921-1.683c2.041 0 3.821 1.138 4.77 2.828a6.594 6.594 0 0 1 2.696-.573c3.681 0 6.665 3.01 6.665 6.724 0 3.713-2.984 6.724-6.665 6.724-.441 0-.881-.044-1.313-.131a4.871 4.871 0 0 1-6.385 2.005 5.56 5.56 0 0 1-10.335-.251 5.07 5.07 0 0 1-1.06.11c-2.85.001-5.161-2.334-5.161-5.214a5.223 5.223 0 0 1 2.581-4.517 6.002 6.002 0 0 1 5.511-8.382 6 6 0 0 1 4.775 2.36z"/><path fill="#fff" d="M196.27 340.094c-.019.051.007.061.013.07.059.042.118.073.177.107.315.167.613.216.925.216.634 0 1.028-.337 1.028-.88v-.011c0-.502-.445-.685-.862-.816l-.054-.018c-.315-.102-.586-.19-.586-.397v-.011c0-.177.159-.308.404-.308.273 0 .598.091.806.207 0 0 .062.039.084-.02l.129-.347c.012-.034-.009-.058-.031-.072a1.794 1.794 0 0 0-.908-.244l-.064.001c-.58 0-.985.35-.985.853v.01c0 .53.447.702.865.822l.068.021c.305.093.568.174.568.389v.011c0 .196-.171.342-.447.342a1.5 1.5 0 0 1-.817-.235c-.044-.026-.07-.045-.104-.066-.018-.011-.064-.031-.084.029l-.125.347zm9.285 0c-.019.051.007.061.013.07.059.042.118.073.177.107.315.167.613.216.925.216.634 0 1.028-.337 1.028-.88v-.011c0-.502-.445-.685-.862-.816l-.054-.018c-.315-.102-.586-.19-.586-.397v-.011c0-.177.159-.308.404-.308.273 0 .598.091.806.207 0 0 .062.039.084-.02l.129-.347c.012-.034-.009-.058-.031-.072a1.794 1.794 0 0 0-.908-.244l-.064.001c-.58 0-.985.35-.985.853v.01c0 .53.447.702.865.822l.068.021c.305.093.568.174.568.389v.011c0 .196-.171.342-.447.342a1.5 1.5 0 0 1-.817-.235c-.044-.026-.07-.044-.104-.066-.011-.007-.065-.028-.084.029l-.125.347zm6.339-1.064c0 .307-.057.549-.17.72-.112.169-.28.252-.515.252-.236 0-.404-.082-.514-.252-.111-.17-.167-.413-.167-.72 0-.306.056-.548.167-.717.11-.167.278-.249.514-.249.235 0 .403.082.515.249.113.169.17.411.17.717zm.529-.569a1.28 1.28 0 0 0-.241-.46 1.163 1.163 0 0 0-.406-.309 1.344 1.344 0 0 0-.567-.113c-.215 0-.406.038-.568.113a1.176 1.176 0 0 0-.648.769 1.996 1.996 0 0 0-.078.569c0 .203.026.395.078.569.052.176.133.331.241.46.108.13.245.233.407.307.162.073.353.111.568.111.214 0 .405-.038.567-.111.162-.074.299-.177.406-.307.108-.129.189-.284.241-.46.052-.174.078-.366.078-.569 0-.202-.026-.394-.078-.569zm4.348 1.459c-.018-.052-.068-.033-.068-.033-.077.03-.159.057-.246.071a1.995 1.995 0 0 1-.29.021c-.256 0-.46-.077-.606-.227-.146-.151-.228-.394-.227-.724.001-.3.073-.525.203-.697.129-.171.326-.259.588-.259.218 0 .385.025.559.08 0 0 .042.019.062-.036l.13-.362c.014-.04-.021-.057-.033-.062a2.02 2.02 0 0 0-.353-.089 2.608 2.608 0 0 0-.397-.027 1.44 1.44 0 0 0-.591.114 1.226 1.226 0 0 0-.684.768 1.84 1.84 0 0 0-.086.57c0 .439.119.794.352 1.054.235.261.587.393 1.046.393.271 0 .549-.055.749-.134 0 0 .039-.018.022-.062l-.13-.359zm.926-1.184a1.04 1.04 0 0 1 .145-.423c.11-.167.277-.259.512-.259.236 0 .391.092.502.259a.88.88 0 0 1 .119.423h-1.278zm1.783-.375a1.115 1.115 0 0 0-.23-.419 1.042 1.042 0 0 0-.34-.259 1.299 1.299 0 0 0-.513-.104c-.224 0-.427.037-.592.115a1.172 1.172 0 0 0-.413.315c-.108.131-.19.287-.242.465a1.987 1.987 0 0 0-.079.572c0 .206.027.399.081.572.055.174.142.328.26.455.118.129.269.229.451.299.18.07.399.106.65.105.518-.001.791-.117.903-.179.02-.011.039-.03.015-.086l-.117-.328c-.018-.049-.068-.031-.068-.031-.128.048-.31.133-.735.132-.278 0-.484-.082-.613-.21-.133-.131-.198-.324-.209-.597l1.792.002s.047-.001.052-.047c.002-.019.062-.368-.053-.772zm-16.136.375a1.07 1.07 0 0 1 .145-.423c.11-.167.277-.259.513-.259.235 0 .39.092.502.259.074.111.106.259.119.423h-1.279zm1.782-.375a1.088 1.088 0 0 0-.569-.678 1.299 1.299 0 0 0-.513-.104c-.223 0-.427.037-.592.115a1.16 1.16 0 0 0-.412.315 1.282 1.282 0 0 0-.243.465 2.022 2.022 0 0 0-.079.572c0 .206.027.399.082.572.054.174.141.328.259.455.118.129.27.229.451.299.18.07.399.106.651.105.517-.001.79-.117.902-.179.02-.011.039-.03.015-.086l-.117-.328c-.018-.049-.067-.031-.067-.031-.129.048-.311.133-.736.132-.278 0-.484-.082-.613-.21-.133-.131-.197-.324-.209-.597l1.792.002s.047-.001.052-.047c.002-.019.062-.368-.054-.772zm-5.655 1.549a.373.373 0 0 1-.104-.106.437.437 0 0 1-.053-.233c0-.158.052-.271.16-.348-.002.001.154-.134.519-.129.257.004.487.041.487.041v.815s-.228.049-.484.065c-.365.022-.527-.106-.525-.105zm.713-1.26a4.212 4.212 0 0 0-.28-.008c-.154 0-.302.019-.441.057-.14.037-.266.096-.375.173a.88.88 0 0 0-.26.296.868.868 0 0 0-.095.413c0 .159.027.297.082.409a.716.716 0 0 0 .234.28.982.982 0 0 0 .365.159c.14.032.3.048.474.048.184 0 .367-.015.545-.045.175-.03.391-.074.451-.088.042-.01.084-.02.125-.032.045-.011.041-.058.041-.058v-1.639c0-.36-.096-.626-.285-.791-.188-.165-.466-.248-.824-.248-.134 0-.35.018-.48.044 0 0-.391.076-.552.202 0 0-.036.022-.016.071l.127.341c.015.044.058.029.058.029s.014-.005.03-.014c.345-.188.781-.182.781-.182.193 0 .342.039.443.116.097.075.147.188.147.426v.076a6.72 6.72 0 0 0-.295-.035zm14.454-.923a.048.048 0 0 0-.026-.064 1.59 1.59 0 0 0-.301-.052.89.89 0 0 0-.462.075.814.814 0 0 0-.303.223v-.218c0-.03-.021-.055-.051-.055h-.46c-.03 0-.051.025-.051.055v2.673c0 .03.024.055.054.055h.471a.055.055 0 0 0 .054-.055v-1.335c0-.18.02-.358.06-.471a.66.66 0 0 1 .157-.264.55.55 0 0 1 .221-.133.883.883 0 0 1 .241-.034c.093 0 .196.025.196.025.035.004.054-.018.066-.049.03-.082.118-.327.134-.376z"/><path fill="#fff" d="M210.219 336.487a1.483 1.483 0 0 0-.177-.043 1.427 1.427 0 0 0-.243-.018c-.324 0-.58.091-.759.272-.179.18-.3.453-.36.813l-.022.121h-.407s-.05-.002-.06.052l-.067.373c-.005.035.011.058.058.058h.396l-.401 2.243c-.032.18-.068.329-.108.441a.876.876 0 0 1-.125.255.33.33 0 0 1-.164.127.66.66 0 0 1-.211.03.764.764 0 0 1-.143-.016.382.382 0 0 1-.097-.031s-.047-.018-.065.029c-.015.038-.12.328-.133.364-.012.036.005.063.028.072a1.106 1.106 0 0 0 .426.072c.165 0 .315-.023.44-.068a.824.824 0 0 0 .331-.231c.105-.115.17-.236.233-.401.062-.163.115-.365.157-.601l.404-2.285h.591s.049.002.059-.052l.067-.373c.005-.036-.01-.058-.058-.058h-.573c.003-.013.029-.214.094-.404a.543.543 0 0 1 .126-.191.38.38 0 0 1 .15-.094.708.708 0 0 1 .34-.012c.055.011.077.018.091.022.059.018.067 0 .078-.028l.137-.376c.014-.04-.02-.058-.033-.062zm-8.006 3.876c0 .029-.021.054-.051.054h-.476c-.03 0-.051-.025-.051-.054v-3.825c0-.03.021-.054.051-.054h.476c.03 0 .051.024.051.054v3.825z"/></g><g clip-path="url(#w)"><path fill="#FF7A59" d="M262.096 335.283v-3.384a2.605 2.605 0 0 0 1.502-2.349v-.078a2.606 2.606 0 0 0-2.606-2.606h-.077a2.606 2.606 0 0 0-2.606 2.606v.078a2.607 2.607 0 0 0 1.502 2.349v3.384a7.369 7.369 0 0 0-3.508 1.544l-9.281-7.228a2.88 2.88 0 0 0 .104-.731 2.936 2.936 0 1 0-2.939 2.93 2.907 2.907 0 0 0 1.446-.394l9.138 7.112a7.402 7.402 0 0 0 .114 8.338l-2.78 2.78a2.378 2.378 0 0 0-.695-.113 2.41 2.41 0 1 0 2.413 2.413 2.378 2.378 0 0 0-.113-.695l2.75-2.751a7.414 7.414 0 0 0 11.783-7.38 7.416 7.416 0 0 0-6.147-5.826m-1.14 11.13a3.805 3.805 0 0 1-3.38-5.734 3.803 3.803 0 0 1 3.38-1.871 3.803 3.803 0 0 1 .004 7.603"/></g><g clip-path="url(#x)"><path fill="#2684FF" d="M315.321 325.91h-13.928a6.287 6.287 0 0 0 6.287 6.288h2.566v2.477a6.287 6.287 0 0 0 6.284 6.284v-13.841c0-.667-.541-1.208-1.209-1.208z"/><path fill="url(#y)" d="M308.429 332.852H294.5a6.288 6.288 0 0 0 6.284 6.283h2.566v2.486a6.287 6.287 0 0 0 6.288 6.279v-13.84c0-.667-.541-1.208-1.209-1.208z"/><path fill="url(#z)" d="M301.533 339.785h-13.929a6.288 6.288 0 0 0 6.288 6.288h2.574v2.477a6.288 6.288 0 0 0 6.276 6.284v-13.84c0-.668-.541-1.209-1.209-1.209z"/></g><g clip-path="url(#A)"><path fill="#3777E3" d="m339.945 352.483 4.924-8.53h19.694l-4.924 8.53h-19.694z"/><path fill="#FFCF63" d="M354.716 343.954h9.847l-9.847-17.059h-9.847l9.847 17.059z"/><path fill="#11A861" d="m335.021 343.954 4.924 8.53 9.847-17.06-4.924-8.529-9.847 17.059z"/></g><g clip-path="url(#B)"><path fill="#000" d="M103.735 275.172c-.715 0-1.29.575-1.29 1.29v23.229c0 .715.575 1.291 1.29 1.291h18.067c.715 0 1.291-.576 1.291-1.291v-16.776l-7.098-.645-.645-7.098h-11.615z" opacity=".2"/><path fill="#528FF5" d="M103.735 274.312c-.715 0-1.29.576-1.29 1.291v23.229c0 .715.575 1.29 1.29 1.29h18.067c.715 0 1.291-.575 1.291-1.29v-16.777l-7.098-.645-.645-7.098h-11.615z"/><path fill="#fff" d="M103.735 274.312c-.715 0-1.29.576-1.29 1.291v.516c0-.715.575-1.29 1.29-1.29h11.615l.645 7.097 7.098.129-7.098-.645-.645-7.098h-11.615z" opacity=".2"/><path fill="#A5C5F9" d="M115.35 274.312v6.453c0 .713.577 1.29 1.29 1.29h6.453l-7.743-7.743z"/><path fill="#fff" d="M107.607 285.5v1.598h11.185V285.5h-11.185zm0 3.195v1.598h11.185v-1.598h-11.185zm0 3.196v1.598h11.185v-1.598h-11.185zm0 3.195v1.598h8.134v-1.598h-8.134z"/></g><defs><clipPath id="B"><path fill="#fff" d="M102.444 274.316h20.648v26.67h-20.648z"/></clipPath><clipPath id="p"><path fill="#fff" d="M153.267 329.859h14.817v20.743h-14.817z"/></clipPath><clipPath id="A"><path fill="#fff" d="M335.02 326.895h29.634v25.682H335.02z"/></clipPath><clipPath id="x"><path fill="#fff" d="M287.606 325.91h29.634v29.634h-29.634z"/></clipPath><clipPath id="w"><path fill="#fff" d="M241.18 325.91h27.658v28.646H241.18z"/></clipPath><clipPath id="v"><path fill="#fff" d="M191.791 328.871H223.4v21.731h-31.609z"/></clipPath><clipPath id="a"><rect width="38.743" height="38.743" y="9.961" fill="#fff" rx="19.371"/></clipPath><clipPath id="m"><path fill="#fff" d="M290.321 272.34h24.202v28.646h-24.202z"/></clipPath><clipPath id="n"><path fill="#fff" d="M336.996 274.316h25.682v25.682h-25.682z"/></clipPath><clipPath id="o"><path fill="#fff" d="M50.537 330.848h30.512v18.235H50.537z"/></clipPath><linearGradient id="c" x1="19.533" x2="19.621" y1="21.866" y2="36.764" gradientUnits="userSpaceOnUse"><stop stop-color="#57D163"/><stop offset="1" stop-color="#23B33A"/></linearGradient><linearGradient id="z" x1="302.842" x2="296.03" y1="339.854" y2="346.556" gradientUnits="userSpaceOnUse"><stop offset=".18" stop-color="#0052CC"/><stop offset="1" stop-color="#2684FF"/></linearGradient><linearGradient id="y" x1="309.34" x2="303.45" y1="332.876" y2="339.021" gradientUnits="userSpaceOnUse"><stop offset=".18" stop-color="#0052CC"/><stop offset="1" stop-color="#2684FF"/></linearGradient><linearGradient id="g" x1="165.812" x2="165.812" y1="280.633" y2="286.796" gradientUnits="userSpaceOnUse"><stop stop-color="#263238" stop-opacity=".2"/><stop offset="1" stop-color="#263238" stop-opacity=".02"/></linearGradient><radialGradient id="l" cx="0" cy="0" r="1" gradientTransform="matrix(30.2629 0 0 31.2765 150.9 273.847)" gradientUnits="userSpaceOnUse"><stop stop-color="#fff" stop-opacity=".1"/><stop offset="1" stop-color="#fff" stop-opacity="0"/></radialGradient><filter id="b" width="34.16" height="34.214" x="2.587" y="19.051" color-interpolation-filters="sRGB" filterUnits="userSpaceOnUse"><feFlood flood-opacity="0" result="BackgroundImageFix"/><feColorMatrix in="SourceAlpha" result="hardAlpha" values="0 0 0 0 0 0 0 0 0 0 0 0 0 0 0 0 0 0 127 0"/><feMorphology in="SourceAlpha" radius="1.632" result="effect1_dropShadow_1723_57290"/><feOffset dy="3.264"/><feGaussianBlur stdDeviation="1.632"/><feColorMatrix values="0 0 0 0 0.262745 0 0 0 0 0.333333 0 0 0 0 0.423529 0 0 0 0.04 0"/><feBlend in2="BackgroundImageFix" result="effect1_dropShadow_1723_57290"/><feColorMatrix in="SourceAlpha" result="hardAlpha" values="0 0 0 0 0 0 0 0 0 0 0 0 0 0 0 0 0 0 127 0"/><feMorphology in="SourceAlpha" radius="1.632" result="effect2_dropShadow_1723_57290"/><feOffset dy="6.529"/><feGaussianBlur stdDeviation="4.08"/><feColorMatrix values="0 0 0 0 0.262745 0 0 0 0 0.333333 0 0 0 0 0.423529 0 0 0 0.1 0"/><feBlend in2="effect1_dropShadow_1723_57290" result="effect2_dropShadow_1723_57290"/><feBlend in="SourceGraphic" in2="effect2_dropShadow_1723_57290" result="shape"/></filter></defs></svg>